<?xml version="1.0" encoding="UTF-8"?>
<svg version="1.1" viewBox="0 0 2000 2000" width="2000" height="2000" xmlns="http://www.w3.org/2000/svg">
<path transform="translate(0)" d="m0 0h2e3v2e3h-2e3z" fill="#FCFCFC"/>
<path transform="translate(1586,578)" d="m0 0h17l16 3 23 11 8 8 8 16 5 16 6 26 5 13 6 10 10 9 9 7 7 8 4 10 2 11v11l-3 16-5 14-4 9 103 1 2 33 20 440 1 6 17-8 7-2h9l8 3 5 4 2 4v12l-7 17-13 26-9 16-12 23-8 19-4 16-2 15-2 21-3 16-6 15-5 10-10 15-11 14-4 6h-2l-2 5-4 5h-2l-2 4-12 16-8 12-9 15-12 25-5 12h-2l-1 5-3 9h46v31h-14l2 15 6 62-4-2-14-12-12-11-8-7-10-9-11-9-6-5v-2l-4-2-11-10-8-7-10-9-8-7-10-9-7-6v-1h48l-3-16v-6h-2l-7-16-7-11-11-13-11-11-14-11-27-18-17-10v-47-3-46l-1-65-13-1v-23h-31l-1 2-1 21-1 1h-11l-1 11h-4l-9-16-10-19-52-1 2 11 12 41 13 41 16 49 13 38 10 30 9 25 13 37 19 53 16 45v3l-21 3-185 20-21 1-8-17-10-24-1 71-2 3 2 2v3l9-2 10 1-3 3-25 13-4 1v2l-14 8-11 10-1 6 5 3 4 1h33l28-3 40-6 54-10 68-14 49-11h4l3 35 1 18v19l-2 3 116 1h67l-132-1 1-15 17-147 5 2 18 13 16 12 18 13 19 14 16 12 18 13 6 4h13l12 3 8 4 9 8 6 10 3 12v8l-3 12-6 10-9 8-10 5-6 2-227 1-45 4-73 5-92 5-48 2-42 1-10-2-2-5v-10h-243l2-1 1-3h48v-117l-12-2-48-11-15-4-4-2-1-2v-10l8-16 8-9 8-5 24-7 31-8 1-467h-115l11 21 6 18 3 16 2 30v21l-2 41-5 51-7 52-10 62-12 64-10 50-14 64-6 26-9-1-80-19-57-14-56-13-3-3 24-145 14-91 9-65 4-33 1-19-2-6-8-4-11-3-44-7-11-2 3 9 4 23 4 40 2 41 1 38v149l-2 98-2 58-1 1-17 1 1 3h-11l-17-1h-23l-39 3h-12l2-2 10-4-71-1v97h163l59 1 39 1v1l-21 1h-157l-66-1-17-1 1 10 14 1 6 2v2l248-1h215l15 3v1h-418l-337-1-63-1v-749l59-1h41v-16l1-16v-16l-13-3v-1h10l19 3 20 2 32 2h61l4-10 6-16 3-1 2-9 15-43 3-9 1-6h2l1-5 8-24 10-29 2-13 2-6-16 4-25 5-21 5-27 6-15 3-12 3-6 2h-5l1-2 21-6 17-4 16-3 7-2 16-42 5-11 7-20 2-1-1 6-3 7v3h2l2-5 1 2-4 8-3 3h-2l-3 10-13 39 20-4 30-8 5-1h7l-2 9 13-4 22-8 25-6 8-1h16l20 4 23 7 19 8 8 4 11 9 3 3v4l136-1h36l-7-48-1-2-5-35-2-6v-8l13-11 16-11 10-4 23-5 9-1 5-40 100 12 7 1-1 15-6 50 4 4 1 3v7l-4 8-4 5v3h11l6 3 3 3 1 8-5 10-7 7-2 1 10 2 4 4 1 2v7l-7 8-14 9-19 9-25 9-3 1v9l13 114 3 27v9h-13l-1-2-17-149v-6h-255l1 2 17 149v6h69v12h526l12-14 10-9 4-3h3v-2l16-8 16-5 25-4 7 1h11l14-3v2l-5 4-4 7 1 8 4 3h12l22-7 2 1-9 7-5 6-1 5 2 4 9 3 16-1 21-6 10-3 11-5 7-2 14 14 10 7 14 8 16 6 11 2 55 4 5 1-11-23-34-68-11-23-6-12-33-11-10-3 1-14 1-5 1-17 5-19 7-43-21-2 2-4 12-17 6-10 3-11v-6l-4 15-8 14-13 18-2-1 7-11 10-16 5-12 1-4v-10l-4-10-7-10-8-14-2-7v-15l4-13 7-13 11-14 7-9 1 3-12 16-8 13-5 12-1 4v15l2-14 5-12 9-12 9-10 3-2 4 12 6 11 5 6 10 7 11 5 13 3h19l14-4 11-6 10-9 6-7 1 3-7 14-9 12-7 7-14 10-7 4-4 8v44l9-9 7-6h2l12 24 1 1 10-16 28-42-1-4-10-11-6-34v-3l10-3 8-7 7-11 3-8v-11l-9-1-12 6-5 2-4-6-2-7v-7l-5-2-11-9-10-12 2 13-10-3-10-5 1 4 4 2-11-1-6-3-2-5-8-7-7-8-5-10-3-12-6 6h-2l-2 4-7 9-4 5 1-9 6-18 6-11 9-10 8-6 12-5 6-1h18z" fill="#19313B"/>
<path transform="translate(1586,578)" d="m0 0h17l16 3 23 11 8 8 8 16 5 16 6 26 5 13 6 10 10 9 9 7 7 8 4 10 2 11v11l-3 16-5 14-4 9 103 1 2 33 20 440 1 6 17-8 7-2h9l8 3 5 4 2 4v12l-7 17-13 26-9 16-12 23-8 19-4 16-2 15-2 21-3 16-6 15-5 10-10 15-11 14-4 6h-2l-2 5-4 5h-2l-2 4-12 16-8 12-9 15-12 25-5 12h-2l-1 5-3 9h46v31h-14l2 15 6 62-4-2-14-12-12-11-8-7-10-9-11-9-6-5v-2l-4-2-11-10-8-7-10-9-8-7-10-9-7-6v-1h48l-3-16v-6h-2l-7-16-7-11-11-13-11-11-14-11-27-18-17-10v-47-3-46l-1-65-13-1v-23h-31l-1 2-1 21-1 1h-11l-1 11h-4l-9-16-10-19-52-1 2 11 12 41 13 41 16 49 13 38 10 30 9 25 13 37 19 53 16 45v3l-21 3-185 20-21 1-8-17-10-24-5-11-16-39-4-10v-3h-2v-2l-12-2-113-24-28-6-11-2v6l-2 2v-9l-4-1v-12l3-31 2-13 5-35 3-24 4-24 7-43 7-37 6-29 5-23 8-33 2-9 12-42 6-20 7-20 10-25 7-17 8-16 12-22h2l1-4 4-6 1-3-28-1v-1l31-1 12-14 10-9 4-3h3v-2l16-8 16-5 25-4 7 1h11l14-3v2l-5 4-4 7 1 8 4 3h12l22-7 2 1-9 7-5 6-1 5 2 4 9 3 16-1 21-6 10-3 11-5 7-2 14 14 10 7 14 8 16 6 11 2 55 4 5 1-11-23-34-68-11-23-6-12-33-11-10-3 1-14 1-5 1-17 5-19 7-43-21-2 2-4 12-17 6-10 3-11v-6l-4 15-8 14-13 18-2-1 7-11 10-16 5-12 1-4v-10l-4-10-7-10-8-14-2-7v-15l4-13 7-13 11-14 7-9 1 3-12 16-8 13-5 12-1 4v15l2-14 5-12 9-12 9-10 3-2 4 12 6 11 5 6 10 7 11 5 13 3h19l14-4 11-6 10-9 6-7 1 3-7 14-9 12-7 7-14 10-7 4-4 8v44l9-9 7-6h2l12 24 1 1 10-16 28-42-1-4-10-11-6-34v-3l10-3 8-7 7-11 3-8v-11l-9-1-12 6-5 2-4-6-2-7v-7l-5-2-11-9-10-12 2 13-10-3-10-5 1 4 4 2-11-1-6-3-2-5-8-7-7-8-5-10-3-12-6 6h-2l-2 4-7 9-4 5 1-9 6-18 6-11 9-10 8-6 12-5 6-1h18z" fill="#0F1E23"/>
<path transform="translate(857,710)" d="m0 0 100 12 7 1-1 15-6 50 4 4 1 3v7l-4 8-4 5v3h11l6 3 3 3 1 8-5 10-7 7-2 1 10 2 4 4 1 2v7l-7 8-14 9-19 9-25 9-3 1v9l13 114 3 27v9h-13l-1-2-17-149v-6h-255l1 2 17 149v6h69v12h336v1h-416l-2-4-3-27-40-7-13-3h-11l-10 2-11 1-2 1-26 3-2 1-28 3-20 3-46 6-27 3-21 3-27 3-29 4-25 3-7 1-2 4h154v748l-164 1v1h-54l-63-1v-749l59-1h41v-16l1-16v-16l-13-3v-1h10l19 3 20 2 32 2h61l4-10 6-16 3-1 2-9 15-43 3-9 1-6h2l1-5 8-24 10-29 2-13 2-6-16 4-25 5-21 5-27 6-15 3-12 3-6 2h-5l1-2 21-6 17-4 16-3 7-2 16-42 5-11 7-20 2-1-1 6-3 7v3h2l2-5 1 2-4 8-3 3h-2l-3 10-13 39 20-4 30-8 5-1h7l-2 9 13-4 22-8 25-6 8-1h16l20 4 23 7 19 8 8 4 11 9 3 3v4l136-1h36l-7-48-1-2-5-35-2-6v-8l13-11 16-11 10-4 23-5 9-1z" fill="#284B56"/>
<path transform="translate(1315,165)" d="m0 0h19l14 2 15 4 13 5 17 11 10 9 9 10v2h2l8 14 6 16 4 15 1 16-1 21-6 20-8 16-6 9-12 13-8 6-11 8-14 6-14 4-3 1-2 7-8 16-5 9 9 1 1 3-1 3h2l-1 5-2 1-2 7 3 1-1 4h-3l-1 7 2 1-1 5h-3l-2 13-8-1v250l-488 2-13 17-14 18-13 17-8 11h-1v-354l1-108 436-1-4-14-2-14v-15l1-11 4-15 6-15 9-14 8-10 7-8 15-11 15-8 10-4z" fill="#FCFCFC"/>
<path transform="translate(926,1160)" d="m0 0h115v467l-8 3-39 10-13 5-7 6-7 10-5 11v12l11 3 68 16v117l-48 1-3 3-10-1-11-2h-463l-1-2-5-1-14-1-1-1v-10l83 1h157l-18-1-59-1-163-1v-97h71l1 2-11 4h10l39-3h23l28 2-2-4 18-1 2-58 2-98v-149l-2-61-2-31-4-33-4-20-1-6 25 3 34 6 12 4 5 4 1 9-2 25-9 68-15 98-17 104-9 55 15 4 55 13 49 12 80 19 5 1 1-9 12-53 13-62 13-69 10-60 8-57 5-47 2-27 1-26v-21l-2-30-4-20-6-16-9-17z" fill="#8E5800"/>
<path transform="translate(1677,683)" d="m0 0h2l6 7 12 9 7 8 3 6v3l3-1 2 11v11l-3 16-5 14-4 9 103 1 2 33 20 440 1 6 17-8 7-2h9l8 3 5 4 2 4v12l-7 17-13 26-9 16-12 23-8 19-4 16-2 15-2 21-3 16-6 15-5 10-10 15-11 14-4 6h-2l-2 5-4 5h-2l-2 4-12 16-8 12-9 15-12 25-5 12h-2l-1 5-3 9h46v31h-14l2 15 6 62-4-2-14-12-12-11-8-7-10-9-11-9-6-5v-2l-4-2-11-10-8-7-10-9-8-7-10-9-7-6v-1h48l-3-16v-6h-2l-7-16-7-11-11-13-11-11-14-11-27-18-17-10v-47-3-46l-1-65-13-1v-23h-31l-1 2-1 21-1 1h-11l-1 11h-4l-9-16-10-19-54-1-5-20-1-6v-14l4-4 9-3 9-1h44l19 1 36 1h59l26-2 22-4 21-6 21-9 14-9 6-5 2-3h2l2-4 8-11 8-16 6-18 3-15 2-21v-19l-2-25-5-29-3-14 1-5-11-39-7-26-7-23-8-26-12-36-9-26v-6h14v-9l-3-16-7-13-12-14-4-7 1-6h-2v-8l4-10 9-14 6-12 4-13v-22l-6-12-4-5-11-9-9-11z" fill="#D08F00"/>
<path transform="translate(612,1160)" d="m0 0h313v2h2l10 19 6 18 3 16 2 30v21l-2 41-5 51-7 52-10 62-12 64-10 50-14 64-6 26-9-1-80-19-57-14-56-13-3-3 24-145 14-91 9-65 4-33 1-19-2-6-8-4-11-3-34-6-7-9-8-12-2-4 12 1 31 5 28 5 18 5 9 4 3 3 2 12v14l-2 30-7 56-7 44-6 36-8 47-11 65-3 17 2 1 1-9 7-33 10-56 6-36 8-51 9-66 3-28 1-15v-18l-2-11-4-5-13-5-30-7-43-7-18-3-7-11-34-51z" fill="#0F1E24"/>
<path transform="translate(485,1160)" d="m0 0h109l9 10 11 14v2h2l7 11 9 13 8 14 8 15 5 11 4 16 4 26 3 31 2 41 1 38v149l-2 98-2 58-1 1-17 1 1 3h-11l-17-1h-23l-39 3h-12l2-2 10-4-72-1 1-42 91-1 40-1 23-1h15v-2h-169z" fill="#0F1E24"/>
<path transform="translate(426,700)" d="m0 0h2l-2 4h-2l-2 6 17 25 20 30 11 17 3-4 14-25h4l16 15 4 3v-51l1-6 5 2 15 9 22 13 27 16 11 7 11 6 13 8 11 6 20 11 13 7h8l56-14 41-11 7-2h6l2 1v8l2 1v8l2 6 5 35 2 10 5 33v7l2 1h-174l-2-5-9-8-6-4-7-3-23-9-21-6-16-3h-16l-18 3-17 5-26 9-7 1 2-9-20 4-25 7-17 2 2-10 13-37 1-2h2l1-3 2-1 2-6-3 3-1-4 4-10-2 4-7 19-5 11-14 37-8 3-16 3-32 8-6 2 8-1 5-2 9-2 39-8 15-4 25-5 11-3 9-2h5l-1 6-2 13-11 32-7 21-2 5h-2l-1 10-4 10-16 47-3 3-6 18-3 6-1 1h-61l-43-3-24-3-4-1h-7l10 2 1 1v16l-2 32h-40v-19l1-24v-19l-4-5-3-8v-20l6-22 4-10 2-24 6-132 1-13 106-1 16-17 7-8 8-7 4-4h2l2-4 10-9 6-5h3l2-4 8-7 10-8z" fill="#FCD607"/>
<path transform="translate(1367,1025)" d="m0 0h2v2l-5 4-4 7 1 8 4 3h12l22-7 2 1-9 7-5 6-1 5 2 4 9 3 16-1 21-6 10-3 11-5 7-2 14 14 10 7 14 8 16 6 11 2 55 4 7 1 3 6v3h35l29-1 26-3 19-4 15-6 5-5 4-8 3-7h3l2 20v38l-3 21-4 15-6 16-6 10-9 12-11 9-14 8-14 6-21 5-16 2h-40l-23-3-30-7-27-9-20-8-15-7-12-5-17-9-32-16-23-12-28-14-21-9-17-6-20-5-8-1h-28l-12 2-12 4-6 6-10 5-6 5-6 9-5 10-4 14-3 22v36l3 32 6 40 12 56 9 38 8 31 7 24 7 25 7 23 10 33 3 9v4l-16-4-39-10-16-4-37-8-16-3h-7l34 9 58 14 28 6 13 3 9 26 7 19v3l-10-1-113-24-28-6-11-2v6l-2 2v-9l-4-1v-12l3-31 2-13 5-35 3-24 4-24 7-43 7-37 6-29 5-23 8-33 2-9 12-42 6-20 7-20 10-25 7-17 8-16 12-22h2l1-4 4-6 1-3-28-1v-1l31-1 12-14 10-9 4-3h3v-2l16-8 16-5 25-4 7 1h11z" fill="#0F1E23"/>
<path transform="translate(857,710)" d="m0 0 100 12 7 1-1 15-6 50 4 4 1 3v7l-4 8-4 5v3h11l6 3 3 3 1 8-5 10-7 7-2 1 10 2 4 4 1 2v7l-7 8-14 9-19 9-25 9-3 1v9l13 114 3 27v9h-13l-1-2-17-149v-6h-255l1 2 17 149v6h69v12h336v1h-416l-2-4-3-27-40-7-13-3h-11l-10 2-11 1-2 1-26 3-2 1-28 3-20 3-46 6-27 3-21 3-27 3-29 4-37 4h-11v-10l3-20 2-12 22 1 42 2h50l3-16 5-13 3-1 2-9 15-43 3-9 1-6h2l1-5 8-24 10-29 2-13 2-6-16 4-25 5-21 5-27 6-15 3-12 3-6 2h-5l1-2 21-6 17-4 16-3 7-2 16-42 5-11 7-20 2-1-1 6-3 7v3h2l2-5 1 2-4 8-3 3h-2l-3 10-13 39 20-4 30-8 5-1h7l-2 9 13-4 22-8 25-6 8-1h16l20 4 23 7 19 8 8 4 11 9 3 3v4l136-1h36l-7-48-1-2-5-35-2-6v-8l13-11 16-11 10-4 23-5 9-1z" fill="#D25848"/>
<path transform="translate(1132,1565)" d="m0 0 11 1 38 8 94 20 21 5v2h2l16 40 5 12 4 9-1 73-2 3 2 2v3l9-2 10 1-3 3-25 13-4 1v2l-14 8-11 10-1 6 5 3 4 1h33l28-3 40-6 54-10 68-14 49-11h4l3 35 1 18v19l-2 3 116 1h67l-132-1 1-15 17-147 5 2 18 13 16 12 18 13 19 14 16 12 18 13 6 4h13l12 3 8 4 9 8 6 10 3 12v8l-3 12-6 10-9 8-10 5-6 2-227 1-45 4-73 5-92 5-48 2-42 1-10-2-2-5v-10h-243l2-1 1-3h48v-117l11 2 27 6 25 5 13 3 40 8 21 4 14 3 19 3 21 4 36 6 7 1 17 1 2-5 9-27 4-16 3-10 5-19-15-2-104-6-87-6-36-4-20-4-12-5-3-3v-5l7-6 16-7 24-7 36-8h4l1-11z" fill="#19323B"/>
<path transform="translate(1444,1307)" d="m0 0 53 1 5 8 8 16 7 12h2l1-11 1-1h11l1-21 2-3h25l6 1v23h8l5 1 1 4 1 70v37 3l-1 47 5 2 17 10 22 15 11 9 10 9 9 9 11 15 7 14 2 7h2l3 18v4l-47 1 13 12 8 7 14 12 13 12 9 7v2l4 2 11 10 8 7 10 9 8 7 15 13 9 7v2l4 2 14 13 7 6-4 6-10-1h-10l-17-12-19-14-16-12-18-13-38-28-8-5-1 16-16 140-1 6h132l3 2h-70l-119-1 4-4v-19l-3-43v-10l-62 14-90 18-48 8-31 4-12 1h-33l-8-3-2-2 1-6 8-8 16-10h2v-2l16-8 15-8-9-1-9 1-3-6 2-2 1-73 2 2 11 26 6 13v2l215-23 12-1-19-54-13-36-14-39-21-60-28-84-16-51-12-42z" fill="#D8D8D7"/>
<path transform="translate(926,1160)" d="m0 0h115v467l-8 3-39 10-13 5-7 6-7 10-5 11v12l11 3 68 16v117h-48l1-4v-22l-4-15-6-10-8-8-8-7-7-7-8-7-13-12-8-7-2-3 1-2-9-3-5-5v-4l-9-4-5-4v-2h2l-3-3-9-4-7-6-21-6-60-15v-1l9 1 63 15 5 1 1-9 12-53 13-62 13-69 10-60 8-57 5-47 2-27 1-26v-21l-2-30-4-20-6-16-9-17z" fill="#FCFCFC"/>
<path transform="translate(1503,693)" d="m0 0 1 3-12 16-8 13-5 12-1 4v15l2-14 5-12 9-12 9-10 3-2 4 12 6 11 5 6 10 7 11 5 13 3h19l14-4 11-6 10-9 6-7 1 3-7 14-9 12-7 7-14 10-7 4-4 8v44l9-9 7-6 2 1 1 6 11 22v2h2l2-5 7-10 8-13 15-24 5-9 2-4 5 2 7 5v2l4 2 10 12 9 15 11 23 5 9 4 8 1 14-2-3 3 12 9 30 11 41 7 31 5 30 2 18v28l-3 16-4 9-5 7-14 6-16 4-32 4-29 1h-27l-8-1-3-9h-2l-11-23-34-68-11-23-6-12-33-11-10-3 1-14 1-5 1-17 5-19 7-43-21-2 2-4 12-17 6-10 3-11v-6l-4 15-8 14-13 18-2-1 7-11 10-16 5-12 1-4v-10l-4-10-7-10-8-14-2-7v-15l4-13 7-13 11-14z" fill="#284B56"/>
<path transform="translate(1315,165)" d="m0 0h19l14 2 15 4 13 5 17 11 10 9 9 10v2h2l8 14 6 16 4 15 1 16-1 21-6 20-8 16-6 9-12 13-8 6-11 8-14 6-14 4-3 1-2 7-8 16-5 9 9 1 1 3-1 3h2l-1 5-2 1-2 7 3 1-1 4h-3l-1 7 2 1-1 5h-3l-2 13-8-1v250l-488 2-13 17-14 18-13 17-8 11h-1v-354l1-108 436-1-4-14-2-14v-15l1-11 4-15 6-15 9-14 8-10 7-8 15-11 15-8 10-4zm-523 166 1 429 5-5 12-15 20-26 8-10 488-1v-249l-4 2-9 6-6 2-13 1-15-3-12-6-3-1-2-4-5-7-2-5-10-2 1-5-3-1 1-4h3l1-9h-2v-4h4l1-9h-2v-4l4-1 2-12 9 1 1-2-1-30-1-5-10-8-7-8h-2l-2-4-2-1z" fill="#FCD809"/>
<path transform="translate(1586,578)" d="m0 0h17l16 3 23 11 8 8 8 16 5 16 6 26 5 13 6 10 10 9 9 7 7 8 3 7v4h-2l-6-12-10-9-9-7-3-3 1 2 9 10 10 8 7 11 2 5v22l-4 13-8 16-9 14-2 6-1 8h2v6l6 9 12 15 5 10 3 16v9l-1 1-14-1 3 12 12 34 8 25 5 16 7 24 7 25 7 24 6 22-1 7 5 22 4 28 1 16v19l-2 21-4 18-5 15-8 16-8 11-9 10-13 9-16 8-19 7-21 5-21 3-18 1h-59l-36-1-19-1-1-1-36-1-12-9v-2l-10-1-31 1 2 14 7 27 5 18 7 24 6 19 6 20 8 26 7 22 6 19 17 54 8 25 14 43 18 54-1 4-3-3-7-19-11-31-16-48-14-43-12-37-15-47-7-24-6-19-9-32-6-21-8-35v-12l4-2 15-2 14-1-4-4-20-15-56-43-9-7-16-12-18-14-11-8-3-2-21-4-20-1-18 2-13 5-8 7-6 9-4 11-3 14-1 9v44l3 32 4 28 8 43 7 33 10 42 12 46 10 36 7 23 6 21 12 38 8 25v2h-2v-2l-3-1-1-6-9-24-5-16v-2l-14-2-44-10-64-16-11-3-1-2h8l40 8 27 6 18 5 37 10 2 1-5-17-9-29-7-23-8-28-7-26-9-34-12-52-6-30-6-36-3-27-1-13v-36l3-22 5-16 6-12 8-9 10-6 5-1v-4l9-4 11-3 8-1h28l16 3 19 5 19 8 16 7 44 22 42 22 17 8 16 7 19 8 19 7 25 7 25 5 16 2h40l22-3 18-5 19-9 11-8 4-4h2l2-4 9-12 8-19 4-13 3-16 1-10v-38l-2-20h-2l1-12v-28l-4-31-6-31-8-32-9-33-9-29-1-9 2 3-1-11-5-10-4-7-13-27-8-12-10-12-2-1v-2l-4-2-8-5-1 4-5 9-4 7-2 1-2 5-7 11-9 14-6 9-3 5h-2l-9-17-4-10 1-3 10 19 3 5 10-16 28-42-1-4-10-11-6-34v-3l10-3 8-7 7-11 3-8v-11l-9-1-12 6-5 2-4-6-2-7v-7l-5-2-11-9-10-12 2 13-10-3-10-5 1 4 4 2-11-1-6-3-2-5-8-7-7-8-5-10-3-12-6 6h-2l-2 4-7 9-4 5 1-9 6-18 6-11 9-10 8-6 12-5 6-1h18z" fill="#0F1E24"/>
<path transform="translate(1639,1658)" d="m0 0 5 2 18 13 16 12 18 13 19 14 16 12 18 13 6 4h13l12 3 8 4 9 8 6 10 3 12v8l-3 12-6 10-9 8-10 5-6 2-227 1-45 4-73 5-92 5-48 2-42 1-10-2-2-5v-10h-243l2-1 1-3h35l18 1 187 1 3-11 5-11 5-5 10-7 10-6 16-8 12-7 5-8 8-9 11-6 6-2 9-1 8 1-3 3-25 13-4 1v2l-14 8-11 10-1 6 5 3 4 1h33l28-3 40-6 54-10 68-14 49-11h4l3 35 1 18v19l-2 3 116 1h67l-132-1 1-15z" fill="#101E24"/>
<path transform="translate(857,710)" d="m0 0 100 12 7 1-1 15-6 50 4 4 1 3v7l-4 8-4 5v3h11l6 3 3 3 1 8-5 10-7 7-2 1 10 2 4 4 1 2v7l-7 8-14 9-19 9-25 9-3 1v9l13 114 3 27v9h-13l-1-2-17-149v-6h-255l1 2 17 149v6h69v12h336v1h-416l-2-4-15-130-2-27-2-16-2-11v-4h174l-7-48-1-2-5-35-2-6v-8l13-11 16-11 10-4 23-5 9-1z" fill="#132125"/>
<path transform="translate(1300,819)" d="m0 0h62v142l25-9 25-7 11-2 21 1 25 5 12 3 1-2v3l10 2 33 11 10 19 22 45 30 60v3l-60-4-14-3-13-5-11-6-14-10-13-13-9 3-13 5-15 5-12 3-16 1-9-3-3-5 2-7 8-8 4-3-15 5-7 2h-12l-5-4-1-8 6-9 4-2v-2l-9 3-5 1h-11l-7-1-25 4-14 4v-216z" fill="#FDB8AB"/>
<path transform="translate(661,364)" d="m0 0h11l15 2 17 5 2 1v2l6 2 13 8 9 7v2h2v2h2v2h2l9 12 7 12 6 17 2 10v28l-4 16-5 12-7 12-8 10-11 11-14 9-5 4-15 6-15 3h-25l-15-3-15-6-11-6-5-2-46 12h-2l1-5 18-40-8-24-2-11v-22l4-20 6-15 9-14 9-10 7-7 10-7 15-8 16-5z" fill="#FCFCFC"/>
<path transform="translate(1575,1307)" d="m0 0h40l43 1 5 5 11 15v3h2v3h2l10 17 4 21 2 8 5 32 3 33v29l-4-4-6-11-7-13-8-16-8-15-4-10 6 18 7 15 5 12 3 5v3h2l2 4v3h2l10 16 1 1v26l-3 47-5 46-1 5h-9l-2-19-1-1-3-21-8-36-9-29-6-15-4-15-7-25-3-8-5-13-4-9-7-13-2-3v-3h-2l6 12v4h2l4 11 4 8 5 15 4 10 3 9-1 3-7-15v-2h-2l-3-9h-2l-2-7h-2l-3-5v-3h-2l-3-5-6-9-6-8v-2l-3-1-7-10-5-4-7-8-5-5-2-1 4 6 5 5 2 5 3 1 12 16 6 9 4 7v2h2l7 12 6 11 9 18 3 7 11 28 8 25v3h-2l-7-9-14-14-16-12-18-13-12-8-12-9-2-1 2 4 10 7 11 8v2l5 2 12 9 13 10 4 3v2l5 2 15 15v2h2l7 9 3 11 3 14 3 16v5h-2l-7-16-7-11-11-13-11-11-14-11-27-18-17-10v-47-3-46l-1-65-13-1v-24z" fill="#FAD409"/>
<path transform="translate(1338,784)" d="m0 0 17 1 6 1-4 7-9 12-3-4v-2l-13 5-28 13-27 12-24 11-9 10-4 5 44 1v187l-4 1v2l-7 4-13 12-9 11h-111l2-1v-135l18-1h45l1 1v135h14l-1-194-10 10-7 8-12 13-11 12-5 6-9-3-80-34-23-10 2-6 4-1 44 19 31 13 26 11 4-1 14-15 7-8 14-15 9-10 22-24 10-11 28-13 29-13 34-15z" fill="#FCD809"/>
<path transform="translate(934,381)" d="m0 0h22l20 4 15 6 14 8 10 8 12 12 7 10 8 14 6 17 3 14 57 1v-11h22v23h-22v-10l-57 1v9l-106 1-11 12-7 9h-2l-2 4-13 15-24 28-9 11-4-2-9-9-10-14-8-16-5-17-2-14v-17l3-18 6-17 9-16 9-11 11-11 13-9 16-8 16-5z" fill="#284B56"/>
<path transform="translate(1050,1625)" d="m0 0h4v3l-12 6-3 3v5l8 5 15 4 26 4 49 4 91 6 72 4 16 2-7 28-4 14-9 29-4 7h-17l-32-5-29-5-14-3-19-3-17-4-23-4-16-4-16-3-21-4-13-3-32-7-54-12-23-6-4-2-1-2v-10l8-16 8-9 8-5 24-7 31-8 5-1z" fill="#101E23"/>
<path transform="translate(1677,683)" d="m0 0h2l6 7 12 9 7 8 3 6v3l3-1 2 11v11l-3 16-5 14-4 9 63 1 1 7 5 114 5 117 3 67 4 94 3 65v19h-127l-1-2 21-5 19-7 16-8 10-7 5-4 2-3h2l2-4 8-11 8-16 6-18 3-15 2-21v-19l-2-25-5-29-3-14 1-5-11-39-7-26-7-23-8-26-12-36-9-26v-6h14v-9l-3-16-7-13-12-14-4-7 1-6h-2v-8l4-10 9-14 6-12 4-13v-22l-6-12-4-5-11-9-9-11z" fill="#A56800"/>
<path transform="translate(488,521)" d="m0 0h26l15 5 9 7 7 8 6 12 3 13 3 15v5l5 2 5 5 4 9v15l-4 8-5 5-2 22-4 15-7 11-10 9-13 6-9 2h-11l-2 12-12 26-5 10-7-6-43-43 1-10 7-34 1-2-6-2-6-7-6-12-1-6h-2l-1 5-4-1 4-8 1-1 1-9 4-5h7l-1-3v-31l4-14 6-10 7-8 10-7 12-5z" fill="#18313B"/>
<path transform="translate(1586,578)" d="m0 0h17l16 3 23 11 8 8 8 16 5 16 6 26 5 13 6 10 10 9 9 7 7 8 3 7v4h-2l-6-12-10-9-9-7-3-3 1 2 9 10 10 8 7 11 2 5v22l-4 13-8 16-9 14-2 6-1 8h2v6l6 9 12 15 5 10 3 16v9l-1 1-14-1 3 12 12 34 8 25 5 16 7 24 7 25 7 24 6 22v3l-2 1h-12l-7-2-1 3-1-24-4-31-6-31-8-32-9-33-9-29-1-9 2 3-1-11-5-10-4-7-13-27-8-12-10-12-2-1v-2l-4-2-8-5-1 4-5 9-4 7-2 1-2 5-7 11-9 14-6 9-3 5h-2l-9-17-4-10 1-3 10 19 3 5 10-16 28-42-1-4-10-11-6-34v-3l10-3 8-7 7-11 3-8v-11l-9-1-12 6-5 2-4-6-2-7v-7l-5-2-11-9-10-12 2 13-10-3-10-5 1 4 4 2-11-1-6-3-2-5-8-7-7-8-5-10-3-12-6 6h-2l-2 4-7 9-4 5 1-9 6-18 6-11 9-10 8-6 12-5 6-1h18z" fill="#111F23"/>
<path transform="translate(1322,1662)" d="m0 0 2 2 11 26 6 13v2l215-23h6l4 43 1 11v9l-30 7-46 10-75 15-48 8-31 4-12 1h-33l-8-3-2-2 1-6 8-8 16-10h2v-2l16-8 15-8-9-1-9 1-3-6 2-2z" fill="#FDB7AC"/>
<path transform="translate(1639,1658)" d="m0 0 5 2 18 13 16 12 18 13 19 14 16 12 18 13 6 4h13l12 3 8 4 9 8 6 10 3 12v8l-3 12-6 10-9 8-10 5-6 2h-54v-1l35-1-132-1 1-15z" fill="#284C56"/>
<path transform="translate(791,308)" d="m0 0h351l86 1 11 22h-447l1 13 1 415 11-14 14-18 10-13 8-10 1-1h488l-1-35v-116l1-98-11 8-8 3-13 1-15-3-12-6-5-5-6-8-1-5-10-2v-5l-2-1 1-4h3l1-9h-2v-4h4l1-9h-2v-4l3-1 3-12 11 1 4 2 18 3 10 3 14 2 14 4 13 2 6 2-1 5h2l-1 5-2 1-2 7 3 1-1 4h-3l-1 7 2 1-1 5h-3l-2 13-8-1v250l-488 2-13 17-14 18-13 17-8 11h-1v-354z" fill="#18313B"/>
<path transform="translate(1132,1565)" d="m0 0 11 1 38 8 94 20 21 5v2h2l16 40 5 12-1 10-2 7h-16l-104-6-87-6-36-4-20-4-12-5-3-3v-5l7-6 16-7 24-7 36-8h4l1-11z" fill="#FDB7AC"/>
<path transform="translate(598,909)" d="m0 0 7 6 16 13 4 2v2h3l10 86 2 17v6l-12-1-37-7-4-1h-11l-10 2-11 1-2 1-26 3-2 1-28 3-20 3-46 6-27 3-21 3-27 3-29 4-37 4h-11v-10l3-20 2-12 22 1 42 2h50l2-9 6-16 18-4 20-3h8l25 5 29 2h11l14-1 16-3 9-4 8-5 5-8h2l1-15 10-9 4-5 1-3v-10l-4-10-1-4 10-6 4-6z" fill="#FAD407"/>
<path transform="translate(653,1251)" d="m0 0 25 3 34 6 12 4 5 4 1 9-2 25-9 68-15 98-17 104-9 54-13 59h-1v-36l2-98v-149l-2-61-2-31-4-33-4-20z" fill="#FBFBFB"/>
<path transform="translate(1535,614)" d="m0 0h1l3 13 5 10 11 12 4 3 2 5 5 2 9 1-3-3-1-3 5 2 11 5 5 2-3-12 1-3 10 13 11 9 5 3 3 14 3 5 5-2 12-6 7 1 3 3v9l-5 12-7 9-7 6-5 2h-5l4 20 3 17 11 12-1 4-25 38-13 20-3-4-10-20v-2l-11 9-7 7h-1v-46l6-9 12-7 11-9 8-9 6-9 5-11-1-1-7 8-8 7-13 7-12 3h-19l-16-4-13-7-6-5-8-11-5-11-2-6-8 8-11 15-5 12-2 16-2-2v-15l4-12 6-11 10-14 6-8 2-24 5-21 5-14 8-11 4-5z" fill="#FDB7AB"/>
<path transform="translate(1659,1308)" d="m0 0 4 1 4 4 4 7 6 8 5 9 2 2-7-26-1-5 5 1 5 12 7 27 3 11 6 31v8h2v-69l-1-20 2-1 1 3 2 27v38l-1 26v33l1 8 1 59-2 40-5 52-2 12h9l4-18 3-14v-28l2-28 5-27h2l-1 9-3 17-2 25v21l5-22 6-26 8-32 5-17 5-19 7-21 1-14 4-23 6-24 7-21 5-13 2-2-2 9-6 18-2 9-3 9-5 24-3 12v4l7-19 6-12 4-10 5-8 5-10 12-22 8-13 6-10 3-1-2 5-2 4h-2l-1 5-1 2h-2l-3 9h-2l-3 9h-2l-3 9-10 19-4 8-4 11-4 8-4 12-4 10-4 14-3 8-7 27-6 21-6 26v3l12-15 10-13 7-9 9-12 7-10 10-14 10-16 1 2-3 6-8 13-8 11-4 7h-2l-2 4-4 6-9 11-4 7-5 6-2 1-2 4-4 4-7 10-6 8-4 18-5 18-5 23-2 7-2 10h46v31h-14l2 15 6 62-4-2-14-12-12-11-8-7-10-9-11-9-6-5v-2l-4-2-11-10-8-7-10-9-8-7-10-9-7-6v-1h48l-3-16-2-16-3-16-3-13-3-8-5-6v-2h-2l-7-8-8-8-5-3-5-5-13-10-8-6-8-5-4-4-15-11-4-4v-2l5 2 12 9 16 11 19 14 11 9 15 15 3 4v2h2l-12-36-9-22-7-15-8-15-8-14v-2h-2l-5-9-7-10-9-12-5-6-4-5v-2l-4-2-2-5 5 2 9 10 5 5 8 11 4 4 6 8 6 9 1 4h2l3 6v2h2l2 7h2l3 6v3h2l7 14-6-18-3-8-6-15-4-8v-4h-2l-4-10-2-6h2l3 6 8 15 6 16 3 7 5 15 7 28 4 9 8 23 4 14 6 26 4 21 1 10 1 1 1 10v9h9l1-13 4-38 3-47v-26l-7-10-3-5v-2h-2l-2-7h-2l-7-14-4-10-5-11-6-18 1-2 4 8 4 10 8 16 5 9 7 13 6 11 2 3v-28l-3-33-6-38-2-9-4-16-8-13v-2h-2v-3h-2l-4-7-9-12v-2h-2z" fill="#294C55"/>
<path transform="translate(1715,1307)" d="m0 0h63l35 1-2 5-11 19-3 5-6 11-8 14-3 6-6 11-3 7-8 19-4 11h-1l1-10 6-27 3-13 2-5 3-12 5-14v-1l-4 10-9 28-4 17-4 23-1 14-5 14-7 26-6 21-11 44-7 32-2 2v-23l3-32 4-19h-2l-1 12-3 15-2 28v28l-3 14-4 18-3 1-7-1 2-22 4-42 2-40-1-59-1-8v-33l1-26v-38l-1-16v-14z" fill="#FAD40B"/>
<path transform="translate(1850,1246)" d="m0 0h9l8 3 5 4 2 4v12l-7 17-13 26-9 16-12 23-8 19-4 16-2 15-2 21-3 16-6 15-5 10-10 15-11 14-4 6h-2l-2 5-4 5h-2l-2 4-12 16-8 12-9 15-12 25-5 12h-2l-1 5-2 1 3-15 4-17 5-18 4-18 16-22 2-1 2-4 5-5 4-5 3-5 8-10 6-9h2l1-4 7-10 6-8 5-9 1-3-14 21-8 11-9 12-8 11-10 12-9 12-5 6-1-4 9-38 4-14 8-29 8-24 8-20 4-8 4-10 9-17 6-13h2l3-9h2l3-9h2l2-7h2l2-6 3-4 10-1v-17l-1-22v-12l5-2 13-6z" fill="#FBD50A"/>
<path transform="translate(1565,1620)" d="m0 0h24l18 13 16 12 14 10 2 2v9l-17 148-1 6h132l3 2h-70l-119-1 4-4v-19l-3-43-6-59v-14l1-1h5l-5-14v-14z" fill="#FCFCFC"/>
<path transform="translate(1300,819)" d="m0 0h60l1 1v143l-16 8-10 6-8 9v6l5 3h15l13-2h3l14-8 20-9 20-7 4 1-39 17-16 8-15 8-9 7-4 7 1 7 1 3-17 3-19 4-6 2v-216z" fill="#FCD606"/>
<path transform="translate(622,881)" d="m0 0h282l2 15v4l2 1v9l13 114 3 27v9h-13l-1-2-17-149v-6h-255l1 2 17 149v6h69v12h336v1h-416l-2-4-15-130-2-27-2-16-2-11z" fill="#B8B8B7"/>
<path transform="translate(1257,1126)" d="m0 0h10l21 3 22 6 15 6 8 4 23 11 19 10 28 16 23 13 17 10 16 9 32 17 30 13 21 8 18 5 26 4v1h-64l-19-1-1-1-36-1-12-9v-2l-10-1-31 1 2 14 7 27 5 18 7 24 6 19 6 20 8 26 7 22 6 19 17 54 8 25 14 43 18 54-1 4-3-3-7-19-11-31-16-48-14-43-12-37-15-47-7-24-6-19-9-32-6-21-8-35v-12l4-2 15-2 14-1-4-4-20-15-56-43-9-7-16-12-18-14-11-8-3-2-21-4-20-1-18 2-13 5-8 7-6 9-4 11-3 14-1 9v44l3 32 4 28 8 43 7 33 10 42 12 46 10 36 7 23 6 21 12 38 8 25v2h-2v-2l-3-1-1-6-9-24-5-16v-2l-14-2-44-10-64-16-11-3-1-2h8l40 8 27 6 18 5 37 10 2 1-5-17-9-29-7-23-8-28-7-26-9-34-12-52-6-30-6-36-3-27-1-13v-36l3-22 5-16 6-12 8-9 10-6 9-3z" fill="#19313B"/>
<path transform="translate(852,748)" d="m0 0 1 2 2-1 18-1 14 2 5 2 1 2 8 2-1 13-1 6h-7l-5-1 4-10-4 6-7 6-12 6-26 8v26l-3 14-4 9v2l6-9h1l-1 16-1 17 47 6 2 2 23 1 33 4 1-14 2-6 10-6-4 2-6 2 1-14 3-24h13l6 3 3 3 1 8-5 10-7 7-2 1 10 2 4 4 1 2v7l-7 8-14 9-19 9-25 9h-5l-2-14v-5h-108l-7-48-1-2-5-35-2-6v-8l13-11 16-11 10-4 23-5 9-1z" fill="#D25946"/>
<path transform="translate(1082,909)" d="m0 0h45l1 1 1 163h-67l2-1v-162z" fill="#FCD706"/>
<path transform="translate(437,601)" d="m0 0 9 6 9 9v2l4-4 1-2h20l2 9 3 6 6 5 7 3h10l10-5 5-7 3-14 3-2h6l3 16v8l-8-1 2 8-1 5h-8l-9-3-1 4 5 1 4 4 4-2 3-2h5v-11l8 1-1-4v-8l8 6 8 1h4v15l-3 16-4 10-8 10-9 7-11 5-9 2h-11l-2 12-12 26-5 10-7-6-43-43 1-10 7-34 1-2-6-2-6-7-6-12-1-6h-2l-1 5-4-1 4-8 1-1 1-9 4-5z" fill="#D05945"/>
<path transform="translate(1239,856)" d="m0 0h45v187l-4 1v2l-7 4-13 12-9 11-12-1-1-1v-212z" fill="#FCD809"/>
<path transform="translate(778,936)" d="m0 0h17l1 2 1 15h13v-3h16l3 20 6 49 2 15v5h7l-1 2h-157l-7-56-3-27v-8h1l6 42 5 38v9h15l-2-15-1-6-3-26-2-16v-6h16l1 1 7 57 1 10h12l-4-30-5-42-1-3v-10h16l1 1 6 48 1 5 1 11 1 3 1 18h13l-2-8-3-25-5-39v-5h17l3 20 3 26 3 21v10h13l-1-3-3-27-3-20-5-43z" fill="#FAFAFA"/>
<path transform="translate(1503,693)" d="m0 0 1 3-12 16-8 13-5 12-1 4v15l2-14 5-12 9-12 9-10 3-2 4 12 6 11 5 6 10 7 11 5 13 3h19l14-4 11-6 10-9 6-7 1 3-7 14-9 12-7 7-14 10-7 4-5 10-2 1-3 5-14 18-9 13-12 17-4 7-1-3v-2l-5 12-2 3-9-1 6-16 4-13 2-11-1-1-2 9-5 12-10 18-2 2-22-1 2-4 12-17 6-10 3-11v-6l-4 15-8 14-13 18-2-1 7-11 10-16 5-12 1-4v-10l-4-10-7-10-8-14-2-7v-15l4-13 7-13 11-14z" fill="#121F23"/>
<path transform="translate(576,1031)" d="m0 0h11l29 6 24 4 1 1 2 18v12l-3 1-94-1 4-6 2-8 2-21-3 2-3 21-4 6-4 2h-9l-4-4-1-3v-20h-4v20l2 9 3 1v1l-79 1h-155l1-4 1-1 12-2 28-3 21-3 27-3 21-3 27-3 76-10 18-2 2-1 26-3 2-1 11-1z" fill="#0F1E23"/>
<path transform="translate(958,494)" d="m0 0h106l1 1-1 18-5 18-8 17h57v-10h22l1 1v22l-1 1h-21l-1-1-1-10h-60l-1 5-12 14-13 11-13 8h-2l7 8 27 27 68 1v2h-70l-93-93-10-1v-11l1-1h10l1 1 1 10 45 45v-4h-2l-24-56z" fill="#F5D10B"/>
<path transform="translate(239,777)" d="m0 0h105l-2 1-2 5-4 4-4 5h-2l-1 4-8 8-2 4-2 1-2 4-2 1-2 4h-2v3l-3 3-1 2h-2l-1 4h-2l-1 4-4 4-2 4h-2v3l-2 1-1 3h-2v3h-2l-1 4-5 6-1 4-4 4-12 19-9 15-12 22-7 15h-1v-20l6-132z" fill="#D19000"/>
<path transform="translate(1444,1307)" d="m0 0 53 1 5 8 8 16 8 13 1 1v70l-2 4v15l2 5 1 13h-28v-6h-6l-21-64-16-53-5-19z" fill="#FCFCFC"/>
<path transform="translate(1582,1376)" d="m0 0 6 5 5 7v2l3 1 12 16 6 9 4 7v2h2l7 12 6 11 9 18 3 7 11 28 8 25v3h-2l-7-9-14-14-16-12-18-13-12-8-12-9-2-1 2 4 10 7 11 8v2l5 2 12 9 13 10 4 3v2l5 2 15 15v2h2l7 9 3 11 3 14 3 16v5h-2l-7-16-7-11-11-13-11-11-14-11-27-18-17-10v-47-3-66z" fill="#F8D208"/>
<path transform="translate(1588,1570)" d="m0 0 4 2 11 9 5 4v2l4 2 13 12 8 7 12 11 8 7 14 12 13 12 9 7v2l4 2 11 10 8 7 10 9 8 7 15 13 9 7v2l4 2 14 13 7 6-4 6-10-1h-10l-17-12-19-14-16-12-18-13-38-28-10-7-15-11-34-25z" fill="#B6B6B6"/>
<path transform="translate(1338,784)" d="m0 0 17 1 6 1-4 7-9 12-3-4v-2l-13 5-28 13-27 12-24 11-9 10-4 5-1 4v212l11 1v1h-44v-1h14l-1-194-10 10-7 8-12 13-11 12-5 6-9-3-80-34-23-10 2-6 4-1 44 19 31 13 26 11 4-1 14-15 7-8 14-15 9-10 22-24 10-11 28-13 29-13 34-15z" fill="#FDE974"/>
<path transform="translate(1459,1260)" d="m0 0h44l19 1 36 1 2 1v2h3v42l-29 1-1 24-1 1h-11l-1 11h-4l-9-16-10-19-54-1-5-20-1-6v-14l4-4 9-3z" fill="#F1B701"/>
<path transform="translate(1567,782)" d="m0 0 1 3h-2l-2 48-12 23-10 19-9 19-5 13-3 13v10l4 13 5 8 5 5 3 4-9 2h-8l-3 2-11-2-29-9 1-14 1-5 1-17 5-19 7-43 11-19 5-11 4-12 2 1-4 18-6 16-2 5 8 2 3-9 5-11h1l-1 8 7-11 14-19 10-14 8-10 3-5h2z" fill="#284B56"/>
<path transform="translate(1580,1494)" d="m0 0 5 2 17 10 22 15 11 9 10 9 9 9 11 15 7 14 2 7h2l3 18v4h-49l-12-11-10-8v-2l-4-2-10-9-6-5v-20h-7l-1-1z" fill="#FCFCFC"/>
<path transform="translate(1255,388)" d="m0 0 11 1 4 2 18 3 10 3 14 2 14 4 13 2 6 2-1 5h2l-1 5-2 1-2 7 3 1-1 4h-3l-1 7 2 1-1 5h-3l-2 13-8-1v250l-84-1v-1h83l-1-35v-116l1-98-11 8-8 3-13 1-15-3-12-6-5-5-6-8-1-5-10-2v-5l-2-1 1-4h3l1-9h-2v-4h4l1-9h-2v-4l3-1z" fill="#284B56"/>
<path transform="translate(745,1762)" d="m0 0 16 4 71 19 54 14 64 16 17 4v1l-151 1h-68l1-2 5-2 1-2v-13l-4-13-1-2-2-16z" fill="#FCFBFB"/>
<path transform="translate(598,909)" d="m0 0 7 6 16 13 4 2v2h3l10 86 2 17v6l-12-1-37-7-6-2 2-2v-10l-4-29-4-24v-3l7-8 1-3v-10l-4-10-1-4 10-6 4-6z" fill="#FCFCFB"/>
<path transform="translate(1519,1530)" d="m0 0h61l1 18 7 1 1 21-1 50h-23v12l-2 32-2-3-16-45-15-42-8-22-4-13z" fill="#D7D7D7"/>
<path transform="translate(1765,1741)" d="m0 0 12 2 9 4 8 6 7 9 4 10 1 6v8l-3 12-6 10-9 8-10 5-6 2h-54v-1l35-1-7-3-9-6-8-11-4-12v-13l4-13 8-11h2v-2l11-6z" fill="#112025"/>
<path transform="translate(1315,165)" d="m0 0h19l14 2 15 4 13 5 17 11 10 9 9 10v2h2l8 14 6 16 4 15 1 16-1 21-6 20-8 16-6 9-12 13-8 6-11 8-14 6-14 4-3 1-2 7-8 16-5 8-4-1h2l3-9 8-20 5-9 7-3 12-4 15-8 9-7 8-7 11-16 7-16 4-16 1-8v-22l-6-21-8-17-10-13-10-10-9-6-16-8-20-6-9-1h-23l-16 4-10 4-11 6-11 8-7 7-2 3h-2l-2 4-7 11-7 14-4 11-2 12v25l3 13 3 10-1 1h-94v-1l85-1-4-14-2-14v-15l1-11 4-15 6-15 9-14 8-10 7-8 15-11 15-8 10-4z" fill="#FCE975"/>
<path transform="translate(527,534)" d="m0 0h6l8 7 6 10 7 15 3 15v5l-5-1-5-2h-6l-3 2 1 4 2 1-1 6-2 4h-2l-3-11 1 15-6 2h-4l-5-8-7-6-2-5h-7l-6 4-7 4h-2v2h-2l-6 12h-17v-49l3-9 4-5 8-5 3-1h10l16 7 5 2h8l6-14z" fill="#D05944"/>
<path transform="translate(900,778)" d="m0 0 17 2 3 1-1 15h1l2-15 13 1 7 1-2 19-2 1-11-1v2h7l5 1-1 14-1 5h-11v2l10 1-1 17-3 4 2 1-2 19h-9l-11-2-1-3-1 3-19-2-1-3-2 2-19-2 1-13 1-7 2-2 17 1 2-17-7-2v-2h8l2-19-12-1-3-1v-2h13l3 1 1-13 2-5z" fill="#12252C"/>
<path transform="translate(1300,819)" d="m0 0h17v211l-9 3-10 3v-216z" fill="#FDE974"/>
<path transform="translate(653,1251)" d="m0 0 25 3 34 6 12 4 5 4 1 9-2 25-1 8-2-2h-62l-1 2-4-33-4-20z" fill="#F1B701"/>
<path transform="translate(1288,311)" d="m0 0 5 2 9 1 6 11 5 2 11 1v-2l6-5 5 1 1 1h10l-1 5-10 25-13 31-6 15-4 1-17-3-9-3v-45l1-32z" fill="#FCD80F"/>
<path transform="translate(1719,1308)" d="m0 0h58l-2 6-12 23-10 22-14 36-12 36-6 22-2 9h-1l1-10 4-26 1-18v-32l-1-20-4-38z" fill="#FDFDFD"/>
<path transform="translate(488,521)" d="m0 0h26l15 5 9 7 7 8 6 12 2 7v5l-2-3-8-17-8-9-2-1h-6l-6 14-1 1h-8l-21-9h-10l-8 4-5 5-3 6-1 4v44l-2 5h-15l-10-8-1-2v-31l4-14 6-10 7-8 10-7 12-5z" fill="#101F24"/>
<path transform="translate(576,1031)" d="m0 0h11l29 6 24 4 1 1 2 18v12l-3 1-94-1 4-6 2-8 2-21-4-1 5-2 11-1z" fill="#101E24"/>
<path transform="translate(1082,909)" d="m0 0h45l1 1v162h-1l-1-161h-43v160l42 1v1h-63l2-1v-162z" fill="#FDE974"/>
<path transform="translate(1338,784)" d="m0 0 17 1 6 1-4 7-9 12-3-4v-2l-13 5-28 13-27 12-24 11-9 10-10 11-7 8-15 16-12 13-9 10-12 13-5 6-9-3-80-34-23-10 2-6 4-1 44 19 31 13 26 11 4-1 14-15 7-8 14-15 9-10 22-24 10-11 28-13 29-13 34-15z" fill="#2C4B51"/>
<path transform="translate(1731,1061)" d="m0 0 2 3 3 16 2 20v32l-3 20-5 16-5 12-10 16-13 13-10 8-16 8-16 5-24 4-10 1h-34l-25-3-23-5-27-8-21-8-26-11-48-24-22-12-48-24-19-8-13-5-16-4-16-2h-19l-17 3-9 3-3-1 9-4 11-3 8-1h28l16 3 19 5 19 8 16 7 44 22 42 22 17 8 16 7 19 8 19 7 25 7 25 5 16 2h40l22-3 18-5 19-9 11-8 4-4h2l2-4 9-12 8-19 4-13 3-16 1-10v-38l-2-24z" fill="#19323C"/>
<path transform="translate(279,777)" d="m0 0h65l-2 1-2 5-4 4-4 5h-2l-1 4-8 8-2 4-2 1-2 4-2 1-2 4h-2v3l-3 3-1 2h-2l-1 4h-2l-1 4-4 4-2 4h-2v3l-2 1-1 3h-2v3h-2l-1 4-7 9h-1l1-33 2-48z" fill="#A66900"/>
<path transform="translate(1244,427)" d="m0 0 15 1 75 9 7 1-1 5h-3l-2 13-8-1v250l-84-1v-1h83l-1-35v-116l1-98-11 8-8 3-13 1-15-3-12-6-5-5-6-8-1-5-10-2v-5l-2-1z" fill="#25454E"/>
<path transform="translate(1304,279)" d="m0 0h6l4 4v10l-6 12-3 3 1 7 4 6 3 2v2h6l8-4 1-2h2l-2-6-1-10 2-10 3-5 4-3 5 1 3 3v9l-5 12-3 6 1 4 5 1 6-4 4-7 5-12 6 1 1 4-6 15-15 36-18 43-2 5-7-1-1-2 15-37 11-26 5-13-2 1h-8l-2-2-5 1-3 3h-2v2h-11l-6-3-5-10-9-1-5-3-2 83-8-1-1-2 2-63 1-45 1-1h6l1 1 1 20 4 6 3 1 3-1v-22l3-6z" fill="#FCFCFA"/>
<path transform="translate(1715,1307)" d="m0 0 4 1 5 48 1 20v32l-1 18-5 30-1 12-3 14-4 24-2 20h-1v-29l-1-54-1-8v-33l1-26v-38l-1-16v-14z" fill="#F8D20C"/>
<path transform="translate(1160,936)" d="m0 0h45v1l-44 1v133l42 1v1h-63l2-1v-135z" fill="#FDE974"/>
<path transform="translate(1659,1308)" d="m0 0 4 1 4 4 4 7 6 8 5 9 2 2-7-26-1-5 5 1 5 12 7 27 3 11 6 31v8h2v-69l-1-20 2-1 1 3 2 27v38l-1 26v33l1 8 1 59-2 40-5 52-2 13h-6l1-14 4-38 3-47v-26l-7-10-3-5v-2h-2l-2-7h-2l-7-14-4-10-5-11-6-18 1-2 4 8 4 10 8 16 5 9 7 13 6 11 2 3v-28l-3-33-6-38-2-9-4-16-8-13v-2h-2v-3h-2l-4-7-9-12v-2h-2z" fill="#152123"/>
<path transform="translate(791,386)" d="m0 0h2l1 373 11-14 14-18 10-13 8-10 1-1h405l82 1v1l-486 2-13 17-14 18-13 17-8 11h-1v-354z" fill="#122329"/>
<path transform="translate(1580,1466)" d="m0 0 5 2 16 12 3 2v2l5 2 12 9 13 10 4 3v2l5 2 15 15v2h2l7 9 3 11 3 14 3 16v5h-2l-7-16-7-11-11-13-11-11-14-11-27-18-17-10z" fill="#F8D30E"/>
<path transform="translate(1575,1307)" d="m0 0h40l8 16 7 15 6 18 2 11 2 36h-2l-11-19-12-19-16-24-16-21-5-6v-2h-2l-2-4z" fill="#FDFCFA"/>
<path transform="translate(637,893)" d="m0 0h255l1 9h-255z" fill="#242A22"/>
<path transform="translate(739,953)" d="m0 0h41l2 10 5 42 3 20 1 14h-13l-3-27-3-20-3-26v-4h-17l4 27 5 42 1 8h-13l-2-18-1-3-1-14-1-2-5-41z" fill="#F9F9F9"/>
<path transform="translate(1626,763)" d="m0 0 7 6 5 6-1 4-25 38-13 20-3-4-10-20v-2l-11 9-7 7h-1v-46l6-9 2 2 10 25 1 2 4-2 31-31z" fill="#FBFBFB"/>
<path transform="translate(228,1010)" d="m0 0 12 5 11 3 7 1-1 2 10 2 1 1v16l-2 32h-40v-19z" fill="#D08F00"/>
<path transform="translate(884,776)" d="m0 0 14 2-1 14-1 5-16-1v2l15 2-1 17-1 2h-8v2l7 1 1 2-2 16-3 1-17-2h-2l-16-2-3-1 1-13 1-8 1-9 2-10 3-1h12l-2-1-13-2v-2l20-7v11h2l1-13z" fill="#13262E"/>
<path transform="translate(1582,1374)" d="m0 0 5 2 9 10 5 5 8 11 4 4 6 8 6 9 1 4h2l3 6v2h2l2 7h2l3 6v3h2l7 14-6-18-3-8-6-15-4-8v-4h-2l-4-10-2-6h2l3 6 8 15 6 16 3 7 5 15 7 28 4 9 8 23 4 14 6 26 4 21 1 10 1 1 1 10v10h-6l-3-17-2-16-3-16-3-13-3-8-5-6v-2h-2l-7-8-8-8-5-3-5-5-13-10-8-6-8-5-4-4-15-11-4-4v-2l5 2 12 9 16 11 19 14 11 9 15 15 3 4v2h2l-12-36-9-22-7-15-8-15-8-14v-2h-2l-5-9-7-10-9-12-5-6-4-5v-2l-4-2z" fill="#152122"/>
<path transform="translate(835,919)" d="m0 0h15l2 2 8 63 6 46v10h-16l-2-9-9-74-1-5-3-26z" fill="#FCD912"/>
<path transform="translate(1322,1662)" d="m0 0 2 2 11 26 6 13v2l25-2 1 6 5 12-19 14-10 7h-12l-9 1-3-6 2-2z" fill="#B7B7B7"/>
<path transform="translate(1566,785)" d="m0 0h2v41l9-9 7-5-2 4-7 8-8 8-11 20-11 23-10 22-5 13-2 10v11l4 11 6 8v2h2v2l4 2 1 1h7l1-4 6-1 1 4 10-1h22l-1 2-39 6 16 2h16l19 2 20 4 1 2-3-61-2-48-4-13v-6l2 3 1 2 1-3v-11l2 4 4 76 2 53 1 5 15 5 14 7 11 8 8 7v2l4 2 4 5-3 1-1-3-4-2-6-4v-2l-5-2-14-9-10-6-15-6-18-3-79-8-9-1-3-2h6l3-2h7l8-2-5-5v-2l-3-1-5-8-4-13v-10l5-19 12-26 8-16 10-18 4-8 2-42z" fill="#122329"/>
<path transform="translate(485,1817)" d="m0 0h15l6 2v2l248-1h215l15 3v1h-418l-281-1v-1h200z" fill="#13252C"/>
<path transform="translate(1814,1309)" d="m0 0v3l-3 6h-2l-1 5-1 2h-2l-3 9h-2l-3 9h-2l-3 9-10 19-4 8-4 11-4 8-4 12-4 10-4 14-3 8-7 27-6 21-6 26v3l12-15 10-13 7-9 9-12 7-10 10-14 10-16 1 2-3 6-8 13-8 11-4 7h-2l-2 4-4 6-9 11-4 7-5 6-2 1-2 4-4 4-7 10-6 8-4 18-5 18-5 23-2 7-2 9-4 1 2-14 3-11 1-7v-28l2-28 5-27h2l-1 9-3 17-2 25v21l5-22 6-26 8-32 5-17 5-19 7-21 1-14 4-23 6-24 7-21 5-13 2-2-2 9-6 18-2 9-3 9-5 24-3 12v4l7-19 6-12 4-10 5-8 5-10 12-22 8-13 6-10z" fill="#1C2420"/>
<path transform="translate(778,936)" d="m0 0h17l1 2 1 12 1 5 9 74 1 9-1 2h-15l-2-4-3-27-3-20-5-43z" fill="#FCD914"/>
<path transform="translate(864,719)" d="m0 0 82 10 2 1-1 16-1 4-15-1-65-8-5-1 2-19z" fill="#FBFBFB"/>
<path transform="translate(1692,1658)" d="m0 0 56 1 2 14 4 41-4-2-14-12-12-11-8-7-10-9-11-9-4-5z" fill="#2B4C54"/>
<path transform="translate(1745,1635)" d="m0 0h1l2 17v7h-59v-2l-4-2-11-10-7-6v-2l5-1h72z" fill="#112026"/>
<path transform="translate(810,950)" d="m0 0h16l3 20 6 49 2 15v5l-1 1h-15l-1-1-4-29-3-26-3-21z" fill="#FCD913"/>
<path transform="translate(722,953)" d="m0 0h16l1 1 6 48 1 5 1 11 1 3 1 18-7 1h-7l-3-2-4-30-5-42-1-3z" fill="#FCD813"/>
<path transform="translate(1533,1580)" d="m0 0h34l-1 28-2 45-1 11-2-3-16-45-12-34z" fill="#B6B6B6"/>
<path transform="translate(1307,187)" d="m0 0h11l5 2 2 2-1 7h-2v2l-10 5-26 9-6 2v2l-9 7-8 7-7 8-7 7h-2l-1-7 5-12 7-11 4-5h2v-2l8-7 8-6 12-6 9-3z" fill="#FDEA74"/>
<path transform="translate(1681,1496)" d="m0 0 4 2 11 9 6 5v13l-3 40-4 36-1 5h-9l-1-9v-11l2-15v-35l-1-15-4-21z" fill="#FBFBFB"/>
<path transform="translate(1255,388)" d="m0 0 11 1 4 2 18 3 10 3 14 2 14 4 13 2 6 2-1 5h2l-1 5-12-1-67-8-15-2-2-1v-4l3-1z" fill="#2A4B52"/>
<path transform="translate(661,364)" d="m0 0h11l15 2 17 5 2 2-9-2-12-3-7-1h-17l-16 3-15 5-16 9-12 11-9 10-9 15-6 16-3 15v23l4 17 5 12 1 7-13 28-4 9 8-1 32-8 6 1 11 7 14 6 17 4h26l18-4 9-4 3 1-14 6-11 3-7 1h-25l-15-3-15-6-11-6-5-2-46 12h-2l1-5 18-40-8-24-2-11v-22l4-20 6-15 9-14 9-10 7-7 10-7 15-8 16-5z" fill="#1D2927"/>
<path transform="translate(404,1054)" d="m0 0 11 1-6 7-9 6-8 3 55 1v1h-154l1-4 1-1 12-2 28-3 21-3 27-3z" fill="#111F23"/>
<path transform="translate(752,962)" d="m0 0h17l3 20 3 26 3 21v10l-4 1h-12l-2-9-3-25-5-39z" fill="#FCD813"/>
<path transform="translate(506,594)" d="m0 0 7 1 7 7 3 8v7l-3 7-5 6-6 3-8 1-9-3-5-5-3-4-1-3v-11l4-8 6-5 8 1z" fill="#CB593F"/>
<path transform="translate(957,723)" d="m0 0h7l-1 15-6 50 4 4 1 3v7l-4 8-4 5-3 17-3 24 8-5 3 1-9 6h-2l-2 17-2 2h-5v-10l6-48 5-43 6-49z" fill="#1B323A"/>
<path transform="translate(254,1020)" d="m0 0h10l19 3 20 2 32 2h61l3-6 1 4-2 5-2 1h-48l-42-2-22-2v7l-3 16-2 19 16-1-3 5h-67v-1h41v-16l1-16v-16l-13-3z" fill="#A46800"/>
<path transform="translate(1761,1763)" d="m0 0h9l8 4 5 6 2 11-3 9-7 6-5 2h-10l-8-5-4-5-2-7 1-8 4-7 5-4z" fill="#FBFBFB"/>
<path transform="translate(695,970)" d="m0 0h16l1 1 7 57 1 10h-16l-2-4-1-10-1-6-3-26-2-16z" fill="#FCD811"/>
<path transform="translate(1519,1530)" d="m0 0h61v18h-59l-3-9z" fill="#B6B6B6"/>
<path transform="translate(1697,872)" d="m0 0 2 2 13 37 8 25 5 16 7 24 7 25 7 24 6 22v3l-2 1h-12l-5-1v-22l-2-23-6-34-9-37-4-13-3-7-10-32-2-5z" fill="#264954"/>
<path transform="translate(1493,1464)" d="m0 0h26v75l-2-1-16-46-8-24z" fill="#FBFBFB"/>
<path transform="translate(1684,1307)" d="m0 0 18 1 2 5 1 16v56l-1 13h-2l-3-17-2-13-3-13-5-20-6-20-1-7z" fill="#F5CC07"/>
<path transform="translate(421,711)" d="m0 0 5 5 13 19 20 30 11 17 3-4 14-25h4l16 15 4 3v-51l2-4 1 10 1 22v30l-4-2-7-6v-2h-2l-2 11-2 5-4-2-12-8h-3l-6 11-2 4h-2l-10-16-4-5-5-9-2-2v-3h-2l-5-9-7-10-6-11-3-5-4-6z" fill="#1B2625"/>
<path transform="translate(691,1590)" d="m0 0 13 1 64 13 50 11 26 6 35 9 6 2v1l-11-1-34-6-44-9-89-20-16-5z" fill="#19323C"/>
<path transform="translate(1322,1662)" d="m0 0 2 2 11 26 6 13v2l15-1-5 5-12 11-16 14h-1z" fill="#FBFBFB"/>
<path transform="translate(484,1708)" d="m0 0h1v96h163l59 1 39 1v1l-21 1h-157l-66-1-17-1v10h-1z" fill="#0F1E24"/>
<path transform="translate(555,588)" d="m0 0 6 3 4 5 3 8v12l-4 8-4 4h-9l-5-3-5-8-1-4v-13l4-8 8-1z" fill="#CA5A3C"/>
<path transform="translate(698,1736)" d="m0 0 8 1 30 7 71 18 70 18 79 21 21 6v1l-9-1-57-14-64-16-105-27-41-11z" fill="#0F1E24"/>
<path transform="translate(1525,1634)" d="m0 0h8l-1 2-36 5-51 6-74 7-25 2h-14l1-2 27-4 52-6 84-8z" fill="#19323C"/>
<path transform="translate(770,971)" d="m0 0h12l1 1 4 33 3 20 1 14h-13l-3-27-3-20-2-16z" fill="#FAFAFA"/>
<path transform="translate(1497,1308)" d="m0 0h37l-1 24-1 1h-11l-1 11h-4l-9-16-10-19z" fill="#FCD80C"/>
<path transform="translate(620,893)" d="m0 0h4l2 13 2 18v8h-3v-2l-4-1-13-11-8-6-2-2-2-1-2-6-3-5v-2l-2-1 1-1 10 1h14z" fill="#F3B901"/>
<path transform="translate(543,797)" d="m0 0 1 3h2l8 11 4 6v2h2l3 5v2h2l3 5v2h2v2h2l2 5h2v4l3 1 3 6-1 2 2 1-11-2-16-5-16-3h-23v-1l6-1h18l11 1-3-17-6-18-1-8z" fill="#F0B600"/>
<path transform="translate(1248,418)" d="m0 0 56 7 34 4h5l-3 1-1 7-5 1-85-10-2-1z" fill="#284C56"/>
<path transform="translate(1535,1308)" d="m0 0h25l6 1v22h-33v-20z" fill="#B6B5B1"/>
<path transform="translate(1696,877)" d="m0 0h2l11 33 3 10 3 8 7 26 6 27 4 24 2 23v20l-3 1-1 3-1-24-4-31-6-31-8-32-9-33-6-20z" fill="#112229"/>
<path transform="translate(1405,290)" d="m0 0 4 1v9l-4 12-7 13-7 9-10 9-12 7h-5l-1-5 9-9 8-7 8-8 9-17 6-12z" fill="#FEEA74"/>
<path transform="translate(936,521)" d="m0 0h10l1 1 1 10 92 92 68 1v2h-70l-93-93-10-1v-11z" fill="#2E3022"/>
<path transform="translate(666,1757)" d="m0 0h14l21 3 21 6 11 5-3 1-17-5-19-3h-30l-20 4-16 6-10 6-10 9-3 3-2-1 6-10 7-7 14-8 13-5 12-3z" fill="#0F1E24"/>
<path transform="translate(743,987)" d="m0 0h12l1 2 5 42 1 8h-13l-2-18-1-3-1-14-1-2z" fill="#F9F9F9"/>
<path transform="translate(458,671)" d="m0 0 5 5 10 8 14 7 18 4v7l-2 7-1 1h-7l-10-3-10-6-9-10-8-16z" fill="#0F1E24"/>
<path transform="translate(1619,836)" d="m0 0 2 4 4 76 2 53 1 5 15 5 14 7 11 8 8 7v2l4 2 4 5-3 1-1-3-4-2-6-4v-2l-5-2-14-9-10-6-15-6-6-2v-2l-2-1 5-1 1 2-3-61-2-48-4-13v-6l2 3 1 2 1-3z" fill="#13262E"/>
<path transform="translate(1433,263)" d="m0 0 6 2 15 8 32 16 14 8 14 7 38 20 27 14 19 10 8 4 2-7 7 7-1 6-2 4h-9l-3-2 4-3v-2l-36-19-16-8-34-18-29-15-25-13-14-8-16-8z" fill="#D8D8D8"/>
<path transform="translate(503,586)" d="m0 0h7l2 2 2 5 8 7 2 6 5 1-3 5-2 11-7 9-9 4h-10l-10-5-6-7-2-5v-7h-20l-2 5-3 1-7-8v-1l15-1h17l4-8 2-3h2v-2l9-5zm3 8-5 2-8-1-7 6-3 7v11l3 6 5 5 6 3 7 1 9-3 6-5 3-5 1-4v-7l-3-8-7-7z" fill="#18303A"/>
<path transform="translate(1566,785)" d="m0 0h2v41l9-9 7-5-2 4-7 8-8 8-11 20-11 23-10 22-5 13-2 10v11l4 11 6 8v2h2v2l4 2-2 4-6-6v-2l-3-1-5-8-4-13v-10l5-19 12-26 8-16 10-18 4-8 2-42z" fill="#142830"/>
<path transform="translate(604,1731)" d="m0 0h36l19 3 9 3v2h-64l-36 3-1-2 11-4 13-3z" fill="#0F1E24"/>
<path transform="translate(598,1717)" d="m0 0h26l16 2 15 3 2 3-1 1-19-1h-37l-36 3h-8v-2l16-5 16-3z" fill="#0F1E24"/>
<path transform="translate(1517,813)" d="m0 0 2 1-4 18-6 16-2 5 8 2-4 8-10 17-9 17h-1l1-12 5-30 11-19 5-11z" fill="#A16600"/>
<path transform="translate(1257,444)" d="m0 0 9 1 38 11 10 3 1 3-8 3-13 1-15-3-12-6-5-5-5-6z" fill="#2A4C54"/>
<path transform="translate(1108,464)" d="m0 0h22v23h-22v-10h-58v-1h58z" fill="#2C4C53"/>
<path transform="translate(1108,538)" d="m0 0h22l1 1v22l-1 1h-21l-1-1-1-11z" fill="#FCD714"/>
<path transform="translate(404,1054)" d="m0 0 11 1-6 7-9 6-8 3 55 1v1h-154v-1h28v-5h2v4l33 1v-2l21-5 17-5 10-5z" fill="#19323B"/>
<path transform="translate(419,793)" d="m0 0 1 3-4 10v3h2l2-5 1 2-4 8-3 3h-2l-3 10-13 39 20-4 30-8 5-1h7l-2 4v-2l-8 3-16 3-39 9-27 6-15 3-12 3-6 2h-5l1-2 21-6 17-4 16-3 7-2 16-42 5-11 7-20z" fill="#2A2A1C"/>
<path transform="translate(1228,309)" d="m0 0h10l2 4v-4l11 2 12 1v11l-3 2-2-2-1-4-6 1 2 2 3 4 2-1 3 2-2 2 1 2-11 1-10-1-7-11-4-8z" fill="#F4BB01"/>
<path transform="translate(1677,683)" d="m0 0h2l6 7 12 9 7 8 3 6v3l3-1 2 11v11l-3 16-5 14-11 20-4 7-2 9-1-3h-2v-8l4-10 9-14 6-12 4-13v-22l-6-12-4-5-11-9-9-11z" fill="#3B4641"/>
<path transform="translate(1244,427)" d="m0 0 15 1 75 9 7 1-1 5-20-2-70-8-7-2z" fill="#1A323B"/>
<path transform="translate(1566,974)" d="m0 0 4 5 9 16 29 58 9 19 7 14 1 7-4-5-14-26-28-56-12-26z" fill="#13262E"/>
<path transform="translate(1246,414)" d="m0 0 15 1 67 8 13 1 3 3-1 2-7 1-62-8-25-3-3-1z" fill="#1A323B"/>
<path transform="translate(676,950)" d="m0 0h1l6 42 5 38v9h15l1-3v2h15l25 1h100l-1 2h-157l-7-56-3-27z" fill="#DBD7D1"/>
<path transform="translate(1249,401)" d="m0 0 15 1 51 6 16 2 15 2-1 5-12-1-67-8-15-2-2-1z" fill="#19323C"/>
<path transform="translate(903,756)" d="m0 0 15 1 5 1-1 15-2 5-14-1-5-1 1-16z" fill="#E9BE07"/>
<path transform="translate(925,759)" d="m0 0h9l9 1 1 1v13l-1 7-13-1-7-1 1-18z" fill="#EFC609"/>
<path transform="translate(254,1020)" d="m0 0h10l19 3 20 2 32 2h61l3-6 1 4-2 5-2 1h-48l-42-2-14-1-30-5-8-2z" fill="#152122"/>
<path transform="translate(1240,331)" d="m0 0h11l7 6 5 5 5 4 1 3v20l-1 20 2 1-6-1-1-37-4-2-10-9-7-8z" fill="#FEEA74"/>
<path transform="translate(1255,439)" d="m0 0 11 2 56 12v4l-5 4-11-3-26-8-18-5-6-1z" fill="#1A323B"/>
<path transform="translate(976,470)" d="m0 0h11v4h64l57 1v1l-58 1h-63l1 4-1 1h-11l-1-2v-9z" fill="#13252C"/>
<path transform="translate(888,1709)" d="m0 0h17l17 3 9 4v2h-65l4-4 12-4z" fill="#0F1E24"/>
<path transform="translate(922,781)" d="m0 0 13 1 7 1-2 19-2 1-16-2-2-1z" fill="#F6F6F5"/>
<path transform="translate(914,847)" d="m0 0 14 1 6 1-2 19h-9l-11-2z" fill="#F3F3F3"/>
<path transform="translate(893,844)" d="m0 0 18 2 1 5-2 15-19-2v-10z" fill="#F4F4F4"/>
<path transform="translate(917,825)" d="m0 0 14 1 5 1-1 17-1 2h-9l-10-2 1-14z" fill="#F4F4F3"/>
<path transform="translate(875,1697)" d="m0 0h17l17 3 9 4v2l-40-1-25 1v-2l11-5z" fill="#0F1E24"/>
<path transform="translate(920,803)" d="m0 0 14 1 5 1-1 14-1 5h-9l-10-2 1-16z" fill="#F5F5F4"/>
<path transform="translate(1331,1741)" d="m0 0 10 1-3 3-25 13-4 1v2l-14 8-6 4 2-4 5-5 3-5 8-9 11-6 6-2z" fill="#1E2520"/>
<path transform="translate(860,1685)" d="m0 0h21l15 3 9 4v2l-22-1h-21l-22 1v-2l8-4z" fill="#101E23"/>
<path transform="translate(877,798)" d="m0 0 14 1 4 1-1 17-1 2-19-2 2-18z" fill="#32535D"/>
<path transform="translate(852,817)" d="m0 0 18 2 1 5-2 13-1 1-15-1-3-1 1-13z" fill="#2D5059"/>
<path transform="translate(856,795)" d="m0 0 17 2 1 3-2 15-1 1h-8l-10-2 1-16z" fill="#32535C"/>
<path transform="translate(871,842)" d="m0 0 14 1 5 1-2 19-19-2 1-13z" fill="#33545E"/>
<path transform="translate(850,839)" d="m0 0 18 2-1 17-1 2-15-1-4-2 2-17z" fill="#294C57"/>
<path transform="translate(896,823)" d="m0 0 16 1 2 1-1 17-2 2-18-2 2-18z" fill="#32535D"/>
<path transform="translate(901,779)" d="m0 0h9l10 2-2 19-17-2-2-1 1-14z" fill="#33545D"/>
<path transform="translate(874,820)" d="m0 0 14 1 5 2-2 17-3 1-16-2 1-16z" fill="#31535C"/>
<path transform="translate(898,801)" d="m0 0 17 1 2 1-1 13-1 5h-10l-8-1-1-4z" fill="#33555E"/>
<path transform="translate(415,872)" d="m0 0 1 2-4 16h-2l-1 7-12 39-6 18-3 10-4 12-6 17-3 9-2 2 2-14 3-6 6-21 4-13 3-9 4-11 5-17 3-7 7-22 3-8z" fill="#27291D"/>
<path transform="translate(884,776)" d="m0 0 14 2-1 14-1 5-18-2-1-5 1-9z" fill="#33545D"/>
<path transform="translate(1487,1447)" d="m0 0h5v6h27v11l-27 1-5-15z" fill="#B6B6B6"/>
<path transform="translate(838,703)" d="m0 0 4 1 148 1v1l-151 1-13 17-14 18-5 7h-4l2-4 14-18 10-13 8-10z" fill="#243D41"/>
<path transform="translate(421,711)" d="m0 0 5 5 13 19 20 30 11 17 3-4 2-2h2l-2 5-4 8h-2l-10-16-4-5-5-9-2-2v-3h-2l-5-9-7-10-6-11-3-5-4-6z" fill="#1E2723"/>
<path transform="translate(1638,775)" d="m0 0 5 2-2 1-2-1-1 4-5 9-4 7-2 1-2 5-7 11-9 14-6 9-3 5h-2l-9-17-4-10 1-3 10 19 3 5 10-16 28-42z" fill="#17282C"/>
<path transform="translate(1503,696)" d="m0 0 2 3 1 6-7 8-11 14-6 12-2 7-1 12-2-2v-15l4-12 6-11 10-14z" fill="#F6F6F6"/>
<path transform="translate(1541,645)" d="m0 0 3 1-7 19-8 22 7 1-3 10-1 2h9l7-1-4 4-4 1h-7l-4-1 1-9 1-2h-8l3-11 9-24z" fill="#39331A"/>
<path transform="translate(920,800)" d="m0 0 10 1-3 1v2l-7-1-2 19 10 1-2 1v2l-9-1-1 13-1 6 17 2v3l-18-2-1 16h-3l1-16-8-1 4-2h5l2-19-10-1 4-3h7l1-13z" fill="#252F29"/>
<path transform="translate(740,788)" d="m0 0h2l8 42 3 21 4 23v7h-3l-4-21-2-12-4-27-3-24z" fill="#282A1D"/>
<path transform="translate(1656,1101)" d="m0 0 4 1-2 1 13 8 15 6 16 5 2 1v2l-12-1-18-5-14-7-9-7-3-3z" fill="#19323C"/>
<path transform="translate(488,754)" d="m0 0h3l7 8v2h2l-1 8-2 7-5-2-10-7 1-6z" fill="#ECC307"/>
<path transform="translate(1566,785)" d="m0 0h2v41l9-9 7-5-2 4-7 8-8 8-11 20-4 9-2-4 9-16 4-8 2-42z" fill="#152B34"/>
<path transform="translate(653,1251)" d="m0 0 25 3 23 4 4 2-49 1-3-7z" fill="#F8F4DD"/>
<path transform="translate(1305,309)" d="m0 0h8l3 5-2 4 3-1-1-7 1-1h9v12l-7 5-6-1-7-8-1-2z" fill="#F5BE06"/>
<path transform="translate(720,1755)" d="m0 0 16 4 9 3 4 9 1 5v8l-3-3-7-8-14-12-6-5z" fill="#101F24"/>
<path transform="translate(1801,1430)" d="m0 0 1 2-3 6-8 13-8 11-4 7h-2l-2 4-4 6-9 11-4 7-5 6-2 1-2 4-4 4-7 10-3 3-1-7h3l14-18 8-10 9-12 13-18 10-14z" fill="#523F12"/>
<path transform="translate(1674,1307)" d="m0 0 1 3h2l7 24 1 8-4-5-6-10-8-11-3-5v-3z" fill="#ECC109"/>
<path transform="translate(1228,309)" d="m0 0h10l7 14 6 8-2 1-10-1-7-11-4-8z" fill="#C88900"/>
<path transform="translate(798,953)" d="m0 0h12l2 17-1 1h-11l-2-6-1-11z" fill="#F9F8F8"/>
<path transform="translate(806,1022)" d="m0 0h12l2 10v7h-13z" fill="#FDFDFD"/>
<path transform="translate(776,1022)" d="m0 0h13l1 3 1 14h-13z" fill="#FDFDFD"/>
<path transform="translate(535,607)" d="m0 0 2 1 4 16 1 11-8-1v11l-7 2-3 3-4-2v-2l-7-2 1-5 9 3h8l-1-12h6l2 1-3-20z" fill="#111F23"/>
<path transform="translate(770,971)" d="m0 0h12l1 1 1 16h-12l-2-12z" fill="#FBFBFB"/>
<path transform="translate(748,1022)" d="m0 0h12l2 17h-13l-1-6z" fill="#FDFDFD"/>
<path transform="translate(745 1e3)" d="m0 0h12l1 1 2 15-1 1h-11l-2-4z" fill="#FBFBFB"/>
<path transform="translate(506,1818)" d="m0 0h28l84 2v1h-112z" fill="#D7D3CA"/>
<path transform="translate(1707,1528)" d="m0 0h1v19l-2 39v20h-6l2-22 4-42z" fill="#F6F3E3"/>
<path transform="translate(1708,737)" d="m0 0h1v8l-6 20-11 21-3 8-2 9-1-3h-2v-8l4-10 9-14 6-12 4-13z" fill="#945D01"/>
<path transform="translate(707,454)" d="m0 0h7l4 4v8l-5 4-7-1-3-3-1-6 3-5z" fill="#152326"/>
<path transform="translate(623,454)" d="m0 0h7l4 3 1 7-4 5-7 1-5-5v-7z" fill="#142326"/>
<path transform="translate(558,590)" d="m0 0 4 2 5 8 1 4v12l-4 8-3 1-2-26z" fill="#F9F3F2"/>
<path transform="translate(665,454)" d="m0 0h7l4 3 1 5-2 5-4 3-7-1-3-3v-8z" fill="#162325"/>
<path transform="translate(503,586)" d="m0 0h7l2 2 2 5 8 7 1 4h-3l-7-8-7-1-5 2-8-1-7 5-1-2 1-2h2v-2l9-5z" fill="#162C35"/>
<path transform="translate(1559,667)" d="m0 0 5 1 3 3 6-1-1 5-1 1h-5l-2 6-3 2h-3l-1 2-3-4v-8l3-6z" fill="#2C2D1E"/>
<path transform="translate(741,971)" d="m0 0h12l2 12v4h-12l-1-2z" fill="#FCFCFC"/>
<path transform="translate(324,884)" d="m0 0 4 1-8 4-7 3-13 8-7 5h-2l-1 3h-3l-1 3-6 4-6 7-7 6-1 2h-2l2-4 6-7h2l1-4 10-9 14-10 17-9z" fill="#2F2C1B"/>
<path transform="translate(1417,969)" d="m0 0 4 1-39 17-16 8-13 7-2-1 10-7 16-9 20-9z" fill="#3F3518"/>
<path transform="translate(1514,656)" d="m0 0 3 3h11l2 4-1 9-5 5-2-1-4-4-1-7-3-2z" fill="#292B1E"/>
<path transform="translate(1271,309)" d="m0 0h8v21h-1l-1-11v10l-3 2h-6v-2h4l-4-2v-10l2 1v-2h-2l1-6z" fill="#F4BA01"/>
<path transform="translate(1336,288)" d="m0 0 4 1 1 2-1 11-6 11-2 1-2-5v-11l4-8z" fill="#FCDD2F"/>
<path transform="translate(894,827)" d="m0 0h1l-1 13-1 2h10l8 1-4 2h-11l-3-1-2 17-3 1 1-14 1-4-13-1-6-1 2-3 17 1 2-10z" fill="#14262C"/>
<path transform="translate(1669,667)" d="m0 0h3l7 13 7 7 12 9 8 9 3 7v4h-2l-6-12-10-9-9-7-3-3v-2l-4-1-6-12z" fill="#1E2A28"/>
<path transform="translate(1288,311)" d="m0 0 5 2 9 1-1 6h-3l2 5 3 4-1 2h-4l-4-5-1-3h-2l-1 6 3 1-4 1-1 4z" fill="#F5BD01"/>
<path transform="translate(893,755)" d="m0 0 8 1-1 13-1 6h-7l-5-1 2-5 3-6z" fill="#F6F3F3"/>
<path transform="translate(541,582)" d="m0 0 9 1 8 5-4 2-2 2h-8l-2 6-3 3-1-3 3-8-4-2 1-4z" fill="#162D36"/>
<path transform="translate(1305,282)" d="m0 0h5l2 6-3 10-4 6-3 1v-19z" fill="#FCD706"/>
<path transform="translate(556,586)" d="m0 0 5 1 5 5 4 7 1 3v15l-4 8-5 5h-2l1-4 5-7 1-3v-12l-4-10-5-4z" fill="#243738"/>
<path transform="translate(1805,1399)" d="m0 0 2 1-1 2h-2l-2 5-7 10-1 3h-2v3h-2l-1 4-6 9-5 10-2 1-4 8-4 4 2-6 8-15 9-14 8-12z" fill="#20251F"/>
<path transform="translate(1622,1396)" d="m0 0h2l3 6 8 15 6 16 3 7 4 13-3-1-4-9-4-12-4-8-3-7v-4h-2l-4-10z" fill="#2B2B1C"/>
<path transform="translate(1430,998)" d="m0 0 4 1-60 25-2-1 19-10 25-10z" fill="#3E361A"/>
<path transform="translate(954,1759)" d="m0 0h14l3 2h-9l-14 3-12 6-7 6-7 10-2 2 1-5 4-7h2l2-4 8-7 11-5z" fill="#0F1E24"/>
<path transform="translate(1779,1329)" d="m0 0 1 3-8 24-2 9-3 9-4 20-3-2 2-10 4-17 7-21 5-13z" fill="#25281D"/>
<path transform="translate(1717,1462)" d="m0 0h1l-1 9-6 35-2 20h-1v-24l1-12 1-3h2l1-8 3-15z" fill="#F8F6EF"/>
<path transform="translate(506,604)" d="m0 0h5l3 6-1 9h-7l-3-4v-7z" fill="#0F1E24"/>
<path transform="translate(544,600)" d="m0 0h5l3 3 1 7-3 5-6 1-2-4v-9z" fill="#0F1E24"/>
<path transform="translate(956,788)" d="m0 0 5 4 1 3v7l-4 8-5 5 1-16z" fill="#C75B38"/>
<path transform="translate(982,502)" d="m0 0h10l1 9 15 15-1 2-6-5-5-6-4-4-10-1z" fill="#0F1E24"/>
<path transform="translate(1503,693)" d="m0 0 1 3-12 16-8 13-5 12-2 4-2-1 2-9 8-15 11-14z" fill="#2F3121"/>
<path transform="translate(1636,694)" d="m0 0h6l-2 2-8 4-7 8 7 1 1 2-8 1-6 7h-2l1-7 6-10 9-7z" fill="#473916"/>
<path transform="translate(1485,932)" d="m0 0 2 4 3 9 4 9v2l-12-3 1-14z" fill="#A26700"/>
<path transform="translate(1677,683)" d="m0 0h2l6 7 12 9 7 8 4 9 1 4v7h-1l-2-9-6-10-5-5-12-11-6-8z" fill="#EBEAEA"/>
<path transform="translate(896,804)" d="m0 0h1v15l11 2 1 2-13 1-3 6h-1v-7l-7-2v-2h8l1-11z" fill="#11232B"/>
<path transform="translate(874,783)" d="m0 0h1v9l-1 2-15-1-4-1v-2z" fill="#284C57"/>
<path transform="translate(1566,785)" d="m0 0h2v24l-1 18-3-1v-19l1-16z" fill="#14262B"/>
<path transform="translate(1498,801)" d="m0 0 2 4-1 11-4 10-12 17-4 6-2-1 2-4 10-15 6-12 2-7z" fill="#EFEFEF"/>
<path transform="translate(376,870)" d="m0 0 3 1v2l-28 6-12 3-6 2h-5l1-2 21-6 17-4z" fill="#383018"/>
<path transform="translate(1619,836)" d="m0 0 2 4 1 16v13l-1 16h-1l-1-21-4-13v-6l2 3 1 2 1-3z" fill="#162D36"/>
<path transform="translate(1495,808)" d="m0 0h2l-1 9-7 14-15 21-2-1 7-11 10-16 5-12z" fill="#242D26"/>
<path transform="translate(451,853)" d="m0 0h7l-2 4v-2l-8 3-16 3-13 3-8 1 2-2 29-8z" fill="#21261E"/>
<path transform="translate(923,764)" d="m0 0h1v8l-1 7h7l1 3-9-1-1 17-3-1 1-13 1-3-10-1v-1l10-2 2-12z" fill="#1C2827"/>
<path transform="translate(1371,1721)" d="m0 0h2l1 5-5 3-22 12-2-1 17-13z" fill="#FCFCFC"/>
<path transform="translate(1801,1430)" d="m0 0 1 2-3 6-8 13-8 11-4 7h-2l-2 4-3 5-2-1 2-5 8-10 16-24z" fill="#373018"/>
<path transform="translate(661,364)" d="m0 0h11l15 2 17 5 2 2-9-2-12-3-7-1h-17l-18 3-1-3 9-2z" fill="#2D352A"/>
<path transform="translate(913,843)" d="m0 0 19 3v3l-18-2-1 16h-3l1-16-8-1 4-2z" fill="#282F25"/>
<path transform="translate(538,880)" d="m0 0 9 1 21 5 17 6 2 2-11-2-35-10z" fill="#0F1E24"/>
<path transform="translate(1448,1020)" d="m0 0h2v2l-19 8-26 12-4-1 16-8 17-8z" fill="#6B4C0D"/>
<path transform="translate(1697,872)" d="m0 0 2 2 13 37 1 6-2 3-12-38-2-5z" fill="#1B3640"/>
<path transform="translate(1407,274)" d="m0 0h6l2 2v7l-3 2h-5l-3-5 2-5z" fill="#FEEA74"/>
<path transform="translate(1625,944)" d="m0 0h1l1 25 1 5 10 3-4 2-13-3-1-3-2-1 5-1 1 2v-17z" fill="#152B34"/>
<path transform="translate(1527,931)" d="m0 0 8 16 3 3v2h2v2l4 2-2 4-6-6v-2l-3-1-5-8-3-8 1-3z" fill="#142831"/>
<path transform="translate(1566,1308)" d="m0 0h1l1 22 12 1 1 1 1 45-2 1-1-45-13-1z" fill="#FEE479"/>
<path transform="translate(1708,737)" d="m0 0h1v8l-6 20-6 11-4 1 2-5 8-16 4-13z" fill="#ECEBEA"/>
<path transform="translate(439,615)" d="m0 0 5 2 6 8 3 8 1 8h-2l-5-8-5-2v-1h6l-5-10z" fill="#0F1F25"/>
<path transform="translate(506,1818)" d="m0 0h28l26 1v1l-54 1z" fill="#FBF6F4"/>
<path transform="translate(1814,1309)" d="m0 0v3l-3 6h-2l-1 5-1 2h-2l-3 9h-2l-3 9-3-1 2-5 4-7 12-20z" fill="#403516"/>
<path transform="translate(841,315)" d="m0 0h5l2 2v6l-2 2-7-1-1-1v-6z" fill="#D8AB06"/>
<path transform="translate(676,950)" d="m0 0h1l6 42v10l-2-1-5-43z" fill="#D8D8D8"/>
<path transform="translate(892,761)" d="m0 0 1 2-4 8-2 3 12 1-1 3-14-1-4 2v-3l8-8z" fill="#202B27"/>
<path transform="translate(1521,646)" d="m0 0h10l1 1v5l-2 1h-10l-1-5z" fill="#2B2B1C"/>
<path transform="translate(1518,1416)" d="m0 0 2 1v23h-2l-2-5v-15z" fill="#FEE479"/>
<path transform="translate(1638,775)" d="m0 0 5 2-2 1-2-1-1 4-5 9-4 7-2 1-1 3-4 1 2-5 13-19z" fill="#1A2C2F"/>
<path transform="translate(1637,591)" d="m0 0 5 1 8 8 6 12-2 3-4-8-7-9-6-5z" fill="#818B8B"/>
<path transform="translate(1529,905)" d="m0 0h1l-1 9-2 20-3-4v-10l3-13z" fill="#12242C"/>
<path transform="translate(541,582)" d="m0 0 9 1 2 2-8 4-3 2-4-3 1-4z" fill="#0F1E24"/>
<path transform="translate(542,924)" d="m0 0h12l23 3 4 2-4 1-35-5z" fill="#0F1E24"/>
<path transform="translate(1566,974)" d="m0 0 4 5 9 16v3l-3 1-9-19z" fill="#152B33"/>
<path transform="translate(1533,1308)" d="m0 0 1 3-1 21-1 1h-11l-1 11h-4l1-2 1-4 2-7h12v-22z" fill="#FEE479"/>
<path transform="translate(623,893)" d="m0 0 2 3 1 17h-1v-6h-2l-6-9v-2z" fill="#FAD61F"/>
<path transform="translate(518,626)" d="m0 0h2l-1 4-8 5-3 1h-10l-3-2 9-1 9-3z" fill="#172F38"/>
<path transform="translate(1329,290)" d="m0 0 1 3-2 10 1 10 1 6h-2l-1 3-2-1 1-21 2-8z" fill="#FDE24F"/>
<path transform="translate(1583,812)" d="m0 0v3l-9 10-6 6h-3v-4l5-3 7-7z" fill="#1D2C2D"/>
<path transform="translate(874,792)" d="m0 0 1 2 9 1-4 1v2l-3 1-1 7-3-1v-8h-6l3-3h4z" fill="#142931"/>
<path transform="translate(1626,708)" d="m0 0 6 1 1 2-8 1-6 7h-2l1-7 3-3z" fill="#433818"/>
<path transform="translate(823,316)" d="m0 0h6l1 1v6l-1 1h-6l-2-5z" fill="#F2F2F2"/>
<path transform="translate(1305,282)" d="m0 0h5l2 6-3 10-4 6-3 1v-19zm1 1-2 1-1 3v15l3-1 4-9v-7l-1-2z" fill="#FEEA74"/>
<path transform="translate(1485,719)" d="m0 0 1 2-6 13-2 7-3-1 2-9 5-10z" fill="#282F25"/>
<path transform="translate(639,368)" d="m0 0h4v2l-19 8-3-1 3-3 12-5z" fill="#18282B"/>
<path transform="translate(806,316)" d="m0 0h5l2 2-1 5-1 1h-5l-2-2 1-5z" fill="#D7D7D7"/>
<path transform="translate(512,644)" d="m0 0 6 1 4 4-1 3h-6l-3-3z" fill="#F9B8AD"/>
<path transform="translate(1373,987)" d="m0 0 2 1 1 2-16 8-7 4-2-1 10-7z" fill="#5C4411"/>
<path transform="translate(415,872)" d="m0 0 1 2-4 16h-2l-1 7-1 3h-2l1-7 6-17z" fill="#4E3D13"/>
<path transform="translate(1548,882)" d="m0 0 6 1v6l-1 1h-5l-2-2 1-5z" fill="#13262E"/>
<path transform="translate(1517,813)" d="m0 0 2 1-4 18-2 3-1-2-2 1 3-9z" fill="#915A00"/>
<path transform="translate(1495,808)" d="m0 0h2l-1 9-6 12-2-1 2-6 4-10z" fill="#232D27"/>
<path transform="translate(1545,630)" d="m0 0 5 5 7 8 7 6 2 2h-5l-11-11-5-8z" fill="#F5B8AB"/>
<path transform="translate(1561,844)" d="m0 0h6l1 6-5 2-3-2v-5z" fill="#12252D"/>
<path transform="translate(838,703)" d="m0 0 4 1h-2l-2 5-6 7-5 2 2-4 8-10z" fill="#212D2A"/>
<path transform="translate(1536,917)" d="m0 0 5 1 1 5-2 2-5-1-1-5z" fill="#12252D"/>
<path transform="translate(1534,890)" d="m0 0h3l-3 10-3 7-3-1 3-9z" fill="#152A33"/>
<path transform="translate(1688,848)" d="m0 0 2 2 3 8 2 5v6l-4-4-4-15z" fill="#1C3741"/>
<path transform="translate(1498,801)" d="m0 0 2 4-1 11-3 8h-3l3-10z" fill="#ECECEC"/>
<path transform="translate(503,586)" d="m0 0h7l2 2-1 4-3-1h-10l1-3z" fill="#0F1E24"/>
<path transform="translate(1770,1477)" d="m0 0v3l-8 10-3 5-4 1 3-5 7-9z" fill="#23271E"/>
<path transform="translate(1585,812)" d="m0 0 3 3 8 17h-3l-7-14z" fill="#172D35"/>
<path transform="translate(1581,1441)" d="m0 0 5 3v2l4 2 9 8-2 1-13-10-3-2z" fill="#4E3C13"/>
<path transform="translate(1391,1013)" d="m0 0 3 1v2l-20 8-2-1z" fill="#7E520D"/>
<path transform="translate(522,922)" d="m0 0h15l12 1v1l-7 1-17-1z" fill="#784E06"/>
<path transform="translate(852,809)" d="m0 0h1v5l12 1 4 3h-13l-3-1-1-2z" fill="#12252C"/>
<path transform="translate(346,877)" d="m0 0 3 1v2l-10 2-6 2h-5l1-2z" fill="#413515"/>
<path transform="translate(419,793)" d="m0 0 1 3-4 10v3h2l2-5 1 2-4 8-4-2 2-9z" fill="#77520A"/>
<path transform="translate(1566,785)" d="m0 0h2v17l-3 1v-12z" fill="#11232A"/>
<path transform="translate(1703,763)" d="m0 0 1 4-11 20-2 1 2-6z" fill="#132226"/>
<path transform="translate(1669,667)" d="m0 0h3l5 11v3l-1 2-4-7-3-6z" fill="#313C38"/>
<path transform="translate(1421,1031)" d="m0 0 3 1-4 3-15 7-4-1 16-8z" fill="#7C5408"/>
<path transform="translate(421,711)" d="m0 0 5 5 9 13-3 1-6-8-4-8z" fill="#1F2A28"/>
<path transform="translate(1801,1430)" d="m0 0 1 2-3 6-8 13h-3l7-11z" fill="#7E5306"/>
<path transform="translate(532,586)" d="m0 0 2 3 3 11v4h-3l-2-9z" fill="#0F1E24"/>
<path transform="translate(1487,1447)" d="m0 0h5v14l-2-3-3-8z" fill="#D4D4D4"/>
<path transform="translate(281,910)" d="m0 0m-1 1m-2 1 2 1-4 5-2 4-7 6-1 2h-2l2-4 6-7h2l1-4z" fill="#67480C"/>
<path transform="translate(900,773)" d="m0 0 1 3 13 1 1 2h-15l-2 1 1-6z" fill="#0F1E25"/>
<path transform="translate(1718,1542)" d="m0 0h1l1 10 2-1-2 12-2 2z" fill="#C18603"/>
<path transform="translate(1779,1441)" d="m0 0v3l-3 3-4 8-4 4 2-6 6-11z" fill="#63470E"/>
<path transform="translate(1430,998)" d="m0 0 4 1-19 8-5-1 3-2z" fill="#805607"/>
<path transform="translate(1417,969)" d="m0 0 4 1-16 7h-2l-1-3z" fill="#6A4B0D"/>
<path transform="translate(1535,948)" d="m0 0 3 2v2h2v2l4 2-2 4-6-6v-2l-3-1 1-2z" fill="#152B34"/>
<path transform="translate(1708,745)" d="m0 0 2 1-1 7-4 12-2-3z" fill="#353826"/>
<path transform="translate(484,624)" d="m0 0 4 2v2l10 5v1l-7-1-7-6z" fill="#142830"/>
<path transform="translate(891,845)" d="m0 0h1v9l-1 7-3 1 1-14z" fill="#182A2F"/>
<path transform="translate(642,554)" d="m0 0 8 1 8 2v2l-14-2-4-2z" fill="#292F25"/>
<path transform="translate(1294,322)" d="m0 0 3 2 4 2 2 3-1 2h-4l-4-5z" fill="#F4BA01"/>
<path transform="translate(1761,1400)" d="m0 0 3 1-3 10-2 5h-1l1-10z" fill="#D4A00D"/>
<path transform="translate(1712,917)" d="m0 0h2l4 12v4l-3-1-3-11z" fill="#21414B"/>
<path transform="translate(1564,826)" d="m0 0h1v5l2 1-7 13-2-1 2-6 3-5z" fill="#18303A"/>
<path transform="translate(915,828)" d="m0 0h1v10l-1 6h-3l1-12z" fill="#17272C"/>
<path transform="translate(413,809)" d="m0 0 2 3v3l-1 2h-2l-2 7h-2l1-5z" fill="#192423"/>
<path transform="translate(626,919)" d="m0 0h1l1 5v8h-3v-2l-3-1 3-1v-7z" fill="#FBDA3D"/>
<path transform="translate(1529,905)" d="m0 0h1l-1 9-1 6-3-1 1-8 2-5z" fill="#13262E"/>
<path transform="translate(894,842)" d="m0 0h9l8 1-4 2h-11l-2-1z" fill="#16262A"/>
<path transform="translate(1594,832)" d="m0 0 3 1 2 3h3l1-2-1 4-2 4h-2l-4-8z" fill="#192526"/>
<path transform="translate(1805,1399)" d="m0 0 2 1-1 2h-2l-2 5-5 8h-3l2-4z" fill="#65470D"/>
<path transform="translate(1623,801)" d="m0 0h2l-2 5-4 7-3-2 2-5z" fill="#142830"/>
<path transform="translate(1689,790)" d="m0 0 1 2-3 11-1-3h-2v-8h3z" fill="#6E4909"/>
<path transform="translate(546,625)" d="m0 0 5 2 9 1v2l-7 1-7-3z" fill="#152B34"/>
<path transform="translate(900,778)" d="m0 0 4 1h-3l-1 12-3-1 1-10z" fill="#142831"/>
<path transform="translate(364,873)" d="m0 0m-6 1h6v2l-13 3-3-1 2-2z" fill="#1D241F"/>
<path transform="translate(872,826)" d="m0 0h1l-1 13h-3l-4-1 3-1 2-7z" fill="#142931"/>
<path transform="translate(524,613)" d="m0 0h1v7l-4 7-2-1 3-9z" fill="#142931"/>
<path transform="translate(1581,1397)" d="m0 0 3 1 9 11v3l-4-3v-2h-2l-3-5-3-2z" fill="#594210"/>
<path transform="translate(1008,528)" d="m0 0 4 2 12 12-1 2-6-5-7-8z" fill="#0F1E24"/>
<path transform="translate(1305,322)" d="m0 0 6 5v4l-5-1-1-3-2-1 2-1z" fill="#F5BD01"/>
<path transform="translate(1795,1414)" d="m0 0v3l-1 3h-2v3h-2l-1 3h-2l2-5 4-6z" fill="#322E19"/>
<path transform="translate(1814,1309)" d="m0 0v3l-3 6h-2l-1 5-2-1 2-5 4-7z" fill="#564010"/>
<path transform="translate(1675 1e3)" d="m0 0 1 2 4 2 4 5-3 1-1-3-4-2-3-3h2z" fill="#162D36"/>
<path transform="translate(870,842)" d="m0 0h1l-1 14-3-2 1-9z" fill="#142830"/>
<path transform="translate(1779,1329)" d="m0 0 1 3-5 15-2-1 2-7z" fill="#825505"/>
<path transform="translate(454,855)" d="m0 0h2l1 4-1 3 2 1h-3l-1 5-2 3 1-9z" fill="#8A5D06"/>
<path transform="translate(1505,853)" d="m0 0 10 2-4 8-2 1 2-7-6-2z" fill="#8E5800"/>
<path transform="translate(1763,1382)" d="m0 0h2l-2 12-3-2 2-9z" fill="#3C3317"/>
<path transform="translate(590,894)" d="m0 0 10 1-4 2h-2l-1 4-2-5-2-1z" fill="#DD9F00"/>
<path transform="translate(1479,840)" d="m0 0 3 1-8 11-2-1z" fill="#24302C"/>
<path transform="translate(451,612)" d="m0 0h9l-2 5-3 1z" fill="#0F1E24"/>
<path transform="translate(540,600)" d="m0 0 2 3 1 11-2 3-1-4z" fill="#9A6000"/>
<path transform="translate(1220,856)" d="m0 0h7l-6 7h-1z" fill="#FBE876"/>
<path transform="translate(1523,835)" d="m0 0h1l-1 7-2 5-3 2 1-5z" fill="#8E5800"/>
<path transform="translate(426,700)" d="m0 0h2l-2 4h-2l-2 4-4-2z" fill="#FCE25F"/>
<path transform="translate(1125,1598)" d="m0 0h1l-1 11h-5v-2l3-3z" fill="#2F2E1C"/>
<path transform="translate(922,845)" d="m0 0 10 1v3l-12-1z" fill="#2B342B"/>
<path transform="translate(894,827)" d="m0 0h1l-1 13-3-3 1-7z" fill="#142830"/>
<path transform="translate(1692,776)" d="m0 0 4 2-4 5-4 2 1-4z" fill="#985F00"/>
<path transform="translate(554,586)" d="m0 0 4 2-4 2-2 2h-5l1-3 6-1z" fill="#0F1F25"/>
<path transform="translate(1742,1748)" d="m0 0 2 1-11 11v-3l4-5h2v-2z" fill="#152B33"/>
<path transform="translate(1516,1430)" d="m0 0 2 2 2-1v9h-2l-2-5z" fill="#FEEA74"/>
<path transform="translate(1517,1422)" d="m0 0h2v10l-2 1-1-8z" fill="#F7C403"/>
<path transform="translate(1400,975)" d="m0 0h3v3l-5 2-4-1 3-3z" fill="#2F2E1C"/>
<path transform="translate(870,837)" d="m0 0 1 2 3 1-5 5-1-4h-2v-2z" fill="#102026"/>
<path transform="translate(1548,712)" d="m0 0 1 2-3 3-6-1-1-3 6 1z" fill="#744F09"/>
<path transform="translate(424,617)" d="m0 0 2 4-2 5-4-1z" fill="#2F3B34"/>
<path transform="translate(490,594)" d="m0 0h6l-4 3-6 4-1-2 1-2h2v-2z" fill="#142830"/>
</svg>
