<?xml version="1.0" encoding="UTF-8"?>
<svg version="1.1" viewBox="0 0 2000 2000" width="2000" height="2000" xmlns="http://www.w3.org/2000/svg">
<path transform="translate(0)" d="m0 0h2e3v2e3h-2e3z" fill="#D2E1F1"/>
<path transform="translate(435,296)" d="m0 0 18 1 180 16 89 8 6 1v32l12 3 8 6 5 5 3 6v3h9l3 2 1 5-3 5-9 7h-3v36l-5 13-6 8-3 2-1 6 3 1 3 8v3l7 2 16 8 8 5 6 7 11 21 8 18 7 14 3 7 1 5 12 2 1-6 6-28 5-22 8-34 1-1h79l1 1 1 44v40l8-1-6-5-1-5 2-3 7 1 16 8 9 7h6l1-3 29-7 27-6 9-4 6-7 5-5 9-10 9-11 8-10 9-12 10-10 10-6h2v-12l5-1-7-7-4-7-2-5-5-7-3-10v-13l2-11 1-2h-2l1-8 3-6 7-9 7-6 8-5 10-3h18l13 4 9 6 6 5 6 9 4 8 2 10v15l-6 15-6 8-9 8-5 3h-4l-3 9 4 1 9 10 9 4 10 6 7 8 3 12v153l-5 1v9l-1 1v24l4 68v16l12-1-4-6v-15l6-8 7-3h84l8 4 4 5 1 2v14l-5 8-5 2v2h2l5 8v131h129l1-6 8-21 7-20 6-20 4-22 1-14v-26l-3-24-5-21-9-25-15-32-8-18-9-3-5-5-4-5-4-11-11-7-8-4-3-5v-7l3-5 3-2h10l8 7 3 2 4-1 7-5 3-1h57l5 5 6 9 1 3v17l-6 12-6 6-20 1v3h21l13 16 13 17 10 13 14 19 13 18 16 24 7 12 3 8v4l-21 10-16 10 2 6 2 4v3l3-1h26l15 4 14 7 10 8 7 7 4 5 6 11 4 10 2 9v24l-3 13-8 16-6 8-11 11-10 6-11 5-5 2-11 2h-19l-16-4-12-6-11-8-8-8-7-10-6-13-3-11-1-6v-17l4-18 8-15 11-13 5-4-1-4-3 1-9 11-7 10-4 8-9 25-14 36-2 5-102 1-13 27-3 7 11 1 1 2v13l-1 1h-39l-1-1v-14l1-1 18-1 16-34h-87l-7 11-3 4h-2l-1 3h-2v2l-12 9-12 6-13 4 1 9 1 7-1 1h-44l-1-4 3-17-4-1-10-5-12-9v-2l-4-2-6-8-23-1v12l2 23v8h-78l1-5 9-8 13-10 1-5 6 1-1-5h6v-3l1-3 4 1 2 1-1-12-4-7-1-2v-15l3-7h2v-2h2v-38l1-60 3-100 1-48-4-1v-9h-4v-30l1-21-4-1h-8l-6 5-23 7-11 4h-6l-1-1v-6l-5-1-1-1v-5l1-2-5-1-1-1v-5l3-3-3-3-24-1-6-2-4 2-8 3-19 3-5 3-1 5-7 2-43 4h-15l-9-3-2-1 1 7-1 1-16-1-5-1-15-1-7-3-1-1-32-2v14l-1 31-4 224-1 72-1 8h-3l1 11 13 5 10 9 6 7 2 3v4h-58l-1-1v-8l4-14 2-5 1-11-5-1-3-53-2-34-7-116-1 194-7 2-18 1v6l-4 1v16l4 10 1 12-1 1h-31l-1-5 4-13 4-7 1-14-4-1v-3l-44 4-190 17h-6l-1-1z" fill="#0E2138"/>
<path transform="translate(1333,1099)" d="m0 0h331l1 1v709h143v4l-443 1v25l4 8 5 8 3 9v13l-2 4h-23l-1-1v-5l-10 6h-59l-1-1v-5l-10 6h-55l-2-3v-5l5-6 14-8 21-10 13-13-1-23h-234v-4h234l-2-13-3-30v-7h-11l-1-8-1-19v-52l3-42 3-36 4-54 3-46 3-37 1-14v-11l-12 40-8 26h-3v9l1 2v10l-4 15-2 6-1 1-16 1-11-1-10 8-10 7-4-1-7-19 1-5 13-4h3l-1-6 16-16 9-6h2l1-6-3-1v-8l6-35 7-36 1-3-20 3h-6l-2-2h-4l3-4 1-8 2-1v2h2l1 8 29-3 30-4 16-2 7-1 12-7 11-6 20-12 11-7 9-6 8-14 3-9v-11l-5-7-4-2h-10l-4 3h-3l2-4 2-3h2l-2-4 4-2-1-12-2-1-19-1-3-2-1-5 4 4h30l-4-52-4-28-5-12-5-6-11-7-11-4h-18l-13 4-7 5h-2v2h-2l-2 4-6 10-4 16v19l4 22 1 4 1-16 5-23 4-12 6-11 6-7 10-7 11-4h8l-1 5 9 6 8 9 4 11v12h-1l-2-14-3-1-5-9-8-7-11-4-7 1-8 6-5 5-5 8-2 4 8 1 1 2-1 2h-9l-3 9-2 9 5-1-2 3h-4v10l5 10 8 9 8 4 13 3v1h-9l-4-1v8l-1-2-7 7-9 1-2 2h-19l2-20v-22l-2-13v-23l4-14 7-11 5-6 12-8 12-3h20l13 5 2 1v-90z" fill="#E2BEAF"/>
<path transform="translate(824,1156)" d="m0 0h21l13 4 10 6 8 7 7 10 4 8v6h-2l3 15v17l-2 8-6 9-8 15-5 7-2 1 5 2v13l6 2 11 8 9 9 8 11 13 16 11 13 9 11 8 9 8 6 65 15 5 2 1 2 6 2 5-1 7-7 4-2 12 1 4 2h14l2 4 5 3v15l-1 1v9l6 34 6 39 2 12v10l-4 12-6 6-12 1h-57l-7-2-5-6-5-17 4-11 16-32 20-38v-2l-4-2-2-3h-14l-3 2h-66l-12-2-10-6-18-13-2-1 4 84v13l-5 1v10h-5l2 80 4 147 6 9 5 13 2 7 1 8v26l-4 17-7 16-1 1-1 10 8-1-1 5 4 1h3l-1 5h8v5l14 11 11 9 2 3v3h-89l1-13-13 5-13 3-8 1h-14l-17-3 2 13-2 1h-49l-1-4 8-32-1-4-3-1v-4h-2l-9-13-7-16-5-20v-23l5-20 8-16 6-9 9-10-7-14-4-6v-2l-11 3-27 9h-3l-2 5-9 17-6 18-3 14-2 27-4 11-8 9-10 5-6 1h-74l-3 10-12 30h11l2 1v14l-2 1h-37l-1-1v-15l18-1 8-21 7-18h-149v-7l2-14v-22l-3-19-6-20-8-17-8-12-7-9-11-12-10-8-10-7-2 6-5 8-1 3 4 2 10 9 10 11 11 18 5 13 3 11 2 11v23l-5 21-6 15-6 11-7 9-9 10-13 11-16 9-16 6-20 4h-18l-17-3-16-5-17-9-14-11-10-10-11-16-7-15-4-13-3-17v-16l2-13 4-16 6-14 7-11 9-11 10-10 14-10 16-8 13-4 15-3h21l20 4 2-6 5-9-8-3-19-3h-16l-77 9h-8l1-4 21-12 11-6 19-10h2l-1-6v-144h145l1 1v101h144l11 4 7 5 6 8 4 9v16h-12l1 90 22 77v2l72-1 1-1 2-26 2-13 7-23 6-14 8-16 2-3 4-15 1-7v-22l-3-15-5-14-20-40-8-17-8-16-9-19-6-11 1-4 7-1-3-5v-3h-20l1-7 4-9h-13l-7 3-10-1-8-7-1-3v-11l6-8 4-2h10l6 3 5 5 18 3 2-6 7-15 8 1 11 4h5l5-3 8-4 11-3 15-2h15v61l-1 1-38 1 4 7 28 1 12 14 9 11 11 13 8 10 12 14 6 8 2 1v-17l3-56h-3v-10l-5-1-1-42-10-15-6-10-6-12 1-17 4-28 6-31 5-19 4-10 12-13h2v-2l16-9 7-3 7-9h2l1-3h4v-6h-2l-2-5h-6l-10-8-5-5-6-8-5-12-2-10v-12l3-14 7-12 9-10 10-7 10-4z" fill="#0E2138"/>
<path transform="translate(706,338)" d="m0 0h6v18l-10 6-6 5-6 9-3 9-1 11h3l1 10-8 2-2 5v11l4 5 7 3 4 13 6 7 4 3v5l-4 4-5 7-16 6-14 7-6 7-6 12-1 4v13l5 12 5 10 4 44 4 41 4 224v64l-25-5-137-30-59-13-1-1v-490l173-26z" fill="#9CBCDB"/>
<path transform="translate(435,296)" d="m0 0 18 1 180 16 89 8 6 1v32l12 3 8 6 5 5 3 6v3h9l3 2 1 5-3 5-9 7h-3v36l-5 13-6 8-3 2-1 6 3 1 3 8v3l7 2 16 8 8 5 6 7 11 21 8 18 7 14 3 7 1 5 12 2 1-6 6-28 5-22 8-34h22v2h6v1h-11l-1 15-9 78v6h5l2 2v7l2 2 3 8 2 3 2-24 6-88 2-8h1v18l-7 102-1 4 51-5h4v-16l1-16 2-1v2l7-1v4l2 6-1 3 1 6-3 3 6 2v2l-8 3-3 7-27 3-22 2h-15l-9-3-2-1 1 7-1 1-16-1-5-1-15-1-7-3-1-1-32-2v14l-1 31-4 224-1 72-1 8h-3l1 11 13 5 10 9 6 7 2 3v4h-58l-1-1v-8l4-14 2-5 1-11-5-1-3-53-2-34-7-116-1 194-7 2-18 1v6l-4 1v16l4 10 1 12-1 1h-31l-1-5 4-13 4-7 1-14-4-1v-3l-44 4-190 17h-6l-1-1zm271 42-253 38v490l5 2 101 22 109 24 7 1v-64l-4-224-6-64-2-21-9-19-1-3v-13l5-13 6-8 3-3 17-8 12-4 7-10 2-1v-5l-9-8-4-11-1-4-7-3-4-5v-11l2-5 8-2-1-10h-3l1-11 4-11 7-9 9-6 5-3v-18z" fill="#0E233B"/>
<path transform="translate(1333,1099)" d="m0 0h331l1 1v709h143v4l-443 1v25l4 8 5 8 3 9v13l-2 4h-23l-1-1v-5l-10 6h-59l-1-1v-5l-10 6h-55l-2-3v-5l5-6 14-8 21-10 13-13-1-23h-234v-4h234l-2-13-3-30v-7h-11l-1-8-1-19v-52l3-42 3-36 4-54 3-46 3-37 1-14v-11l-12 40-8 26h-3v9l1 2v10l-4 15-2 6-1 1-16 1-11-1-10 8-10 7-4-1-7-19 1-5 13-4h3l-1-6 16-16 9-6h2l1-6-3-1v-8l6-35 7-36 1-3-20 3h-6l-2-2h-4l3-4 1-8 2-1v2h2l1 8 29-3 30-4 16-2 7-1 12-7 11-6 20-12 11-7 9-6 8-14 3-9v-11l-5-7-4-2h-10l-4 3h-3l2-4 2-3h2l-2-4 4-2-1-12-2-1-19-1-3-2-1-5 4 4h30l-4-52-4-28-5-12-5-6-11-7-11-4h-18l-13 4-7 5h-2v2h-2l-2 4-6 10-4 16v19l4 22 1 4 1-16 5-23 4-12 6-11 6-7 10-7 11-4h8l-1 5 9 6 8 9 4 11v12h-1l-2-14-3-1-5-9-8-7-11-4-7 1-8 6-5 5-5 8-2 4 8 1 1 2-1 2h-9l-3 9-2 9 5-1-2 3h-4v10l5 10 8 9 8 4 13 3v1h-9l-4-1v8l-1-2-7 7-9 1-2 2h-19l2-20v-22l-2-13v-23l4-14 7-11 5-6 12-8 12-3h20l13 5 2 1v-90zm18 20v95l3 14 3 26 3 48-9 1v14l14 8 5 9v12l-4 12-6 10-9 28v51l9 12 10 18 8 20 3 14 2 17v44l-3 40-2 16-1 130-8 1-2 22v13h279v-675z" fill="#0E2037"/>
<path transform="translate(260,1470)" d="m0 0h145l1 1v101h144l11 4 7 5 6 8 4 9v16h-12l1 90 22 77v2l72-1 1-1 2-26 2-13 7-23 6-14 8-16 2-3 4-15 1-7v-22l-3-15-5-14-16-32 1-7 3 4 15 30 6 15 3 12 1 7v22l-3 16-7 18-8 15-7 19-4 17-2 13-1 19-3 5-2 1h-206l-1-23-4-24-8-24-10-19-8-12-13-16-9-9-17-13-15-9-15-7-18-6-18-4-7-1-29-1-1-4-18-1 4 10 4 5 9 6 6 2 20 1 19 3 4 2-7 1h-10l-6-1h-16l-77 9h-8l1-4 21-12 11-6 19-10h2l-1-6z" fill="#0A1C33"/>
<path transform="translate(767,1623)" d="m0 0 3 1-10 14-13 18-13 19-6 8-10 14h2l28-9-2 5-10 4-21 7h-3l-2 5-9 17-6 18-3 14-2 27-4 11-8 9-10 5-6 1h-74l-3 10-12 30h11l2 1v14l-2 1h-37l-1-1v-15l18-1 8-21 7-18h-149v-7l2-14v-22l-3-19-6-20-8-17-8-12-7-9-11-12-10-8-10-7-2 6-5 8-1 3 4 2 10 9 10 11 11 18 5 13 3 11 2 11v23l-5 21-6 15-6 11-7 9-9 10-13 11-16 9-16 6-20 4h-18l-17-3-16-5-17-9-14-11-10-10-11-16-7-15-4-13-3-17v-16l2-13 4-16 6-14 7-11 9-11 10-10 14-10 16-8 13-4 15-3h21l20 4 2-6 5-9-8-3-7-1 4-2h10l15 5 16 8 10 6 13 10 17 17 8 11 9 15 6 13 6 21 3 19v21l-2 17h227l10-3 9-8 4-11 2-25 3-15 7-21 10-19 12-17 13-18 24-34 7-10z" fill="#0D2037"/>
<path transform="translate(1337,1439)" d="m0 0 4 2 7 7 12 17 8 15 7 18 3 13 2 21v40l-3 38-2 18-1 126-1 1h-51l-2-6-17-195-5-56-5-5-13-10-3-1v3l17 13 1 1 10 113 3 34v18l-3 20v70l-1 1h-50l-1-2-1-17v-57l5-63 11-152 2-24z" fill="#6EA3D5"/>
<path transform="translate(369,1664)" d="m0 0 5 2 13 11 8 7 9 10 10 15 8 15 7 21 3 15 1 8v22l-3 21h149l-1 5-8 20-5 14-1 1h-18l1 15h39v-14l-13-1 3-10 2-5 53 3 45 4 20 3 16 3 12 3 8 5 1 4-2 3-14 5-25 5-32 4-38 3-55 3-31 1h-145l-68-3-43-3-31-3-37-6-12-4-5-3-2-4 2-3 13-5 12-3h5l1-2 14 11 17 9 16 5 17 3h18l20-4 16-6 16-9 14-12 10-11 8-13 7-16 4-14 2-10v-23l-4-18-5-15-8-14-10-13-10-10-7-5 1-4 6-11z" fill="#9CBCDB"/>
<path transform="translate(641,1510)" d="m0 0 73 1 12 14 8 10 14 17 12 14 9 11 5 7-1 24-2 8-12 16-14 20-13 18-24 34-10 19-7 21-3 15-2 25-4 11-7 7-8 4-5 1h-227l-1-2 2-16v-21l-3-19-4-15-7-17-8-14-8-11-9-10-11-11-17-12-15-8-16-6-16-4-14-2-20-1-9-4-8-6-5-8-1-6h16l2 1 1 3 29 1 18 3 20 6 16 7 16 9 16 12 12 11 9 10 11 15 9 16 5 11 7 21 4 24v23l206-1 3-3 1-2 1-19 4-22 5-17 8-18 7-14 5-15 2-12v-22l-3-16-5-13-12-25-11-23-25-50z" fill="#FC7F81"/>
<path transform="translate(1076,660)" d="m0 0h101l2 24 6 102 4 70 5 87v10h-31l-6-37-4-26-5-30-6-40-4-24-8-53-5-33-4-25-5-2-14-8h-3l-1 3 5 2 9 5 5 3 3 13 6 39-2 16-6 32-4 23-6 45-7 50-3 25-2 16-1 2h-25l2-143 4-122z" fill="#274059"/>
<path transform="translate(316,1615)" d="m0 0h245l1 1 1 90 9 31 7 25 5 18v3h-124l-1-23-4-22-6-19-7-15-9-15-8-11-11-13-9-9-10-8-15-10-17-9-19-7-22-5-6-1z" fill="#FE333A"/>
<path transform="translate(675,631)" d="m0 0 24 3 26 1 19-1 23-3h4l-1 71-4 223-1 19h-19l-1-2-13-215-1-15v-21l13-8h2v-4l-9 4-10 6-5 43-5 48-10 93-7 67-1 4h-19l-2-93-3-180z" fill="#2978C3"/>
<path transform="translate(1298,1188)" d="m0 0h18l13 5 11 8 6 9 4 13 3 23 3 42v10l-6 1h-24l-3-3v3l3 1 19 1 3 2v12l-3 3 1 3h-2l-2 4-2 3 7-4h10l6 4 4 6v11l-5 13-7 11-15 10-20 12-13 8-14 7-1 1-12 2-36 4-17 2-17 1-1-8-3-1-1 8-3 4v3l-8 3-19 5-9 3h-6l-1-7-4-1-1-1v-6l-5-4 1-4 2-3-2-2v-5l3-2 19-2 2-1-6-5v-5l2-2 10 2 16 7 5 4 9-3 24-6h2l2-27 3-20 4-10 9-10 10-6 11-6 6-3-5-1 1-3 10-1 5-6h2l1-6h10l-13-3-8-6-6-7-5-10v-7l1-3 5-2h-4l1-9 3-9 1-1 9 1v-3l-8-2 2-6 6-9 10-8 4-2 9 1 10 5 7 7 3 5v3h2l1-2 2 8-2-10-6-9-8-7-7-3 4-1v-4l-12 2-12 6-7 6-6 9-5 11-5 19-2 11-1 19-2-3-4-19-1-7v-19l4-16 6-10 3-4h2v-2l11-7z" fill="#11243B"/>
<path transform="translate(455,200)" d="m0 0 17 1 242 25 6 1v77l-1 1-17-1-42-4-35-4-52-5-16-2-32-3-26-3-29-3-15-2z" fill="#87AAD1"/>
<path transform="translate(1444,683)" d="m0 0 4 2 8 15 8 19 6 20 5 26 3 23 1 20v25l-1 23 10-13 18-18 13-10 11-7 14-8 11-5h2l-4-10-10-17-16-23-13-18v-5l4 2 13 18 16 23 10 17 4 8 1 7-21 10-16 10 2 6 2 4v3l3-1h26l15 4 14 7 10 8 7 7 4 5 6 11 4 10 2 9v24l-3 13-8 16-6 8-11 11-10 6-11 5-5 2-11 2h-19l-16-4-12-6-11-8-8-8-7-10-6-13-3-11-1-6v-17l4-18 8-15 11-13 5-4-1-4-3 1-9 11-7 10-3 5-4-1-1 3 2-34v-31l-3-33-6-31-7-23-9-20-6-11z" fill="#0A1D33"/>
<path transform="translate(1252,936)" d="m0 0h88l-9 20-8 16-18 1v14h39v-15h-12l6-14h14l57 3 45 4 31 4 15 3 9 2 7 4v4h-2v2l-10 4-20 4-40 5-39 3-62 3-36 1h-143l-62-2-39-2-36-3-44-5-23-5-8-5v-4l14-6 30-5 25-3 26-2 1-2-1 5-16 13-5 4-2 5h78l-3-31v-10l1-2h23l8 10 11 9 8 5 9 4-1 11-1 9h44l-1-7-1-9 9-3 9-4 11-6 7-6h2v-2l3-3h2l2-4z" fill="#9CBCDB"/>
<path transform="translate(893,264)" d="m0 0h19l16 4 12 5 11 9 11 11 8 14 4 13 2 11 7-11 1-1h13l2 1v33h6v11h-6v10h-14v-10h-21v6 3 5l-9 11-8 7-7 5-14 6-13 3h-21l-14-3-16-8-10-8-10-11-8-15-4-14-1-7v-17l4-16 6-12 9-12h2l-8-16v-4l4 1 7 14 12-9 11-5 10-3z" fill="#F9FAFB"/>
<path transform="translate(783,1504)" d="m0 0 21 1 6 13 6 16v3l8 1h2l1-4 4 4 5-2 1-5 4 3 6 1-1 9-3 20-8 51-3 21-4 24-3 20-7 45-5 31-8 52-5 31-1 2h-36l1-24 7-117 6-103 5-86z" fill="#274059"/>
<path transform="translate(701,396)" d="m0 0h48l1 3v29l-2 12 3-5 1 3-6 12-6 5-1 6 3 1 3 8v3l7 2 16 8 8 5 6 7 11 21 8 18 7 14 3 7 1 5 12 2 1-6 6-28 5-22 1-5 2 2v5h2l1-9 5-22 1-2h10v9l-10 87-11 4-4-2h2l1-3h2l-1-7-7 1v3l-5 2v-2l-12 6-6 6-12-1-1 1h-12l21 3h6l4-5 14-8 4-2 3 1-8 7-1 4 13-1h15v1l-18 3v3l13 1 4 2-18 1-1 3 17 3v1h-17l1 3 9 3v1l-26-2-5-2-2-2-30-2-58-4-14-2-3-3 1-4 14-10 4-2 44 7 9 2v-2h-6v-3l-24-3-19-3 1-3 3-2-1-5-9-16-10-16-6-11-13-22-8-7-9-3 4-3 16-6 4 1 4 5 1-1-2-5-2-4 3-5 4 1 13 6 5 1 3 1-3-3-17-9v-4l17 2v-2l-10-2-14-7-5-6-2-10 2-4-9-1-5-5v-9l3-3 5-1 5 5 3 1-2-5 1-5z" fill="#0F233A"/>
<path transform="translate(284,1665)" d="m0 0h29l11 3-2 6-7 11-4 8-2 3h-14l-15 2-13 5-9 5-4 2v2l-4 1v2l-5 4-7 10-8 15-3 18v11l2 15 8 16 10 14 7 6 13 8 6 3 11 3 21 1 12-2 13-5 12-7 9-8 9-12 4-8 3-7 2-8 1-10v-11l-3-15-5-12-7-11-6-7-6-5 2-5 6-10 6-11 2-1 8 6 6 5 5 6v2h2l11 18 6 15 4 14v33l-6 23-9 17-8 11-10 10h-2v2h-2v2l-14 9-13 7-13 4-11 2h-29l-12-2-16-6-11-6-11-8-12-11-6-7v-2h-2l-9-16-5-12-4-16v-32l5-20 4-9 6-10 7-10 3-4h2l2-4 5-4 5-5 15-10 18-8z" fill="#263F58"/>
<path transform="translate(1336,1104)" d="m0 0h325v705h-296v-7l1-4 283-1 1-682h-303v88l-5-5-6-5z" fill="#CDDDEE"/>
<path transform="translate(1333,1099)" d="m0 0h331l1 1v709h143v4l-443 1v28l-4 1-1-4v-23l3-34 2-4 1 16h280v-675h-295l1 95 3 14 3 26 2 30v18h-6v-2l-8 1h-20l-3-2-1-5 4 4h30l-4-52-4-28-5-12-5-6-11-7-11-4h-18l-13 4-7 5h-2v2h-2l-2 4-6 10-4 16v19l4 22 1 4 1-16 5-23 4-12 6-11 6-7 10-7 11-4h8l-1 5 9 6 8 9 4 11v12h-1l-2-14-3-1-5-9-8-7-11-4-7 1-8 6-5 5-5 8-2 4 8 1 1 2-1 2h-9l-3 9-2 9 5-1-2 3h-4v10l5 10 8 9 8 4 13 3v1h-9l-4-1v8l-1-2-7 7-9 1-2 2h-19l2-20v-22l-2-13v-23l4-14 7-11 5-6 12-8 12-3h20l13 5 2 1v-90zm3 5v89l8 7 3 3v-88h303l-1 682-283 1-1 4v7h296v-705z" fill="#112239"/>
<path transform="translate(896,1504)" d="m0 0h3v18l4 129 2 112 1 73h-30l-7-56-9-64-5-40-12-64-1-7v-12l6-40 2-13 4-5 10-5 8-5 1-4-7 3-17 10-2-1 1-3 1-4 3 1 4-2-1-7-7-10v-3z" fill="#274059"/>
<path transform="translate(1405,1194)" d="m0 0h179v68h-179z" fill="#FAFBFC"/>
<path transform="translate(287,1700)" d="m0 0h19l-2 5-7 12-20 35-3 5-1 7 2 8 5 6 6 3h9l8-4 6-9 16-28 15-25 5 2 9 10 7 12 4 12 2 13-1 16-6 18-7 11-9 10-10 7-12 6-11 3h-24l-12-3-14-7-12-10-8-10-5-10-4-11-1-5v-23l3-12 8-15 9-11 10-8 14-7z" fill="#ACB7C3"/>
<path transform="translate(264,1492)" d="m0 0h137v80h-137z" fill="#FE333A"/>
<path transform="translate(439,300)" d="m0 0 17 1 146 13 22 2 41 4 49 4 10 1v29l-8 1-1-21-233-20-23-2h-10v637l21-1 198-17h8v9l-54 5-44 4-34 3-58 5-43 4h-4z" fill="#CADBED"/>
<path transform="translate(804,1287)" d="m0 0 10 3 36 12 4 2 3 70 2 66v50h-6l-9-6-15-7-9-2-3-15-8-20-5-13-5-11-6-16v-9l6-26 13-45v-14l-2-5-6-5-12-3 4-3z" fill="#F9FBFC"/>
<path transform="translate(453,871)" d="m0 0 10 1 27 6 37 8 22 5 37 8 32 7 16 4 20 4 22 5v8l-17 2-187 16h-19z" fill="#D0E0F0"/>
<path transform="translate(1437,670)" d="m0 0h33l7 7 12 16 11 14 16 21 12 17 14 20 12 20 3 6v4l-17 8-17 10-14 11-10 9-12 12-9 13h-1l1-25v-25l-1-20-4-29-5-24-7-21-4-10-10-19-10-14z" fill="#FAECAD"/>
<path transform="translate(868,1288)" d="m0 0 5 1 10 7 8 7 6 10 2 8 4 44 2 32 3 64 1 15v14h-46l-2-82-2-52-1-36v-19z" fill="#F9FBFC"/>
<path transform="translate(369,1664)" d="m0 0 5 2 13 11 8 7 9 10 10 15 8 15 7 21 3 15 1 8v22l-3 21h149l-1 5-8 20-2 1-11-1-37-1h-137l2-5 7-11 7-16 4-14 2-10v-23l-4-18-5-15-8-14-10-13-10-10-7-5 1-4 6-11z" fill="#D1E0F0"/>
<path transform="translate(1209,772)" d="m0 0h81l6 5 2 6v128h-92v-10h-11v-10l57-1 6-3 6-7 1-4v-57l-4-8-5-4-6-2-42-1z" fill="#FBEBAC"/>
<path transform="translate(1423,662)" d="m0 0h22l2 4h-17l4 7 8 10 10 18 8 19 7 24 5 27 3 33v31l-2 29-4 14-8 21-10 25-3 8h-242v-17l227-1 13-35 9-27 4-16 3-27v-25l-3-26-6-25-6-17-13-29-10-22z" fill="#F6E7AD"/>
<path transform="translate(728,728)" d="m0 0h1l8 132 2 34 3 53 4 1v11l-5 14-1 5v8l58 1-3-7-9-10 4-1h7l22 3 16 5 5 3 1 5-2 3-10 4-26 5-35 3h-79l-40-4-20-4-10-4v-2l-3-1 1-4 8-5 15-4 29-4h7l-4 14v4h31l-1-12-4-10v-12l1-4 3-1 1-6 24-3z" fill="#9CBCDB"/>
<path transform="translate(453,315)" d="m0 0 18 1 223 19-2 2-139 21-93 14h-7z" fill="#87AAD0"/>
<path transform="translate(789,1297)" d="m0 0 12 1 5 3 3 6v12l-14 49-5 23v10l14 35 11 28v2l-14 8-8 3-14-19v-2h-2l-7-11-8-12-8-13-3-9 2-20 5-33 6-28 5-15 6-9 8-7z" fill="#2978C3"/>
<path transform="translate(877,475)" d="m0 0h43l1 1 2 82v37l-13 2-30 3h-12l3-46 5-76z" fill="#D58B7E"/>
<path transform="translate(868,1866)" d="m0 0h2l-1 13h89l-3-7h9l24 4 12 6v5l-8 4-11 3-9 2-23 3-41 3-35 1h-25l-37-1-32-2-33-4-13-3-10-3-4-2-2-4 1-2h2v-2l16-5 20-3 2 1-2 12h51l-2-8v-5l17 2h14l18-3z" fill="#9CBCDB"/>
<path transform="translate(1183,526)" d="m0 0h1v121h-73v-43l1-12 18-4 9-7 16-15 8-9 11-16z" fill="#F9FBFB"/>
<path transform="translate(1380,608)" d="m0 0h10l8 7 3 2 4-1 7-5 3-1h57l5 5 6 9 1 3v17l-6 12-6 6-20 1v3h21l13 16 13 17 10 13 7 9-2 1-1 4-14-19-11-14-14-18-4-4h-32l8 11-4 3-8-11-4-5v-3h17l-2-3-22-1 7 14 15 33 5 13 5 15-1 4h-3l-8-24-6-14-7-15-12-26-9-3-5-5-4-5-4-11-11-7-8-4-3-5v-7l3-5z" fill="#10253D"/>
<path transform="translate(1347,1324)" d="m0 0h10l6 4 4 6v11l-5 13-7 11-15 10-20 12-13 8-14 7-1 1-12 2-36 4-17 2-17 1-2-11v-7l23-6 21-6 33-10 10-4 15-14 8-7 9-9 8-7 10-10z" fill="#FAFBFC"/>
<path transform="translate(1166,484)" d="m0 0h6l6 4 4 8 1 6v14l-4 10-10 17-9 12-9 10-11 11-11 9-11 3-45 6h-9l-3-6-2-8v-6l9-4 48-18 7-7 12-18 11-17 12-20 6-5z" fill="#2978C3"/>
<path transform="translate(696,474)" d="m0 0 4 1 11 12 9 10v2l3-1 8-17h4l7 9 3 1v-13l5 1 14 6 8 6 2 9v18l-4-5-4-2h-9l-5 4-2 4 1 9 5 5 2 1h7l6-2 2-6h1v46l-1 2-13-1-32-5 1-3 3-2-1-5-9-16-10-16-6-11-13-22-8-7-9-3 4-3z" fill="#F8FAFB"/>
<path transform="translate(903,1321)" d="m0 0 5 5 12 14 9 11 10 11v2h2v2l4 2 5 4 36 9 28 6 5 2v12l-2 11-1 2h-60l-16-2-15-10-17-12-4-50-1-8z" fill="#2978C3"/>
<path transform="translate(344,273)" d="m0 0 4 1-1 5-6 13v2l8 7 5 8 2 6v13l-14 29-14 28-2 1h-6l-3-3-10-22-8-16-8-17v-14l6-12 8-8 9-4 3-1h10l10 3 1-6z" fill="#5BC5CC"/>
<path transform="translate(1636,414)" d="m0 0h3l1 2v9l8 1 8 4 8 7 4 7 2 5v15l-4 9-13 28-8 15-2 4-3 2-6-1-5-8-11-23-9-19-3-5v-16l4-10 7-8 7-5 6-2h6z" fill="#5BC4CB"/>
<path transform="translate(1668,206)" d="m0 0h16l10 4 8 7 5 8 2 11-1 10-12 25-13 28-3 3h-8l-8-15-11-23-8-16-1-5v-12l4-10 1-2-5-7v-4l4 1 5 6 9-7z" fill="#5BC4CB"/>
<path transform="translate(1351,241)" d="m0 0h3l-1 7-1 4 6 2 8 6 6 10 2 17-2 5-11 23-8 17-7 13-1 1h-8l-3-4-11-23-14-29v-16l2-7h2l2-5 7-7 8-4 4-1 13-1z" fill="#5BC5CC"/>
<path transform="translate(1064,1387)" d="m0 0h9l2 8 16 97v8l-3-4-7-13h-58l-11 14-3 4 1 7 6 13h66l9-17h1l-1 9-4 9-3 2-6 1h-62l-5-2-3-5-3-10v-7l12-25 18-35 12-22 7-13h7l3-1-1 12-4 29-1 6 2-1 3-23 3-19 2-1 3 20 4 33 1 10h2l-2-13-2-18-4-29-2-17-2-1v6l-2-1-1-9z" fill="#F6F8FA"/>
<path transform="translate(668,553)" d="m0 0 4 4 12 20 8 12v2l10-4 4 5 14 2 42 3 10 1v21l-1 8-17 3-10 1h-45l-22-3-3-2-3-28-3-37z" fill="#F9FBFC"/>
<path transform="translate(1297,1308)" d="m0 0 2 1 5 13 5-1 16-12 6 2 15 8v2l-9 7-17 17-8 7-7 7-11 9-6 4-19 6-15 4h-4l-5-14v-7l7-16 10-19 6-9 12-7h3l3 9h3z" fill="#F9FBFC"/>
<path transform="translate(340,1650)" d="m0 0 6 1 17 8 3 2-2 5-10 18-12 21-9 15-11 19-9 16-9 15-5 6-5 2h-7l-7-4-3-5v-11l45-78 14-24z" fill="#AAB7C3"/>
<path transform="translate(674,487)" d="m0 0 8 1 7 5 13 22 14 24 12 20v3l-12 9-19 14-3 1-5-7-4-7-12-19-13-24-4-10v-10l4-11 5-8z" fill="#2978C3"/>
<path transform="translate(832,1159)" d="m0 0 13 1 12 4 9 6 2 6h-2l4 5v2h2l-2-6h4l7 11 1 6-76 9v11l3 34v6l-9-6-9-11-5-11-2-9v-13l3-12 5-10 9-10 8-6 11-5z" fill="#6DA2D3"/>
<path transform="translate(671,1574)" d="m0 0 3 4 15 30 6 15 3 12 1 7v22l-3 16-7 18-8 15-7 19-4 17-2 13-1 19-3 5-2 1h-206l-1-23-4-24-8-24-10-19-8-12-13-16-9-9-17-13-15-9-15-7-18-6-21-5 3-2-17-2v-1l6-1v2h2l1-3h249l2 1 1 91 4 11 2 7 3 2 16 56v2l72-1 1-1 2-26 2-13 7-23 6-14 8-16 2-3 4-15 1-7v-22l-3-15-5-14-16-32zm-355 41v1l20 4 17 5 18 8 9 5 15 10 14 12 9 9 11 14 9 14 8 15 6 16 4 16 3 16 1 23h124l-2-11-8-27-8-29-3-10-1-90-1-1z" fill="#111528"/>
<path transform="translate(824,1732)" d="m0 0h11l10 2 12 6 3 2 3 19 6 45v5l-10 10-11 6-12 3h-12l-12-3-6-3 3-22 2-11 5 2 3 1h7l8-4 5-6 1-3v-10l-6-11-14-24v-3z" fill="#AAB7C3"/>
<path transform="translate(1218,1864)" d="m0 0h6l-9 9v5l1 3 55-1 8-5h2l1 5h59l8-5h2l1 5h23l2-13 11 1 14 6 2 2v4l-10 5-14 4-20 3-22 2-23 1h-40l-27-1-33-3-21-4-11-4-4-3 1-6 11-5 20-4z" fill="#9BBCDB"/>
<path transform="translate(701,396)" d="m0 0h48l1 3v29l-2 10-4 8-8 7-7 3h-13l-14-7-5-6-2-10 2-4-9-1-5-5v-9l3-3 5-1 5 5 3 1-2-5 1-5z" fill="#F4A18F"/>
<path transform="translate(1298,1188)" d="m0 0h18l13 5 11 8 6 9 4 13 3 23 3 42v10l-6 1h-24l-4-5v-12l7-9 5-10 8-2 5-2 3-6v-9l-5-5-7-1-2-16-5-10-7-7-10-5 4-1v-4l-12 2-12 6-7 6-6 9-5 11-5 19-2 11-1 19-2-3-4-19-1-7v-19l4-16 6-10 3-4h2v-2l11-7z" fill="#FC7E7F"/>
<path transform="translate(1071,500)" d="m0 0h1v9l-4 50-5 4-13 9-5 1-12-6-13-4h-6v6l7 5-2 2-19 3-3 1h-23l-2-5-1-16 19-5 36-8 9-4 6-7h2l2-4 10-11 11-14z" fill="#2978C3"/>
<path transform="translate(1023,1482)" d="m0 0h58l5 8 5 11-1 7-7 13-1 1h-66l-7-14-1-7 10-13z" fill="#0C1E35"/>
<path transform="translate(1546,865)" d="m0 0 11 1 12 6 8 8 5 10 2 8v10l-3 10-5 8-4 5-9 6-10 3h-15l-12-5-10-9-6-12-1-4v-15l4-11 3-4h2l14 31 5 5 3 2h11l6-3 4-7v-10l-8-17-7-14z" fill="#9CBCDB"/>
<path transform="translate(1100,471)" d="m0 0 4 1 8 11-2 61-1 7-13 5-22 8h-2v-18l3-37 2-14 4-8 8-9z" fill="#F9FBFC"/>
<path transform="translate(1211,739)" d="m0 0h79l8 4 3 4v12l-4 6-3 2-5 1h-79l-8-4-3-5v-11l4-6 3-2z" fill="#778AA2"/>
<path transform="translate(1101,393)" d="m0 0 7 1-1 2-3 1v2h11l4 1-1-3-2-2 13 1-4 2v2l9 1 6 1-3-3-3-2 13 1 7 1v10l-3 29-5 8-8 7-10 3-11-1-10-5-7-9-2-5-1-10 3-32z" fill="#F6A290"/>
<path transform="translate(706,1439)" d="m0 0h12v54h-54l-5-13v-15l4-8 9-8 11-5 16-4z" fill="#88AAD0"/>
<path transform="translate(893,264)" d="m0 0h19l16 4 12 5 11 9 11 11 8 14 4 13 1 4v8l-5 1-6-21-7-13-9-10-10-8-10-5-8-3-10-2h-16l-16 4-13 7-9 7-1 2h-2l-2 4-7 10-6 15-1 4v26l6 17 7 11 8 9 10 7 7 4 13 4 5 1h19l17-5 11-6 11-9 8-10 4-1 1 1v5l-9 11-8 7-7 5-14 6-13 3h-21l-14-3-16-8-10-8-10-11-8-15-4-14-1-7v-17l4-16 6-12 9-12h2l-8-16v-4l4 1 7 14 12-9 11-5 10-3z" fill="#0E223A"/>
<path transform="translate(869,1817)" d="m0 0 2 4 2 15-1 16-1 8-6 4-11 4-10 2h-28l-12-3-2-5-2-10v-5l3-3 1-10 1-5 9 2 8 2h14l13-3 13-7z" fill="#274059"/>
<path transform="translate(728,728)" d="m0 0h1l8 132 2 34 3 53 4 1v11l-3 7h-44l-1-2v-12l1-4 3-1 1-6 24-3z" fill="#CEDEEF"/>
<path transform="translate(455,200)" d="m0 0 17 1 242 25 6 1v77l-1 1-17-1-42-4-35-4-52-5-16-2-32-3-26-3-29-3-15-2zm4 4-1 2v68l1 1 165 17 86 9h6v-70l-1-1-251-26z" fill="#0D2037"/>
<path transform="translate(1260,843)" d="m0 0h2v33l-5 8-7 3h-55l-1-3-1-22 15 1 1-14 2-1z" fill="#7B8BA0"/>
<path transform="translate(844,472)" d="m0 0h22v2h6v1h-11l-1 15-9 78v6h5l2 2v7l2 2 3 8 2 3 2-24 6-88 2-8h1v18l-7 102-1 4 51-5h4v-16l1-16 2-1v2l7-1v4l2 6-1 3 1 6-3 3 6 2v2l-8 3-3 7-27 3-22 2h-15l-9-3-2-1 1 7-1 1-16-1-5-1-15-1 2-4h12l10 1-7-3v-3l11-1-11-3 1-4 14-1-13-1-2-3 2-2 13-2h-23l1-5 7-6-6 2-11 6-5 4-2 3-13-1-17-3v-1h15l3-1 10 1 9-8 9-3h3l2-4 7-1 2 3-1 5-3 3 3 1 10-3v-10l10-86h-10l-4 19-3 14h-2l-1-11z" fill="#0E1F36"/>
<path transform="translate(831,567)" d="m0 0 3 1-8 7-1 4 13-1h15v1l-18 3v3l13 1 4 2-18 1-1 3 17 3v1h-17l1 3 9 3v1l-26-2-5-2-2-2-30-2-58-4-14-2-3-3 1-4 14-10 4-2 44 7 35 5h6l4-5 14-8z" fill="#F9A492"/>
<path transform="translate(1123,359)" d="m0 0h18l13 5 9 7 6 7 5 10 2 9v12l-4 13-6 9-8 8-3 1 1-20 2-24-36-4 3-2 6-3 2-3v-9l-5-6h-10l-5 5-1 2 1 9 4 4 3 2-16-1-13-2 1-5 6-9 10-9 11-5z" fill="#6DA1D3"/>
<path transform="translate(1132,789)" d="m0 0 2 1 3 20-4 5-1 5v56l4 8 1 3 9 3 4 2 1 9h-45l1-14 11-82 2-7z" fill="#F8EAAF"/>
<path transform="translate(1335,1759)" d="m0 0h30v10l-4 47v23l2 6-1 6-7 6-8 2-18-7 2-4 11-11-4-44z" fill="#FAA794"/>
<path transform="translate(1265,1759)" d="m0 0h30l-3 40-1 11v31l2 7-4 6-6 4h-9l-15-6 2-4 10-10v-11l-6-60z" fill="#F9A694"/>
<path transform="translate(644,1442)" d="m0 0 8 1v2l-6 1-4 7v3l5-9 2-1 13 5-2 5-4 8-1 11 3 13 1 5h-32l1 2 11 1v1h-19l1-7 4-9h-13l-7 3-10-1-8-7-1-3v-11l6-8 4-2h10l6 3 5 5 18 3 2-6z" fill="#0F2239"/>
<path transform="translate(1190,808)" d="m0 0h59l7 3 5 6 1 2v20l-14 2-30 3h-9l-1-7-15-1v8h-1l-2-28z" fill="#788BA1"/>
<path transform="translate(1309,1678)" d="m0 0 2 1 7 79 13 1 1 3v47h-37v-12l2-18 1-18 1-2h9v-75z" fill="#CFDFF0"/>
<path transform="translate(1519,820)" d="m0 0h2l14 29 15 33 8 17v9l-4 5-4 2h-9l-6-5-12-27-10-22-11-25 3-5z" fill="#CDDDEF"/>
<path transform="translate(1253,1415)" d="m0 0h8l4 8-1 7-6 19-6 21-7 23-3 8-8-1-11-3 1-11 12-66 1-3z" fill="#F8FAFB"/>
<path transform="translate(1401,1190)" d="m0 0h186l1 1v73l-1 2h-185l-1-2zm4 4v68h179v-68z" fill="#112339"/>
<path transform="translate(1303,1202)" d="m0 0 9 1 10 5 7 7 4 8 1 4v11l-10 10h-16l-17-1v-7l-3 7-13 3 1-9 3-9 1-1 9 1v-3l-8-2 2-6 6-9 10-8z" fill="#F4A18F"/>
<path transform="translate(1579,1426)" d="m0 0h13l8 4 3 3v2h11l6 3 3 3 1 3v8l-4 6-6 3-11 1-6 5-6 3h-9l-8-3-6-5-4-8-1-6 2-10 5-7 6-4z" fill="#9ABAD9"/>
<path transform="translate(1098,594)" d="m0 0h10l-1 52h-39v-25l1-22 7-2z" fill="#FAFCFC"/>
<path transform="translate(1283,1191)" d="m0 0 4 1-9 6h-2v2h-2l-2 4-6 10-4 16v19l4 22 1 4 1-16 5-23 4-12 6-11 6-7 10-7 11-4h8l-1 5 9 6 8 9 4 11v12h-1l-2-14-3-1-5-9-8-7-11-4-7 1-8 6-5 5-5 8-2 4 8 1 1 2-1 2h-9l-3 9-2 9 5-1-2 3h-4v10l5 10 8 9 8 4 13 3v1h-9l-4-1v8l-1-2-7 7-9 1-2 2h-19l2-20v-22l-2-13v-18l3-5 5-16 3-6h2l2-4 2-3 5-3z" fill="#0D1E34"/>
<path transform="translate(1252,936)" d="m0 0h88l-9 20-1 2-66-1-26-1 2-4h2l2-4z" fill="#D2E1F1"/>
<path transform="translate(849,1227)" d="m0 0h25l1 4v16l-8 14-6 7-9 3h-18l-6-3-1-1-2-25v-7l10-4z" fill="#CADBED"/>
<path transform="translate(876,1841)" d="m0 0h32l-1 5 6-2 3 4-3 2v2l8-2 2 3-3 5 5-3 5 2 16 13 5 5h-77v-13z" fill="#F5F8F9"/>
<path transform="translate(1105,905)" d="m0 0h47l5 31v4h-56l1-16z" fill="#9CBCDB"/>
<path transform="translate(765,1719)" d="m0 0h1l-2 44-3 49-1 18-1 4h-2l-8-13-5-13-3-12-1-19 2-13 4-16 7-14 9-12h2z" fill="#274059"/>
<path transform="translate(1352,1375)" d="m0 0h2l-3 11-12 37h-70l-4-7v-2l28-4 14-8 11-6 22-13z" fill="#FAFCFC"/>
<path transform="translate(861,475)" d="m0 0h13l-1 25-6 88-1 9-4-4-4-9-1-4-1-5-5-1-1-6 10-87z" fill="#D38C7E"/>
<path transform="translate(264,1475)" d="m0 0h138l-1 12h-137z" fill="#FE333A"/>
<path transform="translate(1294,1813)" d="m0 0h43l1 10v14l-7 6-6 7-21 9-6-12-3-4-1-4z" fill="#D1E0F0"/>
<path transform="translate(1417,614)" d="m0 0h39v44h-38l-10-5-6-9 1-2 16 10 7 1 5-3 1-2v-8l-5-5-12-8-8-5 2-4z" fill="#F9A794"/>
<path transform="translate(1157,470)" d="m0 0 9 3 9 5 5 4 2 5-9-6h-8l-7 4-6 8-5 9-4-2-3-2h-8l-5 2-2 6v6l3 5 6 3-1 4-11 16-7 9h-2l1-37 1-21 1-7z" fill="#F3F7F9"/>
<path transform="translate(770,1623)" d="m0 0 2 1-3 52-1 6-51 17 2-5 8-11 13-18 9-13 8-11 12-17z" fill="#FA8181"/>
<path transform="translate(767,1623)" d="m0 0 3 1-10 14-13 18-13 19-6 8-10 14h2l28-9-2 5-10 4-21 7h-3l-2 5-9 17-6 18-3 14-2 27-4 11-8 9-10 5h-74l-1-1h-156l-3-2 228-1 10-3 9-8 4-11 2-25 3-15 7-21 10-19 12-17 13-18 24-34 7-10z" fill="#0E1D32"/>
<path transform="translate(984,319)" d="m0 0h13l2 1v33h6v11h-6v10h-14v-10h-25v-9l4-5 4-7 7-11 8-12z" fill="#0A1E35"/>
<path transform="translate(1288,1249)" d="m0 0h12l21 1 1 1v27l-6 5-7 3h-14l-8-4-7-7-5-8-2-5v-7l1-3z" fill="#C9DAED"/>
<path transform="translate(848,475)" d="m0 0h10v9l-10 87-11 4-4-2h2l1-3h2l-1-7-9 1 1-8 13-57 5-22z" fill="#D38C7F"/>
<path transform="translate(867,1199)" d="m0 0h4l2 16v8h-18l-3-12-3 1 2 11-6 2-19 6h-7l-8-3-2-13v-9l13-2z" fill="#ED9D8D"/>
<path transform="translate(926,319)" d="m0 0h15l7 3 5 6 1 2v12l-4 8-11 11 17 1v12h-40v-11l8-7 7-7h2v-2h2l2-4 1-8-3-3h-9l-6 2-5-10 5-3z" fill="#0B1E35"/>
<path transform="translate(1069,953)" d="m0 0h26l1 3 2 21v6h-67l5-5 15-12 6 2-1-6 5 1 3 1-2-6 4-1 4 1z" fill="#F1F4F7"/>
<path transform="translate(320,302)" d="m0 0h7l7 3 6 5 4 7v9l-3 8-5 6-8 4h-8l-7-3-7-6-3-7v-11l4-7 7-6z" fill="#F8FAFB"/>
<path transform="translate(1365,1852)" d="m0 0 3 1 4 8 1 5v9l-1 2h-17v-8l-4 1-11 7h-51l1-5 5-5 12-6 10-4 9-3 16 6 6 2 8-2 6-4z" fill="#274059"/>
<path transform="translate(1338,263)" d="m0 0h8l8 4 5 5 3 7v9l-4 8-6 6-6 2h-11l-7-4-6-7-1-2v-14l5-8 7-5z" fill="#F9FBFC"/>
<path transform="translate(1670,219)" d="m0 0h11l8 4 6 7 2 6v8l-3 7-8 7-4 2h-10l-7-3-6-5-3-6v-13l4-7 6-5z" fill="#F9FBFC"/>
<path transform="translate(1633,438)" d="m0 0h9l9 4 6 8 1 2v14l-4 6-6 5-4 2h-13l-6-4-6-7-2-6v-7l5-10 8-6z" fill="#F9FBFC"/>
<path transform="translate(813,1478)" d="m0 0 11 1 13 5 11 6 5 5-7-1-7-2h-4l2 5 11 17 5 9-4-2-9-10-5-6-1 4 8 16 2 6-4-4-10-15-3-3-1 3 7 20-1 2-5-8-7-12h-2l2 11 2 10-3-3-10-24-6-12v-12z" fill="#F7A492"/>
<path transform="translate(723,754)" d="m0 0h1v181l-1 1-19 1v-7l1-2h11v-110z" fill="#C7D6E7"/>
<path transform="translate(594,1808)" d="m0 0m-16 0h15l1 1 68 1v1h-74l-3 10-12 30h11l2 1v14l-2 1h-37l-1-1v-15l18-1 8-21 7-18h-149v-1l147-1z" fill="#13273E"/>
<path transform="translate(827,1692)" d="m0 0h17l10 3 5 39-2 2-11-5-10-2h-14l-1-3 3-18z" fill="#274059"/>
<path transform="translate(1295,1851)" d="m0 0 4 4 1 7-10 6-5 4-1-2-5 1-10 6h-51l1-5 6-5 12-6 13-6 5-1 19 7h9l6-3z" fill="#274059"/>
<path transform="translate(671,1574)" d="m0 0 3 4 15 30 6 15 3 12 1 7v22l-3 16-7 18-8 15-7 19-4 17-2 13-1 19-3 5-2 1-79-1 2-5h4v2l72-1 1-1 2-26 2-13 7-23 6-14 8-16 2-3 4-15 1-7v-22l-3-15-5-14-16-32z" fill="#0F1C32"/>
<path transform="translate(773,1846)" d="m0 0h23l6 31v5h-42l1-9 4-15 1-4 4-1 22-1v-3l-20-1z" fill="#EBEFF3"/>
<path transform="translate(777,497)" d="m0 0 3 3 8 16 18 38v4l-26 14h-2z" fill="#2978C3"/>
<path transform="translate(1293,1189)" d="m0 0h12l2 2v4l-7 2h-3l-1 5-9 7-6 9-5 11-5 19-2 11-1 19-2-3-4-19-1-7v-19l4-16 6-10 3-4h2v-2l11-7z" fill="#FB7C7D"/>
<path transform="translate(720,358)" d="m0 0h9l10 3 10 9 2 4v3l-26 1-8 3-6 4-9 7h-12l1-10 5-9 6-7 10-6z" fill="#2978C3"/>
<path transform="translate(312,1613)" d="m0 0h249l2 1 1 91 4 11 2 7 3 2 15 52v4h-3l-1 2-7-24-7-25-8-28-1-90h-239l22 5 11 4 1 2h-2v2l-9-2-19-5-9-2 3-2-17-2v-1l6-1v2h2z" fill="#121427"/>
<path transform="translate(1024,1486)" d="m0 0h55l7 13v2h-72l6-9z" fill="#D6BAB0"/>
<path transform="translate(1017,566)" d="m0 0 12 3 16 8 5 4 3 9v3l-9 7-15 4-13 5-3-1 12-7 1-2-8 1-14 3 1-2 15-6 4-1v-3l-25 3 2-2 19-5h2l-1-3h-22l3-2 25-4h3l-1-3-12-8z" fill="#F3A393"/>
<path transform="translate(1579,1426)" d="m0 0h13l8 4 3 3v2h11l6 3 3 3 1 3v8l-4 6-6 3-11 1-6 5-6 3h-9l-8-3-6-5-4-8-1-6 2-10 5-7 6-4zm1 4-7 4-4 5-1 3v11l4 7 5 4 5 2h7l7-3 6-7 2-6-1-9-4-6-5-4-3-1z" fill="#0E2239"/>
<path transform="translate(1334,1221)" d="m0 0 2 3 1 5v9h8l5 4 1 2v9l-4 6-7 4h-6l-2 7-8 11-3 1 1-4-1-27-21-1h-12l-9 1 1-3 8-1 1-5 3-3-1 8h33l9-9v-15z" fill="#0E1A2F"/>
<path transform="translate(844,472)" d="m0 0h22v2h6v1h-11l-1 15-9 78v6h5l2 2v4l-4 1-1-3-15 1h-13l1-5 7-6-6 2-11 6-5 4-2 3-13-1-17-3v-1h15l3-1 10 1 9-8 9-3h3l2-4 7-1 2 3-1 5-3 3 3 1 10-3v-10l10-86h-10l-4 19-3 14h-2l-1-11z" fill="#0F1E34"/>
<path transform="translate(264,1490)" d="m0 0h139v82h-2v2h-137l-1-1-1-7v-70zm0 2v80h137v-80z" fill="#131427"/>
<path transform="translate(1298,1188)" d="m0 0h18l13 5 11 8 6 9 4 13 3 23v7h-2l-1-9-5-5-7-1-2-16-5-10-7-7-10-5 4-1v-4l-12 2-8 4-2-1 1-3 10-2-2-5-7-1z" fill="#F97D7E"/>
<path transform="translate(1346,1300)" d="m0 0h8v2l4 1h-7l1 14 13 7 5 7 1 3v12l-4 12-6 10-9 28-1-2h-3l3-11 3-8-16 10-25 15-20 11-6-1v-2l-2-1 7-1 12-7 11-6 20-12 11-7 9-6 8-14 3-9v-11l-5-7-4-2h-10l-4 3h-3l2-4 2-3h2l-2-4 4-2-1-12-2-2z" fill="#132740"/>
<path transform="translate(1172,1387)" d="m0 0 10 3 14 7 5 4 3 1 1 5v7l-8 6-19 5-9 3-3-1 12-6v-2l-18 2 2-2 14-5-1-3-18 1 4-2 15-3v-3h-18l-3-2 29-3-1-3-11-8z" fill="#F2A393"/>
<path transform="translate(1013,1505)" d="m0 0h73l-2 5-4 7h-62l-5-10z" fill="#E2BEAF"/>
<path transform="translate(925,288)" d="m0 0h2l1 8v9l-6-1-8 18-3 6 1 13-5 5h-7l-4-4-1-6-9-3-12-6h-4l-2 4-4-4-6-9 1-2 16-1-2 7 5 1 20 9v-2l7-1 2-5 6-14 5-10-5-1v-3l11-7z" fill="#0F223A"/>
<path transform="translate(931,546)" d="m0 0 9 3 11 6 11 9 1 5v8l-7 5-24 4v-3l2-1-1-8v-3l-1-4 1-3-6-1v-3l12-1 3-1v-2l-11-9z" fill="#F8A492"/>
<path transform="translate(1460,614)" d="m0 0h11l7 9 2 5v15l-6 11-4 4h-10z" fill="#CCDBEC"/>
<path transform="translate(670,244)" d="m0 0 20 1 3 1v30l-19-1-7-3 1-9v-17z" fill="#0B1D34"/>
<path transform="translate(819,1742)" d="m0 0 4 5 14 25v8l-3 6-6 4-7 1-7-3-2-2 2-16 4-26z" fill="#A6B4C2"/>
<path transform="translate(749,962)" d="m0 0h2v2h10l6-1 14 7 9 9v2l2 1-1 1-48 1v-6z" fill="#274059"/>
<path transform="translate(344,273)" d="m0 0 4 1-1 5-6 13v2l8 7 5 8 2 6v13l-14 29-14 28-2 1h-6l-3-3-10-22-8-16-8-17v-14l6-12 8-8 9-4 3-1h10l10 3 1-6zm-28 19-9 4-8 7-5 10-1 11 3 10 15 30 8 17 3 3 5-2 8-16 10-21 7-14 1-3v-14l-6-12-7-6-9-4z" fill="#112944"/>
<path transform="translate(648,1446)" d="m0 0 14 5-2 5-4 8-1 11 3 13 1 5h-33v-3l3-7 15 1 4-2 2-6-1-7-4-3-6-2 4-10z" fill="#F78080"/>
<path transform="translate(1189,958)" d="m0 0 2 4 6 23v4h-36l1-11 2-10 3-1v4l21-1-1-4v-3h2z" fill="#E9F0F6"/>
<path transform="translate(1636,414)" d="m0 0h3l1 2v9l8 1 8 4 8 7 4 7 2 5v15l-4 9-13 28-8 15-2 4-3 2-6-1-5-8-11-23-9-19-3-5v-16l4-10 7-8 7-5 6-2h6zm-2 13-10 3-9 7-5 8-2 7v11l9 20 8 16 8 17 3 3 5-1 10-19 16-33 1-4v-10l-4-11-6-7-6-4-10-3z" fill="#132941"/>
<path transform="translate(1351,241)" d="m0 0h3l-1 7-1 4 6 2 8 6 6 10 2 17-2 5-11 23-8 17-7 13-1 1h-8l-3-4-11-23-14-29v-16l2-7h2l2-5 7-7 8-4 4-1 13-1zm-15 11-10 4-6 4v2h-2l-5 9-2 7v8l3 9 23 47 2 2h5l21-42 6-14v-11l-3-9-6-8-9-6-7-2z" fill="#10243B"/>
<path transform="translate(1668,206)" d="m0 0h16l10 4 8 7 5 8 2 11-1 10-12 25-13 28-3 3h-8l-8-15-11-23-8-16-1-5v-12l4-10 1-2-5-7v-4l4 1 5 6 9-7zm2 2-10 4-6 5-6 10-2 8 1 11 19 39 7 14 5 1 3-3 8-17 8-16 9-19v-14l-4-9-7-8-7-4-6-2z" fill="#0F233A"/>
<path transform="translate(1270,1427)" d="m0 0h67l1 1v7l-1 1h-66l-1-1z" fill="#669BCD"/>
<path transform="translate(1444,683)" d="m0 0 4 2 8 15 8 19 6 20 5 26 3 23 1 20v25h-1v-7h-2l-1-4-3-43-5-30-6-23-6-16-8-17-4-7z" fill="#10233A"/>
<path transform="translate(264,1473)" d="m0 0h138l1 1v14l-1 1h-138v-2h137v-8l1-4h-138v11h-1v-12z" fill="#131427"/>
<path transform="translate(1310,1195)" d="m0 0h8l-1 5 9 6 8 9 4 11v12h-1l-2-14-3-1-5-9-8-7-11-4-7 1-8 6-5 5-5 8-2 4 8 1 1 2-1 2h-9l-3 9-2 9 5-1-1 2-8 1v12l-1 1-1 7h-1v-13l5-23 4-12 6-11 6-7 10-7z" fill="#12172A"/>
<path transform="translate(1452,740)" d="m0 0 4 1 4 17 3 26v25l-3 27-7 26-8 23-4-1 1-5 7-21 5-18 3-18 1-14v-26l-3-24-3-12z" fill="#102239"/>
<path transform="translate(846,1659)" d="m0 0 3 1 4 26v4l-9-1-16-2 1-13 2-10z" fill="#CBDCEE"/>
<path transform="translate(262,1623)" d="m0 0h2l4 6 9 8 4 3-31 4-30 3 5-4 23-12z" fill="#83A7CE"/>
<path transform="translate(909,1742)" d="m0 0h2v5h2l3 8 3 13v28l-4 14-4 9-2-3z" fill="#274059"/>
<path transform="translate(1072,651)" d="m0 0h108v5h-107z" fill="#2978C3"/>
<path transform="translate(842,1170)" d="m0 0 9 1 6 5 1 3v9l-3 5-5 3h-9l-6-4-3-6 1-8 5-6z" fill="#0E2138"/>
<path transform="translate(1048,1384)" d="m0 0 8 1 4 9 1 8-4-1-4-8-3-1-1 8-5 5-1 3 6-1-5 10-4-1-4-3v-2h-7l-1-1v-8l1-7 6 1 9-10z" fill="#F5A392"/>
<path transform="translate(880,1319)" d="m0 0h10l5 3 3 5v9l-3 5-5 3-2 1h-6l-6-4-3-4v-11l5-6z" fill="#12273F"/>
<path transform="translate(850,1163)" d="m0 0 7 1 9 6 2 6h-2l4 5v2h2l-2-6h4l7 11 1 6-16 2h-7l-2-2h2l-1-3-3 2 2-5v-13l-1-4 1-2-7-2zm3 30h2v2l-3-1z" fill="#6DA0D1"/>
<path transform="translate(1188,772)" d="m0 0h16v32h-14l-1-4-1-16z" fill="#F6A392"/>
<path transform="translate(1226,1502)" d="m0 0 11 2 1 4-1 7 2 4-1 9-8 1 1-8-7-1-5 4-10 2-9 7-2-2 11-12 10-7 5-3z" fill="#F4A392"/>
<path transform="translate(1396,620)" d="m0 0 6 2 10 7 15 10 2 2v6l-3 3h-5l-24-16-7-5z" fill="#CDDCEC"/>
<path transform="translate(597,1456)" d="m0 0h10l5 5 2 5-1 7-4 5-4 2h-7l-6-4-2-3v-10l5-6z" fill="#A6B4C2"/>
<path transform="translate(726,381)" d="m0 0h38l-1 5-7 5h-46l5-5 8-4z" fill="#2978C3"/>
<path transform="translate(998,587)" d="m0 0h4l-2 6 22-3 2 1v3l-16 7 10-2 6-1 2 1-2 4-9 5 9-3 4 1-1 3-14 5h-6l-1-1v-6l-5-1-1-1v-5l1-2-5-1-1-1v-5z" fill="#0F2037"/>
<path transform="translate(1272,1269)" d="m0 0 4 4 7 8 8 6v6l-5 7h-24l1-16h2l4 11v2h3z" fill="#F87D7D"/>
<path transform="translate(832,562)" d="m0 0h5l2 3-1 5-3 3 3 1 10-3 1-5h1l1 8h5l2 2v4l-4 1-1-3-15 1h-13l1-5 7-6-6 2-11 6-5 4-2 3-13-1-17-3v-1h15l3-1 10 1 9-8 9-3h3l2-4z" fill="#0D1A30"/>
<path transform="translate(1118,368)" d="m0 0h10l6 7v9l-4 5-8 3-4-1-6-6-1-9 4-6z" fill="#0E2238"/>
<path transform="translate(1100,944)" d="m0 0h23l8 10 3 3v1l-17 1h-17l-1-3v-10z" fill="#CCDCEE"/>
<path transform="translate(683,1791)" d="m0 0h1l-1 7-7 6-6 3-5 1-72 1h-156l-3-2 228-1 10-3 9-8z" fill="#131427"/>
<path transform="translate(774,1459)" d="m0 0h2l12 17 3 4 5 2 1 4 3 1-1 3h-25z" fill="#EAEEF1"/>
<path transform="translate(1084,1509)" d="m0 0h4l-1 5-5 8h-66l-2-3v-3l3-1 1 1h62z" fill="#22364D"/>
<path transform="translate(1135,844)" d="m0 0h7l6 36v7l-7-3-5-6-1-4z" fill="#7389A3"/>
<path transform="translate(767,1623)" d="m0 0 3 1-10 14-13 18-13 19-6 8-9 13-4 1h-3l10-14 12-17 13-18 14-20 3-3z" fill="#10182C"/>
<path transform="translate(704,465)" d="m0 0 4 1 21 10-1 4-6 13h-2l-7-8-11-12-1-3z" fill="#F3F6F8"/>
<path transform="translate(816,1275)" d="m0 0 5 1 16 8 8 5 5 7v2l-11-3-29-10v-3z" fill="#2978C3"/>
<path transform="translate(686,963)" d="m0 0 7 1v2l3 1 3 9v7h-23l2-11 5-8z" fill="#274059"/>
<path transform="translate(747,1688)" d="m0 0v3l-3 3-29 10h-3l-2 5-9 17-6 17-5 2 5-17 10-21 6-9 6-3 1 3z" fill="#0E1D33"/>
<path transform="translate(838,1621)" d="m0 0 4 2 5 27v5l-10 4-5 1 1-11 4-25z" fill="#F58582"/>
<path transform="translate(1631,436)" d="m0 0h13l8 4 7 8 2 6v10l-5 10-8 6-6 2h-8l-8-3-7-6-4-9v-10l3-8 5-5zm2 2-8 4-5 6-3 7v7l4 9 8 7 2 1h13l8-5 4-4 2-4v-14l-6-9-7-4-3-1z" fill="#0E233B"/>
<path transform="translate(1335,261)" d="m0 0h13l10 6 5 8 1 3v12l-4 8-7 6-8 3h-7l-9-3-6-5-5-10v-10l4-9 8-7zm3 2-6 2-8 6-3 6v14l4 6 7 6 3 1h11l7-3 7-8 2-5v-9l-4-8-7-6-5-2z" fill="#13263D"/>
<path transform="translate(318,300)" d="m0 0h11l8 4 7 7 2 5v14l-5 9-9 6-3 1h-11l-10-5-6-8-2-7 1-10 4-8 8-6zm2 2-7 3-7 6-3 6v11l3 7 8 7 6 2h8l9-5 5-6 2-7v-9l-6-9-7-5-4-1z" fill="#132A43"/>
<path transform="translate(1338,1242)" d="m0 0h6l3 3v7l-4 5-4 2h-10l1 5-4 7h-1v-21l6-6z" fill="#F3A291"/>
<path transform="translate(344,273)" d="m0 0 4 1-1 5-6 13v2l8 7 5 8 2 6v13l-3-3-1-11-6-12-8-6-7-3h-15l-9 4-7 6-6 11-3 3 1-6 5-9 8-8 9-4 3-1h10l10 3 1-6z" fill="#142C46"/>
<path transform="translate(644,1497)" d="m0 0h33l5 8v2h-32l-6-9z" fill="#9EB1C3"/>
<path transform="translate(1674,216)" d="m0 0 9 1 8 4 6 7 2 5v13l-4 8-7 6-5 2h-13l-8-4-6-7-3-8v-7l4-10 8-7zm-4 3-8 5-5 6-1 3v13l5 8 7 5 4 1h10l8-5 6-7 1-4v-8l-3-8-8-7-5-2z" fill="#142942"/>
<path transform="translate(618,1465)" d="m0 0 15 2 11 2 3 3-1 6-2 3-10-1-18-4z" fill="#CCDCED"/>
<path transform="translate(875,476)" d="m0 0h1v18l-7 102-2 2-1-10 7-104z" fill="#19243A"/>
<path transform="translate(804,563)" d="m0 0 8 1 10 2v2l-10 6-5 5-17-2-3-5z" fill="#F7A392"/>
<path transform="translate(1206,1534)" d="m0 0 1 4-1 8-7 6-9 6-3-1-4-12 1-3 18-6z" fill="#61C4CB"/>
<path transform="translate(1064,1403)" d="m0 0 2 3h4l6 40 2 17v8h-2l-2-10-6-49-1-3-4 27-2 15-3 1 1-13 4-29v-6z" fill="#18263C"/>
<path transform="translate(1166,958)" d="m0 0h23v5l-2 2 2 2-1 4h-21l-2-3z" fill="#DFE7EE"/>
<path transform="translate(1668,206)" d="m0 0h16l10 4 8 7 5 8 2 11-1 5-2 1-1-11-4-9-7-8-8-4-4-1h-12l-10 4-5 4-6 10-2 8-3 1 1-8 4-9-5-7v-4l4 1 5 6 9-7z" fill="#132841"/>
<path transform="translate(1347,1373)" d="m0 0 2 1-3 4h-2l-1 4-28 17-22 12-6-1v-2l-2-1 7-1 12-7 11-6 20-12 11-7z" fill="#172C45"/>
<path transform="translate(857,1494)" d="m0 0h47l-1 6h-50l3-3z" fill="#2978C3"/>
<path transform="translate(1104,368)" d="m0 0 1 4-2 5h5l2-1 1 6 4 5 5 4-16-1-13-2 1-5 6-9z" fill="#6BA0D1"/>
<path transform="translate(585,1781)" d="m0 0h4v2h72 3v3l-2 1-79-1z" fill="#12253C"/>
<path transform="translate(1351,241)" d="m0 0h3l-1 7-1 4 6 2 8 6 6 10v2h-3l-6-10-5-4-8-4-4-1h-10l-10 4-4 3h-2v2h-2l-2 5-3 6-1 5-3 1 1-7 1-5h2l2-5 7-7 8-4 4-1 13-1z" fill="#142A43"/>
<path transform="translate(1473,866)" d="m0 0 3 1-2 9-7 19-12 31-2-3-2-1 12-31 8-22h2z" fill="#11253C"/>
<path transform="translate(844,1174)" d="m0 0 5 1 5 5v6l-5 6h-7l-5-4-1-6 3-5z" fill="#2978C3"/>
<path transform="translate(716,433)" d="m0 0h12l13 1-2 6-6 6-8 1-7-6-2-5z" fill="#3A303E"/>
<path transform="translate(882,1323)" d="m0 0h7l5 5v8l-4 4h-9l-4-4v-8z" fill="#2978C3"/>
<path transform="translate(1320,1298)" d="m0 0 4 5-1 4-16 11-2-2-4-10v-2z" fill="#F1F4F7"/>
<path transform="translate(1147,459)" d="m0 0 5 5 1 4-30 10h-3l2-5 10-7z" fill="#2978C3"/>
<path transform="translate(1338,1238)" d="m0 0h7l5 4 1 2v9l-4 6-7 4h-6l-2 7-8 11-3 1 1-4v-8h4l3-6-1-5 4-1h7l5-3 2-3 1-7v-3l-3-2-6-1z" fill="#11182C"/>
<path transform="translate(1354,1261)" d="m0 0 4 2 1 5 1 16v18h-6v-2l-8 1h-20l-3-2-1-5 4 4h30l-2-26z" fill="#10192E"/>
<path transform="translate(672,1727)" d="m0 0h3l-4 17-3 18-1 19-4 4-3-1 2-3 2-26 2-13 4-14z" fill="#0F1C32"/>
<path transform="translate(1307,1197)" d="m0 0h5l2 1v2l5 1 8 6 7 8 4 11v12h-1l-2-14-3-1-5-9-8-7-11-4-7 1-7 4v-4l8-5z" fill="#121427"/>
<path transform="translate(811,1233)" d="m0 0 8 1 2 1 1 5 1 24-5-4-4-7-2-6z" fill="#F4A291"/>
<path transform="translate(876,1198)" d="m0 0 5 1 3 13v16l-3 9-2 1-3-22-1-17z" fill="#2978C3"/>
<path transform="translate(1636,414)" d="m0 0h3l1 2v9l8 1 8 4 8 7 4 7 2 5v3h-3l-4-11-5-6-6-4-10-3h-8l-10 3-8 6-4 6h-3l2-5 7-7 6-4 6-2h6z" fill="#152A42"/>
<path transform="translate(1544,894)" d="m0 0 6 1 4 3v9l-4 4h-8l-4-4v-8z" fill="#112842"/>
<path transform="translate(709,458)" d="m0 0 7 1h13l6-1v10l-3 4-6-1-17-9z" fill="#F2A493"/>
<path transform="translate(1316,1285)" d="m0 0h2v10l-19 6-3-3v-9l16-2z" fill="#F6A392"/>
<path transform="translate(759,514)" d="m0 0h6l5 5v7l-4 4-6 1-5-3-1-2v-8z" fill="#2978C3"/>
<path transform="translate(822,1269)" d="m0 0 5 2 7 3h23l-4 9-1 8-5-5-14-8-12-6z" fill="#F2A393"/>
<path transform="translate(692,1680)" d="m0 0 2 1-1 7-5 11-9 19-4 9-4 1 2-9 6-14 8-16 2-3 1-5z" fill="#13263F"/>
<path transform="translate(1015,1501)" d="m0 0h70l-1 3h-70z" fill="#0F162A"/>
<path transform="translate(1436,691)" d="m0 0 2 2 11 25 6 19-1 4h-3l-8-24-6-14-3-6z" fill="#12273F"/>
<path transform="translate(550,1855)" d="m0 0 32 1v7h-32z" fill="#274059"/>
<path transform="translate(399,1651)" d="m0 0 8 6 12 12 11 14 3 6-2 1-1 2-9-12-9-11-14-14 1-1z" fill="#111629"/>
<path transform="translate(991,377)" d="m0 0h9l4 3v6l-2 4 4 3v3h-5l-4-6-2-1v7h-4z" fill="#102945"/>
<path transform="translate(711,865)" d="m0 0h1v58l-6-1v-10z" fill="#92B4D5"/>
<path transform="translate(1297,1184)" d="m0 0h7l-2 1v2l-8 2-4 2-7 1-8 6-5 6h-2l-3 9-5 16-3 2 1-9 3-10 7-11 5-6 12-8z" fill="#132339"/>
<path transform="translate(1606,1439)" d="m0 0h8l4 2 2 3v8l-6 5h-8l1-12z" fill="#96B7D8"/>
<path transform="translate(723,754)" d="m0 0h1v181h-1l-1-159h-1l1-15z" fill="#ACB9C5"/>
<path transform="translate(1340,976)" d="m0 0h1l-1 7h-32v-6z" fill="#274059"/>
<path transform="translate(856,492)" d="m0 0 3 2-2 22-6 52-3-1 1-13z" fill="#171F35"/>
<path transform="translate(1127,758)" d="m0 0 2 2 3 16v9l-11 7 1-9z" fill="#C2D5E8"/>
<path transform="translate(1196,905)" d="m0 0h6v35h-4l-1-2-1-16z" fill="#9BBBDA"/>
<path transform="translate(1497,839)" d="m0 0 3 1 1 4-9 8-8 11-8 16h-3l2-9 5-10 10-13 3-4h2z" fill="#C3D5E8"/>
<path transform="translate(837,501)" d="m0 0 2 2 1 9-8 35-5 2 1-8 7-29z" fill="#13273E"/>
<path transform="translate(1349,1218)" d="m0 0 4 1 3 16 2 19v9l-4-2-2-15-3-23z" fill="#121427"/>
<path transform="translate(829,564)" d="m0 0 3 1-1 3-15 8-5 4-2 3-13-1-17-3v-1h15l3-1 10 1 9-8 9-3h3z" fill="#10192D"/>
<path transform="translate(1359,1364)" d="m0 0 2 1-2 10-7 21-1-2h-3l3-11 3-8-8 5h-2v-2l12-12h3z" fill="#15283F"/>
<path transform="translate(457,1765)" d="m0 0 2 3 1 17h123v1l-127 1z" fill="#0A1C32"/>
<path transform="translate(982,377)" d="m0 0h4v19h-4v-8h-8v8h-4v-18h4v7h8z" fill="#10253D"/>
<path transform="translate(1119,372)" d="m0 0h7l4 4v7l-3 3h-8l-3-3-1-5 3-5z" fill="#2978C3"/>
<path transform="translate(1475,780)" d="m0 0h2l1 8 1 20v25h-1v-7h-2l-1-4-2-37 2 2z" fill="#13263E"/>
<path transform="translate(732,408)" d="m0 0h2l4 12v6l-5 5-7-1-2-2v-3h2l1-5 2-2h4z" fill="#F58482"/>
<path transform="translate(1346,1300)" d="m0 0h8v2l4 1h-7l1 14 7 4v2l-9 1-6 3-4 1 2-4 2-3h2l-2-4 4-2-1-12-2-2z" fill="#0E2239"/>
<path transform="translate(1092,392)" d="m0 0 4 1v10l-2 21-2 3-3-9v-12z" fill="#2978C3"/>
<path transform="translate(769,1845)" d="m0 0h26v1l-22 1 19 1 1 4-1 1-25 1 1-7z" fill="#9BA8B9"/>
<path transform="translate(293,314)" d="m0 0h1v10l3 10 15 30 5 12h-3l-9-19-8-16-6-13v-11z" fill="#12273E"/>
<path transform="translate(1134,501)" d="m0 0 6 1 3 3-1 5-4 6-7-1-2-3v-6z" fill="#2978C3"/>
<path transform="translate(1291,1239)" d="m0 0 1 4-1 4h17l15 1 1 1v13l1 7-3 1-1-19-21-1h-12l-9 1 1-3 8-1 1-5z" fill="#131E34"/>
<path transform="translate(1142,454)" d="m0 0 1 3-16 8-7 5-1 2h-2l-2-9-3-4 1-2 9 2 11-1z" fill="#EBA193"/>
<path transform="translate(671,1805)" d="m0 0m-1 1m-5 1h5v2l-2 1h-74l3-2z" fill="#091B31"/>
<path transform="translate(1283,1191)" d="m0 0 4 1-9 6h-2v2h-2l-2 4-6 10-4 16v19l4 24-3-3-3-17-1-9v-15l6-19 3-6h2l2-4 2-3 5-3z" fill="#131427"/>
<path transform="translate(849,1197)" d="m0 0 3 1 2 3-32 4h-9l2-4z" fill="#0F1D33"/>
<path transform="translate(1320,281)" d="m0 0h1l1 10 4 6 6 5 3 1h11l7-3 6-7 4-2-2 5-6 7-10 4h-7l-9-3-6-5-5-10z" fill="#18304A"/>
<path transform="translate(643,1509)" d="m0 0h71l3 3h-3l-70-1z" fill="#131427"/>
<path transform="translate(1683,218)" d="m0 0 5 1 7 6 4 8v13l-4 8-7 6-6 2v-3l8-5 5-6 1-4v-8l-3-8-7-6-5-2z" fill="#172F49"/>
<path transform="translate(750,948)" d="m0 0h12v12h-9l-3-3z" fill="#F9A391"/>
<path transform="translate(1707,241)" d="m0 0h1l-1 7-11 23-12 25-3 1 2-6 16-33 6-13z" fill="#0F2239"/>
<path transform="translate(875,476)" d="m0 0h1v18l-2 30-2 8h-1v-18l2-30z" fill="#14182C"/>
<path transform="translate(572,1725)" d="m0 0 2 3 14 49v2h-3l-3-11-3-7-3-14-1-1-1-9-3-7z" fill="#122943"/>
<path transform="translate(766,1686)" d="m0 0h2l-1 21-4-4-7-12 1-2z" fill="#9DAFC3"/>
<path transform="translate(1310,1195)" d="m0 0h8v4h-6v-2l-10 3-8 5-1 5-5 5-3 4h-3l-1 2-1-3 4-6 5-6 10-7z" fill="#111629"/>
<path transform="translate(1647,438)" d="m0 0 5 2 7 8 2 6v10l-5 10-8 6-2-3 6-4 3-3 2-4v-14l-6-9-6-3z" fill="#162E49"/>
<path transform="translate(1064,1403)" d="m0 0 2 3 2-1-2 13-4 24-1 9-3 1 1-13 4-29v-6z" fill="#223A54"/>
<path transform="translate(864,1275)" d="m0 0h2v9l-8 12h-2v-12l3-6z" fill="#2978C3"/>
<path transform="translate(683,948)" d="m0 0h12l-1 12-10-1-1-3z" fill="#F5A190"/>
<path transform="translate(1197,840)" d="m0 0h7v18h-7z" fill="#DC9B8F"/>
<path transform="translate(455,1742)" d="m0 0 2 2 3 16v23h-1l-1-15-1 12h-1l-2-24-1-10z" fill="#131427"/>
<path transform="translate(1383,612)" d="m0 0h5v2l3 1v6l-4 4-6-1-2-3v-6z" fill="#2876C0"/>
<path transform="translate(780,1494)" d="m0 0h19l1 6h-21v-5z" fill="#2978C3"/>
<path transform="translate(1444,683)" d="m0 0 4 2 8 15 4 10-4 2-9-19-4-7z" fill="#122238"/>
<path transform="translate(850,350)" d="m0 0h7l4 3-1 7-4 2h-5l-1-1z" fill="#607993"/>
<path transform="translate(1259,1322)" d="m0 0v3l-12 23-2 4h-1l1-11 6-12z" fill="#E3E9EF"/>
<path transform="translate(1329,1258)" d="m0 0 5 1 1 3h-2l-1 8-8 11-3 1 1-4v-8h4l3-6-1-5z" fill="#101E34"/>
<path transform="translate(1644,208)" d="m0 0 4 1 5 6 3-3 2 1v2l-5 5-5 10-1 5-3 1 1-8 4-9-5-7z" fill="#0F253D"/>
<path transform="translate(1346,1412)" d="m0 0h1v29l-4-2-1-2v-14z" fill="#C8DAED"/>
<path transform="translate(1416,628)" d="m0 0 5 2 11 8 1 2v8l-4 5-3-1h2l-1-4 1-1v-6l-9-7z" fill="#0F1A2F"/>
<path transform="translate(1668,452)" d="m0 0h2v12l-4 9-11 23-2-1 2-6 11-23z" fill="#10233A"/>
<path transform="translate(1475,822)" d="m0 0 1 4h2v25l-2 4-2 1v-21z" fill="#0E1E35"/>
<path transform="translate(1473,866)" d="m0 0 3 1-2 9-6 17-4-3 3-10 4-11h2z" fill="#162A41"/>
<path transform="translate(747,1688)" d="m0 0v3l-3 3-18 6-7-1 1-2z" fill="#0E1A2F"/>
<path transform="translate(682,1700)" d="m0 0h2l-1 6-3 5-1 7-4 9-4 1 2-9 6-14z" fill="#122740"/>
<path transform="translate(1336,1303)" d="m0 0h11v11l-5-1-6-3z" fill="#CBDBED"/>
<path transform="translate(1012,1496)" d="m0 0 4 3-1 4 6 1v1h-8l4 8-1 3-3 1-5-12 1-5z" fill="#13263F"/>
<path transform="translate(657,1459)" d="m0 0 2 2-1 1-1 14 2 10 2 3-1 6h-33v-2h32l-4-12-1-12z" fill="#131427"/>
<path transform="translate(1436,691)" d="m0 0 2 2 9 21v2l-5-1-5-12-3-6z" fill="#12253C"/>
<path transform="translate(1368,1343)" d="m0 0 3 1-2 8-4 9-3 5-2-1-1 1-2-1 8-16 2-5z" fill="#132942"/>
<path transform="translate(1288,1255)" d="m0 0h13l11 1 2 1v2h-29l-9 1v-2z" fill="#1B354F"/>
<path transform="translate(1617,462)" d="m0 0 2 3 3 6 7 6 2 1h16v2l-5 2h-8l-8-3-7-6-3-6z" fill="#182E47"/>
<path transform="translate(1116,365)" d="m0 0 3 1-2 1-2 4-3 5-1 7-2-3v-3l-2 1-4-1 2-5-2-1 2-3h2l1 2z" fill="#7DA4CD"/>
<path transform="translate(983,337)" d="m0 0h2v16h-11l8-14z" fill="#BDCDE0"/>
<path transform="translate(1370,272)" d="m0 0h2l1 3 1 14-8 16-4 7h-2l2-6 7-15 1-3z" fill="#0F233A"/>
<path transform="translate(490,224)" d="m0 0 13 2 2 1 1 5-3 1-4-1-2 1-6-3-1-1z" fill="#13283F"/>
<path transform="translate(770,1857)" d="m0 0h24v4h-24z" fill="#142A44"/>
<path transform="translate(354,324)" d="m0 0h1v6l-12 25-4 7h-2l2-6 12-25z" fill="#11273F"/>
<path transform="translate(832,562)" d="m0 0h5l2 3-1 5-3 3 5 1-3 3-6-2v2l-4 1 1-4 5-6-3-5z" fill="#112138"/>
<path transform="translate(1136,817)" d="m0 0h2l3 19-1 4-5-1v-19z" fill="#6D88A6"/>
<path transform="translate(709,414)" d="m0 0h6l2 3v5l-2 2h-7l-2-3 1-5z" fill="#FF7E81"/>
<path transform="translate(1450,860)" d="m0 0 1 4-1 7-5 14-4-1 1-5 6-17z" fill="#12263D"/>
<path transform="translate(1141,450)" d="m0 0 2 1-2 5-13 4h-5v-2l-7-2 1-2 11 1 10-3z" fill="#111A2F"/>
<path transform="translate(731,434)" d="m0 0h10l-2 6-6 6-8 1v-2l6-1v-2h-8l3-3 8 1 3-4h-6z" fill="#131528"/>
<path transform="translate(1119,360)" d="m0 0h7l-3 3v4l-6 2 1-3-6 2-5 3-1-4 8-5z" fill="#739CC6"/>
<path transform="translate(770,1864)" d="m0 0h22v4h-22z" fill="#132840"/>
<path transform="translate(1309,1678)" d="m0 0 2 1v7h-2v70h-1v-72z" fill="#779ABE"/>
<path transform="translate(850,1236)" d="m0 0h20v2l-16 1-16 4h-3l1-3z" fill="#152C46"/>
<path transform="translate(1307,1197)" d="m0 0h5l2 1v2l3 1-1 2h-13l-9 5v-4l8-5z" fill="#0D1E34"/>
<path transform="translate(1168,967)" d="m0 0h21l-1 4h-21z" fill="#142940"/>
<path transform="translate(1517,264)" d="m0 0 5 1 14 5-1 4-6-1-13-5z" fill="#172D45"/>
<path transform="translate(1456,256)" d="m0 0h13l1 4-10 1h-11l1-4z" fill="#16314E"/>
<path transform="translate(1269,215)" d="m0 0h3v2l4 2 8 8v4l-4-1-10-10-2-1z" fill="#152A42"/>
<path transform="translate(1416,165)" d="m0 0h4l-1 4-14 10-3-1v-3z" fill="#162C45"/>
<path transform="translate(1564,148)" d="m0 0 9 3 10 5-1 3-5-1-13-5-1-4z" fill="#152E49"/>
<path transform="translate(1575,297)" d="m0 0 5 1 10 9 2 4-4 1-9-9-4-3z" fill="#122A43"/>
<path transform="translate(1367,212)" d="m0 0h4l-1 4-8 14-4-1 2-6z" fill="#152B43"/>
<path transform="translate(805,211)" d="m0 0 4 1 10 12-1 4h-3l-6-8-5-6z" fill="#142B45"/>
<path transform="translate(1621,183)" d="m0 0 5 1 11 11v3l-3 1-13-13z" fill="#112943"/>
<path transform="translate(1032,182)" d="m0 0 5 1-1 3-14 7h-4l1-4z" fill="#112C49"/>
<path transform="translate(1212,179)" d="m0 0 5 1 14 7-1 4-6-2-12-6z" fill="#152C46"/>
<path transform="translate(1181,168)" d="m0 0 12 3 7 2v4l-8-1-12-4z" fill="#142A43"/>
<path transform="translate(546,118)" d="m0 0h7l-1 4-14 3h-5v-4z" fill="#142A43"/>
<path transform="translate(1312,1266)" d="m0 0h2v3l-2 1h-20l-9-1v-2z" fill="#1A3552"/>
<path transform="translate(1105,460)" d="m0 0 4 1 4 5v11l-5-5-3-4z" fill="#2978C3"/>
<path transform="translate(1398,270)" d="m0 0h6v3l-16 8-4-1 2-4z" fill="#152D48"/>
<path transform="translate(360,244)" d="m0 0 4 1-2 5-7 12h-4l1-5 6-10z" fill="#132C47"/>
<path transform="translate(402,192)" d="m0 0 4 1-2 4-11 11-3-1 2-5z" fill="#132E4B"/>
<path transform="translate(781,187)" d="m0 0 5 1 11 11v3l-5-1-11-11z" fill="#132A45"/>
<path transform="translate(1390,186)" d="m0 0h3l-1 5-11 11h-3l1-5z" fill="#102945"/>
<path transform="translate(428,170)" d="m0 0 3 1v3l-14 11-3-1 1-4z" fill="#122A44"/>
<path transform="translate(1478,141)" d="m0 0 5 1v3l-17 4-4-1 2-4z" fill="#162A42"/>
<path transform="translate(1530,141)" d="m0 0h8l12 3v4l-8-1-11-2z" fill="#162B43"/>
<path transform="translate(599,114)" d="m0 0h13l7 1v4h-11l-9-1z" fill="#132B45"/>
<path transform="translate(903,1495)" d="m0 0h1v6h-60l-2-4 11 1v2h50z" fill="#274A6D"/>
<path transform="translate(732,408)" d="m0 0h2l4 12v6l-5 5-7-1-2-4 9 1h2l-1-8-2-7z" fill="#13172B"/>
<path transform="translate(1617,350)" d="m0 0 5 1 6 13v5l-4-1-6-14z" fill="#142A43"/>
<path transform="translate(1599,321)" d="m0 0 5 1 8 12 1 4h-4l-10-14z" fill="#122840"/>
<path transform="translate(1547,278)" d="m0 0 6 1 12 7 1 4-6-1-9-6-4-2z" fill="#122A44"/>
<path transform="translate(1484,257)" d="m0 0 17 2 3 2v3l-10-1-11-2z" fill="#142942"/>
<path transform="translate(1292,239)" d="m0 0 4 1 10 13-1 4-4-2-9-12z" fill="#122A45"/>
<path transform="translate(825,238)" d="m0 0h4l8 14v4l-4-1-8-13z" fill="#132A44"/>
<path transform="translate(1242,195)" d="m0 0 4 1 13 9-1 4-4-2-12-8z" fill="#112A47"/>
<path transform="translate(1063,170)" d="m0 0 5 1-1 3-15 5h-4l1-4 11-4z" fill="#122943"/>
<path transform="translate(1094,163)" d="m0 0h6v4l-19 3-1-4 8-2z" fill="#132942"/>
<path transform="translate(1446,150)" d="m0 0h4v4l-14 6-4 1-1-4z" fill="#142A43"/>
<path transform="translate(1630,381)" d="m0 0 4 1 3 12v7h-4l-3-15z" fill="#142840"/>
<path transform="translate(755,166)" d="m0 0 5 1 11 8 1 5-4-1-13-10z" fill="#112943"/>
<path transform="translate(697,134)" d="m0 0 6 1 12 5 1 4-7-1-12-5z" fill="#142940"/>
<path transform="translate(516,125)" d="m0 0 4 1v3l-15 5h-5l1-4z" fill="#122841"/>
<path transform="translate(1e3 198)" d="m0 0 3 1v3l-12 9-5 1 1-4z" fill="#102741"/>
<path transform="translate(454,152)" d="m0 0h5l-1 4-10 6-3 2h-4l1-4z" fill="#112740"/>
<path transform="translate(727,148)" d="m0 0 5 1 12 7 1 4-5-1-10-6-3-1z" fill="#112841"/>
<path transform="translate(1497,139)" d="m0 0h19v4h-20z" fill="#0E2037"/>
<path transform="translate(665,123)" d="m0 0 10 2 9 3v4l-10-2-9-4z" fill="#132941"/>
<path transform="translate(632,117)" d="m0 0h8l12 2 1 4h-7l-13-2z" fill="#132942"/>
<path transform="translate(1013,1505)" d="m0 0h73l-1 2h-69v2h-2z" fill="#A8B6C3"/>
<path transform="translate(850,1163)" d="m0 0 7 1 9 6-1 4-4-1-8-5-3-1z" fill="#7398C0"/>
<path transform="translate(1431,260)" d="m0 0h5l-1 4-16 4h-3v-4l10-3z" fill="#11253C"/>
<path transform="translate(955,244)" d="m0 0h3l-1 5-9 12h-3l1-5 4-6z" fill="#102740"/>
<path transform="translate(978,219)" d="m0 0 3 1-1 4-7 6-4 5-4-1 2-4z" fill="#0D2540"/>
<path transform="translate(1594,163)" d="m0 0 5 1 12 8 1 2-1 2-4-1-12-8z" fill="#0E243D"/>
<path transform="translate(1114,161)" d="m0 0h20v4h-20z" fill="#142941"/>
<path transform="translate(1074,1440)" d="m0 0h1l3 23v8h-2l-2-10-2-18z" fill="#213550"/>
<path transform="translate(864,1251)" d="m0 0h3l-1 3-6 2-7 1h-17l-1-3h17z" fill="#0F253D"/>
<path transform="translate(869,564)" d="m0 0h1v18l-1 14-2 2-1-10 2-23z" fill="#171C31"/>
<path transform="translate(1630,425)" d="m0 0h5l-1 3-10 3-8 6-4 6h-3l2-5 7-7 6-4z" fill="#1C324C"/>
<path transform="translate(484,137)" d="m0 0h5v3l-15 7h-4l1-4z" fill="#122842"/>
<path transform="translate(1169,973)" d="m0 0h19v4h-19z" fill="#12263D"/>
<path transform="translate(1168,960)" d="m0 0h20l-1 4h-18z" fill="#112943"/>
<path transform="translate(1662,280)" d="m0 0 3 1 8 17 5 1 5-2-2 4-1 1h-8l-8-15z" fill="#11263E"/>
<path transform="translate(380,217)" d="m0 0h3l-1 5-10 12-3-1 2-5 8-10z" fill="#0D2239"/>
<path transform="translate(1188,1541)" d="m0 0h2l1 8-2 6 4 1-5 2-4-10-1-5z" fill="#6D9DCC"/>
<path transform="translate(1289,1285)" d="m0 0 6 3v8l-1-2-7 7-9 1-3 1v-2l-4 1-9-1v-1l24-1 4-6v-6z" fill="#131427"/>
<path transform="translate(1349,1218)" d="m0 0 4 1 2 9v8h-1l-1 8h-1l-3-21z" fill="#12182C"/>
<path transform="translate(718,398)" d="m0 0h8l-1 4-9 2-5 3h-3l1-4 6-4z" fill="#0E1C32"/>
<path transform="translate(1271,1269)" d="m0 0h1l1 9v19l-2 1-3-3-3-8v-5l2 2 2 9h2z" fill="#131427"/>
<path transform="translate(1303,1189)" d="m0 0 4 2v4l-7 2h-3l-1 3v-2h-2l2-7z" fill="#FF333A"/>
<path transform="translate(1147,163)" d="m0 0h11l9 2v4l-16-2-4-1z" fill="#10243C"/>
<path transform="translate(755,572)" d="m0 0 13 1 3 1v3h6v2l-23-3-2-2z" fill="#101A2F"/>
<path transform="translate(581,114)" d="m0 0 5 1v3l-8 1h-12l1-4z" fill="#0D2138"/>
<path transform="translate(699,1725)" d="m0 0 1 4-5 14-5 2 5-17 2-2z" fill="#0D1A2F"/>
<path transform="translate(749,399)" d="m0 0h1v29h-1v-10l-5 1-2-3v-4l5-1 1 1z" fill="#EE837F"/>
<path transform="translate(1674,216)" d="m0 0 9 1v2l-13 1-8 5-5 7h-2l2-6 8-7z" fill="#0B1E34"/>
<path transform="translate(1368,1764)" d="m0 0h1l-2 30h-1l-2-16v-9l2-3h2z" fill="#13263E"/>
<path transform="translate(1266,1206)" d="m0 0 1 3-4 10-3 10-3 2 1-9 3-10 3-5z" fill="#142942"/>
<path transform="translate(832,1204)" d="m0 0h10l1 4-13 2-4 1v-4z" fill="#0E1E34"/>
<path transform="translate(1117,404)" d="m0 0h3l-4 16-1 3 6 1 2 3-6-1-5-2 4-17z" fill="#121427"/>
<path transform="translate(852,1202)" d="m0 0h12l3 1 1 3-4 1h-14l1-4z" fill="#101A2F"/>
<path transform="translate(1108,394)" d="m0 0h7l4 3v3h-15v-4z" fill="#182A41"/>
<path transform="translate(1309,1226)" d="m0 0h10l3 1-1 4h-16v-4z" fill="#111C32"/>
<path transform="translate(858,585)" d="m0 0h2l3 8 3 5h-2v2l-7-2-1-7 2-1z" fill="#182035"/>
<path transform="translate(1322,255)" d="m0 0 2 1-2 4h-2v2h-2l-2 5-3 6-1 5-3 1 1-7 1-5h2l2-5z" fill="#162D47"/>
<path transform="translate(1299,1402)" d="m0 0 3 1v3l-9 5-6-1v-2l-2-1 7-1z" fill="#172E49"/>
<path transform="translate(1291,1299)" d="m0 0 4 3-1 5-5 6-2-2-1-5z" fill="#EAEFF3"/>
<path transform="translate(875,476)" d="m0 0h1v18l-1 9h-2l-1 3 1-22z" fill="#161B2F"/>
<path transform="translate(1480,860)" d="m0 0 3 1-1 5-6 13h-3l2-9z" fill="#B9CFE6"/>
<path transform="translate(771,1849)" d="m0 0h22v3h-22z" fill="#0C1C32"/>
<path transform="translate(1091,1504)" d="m0 0h1l-1 9-4 9-5 2 1-4z" fill="#EBF1F6"/>
<path transform="translate(303,351)" d="m0 0 3 1 11 23-3 1-9-19z" fill="#11253B"/>
<path transform="translate(334,303)" d="m0 0 4 2 6 6 2 5v14l-2-1-1-12-6-9-3-2z" fill="#0F233A"/>
<path transform="translate(356,1626)" d="m0 0 9 3 4 4-1 2-5-1-10-4 1-3z" fill="#0F172C"/>
<path transform="translate(420,1677)" d="m0 0h3l4 2 6 9-2 2-1 2-9-12z" fill="#121427"/>
<path transform="translate(387,1644)" d="m0 0 7 2 5 5v3h2l-1 2-6-3-8-6z" fill="#0E162B"/>
<path transform="translate(719,436)" d="m0 0h18l-2 4-2 1-7-1-5 1z" fill="#E18880"/>
<path transform="translate(1302,1185)" d="m0 0 18 2 6 2v2l4 1 1 2-15-5h-22l2-2h6z" fill="#131427"/>
<path transform="translate(343,326)" d="m0 0 2 3-1 5-4 6-8 5-4 1 1-3 9-6 4-7z" fill="#1C324A"/>
<path transform="translate(624,1487)" d="m0 0 1 4 3 4 11 1v1h-19l1-7z" fill="#142C45"/>
<path transform="translate(1281,1279)" d="m0 0 5 1 6 4 16 4v1h-9l-5-1-1 2-2-4-7-3z" fill="#0F1C31"/>
<path transform="translate(1341,1264)" d="m0 0 5 1 1 3h-2l-3 6h-6l2-8z" fill="#FF343B"/>
<path transform="translate(1320,1248)" d="m0 0 4 1v13l1 7-3 1-1-19-21-1v-1z" fill="#1E3854"/>
<path transform="translate(709,453)" d="m0 0 10 3 11 1-4 1v2h-10l-5-2z" fill="#0F172C"/>
<path transform="translate(710,463)" d="m0 0 6 2 13 7v2l-10-2-4-2-2-4z" fill="#111B30"/>
<path transform="translate(1636,414)" d="m0 0h3l1 2v9h4v2h-10l1-2z" fill="#102842"/>
<path transform="translate(1125,397)" d="m0 0h7l7 2 2 3-5 1-2-1-9-1z" fill="#11182C"/>
<path transform="translate(1683,218)" d="m0 0 5 1 7 6 4 8-2 1-1 2-3-8-7-6-5-2z" fill="#1F3650"/>
<path transform="translate(1354,1261)" d="m0 0 4 2-1 20-2 1-1-12z" fill="#121427"/>
<path transform="translate(1282,1189)" d="m0 0 2 1-5 5-8 7-1 2h-2v2l-3 1 2-5 6-7z" fill="#0E243E"/>
<path transform="translate(849,1211)" d="m0 0h3l3 9-1 4-7 1 3-2-2-11z" fill="#0F162A"/>
<path transform="translate(856,492)" d="m0 0 3 2-2 22h-3l1-14z" fill="#19253B"/>
<path transform="translate(893,353)" d="m0 0h5l2 2-1 6-5 1-3-3 1-5z" fill="#2E445E"/>
<path transform="translate(864,353)" d="m0 0h5l1 5-1 4h-5l-2-2v-5z" fill="#2C435C"/>
<path transform="translate(1267,1824)" d="m0 0 3 1 2 2-1 10-4 3-4 2 2-4 2-2z" fill="#11273F"/>
<path transform="translate(1543,899)" d="m0 0h6l1 1v6l-7 1-1-7z" fill="#C9D9EA"/>
<path transform="translate(1707,241)" d="m0 0h1l-1 7-8 17-3 1 2-6 7-15z" fill="#0E2137"/>
<path transform="translate(1334,250)" d="m0 0h13v2l-15 2-8 4-2-1 4-4z" fill="#0C2139"/>
<path transform="translate(850,544)" d="m0 0 3 2-2 22-3-1 1-13z" fill="#18263D"/>
<path transform="translate(908,353)" d="m0 0h3l1 2 2-2 3 1-4 10-5 1v-2l2-1-1-5z" fill="#203753"/>
<path transform="translate(1474,769)" d="m0 0 2 3v17l-3-4-1-6v-9z" fill="#0F1B31"/>
<path transform="translate(1315,1242)" d="m0 0 7 1v5h-14v-1h5l1-4z" fill="#F48180"/>
<path transform="translate(828,572)" d="m0 0v3 2h3v-2h5l1 1 10 1v1l-9 1h-13l1-5z" fill="#121427"/>
<path transform="translate(1647,438)" d="m0 0 5 2 7 8 2 7h-3l-5-10-5-4-3-2z" fill="#162D46"/>
<path transform="translate(835,1227)" d="m0 0 2 2-5 4-7 2v-2l-9-2 3-1h7z" fill="#0F192D"/>
<path transform="translate(1304,1184)" d="m0 0h13l9 3v2h-5l-1-1-16-2z" fill="#0B1D34"/>
<path transform="translate(1323,1269)" d="m0 0h2v3l3-1 1 4-6 7h-2l1-4v-8z" fill="#0D182C"/>
<path transform="translate(1271,1248)" d="m0 0 1 2 8-1-1 2-8 1v12l-1 1-1 7h-1v-13l2-10z" fill="#121427"/>
<path transform="translate(1310,1195)" d="m0 0h8v4h-6v-2l-10 3-6 4-2-1 9-6z" fill="#131427"/>
<path transform="translate(1101,414)" d="m0 0 6 1-1 6-4 1-4-3 1-4z" fill="#FA7F80"/>
<path transform="translate(572,1725)" d="m0 0 2 3 5 18v2l-4-2-1-9-3-7z" fill="#172E49"/>
<path transform="translate(738,469)" d="m0 0h2l1 2v11l-4-3v-2h-2l1-5z" fill="#EBEFF2"/>
<path transform="translate(734,398)" d="m0 0h7l5 3v3l-6-1-7-2z" fill="#10192D"/>
<path transform="translate(318,300)" d="m0 0h11l5 2v3l-7-2h-7l-7 2v-3z" fill="#14283F"/>
<path transform="translate(1327,265)" d="m0 0m-1 1m-1 1 1 3-4 7-2 11-2-1v-8l4-9z" fill="#0E223A"/>
<path transform="translate(773,1846)" d="m0 0h22l-1 4-2-1-20-1z" fill="#FCFDFD"/>
<path transform="translate(730,1672)" d="m0 0v3l-2 4 1 2-5 8-2-1-1-4z" fill="#111529"/>
<path transform="translate(657,1468)" d="m0 0h1l3 16 1 6-4-4-2-10v-7z" fill="#0A1C32"/>
<path transform="translate(1618,1438)" d="m0 0 4 2 2 4v8l-2 2-2-3-1-9z" fill="#111D32"/>
<path transform="translate(1241,1371)" d="m0 0h2l3 9 1 4-7 1z" fill="#E1E8EE"/>
<path transform="translate(1281,1227)" d="m0 0 8 1 1 2-1 2h-9l-2 1-2-2 2-3z" fill="#0F1B30"/>
<path transform="translate(1610,442)" d="m0 0 1 3-2 7v12h-3v-14l3-7z" fill="#0E2138"/>
<path transform="translate(1341,1838)" d="m0 0h2l-1 4-4 2-2 4-3 3h2v2l-6-1 2-4z" fill="#D9AEA1"/>
<path transform="translate(330,1618)" d="m0 0 7 2v2l2 1-5 1-8-2-1-3z" fill="#10192E"/>
<path transform="translate(283,1614)" d="m0 0 3 1v2h17l1 2h-20z" fill="#131427"/>
<path transform="translate(827,1508)" d="m0 0 5 5 1 4h-4l-1 3-3-10z" fill="#10182C"/>
<path transform="translate(1345,1256)" d="m0 0 3 1-4 4-4 2h-6l-2 5-1-4h2v-2h2l-1-3h9z" fill="#121427"/>
<path transform="translate(1066,912)" d="m0 0h1v18l-2 2-1-4v-11z" fill="#6F96BE"/>
<path transform="translate(882,353)" d="m0 0h3l1 2 2-2h3l-2 8h-5l-2-5z" fill="#253750"/>
<path transform="translate(767,1623)" d="m0 0 3 1-7 10-4-2 4-7z" fill="#0E172B"/>
<path transform="translate(852,351)" d="m0 0h7l2 2-1 7-1 1h-6l3-3v-5z" fill="#1C304B"/>
<path transform="translate(1444,683)" d="m0 0 4 2 3 6v2l-3 1-5-8z" fill="#132035"/>
<path transform="translate(1631,436)" d="m0 0h13l3 1v2h-14l-6 1z" fill="#0F2138"/>
<path transform="translate(1128,432)" d="m0 0 4 1-5 3-5 1h-10v-2z" fill="#14172A"/>
<path transform="translate(646,1445)" d="m0 0h6l8 4-3 1-9-3-6 11-1-3v-3h2l2-6z" fill="#131427"/>
<path transform="translate(685,415)" d="m0 0 5 1 6 5v3h-2v-2l-6 2 1-5-4-2z" fill="#131B30"/>
<path transform="translate(834,1504)" d="m0 0 6 5-1 3-1 2 1 3h-2l-4-8z" fill="#111528"/>
<path transform="translate(859,478)" d="m0 0h2l-2 16-2 2v-12z" fill="#14182C"/>
<path transform="translate(740,396)" d="m0 0h9v6l-3 2-1-3-5-3z" fill="#F6A593"/>
<path transform="translate(1307,1861)" d="m0 0h4v3l-8 4h-3l1-4z" fill="#6887A8"/>
<path transform="translate(1071,1501)" d="m0 0h14l-1 3h-14z" fill="#131427"/>
<path transform="translate(723,754)" d="m0 0h1v22h-3l1-15z" fill="#9DB4CC"/>
<path transform="translate(1334,339)" d="m0 0 3 1 2 3h5l1-2 3 1-3 4h-8l-3-4z" fill="#112944"/>
<path transform="translate(1237,1861)" d="m0 0h5l-3 4-9 3v-3z" fill="#6A87A7"/>
<path transform="translate(822,1269)" d="m0 0 5 2 7 3-2 3-6-2-5-3z" fill="#DEA296"/>
<path transform="translate(1021,590)" d="m0 0 3 1v3l-6 3-2-1 2-3h-8l4-2z" fill="#131528"/>
<path transform="translate(1668,452)" d="m0 0h2v12l-3 6h-2l2-8z" fill="#0C1F36"/>
<path transform="translate(1137,417)" d="m0 0 4 1 1 5-1 1h-5l-1-4z" fill="#FF7E81"/>
<path transform="translate(1227,1532)" d="m0 0h2l-1 10-2 4-2-1 2-12z" fill="#D99F95"/>
<path transform="translate(1353,1233)" d="m0 0 3 2 1 13-1-2h-4z" fill="#10243C"/>
<path transform="translate(829,564)" d="m0 0 3 1-1 3-11 5-2-4 7-2h3z" fill="#131528"/>
<path transform="translate(1362,291)" d="m0 0 1 2-6 8-4 3-2-1 8-10z" fill="#142E4A"/>
<path transform="translate(684,1795)" d="m0 0 1 2-7 8-5 3-3-1 3-3 5-3 3-3h2z" fill="#0F253F"/>
<path transform="translate(837,1622)" d="m0 0 1 2-4 22h-1v-12l3-11z" fill="#131427"/>
<path transform="translate(1340,1248)" d="m0 0h5v2l-3 2v3l-5-1h-3l4-5z" fill="#171E34"/>
<path transform="translate(838,578)" d="m0 0h15v1l-11 2h-8l-1-2z" fill="#D39C94"/>
<path transform="translate(870,550)" d="m0 0h1v18l-3-3 1-14z" fill="#181F34"/>
<path transform="translate(731,434)" d="m0 0h10l-2 6-3 2-2-2 3-4h-6z" fill="#151B2F"/>
<path transform="translate(995,380)" d="m0 0 6 1v5h-6l-1-5z" fill="#A6BFD8"/>
<path transform="translate(872,350)" d="m0 0h3l1 12-4-1z" fill="#20344C"/>
<path transform="translate(345,346)" d="m0 0 1 3-7 13h-2l2-6 5-9z" fill="#0F2239"/>
<path transform="translate(1212,1531)" d="m0 0h3l-2 12-3 1 1-9z" fill="#E99E8F"/>
<path transform="translate(1206,1534)" d="m0 0 1 4-1 6-1-4h-7l-1-2z" fill="#769CC0"/>
<path transform="translate(1329,1242)" d="m0 0m-1 1m-1 1m-1 1m-1 1 2 3-1 1-1 18h-1l-1-12v-8z" fill="#131427"/>
<path transform="translate(866,472)" d="m0 0h13v2l-2 1-1 3h-2v-3l-8-1z" fill="#0B1E34"/>
<path transform="translate(1658,455)" d="m0 0h3v9l-1 3-4 2 1-3z" fill="#233952"/>
<path transform="translate(734,453)" d="m0 0 2 1zm-2 1 2 1-1 4-7 1v-2l-7-1v-1z" fill="#182135"/>
<path transform="translate(1620,430)" d="m0 0m-2 1h2v3l-9 9h-2l2-5z" fill="#152C45"/>
<path transform="translate(1668,206)" d="m0 0 4 1-5 3-8 4-2-1 5-5z" fill="#162D46"/>
<path transform="translate(1219,1533)" d="m0 0h3l-2 11-1 2h-2l1-10z" fill="#E1A094"/>
<path transform="translate(1234,1532)" d="m0 0h2l-1 10-1 3h-3l2-11z" fill="#E0A196"/>
<path transform="translate(845,1511)" d="m0 0 3 3 5 9-4-2-7-8z" fill="#DA9E93"/>
<path transform="translate(1064,1403)" d="m0 0 2 3 2-1-2 13-3-2v-12z" fill="#3A5675"/>
<path transform="translate(1454,915)" d="m0 0h4l-1 5-2 6-2-3-2-1z" fill="#13253D"/>
<path transform="translate(1649,222)" d="m0 0 1 3-3 10-3 1 1-8 2-5z" fill="#16304D"/>
<path transform="translate(1264,1263)" d="m0 0 4 1v14l-2-3z" fill="#F28280"/>
<path transform="translate(1282,1256)" d="m0 0h9l-2 2-7 2h-6v-2z" fill="#132943"/>
<path transform="translate(867,1171)" d="m0 0 5 5-1 3 1 4h-2l-4-5z" fill="#3E5E80"/>
<path transform="translate(850,1165)" d="m0 0 6 1 6 4 2 3h-3l-8-5-3-1z" fill="#13273E"/>
<path transform="translate(1108,906)" d="m0 0h7l-1 2h-2l-4 7-3 2 2-10z" fill="#D3E2F2"/>
<path transform="translate(855,515)" d="m0 0h1v10l-1 5h-2v-11z" fill="#151C30"/>
<path transform="translate(1104,368)" d="m0 0 1 4-2 5-3 2-1-3-2-1z" fill="#4E6D8F"/>
<path transform="translate(683,1791)" d="m0 0h1l-1 7-7 6-3-1 8-8z" fill="#111428"/>
<path transform="translate(682,1700)" d="m0 0h2l-1 6-3 5-3 1 2-7z" fill="#15283E"/>
<path transform="translate(381,1639)" d="m0 0 5 2 4 4-6 1-4-4z" fill="#121427"/>
<path transform="translate(759,1632)" d="m0 0 3 1-2 5-3 3-3-3z" fill="#14192D"/>
<path transform="translate(337,1620)" d="m0 0 7 1 2 4-4 1-4-1z" fill="#111528"/>
<path transform="translate(1258,1230)" d="m0 0h1l1 15-2 3-1-2v-15z" fill="#091B31"/>
<path transform="translate(1410,638)" d="m0 0h5v3l2 1-1 3-5-2-2-1z" fill="#F1F5F9"/>
<path transform="translate(869,564)" d="m0 0h1v12l-2 4h-1v-8l1-7z" fill="#131528"/>
<path transform="translate(353,314)" d="m0 0 3 1v13l-3-3z" fill="#24415F"/>
<path transform="translate(317,289)" d="m0 0h7l3 3-15 1 2-3z" fill="#19314C"/>
<path transform="translate(622,289)" d="m0 0h6l2 1 13 1v1h-19l-3-2z" fill="#93B5D6"/>
<path transform="translate(1341,1830)" d="m0 0 2 4-1 4-7 6 1-5 3-3h2z" fill="#11162A"/>
<path transform="translate(687,1696)" d="m0 0h2l-2 5-7 13-1-3 4-7 1-5z" fill="#121427"/>
<path transform="translate(1074,1440)" d="m0 0h1l1 6v8h-3l-1-11z" fill="#37526F"/>
<path transform="translate(1068,1405)" d="m0 0 2 1 2 15-3-1z" fill="#11253B"/>
<path transform="translate(1314,1283)" d="m0 0 2 1v2l-4 2h-7l-5-1v-1l12-2z" fill="#183658"/>
<path transform="translate(1326,1260)" d="m0 0 4 2-2 6-3 3v-9z" fill="#E8A497"/>
<path transform="translate(1453,922)" d="m0 0h1l-1 9-3 1-1-4 2-5z" fill="#112035"/>
<path transform="translate(1142,454)" d="m0 0 1 3-12 6v-3l5-3z" fill="#D89D94"/>
<path transform="translate(1627,438)" d="m0 0m-2 1 3 1-5 5-4 5-1-4 5-5z" fill="#162E48"/>
<path transform="translate(1117,404)" d="m0 0h3l-3 12-3 1 2-10z" fill="#131A2E"/>
<path transform="translate(1107,395)" d="m0 0h5l-1 2 3 2-10 1v-4z" fill="#13182C"/>
<path transform="translate(901,353)" d="m0 0h6l-2 4-1 4h-3z" fill="#20324B"/>
<path transform="translate(311,303)" d="m0 0h2v3l-6 5-2 2h-2l2-5z" fill="#162C44"/>
<path transform="translate(1355,1832)" d="m0 0 3 1 1 8-2 3h-2l1-6z" fill="#151B2F"/>
<path transform="translate(1172,387)" d="m0 0 2 1 1 4v12h-1v-7h-2l-1-9z" fill="#84A7CC"/>
<path transform="translate(878,350)" d="m0 0h3l-1 11h-3v-8z" fill="#314660"/>
<path transform="translate(1697,234)" d="m0 0h2v12l-2 3-1-5z" fill="#0C2139"/>
<path transform="translate(1295,1867)" d="m0 0h3l-1 4-4 4-2-1 1-4z" fill="#6185AB"/>
<path transform="translate(1285,1832)" d="m0 0h2l2 8-3 4h-2l1-8-1-3z" fill="#14182B"/>
<path transform="translate(770,1623)" d="m0 0 2 1-1 2-4 5-6 7v-3z" fill="#E18D81"/>
<path transform="translate(864,1251)" d="m0 0h3l-1 3-9 2v-2l-2-1z" fill="#25405D"/>
<path transform="translate(1436,691)" d="m0 0 2 2 2 6-4 3-2-7z" fill="#1A2E47"/>
<path transform="translate(315,376)" d="m0 0 3 1 6 9-5-1-3-5z" fill="#182E47"/>
<path transform="translate(750,1646)" d="m0 0h1v5l-6 4v-4z" fill="#0F1C31"/>
<path transform="translate(1331,1194)" d="m0 0 6 2 4 4 4 5-1 3-6-8-7-5z" fill="#131427"/>
<path transform="translate(858,1190)" d="m0 0 1 4v2l-2 1h-9l2-2h5l2-4z" fill="#82A5CB"/>
<path transform="translate(1282,1189)" d="m0 0 2 1-7 7-4-1 4-4z" fill="#0E233B"/>
<path transform="translate(856,591)" d="m0 0h3l4 8-6-1z" fill="#B58E8F"/>
<path transform="translate(1653,495)" d="m0 0 1 3-4 9h-3l2-6z" fill="#152B44"/>
<path transform="translate(1116,416)" d="m0 0 4 2v6l-5-1z" fill="#E58483"/>
<path transform="translate(1674,216)" d="m0 0 9 1v2h-13l1-2z" fill="#13273E"/>
<path transform="translate(1225,1867)" d="m0 0 3 1-4 6-4-1 3-5z" fill="#6E89A7"/>
<path transform="translate(1359,1364)" d="m0 0 2 1-1 7-3 1-2-1 2-6h2z" fill="#13192D"/>
<path transform="translate(1026,600)" d="m0 0v3l-2 3-8 3-3-1 12-7z" fill="#CEA29B"/>
<path transform="translate(816,570)" d="m0 0h5l-3 5-5 2 1-3-2-1z" fill="#0E192D"/>
<path transform="translate(874,491)" d="m0 0h1v12h-2l-1 3 1-14z" fill="#171D31"/>
<path transform="translate(304,312)" d="m0 0 1 2-3 12h-2l1-10 1-3z" fill="#12263D"/>
<path transform="translate(1695,266)" d="m0 0 3 1-5 10-3 1 2-6z" fill="#13273E"/>
<path transform="translate(1367,1759)" d="m0 0h2l-1 7h-2v6h-1v-12z" fill="#0F162A"/>
<path transform="translate(641,1510)" d="m0 0 18 1v1l-15 1 1 4h-2z" fill="#DE9081"/>
<path transform="translate(812,1472)" d="m0 0 3 1-9 5-5 3h-2v-2z" fill="#2978C3"/>
<path transform="translate(1059,1439)" d="m0 0 2 3v9l-3 1z" fill="#25415F"/>
<path transform="translate(644,1442)" d="m0 0 8 1v2l-8 2-2 1z" fill="#1B2F45"/>
<path transform="translate(1355,1251)" d="m0 0 3 3v9l-3-2z" fill="#0E253F"/>
<path transform="translate(830,1205)" d="m0 0 3 1v3l-7 2v-4z" fill="#111528"/>
<path transform="translate(1473,866)" d="m0 0 3 1-1 6-5 2 1-6h2z" fill="#15263B"/>
<path transform="translate(1644,478)" d="m0 0h3v2l-5 2h-8v-2z" fill="#0E2138"/>
<path transform="translate(1165,424)" d="m0 0h4l-1 5-3 2-2-4z" fill="#84A8CE"/>
<path transform="translate(1366,300)" d="m0 0 1 3-5 9h-2l2-6z" fill="#0E2138"/>
<path transform="translate(1362,279)" d="m0 0 2 1v10l-4 3z" fill="#0E2138"/>
<path transform="translate(1335,261)" d="m0 0m-3 1 6 1v1l-6 2-6 3 2-5z" fill="#1E354F"/>
<path transform="translate(492,231)" d="m0 0 6 1 2-1 3 2-4 1-2 2-5-1z" fill="#6588AD"/>
<path transform="translate(1183,1543)" d="m0 0 5 2v8h-2z" fill="#83A5CA"/>
<path transform="translate(1062,1429)" d="m0 0h1l-1 13h-2v-8z" fill="#0F2339"/>
<path transform="translate(1307,1398)" d="m0 0m-3 1 4 1-2 4-3 1-2-2v-2z" fill="#15263D"/>
<path transform="translate(1277,1270)" d="m0 0 4 5 3 4-5-1-3-4z" fill="#1D2E46"/>
<path transform="translate(1277,1244)" d="m0 0 4 1-1 4-5 1v-5z" fill="#EF8681"/>
<path transform="translate(837,593)" d="m0 0 13 2v1h-16z" fill="#D99C93"/>
<path transform="translate(1664,470)" d="m0 0h3l-4 10h-3l2-6z" fill="#142E4B"/>
<path transform="translate(1173,406)" d="m0 0h2v8l-2 4h-1l-1-6z" fill="#83A7CD"/>
<path transform="translate(1330,251)" d="m0 0 3 1-3 3-6 3-2-1 4-4z" fill="#13273E"/>
<path transform="translate(567,1713)" d="m0 0h2l3 8v3l-3-1z" fill="#12273F"/>
<path transform="translate(1302,1256)" d="m0 0h10l2 1v2l-12-1z" fill="#0D2037"/>
<path transform="translate(1317,1203)" d="m0 0 4 1 4 3v2l3 1-1 2-5-3z" fill="#0C1B30"/>
<path transform="translate(831,567)" d="m0 0 3 1-7 6h-2l2-5z" fill="#DE9E94"/>
<path transform="translate(1648,506)" d="m0 0 1 2-4 8-3 1 2-6z" fill="#0E243C"/>
<path transform="translate(713,400)" d="m0 0 1 2-1 2 2 1-4 2h-3l1-4z" fill="#111E33"/>
<path transform="translate(1116,363)" d="m0 0h3v2l-12 6 2-4z" fill="#12263D"/>
<path transform="translate(1359,312)" d="m0 0 3 1-5 10-2-1 2-6z" fill="#12263D"/>
</svg>
