<?xml version="1.0" encoding="UTF-8"?>
<svg version="1.1" viewBox="0 0 2000 2000" width="2000" height="2000" xmlns="http://www.w3.org/2000/svg">
<path transform="translate(0)" d="m0 0h2e3v2e3h-2e3z" fill="#F5EEFB"/>
<path transform="translate(1200,190)" d="m0 0h45l43 3 32 4 23 4 37 9 29 8 35 12 24 10 4 1v2l-12-1-20 1 3 9 1 8-8 4-4-1-6-11-2-1-10 7-8 9-3 5 5 3v2l5 1 3 2v3h-108v198l19 5 4 2v2h2l1 6-3 3 3 3 6 3-1-1v-198l1-2h132l16 9 4 1h15l16-1 9 3 2 1v2l3 1 2 4v10l-2 10 1 8 6 7 8 7 3 7v9l-4 8-3 3h-2l2 7v9l-1 7h-2l-1 6-6 10-4 5-4 3-1 11v17l6 43 1 7v10l-13 19-10 11-1 2h-2v2l-11 9h-3v2h-32v-2h-3v-2l-4-2-7-7-7-11-5-11-1-6 2-4 1-9 1-2 1-16-6-4-5-2-4-4-3-2v-3l-4-2-4-4-8-16-4-16-1-8v-24l-12 12-5 7h-2l-2 5-3 6 13 7v2l5 1 6 4-2 5-5 13-9-1-20-5-2 13v27l2 14 25-6h4l4 12v1l20 1v13l-2 26h-79v-52l-9-1v2h2l5 6-1 6-7 1 5 5 2 3v4l-18-1-12-1-3 15-5 6-3 2 3 35 7-8h2l1-2v249h94v14l42-2 98-6v-6h115v-55l20 8 11 4-8 30v3l18 4 22 2 27-1 17-3 8-2-1-8-6-22 1-4 15-5 13-6 7-3 8 14 9 15 14-8 11-9 4-2v46l-2 32-3 25-6 39-7 32-5 18-10 32-9 25-11 26-7 15-8 17-13 23-8 14-12 19-16 24-8 10-5 6-1 3h-2v2h-2l-2 5-9 10-5 7h-2l-2 4-4 5h-2l-2 4-5 6h-2v16l-4 35-9 42-6 24-9 29-9 27-5 16 5-4 14-14 20-14 6-3 11-5 10-2h8l6 3 1 2v8l-3 9-4 9-9 18-3 3-1 3h-2l-2 5-4 6h-2l-2 5-7 8-8 11-5 5-12 14-9 11-3 5-2 1-2 4-3 1-2-23v-7l7-8 9-10 24-24 7-8 4-4h2v-3l-6 2-1 2h-2l-2 4-10 10-7 8-3 1-1 3h-2v2h-2v2h-2v2h-2l-2 4-5 6-4 4h-2l-2-29-1-23-1-9-1-28-1-5-1-35 9-32 7-23 7-20h-4l-4 16-3 8-6 19-6 21h-1l-1-23-1-10-1-29-1-8-2-27-5-98-2-35-3-58-2-39-8 2h6l1 5 4 63 2 35 1 30 5 81 1 27 1 10v18l1 8 1 24 2 16 1 32 2 40 1 1v23l2 24v28l2 1 1 35 2 35 1 4v17l1 23 1 1v12l1 5-11 1 3 22 1 13v11l10 1 37 5 3 1 19 2 23 6 12 5 5 4v6l-8 6-11 4-29 7-49 7-59 6-55 4-99 5-61 2-48 1h-220l-82-2-74-3-72-4-36-3-43-4-41-5-12-2-23-4-16-4-13-4-4-2v-2l-4-1-2-2v-6h2l1-2 2-2 21-7 10-2 14-3 24-4 10-1 3-2 4-10 2-4-13-11-2-1v-2l-4-2-11-9-13-10-4-5-8-7-13-11-10-11-7-8-10-11-6-9-8-16v-10l3-6 6-4 3-1h8l16 7 21 10 10 7 2 1-7-10v-2h-2l-4-7-4-4v-2h-2l-7-9-6-7v-2l-3-1-3-5-5-5-5-6v-2l-3-1-1-4h-2l-2-5h-2l-4-6-9-13-6-11v-2h-2v38l-2 91-3 62-4 53-5 46-1 4h-88l-1-4-3-72-2-88v-35l1-44 2-43 2-27-14-58-14-57-14-59-1-2-5 107-6 103-7 97-6 65-6 51-6 37-5 21-1 2h-77l-2-27-2-44-1-39v-69l2-51 3-38 4-30 5-26 6-21 3-10-12-41-9-35-8-36-7-40-5-38-3-38v-63l3-36h-4v-9l2-18 5-24 7-28 9-29 10-30 2-3 4-13 11-28 6-14v-5l-3-7-14-44-12-36-11-34-2-6-7-8-5-11-7-16-7-10-10-11v-2h-2l-7-8-8-9-7-12-4-13-1-14 2-15 6-17 8-14 9-12 13-15 16-16 7-8 8-8 11-15 7-11 6-15 3-12 5-41 5-15 7-11 8-7 10-5 7-2 16-1 14 2 1-9 6-10 8-7 9-4h17l9 4 9 7 8 10 6 9 12 11 14 11 15 8 12 3h14l6 2 3 3v7l-7 11-11 13-14 14-8 6-19 13h-3l-4-9-6-3h-7l-5 2-4 5-2 5v16l2 9v22l-4 18-10 32-3 15v15l33 1 14 2 12 5 7 8 4 7h7l16-4h6l8 16 17 37 15 35 10 25 11 28 12 36 6 20 5 19-1 4h-2l-2 4-5 6h-3l-3-13-3-3-4-1-3 1-2 3h-2l-2 7-3 8-5-5-7-4h-5v10l2 8-7-4-6-5-8-7h-1l7 27 3 16 6 25 6 35 5 36 5 45 1 17-8 3-10 3v20l3 92 2 84 1 64 1 32v63l13 2 16 8 15 9v2l5 2 8 7v2h2l6 7 5 5-3-11-12-36-12-42-4-16-5-22-4-26-2-18v-21l3-6 6-4h9l13 6 7 8 5 5 7 11 7 10 8 17 4 8 6 16 5 15 7 29 4 22 4 30 2 20 8-36 6-18 4-13 4-6 3-3h7l6 6 2 4v-22l-2-78v-80l1-48 3-96 3-53 7 1 5 1h30l18-4 15-6 13-7 11-8 1-1-27-1-41-4-28-6-2-2v-13l4-36 3-19 1-10h-36l-1-91-3-1 3-2 1-3v-116l-1-2-3-1 1-11-5-2-19-9 19 10 3 2 1 14 3 1 1 14-1 101-13 10-9 6-11 4-9 6-6 2h-13l-10-5-9-7-6-11-4-13v-26l3-16 5-21 11-33 5-13 14-34 4-2h2l-6-1v-2h2l1-4 1-2 6 1 1-14h1v12l-1 3 9 3 30 11 1-3h2l1-9 1-6v-13h22l4-2-1-6-3-3v-2h-2v-2h9v19h88l-1-10-1-4-2-1 8 1 10-1 1-10 1-1 3-23 1-2-7-1-5-3-12-8v-3l-4-2-8-11-4-10-2-10v-24l2-18 4-15-1-9-11-6-8-9-6-12-2-12 2-11 5-10 9-8 12-5 10-2 10-1h33l31 1 20 5v-13l4-10 6-7 7-4h89l1 1v223l14-8-6-1-3-2v-5l4-4 14-5 15-2-3-1v-217h-306l4-5 10-7 18-13 18-11 11-7 9-6 14-7 17-9 23-11 26-11 12-5 35-12 26-7 12-3 27-6 29-5 36-4z" fill="#DCDBF8"/>
<path transform="translate(500,334)" d="m0 0h17l9 4 9 7 8 10 6 9 12 11 14 11 15 8 12 3h14l6 2 3 3v7l-7 11-11 13-14 14-8 6-19 13h-3l-4-9-6-3h-7l-5 2-4 5-2 5v16l2 9v22l-4 18-10 32-3 15v15l33 1 14 2 12 5 7 8 4 7h7l16-4h6l8 16 17 37 15 35 10 25 11 28 12 36 6 20 5 19-1 4h-2l-2 4-5 6h-3l-3-13-3-3-4-1-3 1-2 3h-2l-2 7-3 8-5-5-7-4h-5v10l2 8-7-4-6-5-8-7h-1l7 27 3 16 6 25 6 35 5 36 5 45 1 17-8 3-10 3v20l3 92 2 84 1 64v172l-2 91-3 62-4 53-5 46-1 4h-88l-1-4-3-72-2-88v-35l1-44 2-43 2-27-14-58-14-57-14-59-1-2-5 107-6 103-7 97-6 65-6 51-6 37-5 21-1 2h-77l-2-27-2-44-1-39v-69l2-51 3-38 4-30 5-26 6-21 3-10-12-41-9-35-8-36-7-40-5-38-3-38v-63l3-36h-4v-9l2-18 5-24 7-28 9-29 10-30 2-3 4-13 11-28 6-14v-5l-3-7-14-44-12-36-11-34-2-6-7-8-5-11-7-16-7-10-10-11v-2h-2l-7-8-8-9-7-12-4-13-1-14 2-15 6-17 8-14 9-12 13-15 16-16 7-8 8-8 11-15 7-11 6-15 3-12 5-41 5-15 7-11 8-7 10-5 7-2 16-1 14 2 1-9 6-10 8-7z" fill="#9B4BE4"/>
<path transform="translate(1200,190)" d="m0 0h45l43 3 32 4 23 4 37 9 29 8 35 12 24 10 4 1v2l-12-1-20 1 3 9 1 8-8 4-4-1-6-11-2-1-10 7-8 9-3 5 5 3v2l5 1 3 2v3h-108v198l19 5 4 2v2h2l1 6-3 3 3 3 6 3-1-1v-198l1-2h132l16 9 4 1h15l16-1 9 3 2 1v2l3 1 2 4v10l-2 10 1 8 6 7 8 7 3 7v9l-4 8-3 3h-2l2 7v9l-1 7h-2l-1 6-6 10-4 5-4 3-1 11v17l6 43 1 7v10l-13 19-10 11-1 2h-2v2l-11 9h-3v2h-32v-2h-3v-2l-4-2-7-7-7-11-5-11-1-6 2-4 1-9 1-2 1-16-6-4-5-2-4-4-3-2v-3l-4-2-4-4-8-16-4-16-1-8v-24l-12 12-5 7h-2l-2 5-3 6 13 7v2l5 1 6 4-2 5-5 13-9-1-20-5-2 13v27l2 14 25-6h4l4 12v1l20 1v13l-2 26h-79v-52l-9-1v2h2l5 6-1 6-7 1 5 5 2 3v4l-18-1-12-1-3 15-5 6-3 2 3 35 7-8h2l1-2v164h-3v2l-10 4h-15l-14-1-12-5-8-6-6-7-6-12-4-15-4-10-8-24-8-20-11-26v-2h-2l-4-9v-2l-4 1-2-1-1 3-15 6-17 7-6 1-2-1-4-14v-17l-6 1h-16l-4-2 1-7 5-5-1-1-10-1 1 17h-21l-4 1h-63v-6l3-9 2-3h-7l-5-2-3-21v-11h-2l1-4v3l13-4 9-8 4-8 3-10 1-8 1-32 5-37 1-17 10-3 6-4 5-6 5-12 2-10v-13l-3-12-10-20-7-8-5-3h-5l8 5 5 5 2 4-14-7-4-1h-13l-12 5-6 5-6 9-1-4 4-11 7-7 6-3-2-2h88l1 1v223l14-8-6-1-3-2v-5l4-4 14-5 15-2-3-1v-217h-306l4-5 10-7 18-13 18-11 11-7 9-6 14-7 17-9 23-11 26-11 12-5 35-12 26-7 12-3 27-6 29-5 36-4z" fill="#DCDBF9"/>
<path transform="translate(925,970)" d="m0 0 3 1 5 5 9 8 18 12 17 9 17 7 22 6 24 4 17 1h15l15-1 4 30 2 24 1 20v96l-3 224-1 68-1 14-10 1v13l-3 61-1 33 10 19 5 16 1 6v11l-3 10-6 12-9 12-9 10h-28v-2l-4-2-12-12-7-10-3-6v-14l6-30 4-17-1-9-6-25-4-18-4-16-6-25-1-4-1-10-1-3h-14l-1-1-6-78-2-20-6-80-4-52-2-27-4-52-2-27-6-78-3-40h-1l-1 12-1 32-1 16-2 55-2 36-2 56-1 13-3 80-3 63-1 28-2 35-1 25-1 9h-94l-4 23-2 12 16-16h2l-1 5-5 8-5 11-6 16-6 18-4 19-15 20-2 1-2 4-3-1-6-24-10-48v-6l3-8 11-34 11-43 5-27 2-10v-8l-2 2-5 30-10 42-8 27-8 24-2-3-15-74-5-26-9-38-6-26-6-23-6-21-6-18-4-14-2-9h-4l14 44 9 33 6 24 9 39 6 30 6 28 10 50v2l-4-2-7-8-26-26-6-7-20-20-7-8-16-16-7-8-4-1 3 5 13 13 1 3h2v2l4 2v2l4 2 7 8v2h2v2l4 2 5 6 8 7 9 10 6 7 8 7 5 5 16 17 2 2 7 33 5 22 4 17-1 3-7-6-5-5-5-4-4-4-14-11-10-9-9-6-16-12-7-5-3-1 1 4 3 1v2l5 2 11 8 3 2v2l5 2 3 2v2l5 2v2l5 2 3 3 11 9 14 12 14 13 1 5 7-3 20-9 25-8 4-1h61l-1 42-1 17h-142v-7l4-10 2-4-13-11-2-1v-2l-4-2-11-9-13-10-4-5-8-7-13-11-10-11-7-8-10-11-6-9-8-16v-10l3-6 6-4 3-1h8l16 7 21 10 10 7 2 1-7-10v-2h-2l-4-7-4-4v-2h-2l-7-9-6-7v-2l-3-1-3-5-5-5-5-6v-2l-3-1-1-4h-2l-2-5h-2l-4-6-9-13-6-11v-2h-2v-102h1v63l13 2 16 8 15 9v2l5 2 8 7v2h2l6 7 5 5-3-11-12-36-12-42-4-16-5-22-4-26-2-18v-21l3-6 6-4h9l13 6 7 8 5 5 7 11 7 10 8 17 4 8 6 16 5 15 7 29 4 22 4 30 2 20 8-36 6-18 4-13 4-6 3-3h7l6 6 2 4v-22l-2-78v-80l1-48 3-96 3-53 7 1 5 1h30l18-4 15-6 13-7 11-8z" fill="#9B4BE4"/>
<path transform="translate(1423,282)" d="m0 0 1 2 6-1h224l3 1v224l7 1 9-1h12l6 3 5 2 8 9 4 10 4 20 3 16 1 5 1-1h20l15 3 10 4 15 9 5 4v2h2v2l4 2 10 14 7 14 4 15v27l-2 10-5 13-7 12-7 9h-2v2h-2v2h-2v2l-14 10-11 5-9 3-10 2-9 27-8 13-12 9-7 3-6 1h-15l-9-4v-2l-5-2-6-5-4-11v1l2 13-1 2-1 59h-115v6l-2 1-112 7h-26v-14h-94l-1-247h-2l-2 4-6 5-3-36 5-4 3-4 3-15 1-1 12 1 18 2-3-7-2-4-3-1 4-1h4v-6l-4-4v-2h-2l-1-3 11 1-1 53h79l1-26 1-13h-20l-3-8-1-6-24 6h-5l-2-6-1-8v-27l2-11 1-2 9 1 14 4 6 1 2-9 4-7v-2l-10-5v-2l-6-2-8-5 6-11h2l2-4 9-10 3-3h2l1-18h1v40l3 18 5 13 4 6v3l3 1 5 5 1 3 6 4 1 2 7 3 4 3-2 16 2 1-2 1-1 9-2 6 4 11 9 15 8 8 2 1v2h3v2h32v-2l7-4 5-5h2v-2h2l2-4 9-10 12-18v-10l-6-42-1-8v-17l1-11 6-5 8-13 2-6h2v-16l-1-4v-3l5-4 3-7v-9l-4-8-12-11-2-5 1-11 1-4v-10l-2-4-2-1v-2l-11-3-16 1h-15l-10-4-10-6-132-1v200l2 2-4-1-6-3-2-4 3-2v-6h-2v-2l-10-3-13-3-1-2 1-197z" fill="#FCFCFC"/>
<path transform="translate(1021,342)" d="m0 0 5 1-2 2-7 4-6 7-3 9v3l6-9 8-6 10-4h13l11 4 6 4-3-4v-2l-14-7v-1h8l8 6 7 9 6 13 4 11 1 5v13l-4 16-5 9-8 7-8 3h-4v17l-5 37-1 32-2 12-5 12-7 8-6 4-7 2-5 1h2l3 24v8l5 1h12l-4 2h-2l-2 10-2 7 63-1 5-1h19v-16l-2-1 12 1 2 2-6 7v5l3 1h22l1 17 3 9v5l8-1 20-8 12-5 1-2h6l4 8v3h2l1 4-4 1-5 3 6-3 3 1 11 27 11 30 6 18 3 14 3 12 2 15v18l-3 14-3 5-5 8-10 9-10 4h-10l-11-4-10-6-22-12v-2l-5-2-1-2v5l5 1-4 1-1 86h-101l9 20 8 20 7 21 2 8-1 6-22 4-42 6-16 2-64 4-30-1-41-4-28-6-2-2v-13l4-36 3-19 1-10h-36l-1-91-3-1 3-2 1-3v-116l-1-2-3-1 1-11-5-2-19-9 19 10 3 2 1 14 3 1 1 14-1 101-13 10-9 6-11 4-9 6-6 2h-13l-10-5-9-7-6-11-4-13v-26l3-16 5-21 11-33 5-13 14-34 4-2h2l-6-1v-2h2l1-4 1-2 6 1 1-14h1v12l-1 3 9 3 30 11 1-3h2l1-9 1-6v-13h22l4-2-1-6-3-3v-2h-2v-2h9v19h88l-1-10-1-4-2-1 8 1 10-1 1-10 1-1 3-23 1-2-7-1-5-3-12-8v-3l-4-2-8-11-4-10-2-10v-24l2-18 4-15-1-9-11-6-8-9-6-12-2-12 2-11 5-10 9-8 12-5 10-2 10-1h33l31 1 20 5v-13l4-10 6-7z" fill="#FCFCFC"/>
<path transform="translate(1531,983)" d="m0 0h9l1 1 1 8v28l9 2 25-1 12-2h15l1 5 4 63 2 35 1 30 5 81 1 27 1 10v18l1 8 1 24 2 16 1 32 2 40 1 1v23l2 24v28l2 1 1 35 2 35 1 4v17l1 23 1 1v12l1 5-11 1 3 22 1 13v20l-2 13-3 6-8 6-12 5-8 2-9 1h-12l-17-3-16-7-9-8-2-4v-12l4-25 7-30-6 1-2-7-7-43-6-38-1-5h2l-1-5h-2l1-6h-2l-2-7-1-10-2-10-9-57-7-44-1-17-8-50-5-31-4-22-5-34-5-29-5-32-2-13-2-7-1 2-3 66-1 30-3 63-3 78-1 18-1 46-2 50-3 64-1 32-1 16-4 2-4 56-1 1h-195l1-6 4-8 8-9 10-7 12-7 19-8 22-7 25-6-5-305-3-224-1-69 1-2 8 1 7 2 10 1h26l13-1 6 9 21 35 15 24 12 20 7 11-5-29-8-41-9-49-1-7 2-6 46-1 38-2z" fill="#FDB928"/>
<path transform="translate(642,1045)" d="m0 0h3l2 46 3 101 2 112v172l-2 91-3 62-4 53-5 46-1 4h-88l-1-4-3-72-2-88v-35l1-44 2-43 2-27-14-58-14-57-14-59-1-2-5 107-6 103-7 97-6 65-6 51-6 37-5 21-1 2h-77l-2-27-2-44-1-39v-69l2-51 3-38 4-30 5-26 6-21 3-10-12-41-9-35-8-36-7-40-5-38-3-38v-63l2-24 1-9 1-1h8l50 6 36 3 38 2h62l38-3 30-5z" fill="#1C192A"/>
<path transform="translate(832,342)" d="m0 0h189l-5 4-5 5-5 8-1 4v13l-2 1-19-5-31-1h-33l-16 2-14 5-9 7-5 8-2 6-1 9 2 11 6 12 7 8 12 7 1 9-4 15-2 18v24l3 13 5 10 7 9 2 1 1 3 11 7 7 4 5 1-3 25-1 1-1 11-15 1-2-1 2 4 1 10-1 1h-42l-46-1v-19h-9v2h2l4 5 1 6-5 3h-13l-9-1 1 4v9l-3 15-3 3-9-2-28-11-2-1v-4l-1 3-6-1-2 6-1 1 5 1 1 2h-5l-4 8-16 40-11 33-6 24-2 13v26l5 16 4 6v2l4 2 8 6 7 3h13l8-3 9-6 10-4 11-7 8-7h2v-107l-1-8-3-1v-14l-5-2-19-10 3-1 23 12v11h3l1 3v116l-3 5h2v92h36v10l-3 19-4 36v13l6 2 23 5 41 4 28 1-4 5-11 7-15 8-15 5-14 3h-30l-12-3v13l-3 67-2 69-1 48v80l2 78v24l-3-3-3-5-3-3h-7l-5 6-4 10-4 14-5 17-6 30-2-2-3-28-4-28-6-29-6-23-7-18-5-13-8-16-7-11-7-10-3-4v-2l-4-2-5-5v-2l-6-2-7-3h-9l-6 4-2 5v21l3 27 5 26 4 19 16 56 14 41-1 3-3-3v-2l-4-2-4-4v-2h-2l-5-5-6-5-2-1v-2l-4-1-9-6-15-8-16-4-1-63-1-32-2-112-3-101-1-27v-20l9-3 6-3h4l-3-28-7-57-5-31-5-26-6-25-3-15-5-19 1-2 7 7 5 3v2l5 2 4 2-2-6v-10l1-1 7 1 6 4 4 3 5-13 4-4 4-1 5 3 3 5 1 10 3-1 7-9 2-1-2-11-10-35-12-35-13-33-13-31-16-36-10-22-1-3 12-33 6-16 5-10 4-10 9-19 10-19 12-22h2l2-6 7-11 20-30h2l2-5 9-11 1-3h2l2-4 13-16 10-11 1-2h2l2-4 6-7h2v-2h2l2-4 4-2v-2h2l2-4 4-2 2-4 5-4 1-2h2v-2l3-1v178 2l11 2 9 3 6 3 3 3-1 5-9 2-1 1 12 5 1-218z" fill="#DCDBF8"/>
<path transform="translate(1800,784)" d="m0 0 4 5 13 23h3l15-9 10-9h2v46l-2 32-3 25-6 39-7 32-5 18-10 32-9 25-11 26-7 15-8 17-13 23-8 14-12 19-16 24-8 10-5 6-1 3h-2v2h-2l-2 5-9 10-5 7h-2l-2 4-4 5h-2l-2 4-5 6h-2v16l-4 35-9 42-6 24-9 29-9 27-5 16 5-4 14-14 20-14 6-3 11-5 10-2h8l6 3 1 2v8l-3 9-4 9-9 18-3 3-1 3h-2l-2 5-4 6h-2l-2 5-7 8-8 11-5 5-12 14-9 11-3 5-2 1-2 4-3 1-2-23v-7l7-8 9-10 24-24 7-8 4-4h2v-3l-6 2-1 2h-2l-2 4-10 10-7 8-3 1-1 3h-2v2h-2v2h-2v2h-2l-2 4-5 6-4 4h-2l-2-29-1-23-1-9-1-28-1-5-1-35 9-32 7-23 7-20h-4l-4 16-3 8-6 19-6 21h-1l-1-23-1-10-1-29-1-8-2-27-5-98-2-35-3-58-2-39-21 4-24 2h-9l-9-2-1-1v-28l-1-8-22 1-38 2-46 1-1 7 9 47 8 43 6 32-1 4-9-15-14-23-15-24-15-25-8-13-13 1h-26l-14-2-16-5-5-3-3-3 1-17 12-108 4-37 1-5h67v14l42-2 98-6v-6h115v-55l20 8 11 4-8 30v3l18 4 22 2 27-1 17-3 8-2-1-8-6-22 1-4 15-5 13-6z" fill="#DCDBF8"/>
<path transform="translate(945,1040)" d="m0 0 2 4 3 40 9 117 4 49 4 58 5 64 3 41 2 19 5 66 14 1 2 3 1 12 5 18 4 16 6 27 7 29-1 9-8 37-1 6v14l6 11 12 13 7 6v2l28-1 10-11 9-14 5-10 2-8 1-11 43-1h121l2 2-10 8-7 10-3 9 195-1 4-56 4-2 1-25 3-71 1-16 2-50 1-46 3-68 3-75 1-16 3-77 1-19 2-3 2 3 2 15 4 21 5 32 6 36 3 19 5 30 4 27 6 36 1 17 8 49 8 52 2 10 2 17h2l-1 6h2l1 5h-2l2 5 4 25 4 26 6 36h6l-1 9-6 26-3 20v12l4 6 8 6 14 6 17 3h12l13-2 12-4 10-6 3-4 2-7 2-18 10 1 37 5 3 1 19 2 23 6 12 5 5 4v6l-8 6-11 4-29 7-49 7-59 6-55 4-99 5-61 2-48 1h-220l-82-2-74-3-72-4-36-3-43-4-41-5-12-2-23-4-16-4-13-4-4-2v-2l-4-1-2-2v-6h2l1-2 2-2 21-7 10-2 14-3 24-4 10-1 3-1v6h142v-17l1-31 1-11-61 1-26 8-17 7-9 5h-4l-3-6-15-14-14-12-8-6-6-5-2-1v-2l-5-2v-2l-8-4v-2l-4-2-10-7-5-3v-2l-4-1v-4l4 1 11 8 18 13 11 9 13 11 6 4 5 5 5 4v2l4 2 3 3-4-19-7-30-5-25-11-11-6-7-5-5-11-10-7-8-11-12-7-6-4-4v-2h-2l-9-11-6-5v-2h-2l-5-5-9-10-3-3v-3l5 1 7 8 17 17 7 8 16 16v2l4 2 1 3 3 1 7 8 30 30-3-12-13-65-5-23-6-28-9-37-9-34-12-39-3-9v-3h4l6 18 4 13 7 24 11 42 11 49 5 25 8 38 8 40 2-2 12-38 10-42 4-19 3-19 3-3 1 1v8l-7 37-11 43-13 41-1 1 1 11 9 43 6 24h2l2-4h2l2-4 7-9 5-7 5-22 5-15 7-19 7-13 4-8-8 7-10 10-1-4 6-30 1-2h94l1-34 2-35 3-73 3-66 1-32 2-38 1-31 2-36 2-55 1-16 1-32z" fill="#DBDAF8"/>
<path transform="translate(925,970)" d="m0 0 3 1 5 5 9 8 18 12 17 9 17 7 22 6 24 4 17 1h15l15-1 4 30 2 24 1 20v96l-3 224-1 68-1 14-10 1v13l-3 61-1 33 10 19 5 16 1 6v11l-3 10-6 12-9 12-9 10h-28v-2l-4-2-12-12-7-10-3-6v-14l6-30 4-17-1-9-6-25-4-18-4-16-6-25-1-4-1-10-1-3h-14l-1-1-6-78-2-20-6-80-4-52-2-27-4-52-2-27-6-78-3-40h-1l-2 30-6-3-15-10-13-9-14-9-13-9-11-7-13-9-24-16-7-5 3-1 5 1h30l18-4 15-6 13-7 11-8z" fill="#9B4BE4"/>
<path transform="translate(500,334)" d="m0 0h17l9 4 9 7 8 10 6 9 12 11 14 11 15 8 12 3h14l6 2 3 3v7l-7 11-11 13-14 14-8 6-19 13h-3l-4-9-6-3h-7l-5 2-4 5-2 5v16l2 9v22l-4 18-10 32-3 15v22l6 21 6 19 1 6v18l-4 10-4 6-8 8-15 8-28 10-16 8-9 6-16 9-12 5-8 2h-14l-11-4-6-4-7-9-9-11-5-11-7-16-7-10-10-11v-2h-2l-7-8-8-9-7-12-4-13-1-14 2-15 6-17 8-14 9-12 13-15 16-16 7-8 8-8 11-15 7-11 6-15 3-12 5-41 5-15 7-11 8-7 10-5 7-2 16-1 14 2 1-9 6-10 8-7z" fill="#1C192A"/>
<path transform="translate(1340,304)" d="m0 0h132l16 9 4 1h15l16-1 9 3 2 1v2l3 1 2 4v10l-2 10 1 8 6 7 8 7 3 7v9l-4 8-3 3h-2l2 7v9l-1 7h-2l-1 6-6 10-4 5-4 3-1 11v17l6 43 1 7v10l-13 19-10 11-1 2h-2v2l-11 9h-3v2h-32v-2h-3v-2l-4-2-7-7-7-11-5-11-1-6 2-4 1-9 1-2 1-16-6-4-5-2-4-4-3-2v-3l-4-2-4-4-8-16-4-16-1-8v-24l-12 12-5 7h-2l-2 5-3 6 13 7v2l5 1 6 4-2 5-5 13-9-1-20-5-2 13v27l2 14 25-6h4l4 12v1l20 1v13l-2 26h-79v-52l-9-1v2h2l5 6-1 6-7 1 5 5 2 3v4l-18-1-12-1-3 15-5 6-3 2 3 35 7-8h2l1-2v164h-3v2l-10 4h-15l-14-1-12-5-8-6-6-7-6-12-4-15-3-29v-32l3-30 6-31 7-24 6-16 2-3 8 1-1-5 5-19 2-9 2-6 2-10 3-8h2l2-6 3-2 2-4 10-3 16-1 4 2 16 4 4 2v2h2l1 6-3 3 3 3 6 3-1-1v-198z" fill="#DBDAF8"/>
<path transform="translate(1091,1427)" d="m0 0 13 2 24 4 21 3 19 2 17 1h71l38-3 34-5h6l1-2 1 2 3 187-26 6-27 9-15 7-11 6-5 1h-121l-42 1-2-1-4-17-12-24 2-54 3-53-2-1h12l1-64z" fill="#F5EEFB"/>
<path transform="translate(720,1017)" d="m0 0h24l16 3-1 9-5 20 10 3 6 3h2l6-10 6-11 1-2 5 1 11 8 10 9v2h2l7 8v15l-2 69-1 48v80l2 78v24l-3-3-3-5-3-3h-7l-5 6-4 10-4 14-5 17-6 30-2-2-3-28-4-28-6-29-6-23-7-18-5-13-8-16-7-11-7-10-3-4v-2l-4-2-5-5v-2l-6-2-7-3h-9l-6 4-2 5v21l3 27 5 26 4 19 16 56 14 41-1 3-3-3v-2l-4-2-4-4v-2h-2l-5-5-6-5-2-1v-2l-4-1-9-6-15-8-16-4-1-63-1-32-2-112-3-101v-31l9-10 5-5 9-8 8-5 4 1 10 17 2 6 16-7h3l-6-23-1-5 9-3z" fill="#F5EEFB"/>
<path transform="translate(505,1242)" d="m0 0 2 3 14 59 14 57 14 58-3 44-1 26-1 44v35l2 88 3 76h75l3 5 12 36 2 7 4 2 9 2 10 5 9 8 7 11 5 10 3 13v5l-3 2h-89l-4-2-2-13-3-19-3-15h-1l-6 35-2 12-2 2h-10l-2-4-2-28-1-24h-55l-16 1 11 5 2 1v2l4 2 8 9 1 5h2l6 14 2 8v7l-2 2h-92l-2-3-5-31-3-15-1 1-2 14-5 30-2 4-10 1-3-6-5-89-1-18h73l4-18 6-36 6-48 6-62 7-94 6-100 4-80 2-45z" fill="#F4ECFB"/>
<path transform="translate(1335,842)" d="m0 0h67v14l42-2 98-6v-6h59l5 47 6 57 6 58v9l-14 4-20 4-24 2h-9l-9-2-1-1v-28l-1-8-22 1-38 2-46 1-1 7 9 47 8 43 6 32-1 4-9-15-14-23-15-24-15-25-8-13-13 1h-26l-14-2-16-5-5-3-3-3 1-17 12-108 4-37z" fill="#9B4BE4"/>
<path transform="translate(690,1241)" d="m0 0h9l13 6 7 8 5 5 7 11 7 10 8 17 4 8 6 16 5 15 7 29 4 22 4 30 2 20 8-36 6-18 4-13 4-6 3-3h7l6 6 2 4 2-4 1 31 3 45 4 44 2 18-6 30v3l16-16h2l-1 5-5 8-5 11-6 16-6 18-4 19-15 20-2 1-2 4-3-1-6-24-10-48v-6l3-8 11-34 11-43 5-27 2-10v-8l-2 2-5 30-10 42-8 27-8 24-2-3-15-74-5-26-9-38-6-26-6-23-6-21-6-18-4-14-2-9h-4l14 44 9 33 6 24 9 39 6 30 6 28 10 50v2l-4-2-7-8-26-26-6-7-20-20-7-8-16-16-7-8-4-1 3 5 13 13 1 3h2v2l4 2v2l4 2 7 8v2h2v2l4 2 5 6 8 7 9 10 6 7 8 7 5 5 16 17 2 2 7 33 5 22 4 17-1 3-7-6-5-5-5-4-4-4-14-11-10-9-9-6-16-12-7-5-3-1 1 4 3 1v2l5 2 11 8 3 2v2l5 2 3 2v2l5 2v2l5 2 3 3 11 9 14 12 14 13 1 5 7-3 20-9 25-8 4-1h61l-1 42-1 17h-142v-7l4-10 2-4-13-11-2-1v-2l-4-2-11-9-13-10-4-5-8-7-13-11-10-11-7-8-10-11-6-9-8-16v-10l3-6 6-4 3-1h8l16 7 21 10 10 7 2 1-7-10v-2h-2l-4-7-4-4v-2h-2l-7-9-6-7v-2l-3-1-3-5-5-5-5-6v-2l-3-1-1-4h-2l-2-5h-2l-4-6-9-13-6-11v-2h-2v-102h1v63l13 2 16 8 15 9v2l5 2 8 7v2h2l6 7 5 5-3-11-12-36-12-42-4-16-5-22-4-26-2-18v-21l3-6z" fill="#B77DEE"/>
<path transform="translate(1021,342)" d="m0 0 5 1-2 2-7 4-6 7-3 9v3l6-9 8-6 10-4h13l11 4 6 4-3-4v-2l-14-7v-1h8l8 6 7 9 6 13 4 11 1 5v13l-4 16-5 9-8 7-8 3h-4v17l-5 37-1 32-2 12-5 12-7 8-6 4-7 2-5 1h2l3 24 1 9-8 7-12 9-3 2h-49l-10-8-4-5v-13l3-23 1-2-7-1-5-3-12-8v-3l-4-2-8-11-4-10-2-10v-24l2-18 4-15-1-9-11-6-8-9-6-12-2-12 2-11 5-10 9-8 12-5 10-2 10-1h33l31 1 20 5v-13l4-10 6-7z" fill="#FBC2CF"/>
<path transform="translate(503,1781)" d="m0 0h53l3 3 2 34 1 16 1 3h10l2-4 4-26 3-18 2-2 3 13 2 8 2 15 1 3v10l9 1h84l2-1-1-7-3-13-6-12-8-10-8-6-7-3v-1h20l54 4 47 5 25 4 28 5 18 5 12 4 10 5v2l5 2 2 4-1 7-7 6-8 4-14 5-25 6-17 3-27 4-32 4-47 4-51 3h-13l-17 1h-136l-48-2-59-4-40-4-36-5-22-4-28-7-16-6-9-7-2-3v-5l3-5 11-7 19-6 19-5 28-5 17-2 12-2 39-4 25-2 1 1 1 9 2 37 2 5 10-1 3-13 3-20 3-17 2 2 4 20 4 26 1 2h92l1-1v-7l-4-13-3-9h-2l-4-8-7-7-2-1v-2l-18-6v-1z" fill="#DCDBF9"/>
<path transform="translate(945,1040)" d="m0 0 2 4 3 40 9 117 4 49 4 58 5 64 3 41 2 19 5 66 14 1 2 3 1 12 1 3h-2v3h-2l-1 8-4 9-8 17-6 10-4 7-4 5-3 5-10 13-12 13-8 8-8 7-10 8-3 2h-3v2l-4 2v-12l1-11-61 1-26 8-17 7-9 5h-4l-3-6-15-14-14-12-8-6-6-5-2-1v-2l-5-2v-2l-8-4v-2l-4-2-10-7-5-3v-2l-4-1v-4l4 1 11 8 18 13 11 9 13 11 6 4 5 5 5 4v2l4 2 3 3-4-19-7-30-5-25-11-11-6-7-5-5-11-10-7-8-11-12-7-6-4-4v-2h-2l-9-11-6-5v-2h-2l-5-5-9-10-3-3v-3l5 1 7 8 17 17 7 8 16 16v2l4 2 1 3 3 1 7 8 30 30-3-12-13-65-5-23-6-28-9-37-9-34-12-39-3-9v-3h4l6 18 4 13 7 24 11 42 11 49 5 25 8 38 8 40 2-2 12-38 10-42 4-19 3-19 3-3 1 1v8l-7 37-11 43-13 41-1 1 1 11 9 43 6 24h2l2-4h2l2-4 7-9 5-7 5-22 5-15 7-19 7-13 4-8-8 7-10 10-1-4 6-30 1-2h94l1-34 2-35 3-73 3-66 1-32 2-38 1-31 2-36 2-55 1-16 1-32z" fill="#FDC5CF"/>
<path transform="translate(1447,304)" d="m0 0h25l16 9 4 1h15l16-1 9 3 2 1v2l3 1 2 4v10l-2 10 1 8 6 7 8 7 3 7v9l-4 8-3 3h-2l2 7v9l-1 7h-2l-1 6-6 10-4 5-4 3-1 11v17l6 43 1 7v10l-13 19-10 11-1 2h-2v2l-11 9h-3v2h-32v-2h-3v-2l-4-2-7-7-7-11-5-11-1-6 2-4 1-9 1-2 1-16-6-4-5-2-4-4-3-2v-3l-4-2-4-4-8-16-4-16-1-8v-23l1-17v-35l-9-3-9-4-6-4-5-5-4-5-1-3v-8l3-5 7-3 30-2 13-4 9-5 11-8z" fill="#FBC3CF"/>
<path transform="translate(832,342)" d="m0 0h189l-5 4-5 5-5 8-1 4v13l-2 1-19-5-31-1h-33l-16 2-14 5-9 7-5 8-2 6-1 9 2 11 6 12 7 8 12 7 1 9-4 15-2 18v24l3 13 5 10 7 9 2 1 1 3 11 7 7 4 5 1-3 25-1 1-1 11-15 1-2-1 2 4 1 10-1 1h-42l-46-1v-19h-9v2h2l4 5 1 6-5 3h-13l-9-1 1 4v9l-3 15-3 3-9-2-28-11-2-1 1-15 1-2 3-27 4-25 5-11 3-1 2-3 10-3h13l11 2 9 3 6 3 3 3-1 5-9 2-1 1 12 5 1-218z" fill="#DBDAF8"/>
<path transform="translate(1460,1150)" d="m0 0 3 3 2 15 4 21 5 32 6 36 3 19 5 30 4 27 6 36 1 17 8 49 8 52 2 10 2 17h2l-1 6h2l1 5h-2l2 5 4 25 4 26 6 36h6l-1 9-7 30h-15l-22-2-2-2-11-4-22-12-13-8-13-9v-2l3-1 1-25 3-71 1-16 2-50 1-46 3-68 3-75 1-16 3-77 1-19z" fill="#FDDA8C"/>
<path transform="translate(1599,1017)" d="m0 0h6l1 2 4 75 2 42 3 52 3 59 2 31 1 4 1 29 2 30 10-34 3-10 3-9 3-8h4l-3 11-11 35-8 29 1 35 1 5 1 28 1 9 2 39v13h2l2-4h2l2-4 5-6h2v-2h2v-2h2v-2l8-7 12-13 5-6h2l1-3 6-1v3l-8 7-12 13-23 23-7 8-2 3 1 17 1 14-1 7 1 4 2 24 4-1v-2l6-4h5l-1 3-14 10 1 21v13l6-4 10-9 5-5 4-5h2l2-4 7-7 11-14 7-11 2-7 8-3 20-6 20-4 26-3h36l25 3 25 5 7 2 1 5-4 7-3 7-6 11-8 13-11 16-8 10-1 2h-2l-2 4-7 7-7 8-10 9-13 10-8 6-7 4-5 4-19 9-8 4-7 3-9 3-17 5-8 1-11-1-16-3-24-3-10-2-3-32-2-15h12l-2-5v-12l-1-1-1-33v-9l-1-4-3-57v-11l-1-1-1-28-2-24v-23l-1-1-3-62v-12l-2-14-1-24-1-14v-12l-1-10-2-42-4-66-1-30-6-100v-3l-8 1-1-2z" fill="#FDDA8C"/>
<path transform="translate(1022,342)" d="m0 0h88l1 1v223l14-8-6-1-3-2v-5l4-4 14-5 6-1h20l9 4 5 5 2 3 1 7 1 1 2 11 2 20 2 9 3 26-10 5-21 8-8 2-2-1-4-14v-17l-6 1h-16l-4-2 1-7 5-5-1-1-10-1 1 17h-21l-4 1h-63v-6l3-9 2-3h-7l-5-2-3-21v-11h-2l1-4v3l13-4 9-8 4-8 3-10 1-8 1-32 5-37 1-17 10-3 6-4 5-6 5-12 2-10v-13l-3-12-10-20-7-8-5-3h-5l8 5 5 5 2 4-14-7-4-1h-13l-12 5-6 5-6 9-1-4 4-11 7-7 6-3z" fill="#DBDAF8"/>
<path transform="translate(834,321)" d="m0 0 311 1 1 6v210l10 1v1l-16 1-12 3-9 4-2 2v5l8 3-1 2-11 6h-2l-1-223h-282v218l-2 1-12-6 2-2 9-2-1-5-5-3-7-3-7-2-10-2 1-2v-176l1-36 1-1z" fill="#FCFCFC"/>
<path transform="translate(834,880)" d="m0 0h211l9 20 8 20 7 21 2 8-1 6-22 4-42 6-16 2-64 4-30-1-41-4-28-6-2-2v-13l4-36z" fill="#FDB929"/>
<path transform="translate(1335,842)" d="m0 0h67v14l42-2 97-6v4l-140 9v15l-2 32h22l21 1 85 2 15 1v3h-21l-122-3-1 31-1 10 29-2 115-10 1 4-136 12-10 1v26l14 1 21 1 9 46 16 85-1 4-9-15-14-23-15-24-15-25-8-13-13 1h-26l-14-2-16-5-5-3-3-3 1-17 12-108 4-37z" fill="#9B4BE4"/>
<path transform="translate(1021,342)" d="m0 0 5 1-2 2-7 4-6 7-3 9v3l6-9 8-6 10-4h13l11 4 6 4-3-4v-2l-14-7v-1h8l8 6 7 9 6 13 4 11 1 5v13l-4 16-5 9-8 7-8 3h-4v17l-5 37-1 32-2 12-5 12-7 8-6 4-7 2h-4l-4-21-2-12 1-10 1-7 5-2v-2l5-4 6-10 3-9v-12l-3-8-4-3-8-1-8 3-5 3-11-9-5-5v2l-6 1-21-5-3-3 1-5 3-2 9 1 12 4-7-15-3-11-1-6v-12l-16 4-15 6-16 9-13 12-5 5-1 3v7l14-4h7l3 5-2 4-18 5-5-1-2-4v-4l-11-6-8-9-6-12-2-12 2-11 5-10 9-8 12-5 10-2 10-1h33l31 1 20 5v-13l4-10 6-7z" fill="#1C192A"/>
<path transform="translate(1472,304)" d="m0 0h110l8 6v5l17 10-5 13-2 1-20-5-1 8v26l1 7 18-5h4l5 12v2l-13 8-4 2 2 6 9 11 9 7v2l4 1 4 2 4-5 1 3v82l-6 5h-2v2l-10 7-4 5-8 7-2 3h-2v3l19 9 4 2 1 2 6 3 4 3v19h-83v-47h4l1-5 4-1 24 6 2-3 2-18v-11l-2-18-1-3-8 1-20 5-5-12-2-4v-4l18-10 5-3-2-5-8-11-7-8 2-13v-9l-1-4v-3l5-4 3-7v-9l-4-8-12-11-2-5 1-11 1-4v-10l-2-4-2-1v-2l-11-3-16 1h-15l-10-4-10-6z" fill="#DBDAF8"/>
<path transform="translate(717,822)" d="m0 0 5 2 1 3v11l-3 7-1 4 10-3 1-1 10-1 6 2 1 4-3 6h-2l-2 5-6 7-1 8-2 9 5 1 6 2 2-5 1-3h2l1-4 4-1v2l4 1 10 9 6 9-1 3-11 6-1 2 2 5v4l17-4 2 5 1 6v11l-2 10-9-1-8-1-3 9 13 8-2 5-4 6h-2l-2 4h-2v2l-9 6-3-1-6-10v-2l-10 3 1 9 1 8-10 2h-12l-9-2-1-2 4-15-9-3-2-1-2 5-5 9-4-1-9-7-8-9-2-3 1-4 10-6h2l-3-8v-3l-12 3h-5l-2-7v-18l2-7 17 4 1-5 2-5-6-3v-2l-4-1-4-4v-2l-14-1-7-1-5-21-3-15-5-19 1-2 7 7 5 3v2l5 2 4 2-2-6v-10l1-1 7 1 6 4 4 3 5-13 4-4 4-1 5 3 3 5 1 10 3-1 7-9 3-1 3-3 8-5z" fill="#F5EEFB"/>
<path transform="translate(1720,582)" d="m0 0h4l6 18 6 27 3 19 2 26v30l-3 29-4 20-6 16-7 11-12 9-7 3-6 1h-15l-9-4v-2l-5-2-6-5-4-11v-169l4 5 11 20 2 3 4-21 1-8 10-5 14-4z" fill="#9B4BE4"/>
<path transform="translate(1251,552)" d="m0 0 7 1 9 4 16 6 11 5 1 3 3 32 7-8h2l1-2v164h-3v2l-10 4h-15l-14-1-12-5-8-6-6-7-6-12-4-15-3-29v-32l3-30 6-31 7-24 6-16z" fill="#9B4BE4"/>
<path transform="translate(1673,508)" d="m0 0h12l6 3 5 2 8 9 4 10 4 20 3 16 1 5 1-1h20l15 3 10 4 15 9 5 4v2h2v2l4 2 10 14 7 14 4 15v27l-2 10-5 13-7 12-7 9h-2v2h-2v2h-2v2l-14 10-11 5-9 3-10 2-2 2 2-16 2-22v-30l-2-26-4-25-6-24-4-13v-2l-45 15-5-5-4-12v-8l-27 1-4-2 3-5 5-5-7-1-1-5 7-8 1-1-17-1-2-1v-6l6-5 14-7-3-4v-5l5-4 14-4z" fill="#DBDAF8"/>
<path transform="translate(982,1497)" d="m0 0h82l13 1 2 1v13l-3 61-1 33 10 19 5 16 1 6v11l-3 10-6 12-9 12-9 10h-28v-2l-4-2-12-12-7-10-3-6v-14l6-30 4-17-1-9-6-25-4-18-4-16-6-25-1-4-1-10-1-3h-14z" fill="#FCC4CF"/>
<path transform="translate(945,1040)" d="m0 0 2 4 3 40 9 117 4 49 4 58 5 64 3 41 2 19 2 27v9l-4 1-2 3h-2v2h-2l-2 5-5 5-12 14-9 10-8 10-6 7-4 6h10l27-4h4v3l-12 3-24 3-10 1-5 5h-2l1-6h2l1-6 1-26h8l1-34 2-35 3-73 3-66 1-32 2-38 1-31 2-36 2-55 1-16 1-32z" fill="#DBD9F8"/>
<path transform="translate(652,1438)" d="m0 0h2l10 18 9 12v2h2l2 5h2l2 4 4 4v2l3 1 3 5 5 5 4 5 7 8 5 6v2h2l8 10v3h2l7 10v2l-5-2-9-6-23-11-12-5h-8l-8 4-3 6v10l4 9 7 12 11 13 8 8 8 10 12 11 8 7 7 6v2l4 2 10 8 12 10 2 1v2l4 2 12 10-5 11-3 5-2 1-22 3-23 4-6 2-10 2-10 3-3 2-7 1-15-2-15-4-8-2 1-18 4-67 2-64z" fill="#F2EBFB"/>
<path transform="translate(746,631)" d="m0 0 10 2 11 6 1 3 6 2 15 8 3 2 1 14 3 1 1 14-1 101-13 10-9 6-11 4-9 6-6 2h-13l-10-5-9-7-6-11-4-13v-26l3-16 5-21 11-33 5-13 14-34z" fill="#FDB928"/>
<path transform="translate(1197,640)" d="m0 0 3 1 11 27 11 30 6 18 3 14 3 12 2 15v18l-3 14-3 5-5 8-10 9-10 4h-10l-11-4-10-6-22-12v-2l-5-2-1-2v-116h2v-6l7-4 15-8 7-4 8-4 10-4z" fill="#FEB928"/>
<path transform="translate(1657,1232)" d="m0 0h11l5 3 4 8v16l-4 35-9 42-6 24-9 29-9 27-5 16 5-4 14-14 20-14 6-3 11-5 10-2h8l6 3 1 2v8l-3 9-4 9-9 18-3 3-1 3h-2l-2 5-4 6h-2l-2 5-7 8-8 11-5 5-12 14-9 11-3 5-2 1-2 4-3 1-2-23v-7l7-8 9-10 24-24 7-8 4-4h2v-3l-6 2-1 2h-2l-2 4-10 10-7 8-3 1-1 3h-2v2h-2v2h-2v2h-2l-2 4-5 6-4 4h-2l-2-29-1-23-1-9-1-28-1-5-1-35 9-32 7-23 7-20h-4l-4 16-3 8-6 19-6 21h-1l-1-23-1-10-1-29-1-7 6-11 12-17 8-8z" fill="#B77DEE"/>
<path transform="translate(1461,1160)" d="m0 0 2 3v5h2l4 21 5 32 6 36 3 19 5 30 4 27 6 36 1 17 8 49 8 52 2 10 2 13 1 5h-3l-4-4v-2l-4-2-8-13-3-4v-2h-2l-6-8v-2h-2v-2h-2l-4-5v-2l-3-1-4-5-8-7-7-7-4-2-7-7v-16l3-64 2-52 3-73 2-43 1-28z" fill="#DDDCF9"/>
<path transform="translate(1339,1617)" d="m0 0h97v13l-3 44-1 1h-195l1-6 4-8 8-9 10-7 12-7 19-8 22-7z" fill="#1C192A"/>
<path transform="translate(395,1726)" d="m0 0h58l5 3 12 36 6 17 19 7 6 4 5 5 8 11 5 13 2 7v6l-7 1h-82l-3-2-4-23-4-21-2-10-3 12-3 16-4 25-1 2h-9l-1-3-2-27-1-24-1-6-1-26-1-8v-13z" fill="#FEB928"/>
<path transform="translate(724,1068)" d="m0 0h12l11 2 16 8 5 4v2l4 2 7 10 5 11 2 9v16l-3 13-9 15h-2l-2 4-9 8-11 5-11 3h-19l-8-2v-2h-2l-21-32-9-15-5-9v-9l3-9 8-13 10-10 12-7z" fill="#DCDBF9"/>
<path transform="translate(593,446)" d="m0 0m-2 1 2 1-2 3-1 8-4 24-9 36-3 10-2 1 2 10h2l1-1h6l4 5 6 12 4-4h6l5 5 3 11 3 24 1 19-5 3-13 3h-7l-6-9v-2l-4-2-1-3-10-3-9-2-7-1-33-1-1-1v-15l4-18 10-32 3-15v-22l-2-9v-16l4-8 4-4 4-1h7l7 4 3 6v3l9-5 14-10z" fill="#FAC2CF"/>
<path transform="translate(560,1732)" d="m0 0h64l5 17 10 28 1 6 8 1 16 8 8 7 8 13 4 11 2 8-1 5h-89l-3-8-4-21-4-23-2-4-6 34-3 19-3 3h-6l-2-1-4-62-2-39z" fill="#FEB928"/>
<path transform="translate(1447,304)" d="m0 0h25l16 9 4 1h15l16-1 9 3 2 1v2l3 1 2 4v10l-2 10 1 8 6 7 8 7 3 7v9l-4 8-3 3-4-2-3-3-7-1-8 3-6 8-2 6h-2l-8-26-7-23-2-3-7-1-40 10-17 3-11 1h-12l-14-2-11-4-10-7-6-8-1-3v-8l3-5 7-3 30-2 13-4 9-5 11-8z" fill="#1C192A"/>
<path transform="translate(1544,1617)" d="m0 0h81l2 7 3 29v20l-2 13-3 6-8 6-12 5-8 2-9 1h-12l-17-3-16-7-9-8-2-4v-12l4-25 7-29z" fill="#1C192A"/>
<path transform="translate(1528,852)" d="m0 0h14v59h-57l-43-1-43-2v-12l2-35 13-2z" fill="#F4ECFB"/>
<path transform="translate(976,1467)" d="m0 0 3 1 1 4 2 26 14 1 2 3 1 12 1 3h-2v3h-2l-1 8-4 9-8 17-6 10-4 7-4 5-3 5-10 13-12 13-8 8-8 7-10 8-3 2h-3v2l-4 2v-28l1-2 11-3 1-2-11 1-1-2v-50l2-8 7-6 29-3 17-3v-3l-15 3-16 2h-11l4-7 9-10 8-10 9-10 10-12 3-4h2l2-5h2v-2h2l2-4z" fill="#FDDA8C"/>
<path transform="translate(998,1517)" d="m0 0h2l8 31 6 27 7 29-1 9-8 35-1 1-11 1-92 4v-18l4-2v-2l6-3 13-11 13-12 7-7 16-20 4-7 4-5 14-28 4-10 3-9h2z" fill="#F5EEFB"/>
<path transform="translate(1070,954)" d="m0 0 4 1 6 26 6 31 2 10-2 1-14 1h-15l-25-2-24-5-16-5-15-6-19-10-17-12-10-9-4-4v-1l63-4 38-5 31-5z" fill="#FCFCFC"/>
<path transform="translate(848,1613)" d="m0 0h61l-1 42-1 17h-142v-7l4-10 4-5h2l2-4 10-8 18-10 17-7z" fill="#1C192A"/>
<path transform="translate(1021,1607)" d="m0 0h54l9 16 5 14 2 10v11l-3 10-6 12-9 12-9 10h-28v-2l-4-2-12-12-7-10-3-6v-14l6-30 4-17z" fill="#1C192A"/>
<path transform="translate(1403,400)" d="m0 0h1v40l3 18 5 13 4 6v3l3 1 5 5 1 3 6 4 1 2 7 3 4 3-2 16 2 1-2 1-1 9-2 6 4 11 9 15 8 8 2 1v2h3v2h-46l1-26 1-13h-20l-3-8-1-6-24 6h-5l-2-6-1-8v-27l2-11 1-2 9 1 14 4 6 1 2-9 4-7v-2l-10-5v-2l-6-2-8-5 6-11h2l2-4 9-10 3-3h2z" fill="#F5EEFB"/>
<path transform="translate(784,537)" d="m0 0h13l11 2 9 3 6 3 3 3-1 5-9 2-1 1 17 8 4 5-1 4-7 3-1 2 5 1 4 4-1 7-7 2h-9v2h2l4 5 1 6-5 3h-13l-9-1 1 4v9l-3 15-3 3-9-2-28-11-2-1 1-15 1-2 3-27 4-25 5-11 3-1 2-3z" fill="#FBC3CF"/>
<path transform="translate(1140,540)" d="m0 0h20l9 4 5 5 2 3 1 7 1 1 2 11 2 20 2 9 3 26-10 5-21 8-8 2-2-1-4-14v-17l-6 1h-16l-4-2 1-7 5-5-1-1-12-2-4-2v-5l10-8-7-2-2-4 5-6 14-8-6-1-3-2v-5l4-4 14-5z" fill="#FBC3CF"/>
<path transform="translate(1464,1168)" d="m0 0 2 3 8 50 6 36 3 19 5 30 4 27 6 36 1 17 8 49 8 52 2 10 2 13 1 5h-3l-4-4v-2l-4-2-8-13-3-4v-2h-2l-6-8v-2h-2v-2h-2l-4-5v-2l-3-1-4-5-8-7-7-7-4-2-7-7v-16l1-26 12-6 10-4 11-5 12-6-2-18-7-47-10-60-6-40-6-35z" fill="#F6EFFC"/>
<path transform="translate(648,1609)" d="m0 0 8 1 11 5 9 3 48 20 9 4v2l-24 7-25 7-12 4-1 2 16-4 20-6 25-7 2-1h9l13 6 10 5 1 5-3 5-2 1-22 3-23 4-6 2-10 2-10 3-3 2-7 1-15-2-15-4-8-2 1-18 3-48z" fill="#FDDA8C"/>
<path transform="translate(1532,945)" d="m0 0h11v76l-2-1v-28l-1-8-22 1-38 2-46 1-1 5-2-3v-4h-21l-14-2v-26l10-2z" fill="#F3ECFB"/>
<path transform="translate(1306,480)" d="m0 0 5 2 16 4 4 2v2h2l1 6-3 3 3 3 9 5 6 5v7l-1 1h-18v2h2l5 6-1 6-7 1 5 5 2 3v4l-18-1-12-1-3 15-5 6-3 2-5-1-31-12-1-7 5-19 2-9 2-6 2-10 3-8h2l2-6 3-2 2-4 10-3z" fill="#FBC2CF"/>
<path transform="translate(1673,508)" d="m0 0h12l6 3 5 2 8 9 4 10 4 20 3 16 2 13v3l-23 8-15 5-5-5-4-12v-8l-27 1-4-2 3-5 5-5-7-1-1-5 7-8 1-1-17-1-2-1v-6l6-5 14-7-3-4v-5l5-4 14-4z" fill="#FBC3CF"/>
<path transform="translate(717,822)" d="m0 0 5 2 1 3v11l-3 7-1 4 10-3 1-1 10-1 6 2 1 4-3 6h-2l-2 4-8 7-13 9-14 8-21 6-12 2h-29l-5-21-3-15-5-19 1-2 7 7 5 3v2l5 2 4 2-2-6v-10l1-1 7 1 6 4 4 3 5-13 4-4 4-1 5 3 3 5 1 10 3-1 7-9 3-1 3-3 8-5z" fill="#FBC3CF"/>
<path transform="translate(1399,912)" d="m0 0h38l84 2 21 2v25l-2 1-125 11h-18l1-32z" fill="#F3EAFB"/>
<path transform="translate(1684,406)" d="m0 0h4l9 15v3l7-4h3l3 4v2h2l10 13 8 11 4 6v2h2l2 3v3h2l4 6v2l-37 1-19 3-8 2 2 11 4 16v2l-22 3-5-1-2-1v-74h9l11-2-1-9-2-7v-6z" fill="#DCDBF9"/>
<path transform="translate(1545,416)" d="m0 0h1v6l7 8 8 11 2 5-13 8-9 5h-2l4 10 3 9 24-6 5 1 2 10 1 11v11l-2 18-3 4-24-6-3 1-2 1v3h-4v47h-44v-2l7-4 5-5h2v-2h2l2-4 9-10 12-18v-10l-6-42-1-8v-17l1-11 6-5 8-13z" fill="#F5EEFB"/>
<path transform="translate(450,366)" d="m0 0h8l-2 2-9 4-6 4-4 4h-2l-2 4-8 13-6 17-5 24-5 26-6 19-8 19-9 16-8 12-11 13-13 13-4 5h-2l-2 4-9 10-8 13-5 12-2 10v9l2 9 5 10 6 7 2 1v2h2v2l4 2 6 5v2l4 2 7 10 4 8 6 23-1 4-8-18-7-14-4-5v-2h-2l-7-8-3-3v-2l-3-1-7-8-9-12-5-11-2-8v-18l4-16 5-12 9-15 9-11 14-15 18-18 7-8 11-14 9-14 6-14 3-13 5-40 5-16 6-10 9-8 9-4z" fill="#ECE0F9"/>
<path transform="translate(770,1192)" d="m0 0 3 1 6 10 6 11 3 1 9-6 5-4h2v-2l7-6 5-5 1 100-1-2h-2v-2l-5-2-7-6v-2l-4-2-34-34v-2l-4-2-6-7v-2l6-1-6-24v-5l12-5z" fill="#DBDAF8"/>
<path transform="translate(1582,304)" d="m0 0h41v117l-2-1-3 4-8-4v-2l-4-2-7-6-9-12-1-4 16-10h2l-4-9-1-5-18 5h-4l-2-7v-26l2-8 12 2 9 2 5-13-16-9-1-4-2-4z" fill="#F6EFFC"/>
<path transform="translate(1396,985)" d="m0 0h14l21 1 9 46 16 85-1 4-9-15-14-23-15-24-15-25-7-12v-26z" fill="#1C192B"/>
<path transform="translate(970,1414)" d="m0 0h3l2 10 2 26v11l-7 9h-2l-2 4-14 16-12 14-6 8h-2l-2 5h-2l-2 4-5 5h-1v-21l4-1 1-34 2-33 11-7 19-10z" fill="#FDDA8D"/>
<path transform="translate(1007,526)" d="m0 0h1l4 24v10h2l3 24 1 9-8 7-12 9-3 2h-49l-10-8-4-5v-13l7-2 17-3 12-4 11-7 3-1v-2l7-6 7-10 5-10 4-11z" fill="#FBC3CF"/>
<path transform="translate(712,896)" d="m0 0h11l6 2 7 3v2l4 2 7 10 2 5v17l-5 10-4 5h-2v2l-10 6-5 1h-13l-10-4-4-2-8-10-3-7-1-12 3-12 7-9 10-7z" fill="#DCDBF9"/>
<path transform="translate(1675,1508)" d="m0 0h10l8 5 3 8-1 9-2 3-2 6-9 14-18 21h-2l-2 4-5 6-11 9-5 4h-2l-2-34 12-9 3-1v-2l-5 1-5 2v2l-5 2-2-29 9-6 16-8 14-6z" fill="#B77DEE"/>
<path transform="translate(651,1536)" d="m0 0 5 1 6 3 4 9 5 9 9 11 7 8 5 5 3 6 11 13 12 16 10 13 5 6v1l-7-1-14-6-35-14-23-9-5-2-1-1 1-37 1-23z" fill="#FDDA8C"/>
<path transform="translate(827,996)" d="m0 0 16 2 76 19 25 6 1 1-1 32-1 18-6-3-15-10-13-9-14-9-13-9-11-7-13-9-24-16-7-5z" fill="#1C192A"/>
<path transform="translate(1540,526)" d="m0 0h10l17 3 16 4 13 5 16 8 1 2 6 3 4 3v19h-83z" fill="#9B4CE4"/>
<path transform="translate(711,1289)" d="m0 0h4l6 18 4 13 7 24 11 42 11 49 5 25 8 38 8 40 2-2 12-38 10-42 4-19 3-19 3-3 1 1v8l-7 37-11 43-13 41-1 1 1 11 9 43 6 24h2l2-4h2l2-4 7-9 5-6 1 2-3 12-1 9 1 2-16 8h-4l-3-6-15-14-14-12-8-6-6-5-2-1v-2l-5-2v-2l-8-4v-2l-4-2-10-7-5-3v-2l-4-1v-4l4 1 11 8 18 13 11 9 13 11 6 4 5 5 5 4v2l4 2 3 3-4-19-7-30-5-25-11-11-6-7-5-5-11-10-7-8-11-12-7-6-4-4v-2h-2l-9-11-6-5v-2h-2l-5-5-9-10-3-3v-3l5 1 7 8 17 17 7 8 16 16v2l4 2 1 3 3 1 7 8 30 30-3-12-13-65-5-23-6-28-9-37-9-34-12-39-3-9z" fill="#EFE9FA"/>
<path transform="translate(930,1368)" d="m0 0h2v2l6 2 28 14 5 2 2 2 4 42 2 27v9l-4 1-2 3h-2v2h-2l-2 5-5 5-12 14-9 10-8 10-6 7-4 6h10l27-4h4v3l-12 3-24 3-10 1-5 5h-2l1-6h2l1-6 1-26h5v21l5-5 2-3h2l2-5 5-5 11-13 7-8 8-10 5-6h2l2-4 4-5v-11l-3-36-20 9-19 10-7 4 2-53z" fill="#F5EDFA"/>
<path transform="translate(1396,534)" d="m0 0h24v13l-2 26h-79v-12l11-10 13-9 14-5z" fill="#9B4BE4"/>
<path transform="translate(825,958)" d="m0 0 15 4 15 3 41 4 28 1-4 5-11 7-15 8-15 5-14 3h-30l-11-3-1-2 1-22z" fill="#FCFBFC"/>
<path transform="translate(948,664)" d="m0 0h161v15h-161z" fill="#C3C3EF"/>
<path transform="translate(948,637)" d="m0 0h161v15h-161z" fill="#C5C5F0"/>
<path transform="translate(1459,599)" d="m0 0h160l1 1v14h-161z" fill="#C3C3EF"/>
<path transform="translate(1398,774)" d="m0 0 4 1 5 5-1 4-6 7-1 32-1 1h-46v-48h42z" fill="#C7C7F1"/>
<path transform="translate(1352,719)" d="m0 0h44l6 2 5 5-1 4-6 6-1 30-1 1h-46z" fill="#C6C6F0"/>
<path transform="translate(887,697)" d="m0 0 5 2 4 5-2 4-6 7v30l-2 1h-44l-1-3v-45h44z" fill="#C8C8F1"/>
<path transform="translate(1398,659)" d="m0 0 5 2 4 4-1 4-4 5h-2l-1 33h-47v-47h44z" fill="#C5C5F0"/>
<path transform="translate(538,1526)" d="m0 0h5l1 42v42h-2l-11-14-7-9-7-11-15-25-6-15 1-2 16-4z" fill="#FCD98C"/>
<path transform="translate(841,758)" d="m0 0h43v3l2-3 5 1 5 5-1 4-6 6-1 31h-47z" fill="#C6C6F0"/>
<path transform="translate(1461,626)" d="m0 0h158l1 1v13h-161v-13z" fill="#C2C2EF"/>
<path transform="translate(844,1527)" d="m0 0 2 1-1 5-1 3h2l1 16 1 7 1 19 3 21v11l-4 4-26 8-8 3-4-1 2-15 2-9 3-13h2l2-10 3-9 4-11 5-12 7-14z" fill="#FDDA8D"/>
<path transform="translate(1599,1017)" d="m0 0h6l1 2 4 75 2 42 3 52 3 59 2 31 1 4 1 29 2 30 10-34 3-10 3-9 3-8h4l-3 11-11 35-8 29 1 35 1 5 1 28 1 9 2 39v13h2l2-4h2l2-4 5-6h2v-2h2v-2h2v-2l8-7 12-13 5-6h2l1-3 6-1v3l-8 7-12 13-23 23-7 8-2 3 1 17 1 14-1 7 1 4 2 24 4-1v-2l6-4h5l-1 3-14 10 1 21v13l6-4 10-9 5-5 4-5h3l-2 5-7 10h-2l-2 5-10 12-5 5v-5l7-9 2-4-7 7-5-1-1-33v-9l-1-4-3-57v-11l-1-1-1-28-2-24v-23l-1-1-3-62v-12l-2-14-1-24-1-14v-12l-1-10-2-42-4-66-1-30-6-100v-3l-8 1-1-2z" fill="#FDCCB7"/>
<path transform="translate(1566,1036)" d="m0 0 4 1 3 19 5 48 6 50 6 57 9 85 5 56 3 40 3 56 1 8 2 40 5 80v17l-3-1-2-24-6-131-3-37-3-32-4-40-2-24-3-28-7-68-7-64-12-104z" fill="#F59403"/>
<path transform="translate(1408,729)" d="m0 0h212v7l-1 1h-211l-1-1v-6z" fill="#C8C8F1"/>
<path transform="translate(896,826)" d="m0 0h213v8h-213z" fill="#C8C8F1"/>
<path transform="translate(1408,667)" d="m0 0h209l3 3v5h-213v-6z" fill="#C8C8F1"/>
<path transform="translate(1070,1035)" d="m0 0h2l1 4 2 46 2 66 1 49v128l-2 80-2 56-2 28h-3l1-36 3-91 1-85v-48l-1-72-2-71-2-53z" fill="#1C192A"/>
<path transform="translate(1402,842)" d="m0 0h140v6l-2 1-112 7h-26z" fill="#F1E7FA"/>
<path transform="translate(896,768)" d="m0 0h213v7h-213z" fill="#C2C2EF"/>
<path transform="translate(896,706)" d="m0 0h211l2 1v6h-213z" fill="#C2C2EF"/>
<path transform="translate(896,718)" d="m0 0h167v8h-166l-1-1z" fill="#C8C8F1"/>
<path transform="translate(897,780)" d="m0 0h166v8h-166l-1-1v-6z" fill="#C8C8F1"/>
<path transform="translate(1364,595)" d="m0 0h14l10 5 3 3-2 4-5 5h-4v-2l-5-2h-11l-2 4h-2l-1 12 3 5 5 3h8l6-4 4 1 6 6-2 4-8 5-3 1h-16l-10-5-5-6-3-8v-13l4-8 9-8z" fill="#FEBB30"/>
<path transform="translate(880,634)" d="m0 0h15l5 11 6 14v3l3-3 9-23 2-2h14l-3 10-10 22-5 13-2 3h-15l-11-26-8-18z" fill="#FEBB2F"/>
<path transform="translate(853,633)" d="m0 0h13l8 3 5 4-1 5-5 5-5-1-4-3h-8l-7 5-1 3v7l2 5 6 4h8l6-4 5 2 5 6-5 5-5 3-4 1h-13l-9-3-8-7-3-8v-13l3-8 6-7 6-3z" fill="#FEB929"/>
<path transform="translate(1440,595)" d="m0 0 5 2-2 6-8 18-5 13-5 10h-14l-4-7-5-13-6-12-5-14v-2h15l5 11 6 15v2l2-1 11-26 1-1z" fill="#FEC03C"/>
<path transform="translate(1408,789)" d="m0 0h211l1 5-3 1h-209z" fill="#C2C2EF"/>
<path transform="translate(896,839)" d="m0 0h166l1 5-1 2h-166z" fill="#C2C2EF"/>
<path transform="translate(1408,801)" d="m0 0h166v6l-2 1h-164z" fill="#C2C2EF"/>
<path transform="translate(1415,480)" d="m0 0 4 1 5 5 1 3 6 4 1 2 7 3 4 3-2 16 2 1-2 1-1 9-2 4h-2v2h-12l-2-4h-2l-5-10-3-14v-14l2-9z" fill="#DCDAF8"/>
<path transform="translate(650,1015)" d="m0 0h5l1 2-6 3-22 6-20 4-36 5-25 2-27 1h-40l-39-1-67-4-7-1v-4l22 1 32 2 51 2h48l29-1 32-3 27-4 19-4z" fill="#B77DEF"/>
<path transform="translate(648,983)" d="m0 0h5v4l-34 7-24 4-40 5-35 3-24 1h-56l-45-3-24-3-1-4 14 1 40 3 16 1h58l38-2 45-5 39-6 12-3z" fill="#B77DEF"/>
<path transform="translate(1e3 531)" d="m0 0 1 3-5 13-7 10-8 9h-2v2l-14 9-16 5-13 2h-6l1-15 1-7 3-1 6 1h15l15-4 14-8 8-8z" fill="#1C192A"/>
<path transform="translate(1747,1546)" d="m0 0h2l-1 6-6 8-8 13h-2l-1 4-4 7h-2l-1 4 6-1 11-4 36-13 33-11h4l-1 4-25 8-26 9-10 4-13 4-15 6 3 3 24 10 10 4v3l-6-1-21-8-7-4-11-4-17 6-50 20-12 5-8 4h-2l1-5 10-4 16-7 32-12 12-5 17-7h2l2-5 8-11 4-7 14-21z" fill="#FCFCFC"/>
<path transform="translate(1330,1017)" d="m0 0 8 1 3 2h-8l-1 2 1 114 1 32 1 97 2 120 1 71 1 96 1 33v31h5v1h-7l-5-305-3-224-1-69z" fill="#FDDA8E"/>
<path transform="translate(1408,681)" d="m0 0h166v5l-2 1h-164z" fill="#C2C2EF"/>
<path transform="translate(774,1546)" d="m0 0h3l7 35 7 32 3 11h2l2-4h2l2-4 7-9 5-6 1 2-3 12-1 9 1 2-16 8h-4l-3-6-15-14-14-12-8-6-6-5-2-1v-2l-5-2v-2l-8-4v-2l-4-2-10-7-5-3v-2l-4-1v-4l4 1 11 8 18 13 11 9 13 11 6 4 5 5 5 4v2l4 2 3 3-4-19-7-30-4-20v-5z" fill="#EFE9FA"/>
<path transform="translate(1408,743)" d="m0 0h165l1 4-1 2h-165z" fill="#C2C2EF"/>
<path transform="translate(1446,1531)" d="m0 0 4 2 11 14 11 13 4 6 10 13v2h2l12 16 3 3-8-58v-7l3 1 4 24 7 49 1 4h2l9 13 11 16 1 3h-3l-3-3-8-11-10-14-5-6-54-13-8-3 1-3 11 2 18 5 21 5 7 1-2-4-3-3-5-6-3-5-3-4v-2h-2l-8-11-9-11-6-8-13-16z" fill="#FCFCFC"/>
<path transform="translate(1436,1618)" d="m0 0 7 4 10 7 19 11 16 8 9 4 1 2-58-3-5-1v-20z" fill="#F4EDFB"/>
<path transform="translate(1622,503)" d="m0 0h1v43l-2 3 1 3h2v19h-1l-1-17-6-4-4-2v-2l-4-1-19-9-1-2 1-2h2l2-4 10-9 5-5 5-4h2v-2z" fill="#F5EEFB"/>
<path transform="translate(1515,484)" d="m0 0 1 3-6 10-7 9-8 6-10 5-11 3h-22l-11-3 1-12 1-4 16 4h16l16-4 12-6z" fill="#1C192A"/>
<path transform="translate(696,1589)" d="m0 0 7 6 9 8 1 4h2l8 11 5 6v2h2l12 16 21 9 7 2-2 6-16-8-9-4h-9l-22 7-22 6-13 4h-6l1-3 16-5 24-7 18-5h3v-2l-9-3-19-8-32-13-7-3-13-5h-6l1-6 24 9 25 10 19 8 10 4 6 1-9-11-7-9-9-12-11-13z" fill="#FCFBFC"/>
<path transform="translate(390,1726)" d="m0 0h5l-2 2v13l1 8 1 26 1 6 1 24 2 30h9l5-34 5-23 2 2 4 19 2 12 4 23 2 1h89l-4-16-5-11-8-11-4-4-12-6-12-4-4-9-9-27-5-14 1-4 7 19 7 21 4 10v2l12 3 9 4 2 1v2l4 2 8 9 1 5h2l6 14 2 8v7l-2 2h-92l-2-3-5-31-3-15-1 1-2 14-5 30-2 4-10 1-3-6-5-89z" fill="#FDD698"/>
<path transform="translate(745,629)" d="m0 0 5 1 1 2h-5l-4 8-16 40-11 33-6 24-2 13v26l5 16 4 6v2l4 2 8 6 7 3h13l8-3 9-6 10-4 11-7 8-7h2v-107l-1-8-3-1v-14l-5-2-19-10 3-1 23 12v11h3l1 3v116l-3 5-11 8-14 8-7 3-8 5-7 2h-13l-10-4-9-7-7-11-3-6-2-9v-25l3-20 7-25 5-16 7-19 5-13 11-26z" fill="#FDD892"/>
<path transform="translate(1357,724)" d="m0 0 36 1-6 7-9 9-4-2-4-3-5 2-3 3 1 4 11 11 3 2 9-9 5-4 3-3-1 20h-36l-1-2v-35z" fill="#FCFCFC"/>
<path transform="translate(1357,665)" d="m0 0h34v2l-13 13-4-1-4-4-4 1-4 4 1 4 11 11 4 1 8-8h2l2-4 4-2v19l-1 1h-36z" fill="#FBFAFC"/>
<path transform="translate(555,1732)" d="m0 0h5l-2 2 2 39 3 48v14h10l4-27 5-28 2-2 3 11 6 36 3 10h89l-1-7-4-14-7-12-5-5-7-6-13-6-8-2-9-26-7-20 1-4 3 7 13 40 4 2 9 2 10 5 9 8 7 11 5 10 3 13v5l-3 2h-89l-4-2-2-13-3-19-3-15h-1l-6 35-2 12-2 2h-10l-2-4-2-28-1-22-1-3 1-1-2-36z" fill="#FDD2A5"/>
<path transform="translate(846,704)" d="m0 0h34l-5 6h-2l-2 4-4 2v2l-4-1-4-4-4 1-4 4 1 4 12 12 4-1 13-13h1v20h-36z" fill="#FDFDFD"/>
<path transform="translate(846,762)" d="m0 0 36 1-6 7-8 7-1 2-4-1-4-4-4 1-4 4 1 4 9 10 3 2 4-1 13-13h2l-1 18h-36l-1-36z" fill="#FCFCFC"/>
<path transform="translate(1356,782)" d="m0 0h34l-6 7-7 6-8-6-3 1-4 5 2 5 10 10 5 2 2-4 11-11 2 1-1 20h-37z" fill="#FCFCFC"/>
<path transform="translate(1030,594)" d="m0 0 10 1 25 6 15 4 8 3-1 4h-63v-6l3-9z" fill="#FEB928"/>
<path transform="translate(1648,572)" d="m0 0h22l2 12 2 5v3l3 1 2 3v9l-4 23-4-5-7-12-6-11-1-2-1-24-8-1z" fill="#F5EEFB"/>
<path transform="translate(842,815)" d="m0 0h41l-4 5h-32l-1 36h36v-20l5-6h1v31h-47v-44z" fill="#C4C4EF"/>
<path transform="translate(1398,774)" d="m0 0 4 1 5 5-1 4-11 12-3 1-1 3-8 7-4 5-5-1-12-12-1-4 5-6 3-1 8 6 6-5 8-8 3-5z" fill="#FDDA8C"/>
<path transform="translate(887,812)" d="m0 0 4 1 5 6-2 4-4 5h-2l-2 4-4 4-7 6-8 8-4-1-13-13 1-4 5-5 4 1 4 4h4v-2h2v-2l10-10z" fill="#FDDA8D"/>
<path transform="translate(886,758)" d="m0 0 5 1 5 5-1 4-12 13-8 7-8 8-4-1-8-7-5-6 1-4 5-5 4 1 4 4 3 1 2-4 10-9z" fill="#FDDA8C"/>
<path transform="translate(1396,720)" d="m0 0h5l6 6-1 4-6 6-2 4-5 3-5 6-8 7-4 3v-2l-4-2-11-11 1-4 6-5 5 2 3 3 4-2 15-15z" fill="#FDDA8D"/>
<path transform="translate(1398,659)" d="m0 0 5 2 4 4-1 4-4 5h-2l-2 4-9 8-11 11-5-2-12-12 1-4 5-5 5 1 3 4 4-1 7-7 3-4h2l1-3z" fill="#FEB929"/>
<path transform="translate(887,697)" d="m0 0 5 2 4 5-2 4-11 12-8 7-8 8-4-1-13-13 1-4 5-5 4 1 4 4 3 1v-2l5-4 5-5 8-9z" fill="#FDDA8C"/>
<path transform="translate(524,559)" d="m0 0 1 2 4 2 11 7 2 6 4 16 3 2h-29l-1-1v-15l4-18z" fill="#F4ECFB"/>
<path transform="translate(1197,638)" d="m0 0 4 2 12 27 6 16 11 33 1 1 2 15 2 5 3 23v15l-2 12-6 12-9 10-8 5-9 3-13-1-12-6-17-9-11-7-5-2-1-2v-116h1l1 113 3 3 2 1v2l4 1 12 7 12 6 6 4 9 3h10l11-5 10-9 3-6 3-5 3-14v-18l-2-16-4-14-3-13-12-36-15-37-12 4 3-3z" fill="#FDD98F"/>
<path transform="translate(1492,252)" d="m0 0 4 1 32 16v2l5 1 16 10v1h-53v-3l13-7-2-5-11-12z" fill="#DCDBF9"/>
<path transform="translate(755,609)" d="m0 0h1v12l-1 3 9 3 30 11 1-3h2v27l-3 1v-10l-5-2-21-10-10-6-10-5h-4v-2h2l1-4 1-2 6 1z" fill="#FCFBFC"/>
<path transform="translate(977,1460)" d="m0 0h1l1 8-4 1-2 3h-2v2h-2l-2 5-5 5-12 14-9 10-8 10-6 7-4 6h10l27-4h4v3l-12 3-24 3-10 1-5 5h-2l1-6h2l1-6 1-26h5v21l5-5 2-3h2l2-5 5-5 11-13 7-8 8-10 5-6h2l2-4z" fill="#FCFCFC"/>
<path transform="translate(1394,304)" d="m0 0h53l-4 3-17 12-8 3h-4l-1-6-17 4-2-8z" fill="#F5EEFB"/>
<path transform="translate(922,373)" d="m0 0h21l-2 2-21 7-19 8-19 10-5 6h-1l1-9 4-8 7-7 10-5 14-3z" fill="#D2C5F5"/>
<path transform="translate(594,621)" d="m0 0 4 2 15 25 22 38 10 18 7 12 8 16 12 22 2 6-2 2-6-9-14-27-12-22-11-20-2-3v-3h-2l-5-10-12-20-8-13-7-11z" fill="#1C192A"/>
<path transform="translate(712,1603)" d="m0 0 14 12 5 2 11 9 12 10 2 1v2l4 2 12 10-2 3-7-2-21-9-9-11-3-4v-2h-2l-13-17v-2h-2z" fill="#FEDB8C"/>
<path transform="translate(808,1415)" d="m0 0 2 1v8l-7 37-11 43-13 41-5 2-4-2v-2h2l1-2 3 1 1-6 12-38 10-42 4-19 3-19z" fill="#EFE9FA"/>
<path transform="translate(521,726)" d="m0 0 4 2 11 11v2l3 1v2h2l7 8 12 12 6 7 59 59v2l-5-1-5-6-7-6-41-41v-2l-4-2-1-3h-2l-7-8-12-12-7-8-7-7v-2h-2v-2h-2l-3-5z" fill="#1C192A"/>
<path transform="translate(1306,551)" d="m0 0 2 1v41l-1 2h-2l-2 4-6 5-3-36 5-4 3-4 1-5 2-1z" fill="#DBDAF8"/>
<path transform="translate(1599,1017)" d="m0 0h6l1 2 4 75 2 42 3 52 3 59 1 12v14l-2-3-1-10-2-42-4-66-1-30-6-100v-3l-8 1-1-2z" fill="#FDDA8D"/>
<path transform="translate(1540,941)" d="m0 0 2 1v3l-136 12h-9v-3l18-2z" fill="#1C192A"/>
<path transform="translate(507,539)" d="m0 0 4 1-1 4-5 8-3 9-1 6v15l3 17 8 31-1 5-4-1-10-40-2-14v-11l3-15 6-11z" fill="#EADDF8"/>
<path transform="translate(912,597)" d="m0 0h2l2 4 1 10-1 1h-42l-4-2 4-3 22-7z" fill="#FEB928"/>
<path transform="translate(1408,788)" d="m0 0h213l1 4-2 4h-213l-1-7zm0 1v6h211l1-3-1-3z" fill="#E9E5FA"/>
<path transform="translate(1399,909)" d="m0 0h43l85 2 15 1v3h-21l-122-3z" fill="#1C192A"/>
<path transform="translate(1540,848)" d="m0 0 2 1-1 3-110 7-17 1h-12v-3l26-2z" fill="#1C192A"/>
<path transform="translate(549,501)" d="m0 0h6l7 8 8 18 4 13v5h-3l-7-21-8-16-5-4 1 20 3 16 2 8-6 5-7 14-3-1 1-6 6-10 4-5-4-17-1-7v-17z" fill="#1C192A"/>
<path transform="translate(790,680)" d="m0 0 3 1 1 4v19l-3 29-5 24-6 20-4 8h-3l2-9 7-23 4-20 2-16z" fill="#281D3B"/>
<path transform="translate(988,935)" d="m0 0h7l3 3-1 6-11 4-22 5-4-1-2-5 2-5z" fill="#F59403"/>
<path transform="translate(390,1726)" d="m0 0h5l-2 2v13l1 8 1 26 1 6 1 24 2 30h9l5-34 5-23 2 2 4 19 4 24v5h-2l-4-24-3-15-1 1-2 14-5 30-2 4-10 1-3-6-5-89z" fill="#FDD991"/>
<path transform="translate(768,641)" d="m0 0 5 1 21 11v11h3l1 3v116l-3 5-11 8-14 8-7 3-8 5-9 1 2-2 8-3 9-6 10-4 11-7 8-7h2v-107l-1-8-3-1v-14l-5-2-19-10z" fill="#FDDA8D"/>
<path transform="translate(1464,1168)" d="m0 0 2 3 8 50 6 36 3 19 5 30 4 27 6 36v10l-2-3-8-50-4-24-2-14-6-36-6-40-6-35z" fill="#FDD990"/>
<path transform="translate(555,1732)" d="m0 0h5l-2 2 2 39 3 48v14h10l4-27 5-28 2-2 3 11 6 36 3 10 4 3-6-1-2-1-2-13-3-19-3-15h-1l-6 35-2 12-2 2h-10l-2-4-2-28-1-22-1-3 1-1-2-36z" fill="#FDD991"/>
<path transform="translate(1452,271)" d="m0 0 12 1 10 5 5 5v1h-48l2-4 7-5z" fill="#DCDBF9"/>
<path transform="translate(830,1504)" d="m0 0h13l1 17-8 7-12 12-1-4 6-30z" fill="#F3ECFB"/>
<path transform="translate(1632,1539)" d="m0 0h1v7h2l1 11 4-1v-2l6-4h5l-1 3-14 10 1 21v13l6-4 10-9 5-5 4-5h3l-2 5-7 10h-2l-2 5-10 12-5 5v-5l7-9 2-4-7 7-5-1-1-33v-9l-1-4z" fill="#FDCFAD"/>
<path transform="translate(1472,304)" d="m0 0h47l-1 8-2 2-9 1h-15l-10-4-10-6z" fill="#F1E7FA"/>
<path transform="translate(1022,342)" d="m0 0h31v1l-5 1 8 5 5 5 2 4-14-7-4-1h-13l-12 5-6 5-6 9-1-4 4-11 7-7 6-3z" fill="#CDBBF4"/>
<path transform="translate(504,337)" d="m0 0h10l9 3 8 6 7 8-2 1-14-7-9-2h-11l-11 4-5 2v2l-6 5 2-6 6-8 9-6z" fill="#E9DCF9"/>
<path transform="translate(1672,591)" d="m0 0 5 2 2 3v9l-4 23-4-5-7-12-3-6 2-5z" fill="#DBD9F8"/>
<path transform="translate(816,1075)" d="m0 0h3v39h-1l-1-12-9 1-5-12v-3h-2v-4l10-6 5-1z" fill="#DAD7F8"/>
<path transform="translate(963,881)" d="m0 0h7l14 14v2l4 2 1 1v6l-4 3-6-2-3-3v-2l-4-2-2-4h-2v-2h-2l-5-6v-5z" fill="#F59403"/>
<path transform="translate(1299,616)" d="m0 0 2 1 3 20 3 30 1 13v45l-3-1-1-37-3-39-3-24v-7z" fill="#1C192A"/>
<path transform="translate(1198,692)" d="m0 0h6v2l4 2v2l4 2 2 4h2l6 7v5l-5 4-5-2-7-8-9-9v-7z" fill="#F59403"/>
<path transform="translate(1398,659)" d="m0 0 5 2 4 4-1 4-4 5h-2l-2 4-9 8-11 11-5-2-12-12 1-4 5-5 5 1 3 4 4-1 7-7 3-4h2l1-3zm1 3-4 4-2 1v2h-3l-1 3-7 6-4 4-4-1-5-5-2 2v3h-2l1 4 4 2 1 3 4 4h3l1-3 7-5-1-3 5-2 5-5 2-3 4-2 2-4-1-4z" fill="#FDDA8C"/>
<path transform="translate(941,909)" d="m0 0 5 1 2 2v6l-8 5-14 8h-6l-2-3v-5l5-4z" fill="#F59403"/>
<path transform="translate(1171,683)" d="m0 0 5 1 2 2-1 10-1 16-2 3h-6l-3-3v-17l2-8z" fill="#F59403"/>
<path transform="translate(1469,374)" d="m0 0 18 2 7 2 2 2v6l-3 2h-7l-19-3-3-3 1-6z" fill="#1C192A"/>
<path transform="translate(747,656)" d="m0 0h7l9 11 1 3h2l3 5-1 7-6 1-5-5-9-10-3-5 1-5z" fill="#F59403"/>
<path transform="translate(1026,902)" d="m0 0 5 1 4 8 5 15-2 5-2 2-6-1-4-10-4-12 1-6z" fill="#F59403"/>
<path transform="translate(887,762)" d="m0 0 4 1 1 4-3 5-6 4-3 4h-3l-3 6-8 7-8-6-4-4 1-5 4-1 1 4 8 1 3-5h3l2-4 5 1-2-5 4-2z" fill="#FEB929"/>
<path transform="translate(808,1145)" d="m0 0 9 1v46h-1v-21l-5-2-9-5-1-4 4-8z" fill="#DBDAF8"/>
<path transform="translate(887,700)" d="m0 0h3v2h2l-1 5h-2l-1 4-5 4h-3l-1 5-4 1v2h-2l-2 5-7 4-7-8-3-2 1-5 2-2 2 4 4 1v1h5l4-5h2l1-5h3v-2h5l1-5 2-2z" fill="#FEBA2B"/>
<path transform="translate(1399,724)" d="m0 0 4 1v4l-5 5-7 6-5 5-7 8-4 1-4-4 2-4-5 1-3-3v-3l4-2v2l12 2 2-4 11-12z" fill="#FEB928"/>
<path transform="translate(1397,778)" d="m0 0 5 1 2 2v3l-6-2 1 5-8 8h-4l-1 5-5 6-5 2-9-8v-3h2v-2h-2v-2l4 1 5 3 4 1 2-5 6-5h2v-3l5-2z" fill="#FEB928"/>
<path transform="translate(353,577)" d="m0 0 4 1-1 4-7 10-4 10-1 5v18l2 7v4h-5l-3-12v-16l4-15 7-11z" fill="#E8D9F7"/>
<path transform="translate(630,835)" d="m0 0 7 6 6 4v2l5 2 6 4-1 3-5 4-8 5-2 4-8-32z" fill="#DBDAF8"/>
<path transform="translate(723,732)" d="m0 0h5l4 6 5 14-1 7-2 1h-6v-2h-2l-6-18v-5z" fill="#F59403"/>
<path transform="translate(827,343)" d="m0 0h1v218l-2 1-12-6 2-2 9-2-1-6 2-1z" fill="#F6EFFC"/>
<path transform="translate(1430,377)" d="m0 0h5l3 2v6l-3 3-19 5-4-1-3-4 2-5 10-4z" fill="#1C192A"/>
<path transform="translate(882,885)" d="m0 0h6l2 2 4 17v8l-2 1h-6l-3-3-3-14v-10z" fill="#F59403"/>
<path transform="translate(888,817)" d="m0 0 4 1v4l-5 5-4 2-2 4-5 3-5 7-4 2-3 3v-4h2v-3l-5 1-6-5-2-4h2v-2h4l3 3 9 4v-4l-2-1 7-6 4 1 1-2-1-4 5-4z" fill="#FEB928"/>
<path transform="translate(1680,1434)" d="m0 0h4v3l-8 7-12 13-23 23-7 8-4 2 1-6h2l2-4h2l2-4 5-6h2v-2h2v-2h2v-2l8-7 12-13 5-6h2l1-3z" fill="#EEE9FA"/>
<path transform="translate(342,652)" d="m0 0 4 2 3 3v2l4 2 7 10 4 8 6 23-1 4-8-18-7-14-4-5v-2h-2l-7-8-1-4h2z" fill="#E2CFF7"/>
<path transform="translate(756,771)" d="m0 0 6 1 2 2v5l-10 9h-2v2l-5 3-6-1-1-2v-6h2v-2l9-7z" fill="#F59403"/>
<path transform="translate(1190,735)" d="m0 0 7 1 1 6-6 19-2 1h-6l-2-3 1-7 4-14z" fill="#F59403"/>
<path transform="translate(1643,1280)" d="m0 0h4l-3 11-11 35-9 32h-1v-13l10-35 4-13 3-9z" fill="#EFEAFA"/>
<path transform="translate(1853,1544)" d="m0 0 1 4-2 4h-2l-1 5-6 10-7 10-4 7-2 1-3 5-15 18-6 5-10 10-4 3h-2l-1 3-6 4-3 5-7 2-9 6-3-1 7-5 7-4 13-10 11-10 18-18 1-2h2l2-5 7-8 10-15 8-13z" fill="#FDFDFD"/>
<path transform="translate(1183,778)" d="m0 0h5l12 13 1 5-1 3-6 1-8-7-6-6v-7z" fill="#F59403"/>
<path transform="translate(1030,594)" d="m0 0 10 1 25 6 15 4 8 3-1 4h-63v-6l3-9zm0 2-5 11v3l56 1 2-2-12-5-15-4-22-4z" fill="#FDDA8E"/>
<path transform="translate(858,939)" d="m0 0h7l3 3v2h2v2h2l5 7-1 5-2 2h-6l-11-12-1-7z" fill="#F59403"/>
<path transform="translate(1668,663)" d="m0 0 3 1-5 44-2 35h-3v-23l3-36 3-20z" fill="#1C192A"/>
<path transform="translate(753,703)" d="m0 0h6l2 2-1 9-7 11-1 1-7-1-1-1v-7l8-13z" fill="#F59403"/>
<path transform="translate(1145,674)" d="m0 0h1l1 113 3 3 2 1v2l4 1 12 7 12 6 6 4 9 3h11v2l-2 1-13-1-12-6-17-9-11-7-5-2-1-2z" fill="#FDDA8D"/>
<path transform="translate(1472,243)" d="m0 0 5 1 10 5-2 5-5 10-10-3-2-1z" fill="#DCDBF9"/>
<path transform="translate(1382,337)" d="m0 0 5 3 7 6 11 5 7 2 11 1 1 4-1 1h-9l-12-3-12-6-10-9z" fill="#E6D6F8"/>
<path transform="translate(427,1828)" d="m0 0h2l1 6 2 1h89v-5h2v6l-2 2h-92l-2-3z" fill="#FDD1A9"/>
<path transform="translate(1534,981)" d="m0 0h9v40l-2-1v-28l-1-8-22 1-38 2-46 1-1 5-2-3v-4l2-1h44l34-2z" fill="#FDD59C"/>
<path transform="translate(1628,1635)" d="m0 0 29 8 29 9 1 3-9-1-24-7-20-6-6-1z" fill="#FBFAFC"/>
<path transform="translate(1756,1513)" d="m0 0h36l22 2 18 1 8 3v1h-8l-9-2-20-2h-36l-26 3-20 4-4-1 15-4 3-2 16-1z" fill="#FDFDFD"/>
<path transform="translate(1066,378)" d="m0 0 4 1 3 9v16l-5 14-5 6-3-1 1-5 4-7 2-5 1-6v-8l-3-13z" fill="#EADEF8"/>
<path transform="translate(662,1540)" d="m0 0 3 1 4 10 6 9 9 11 9 9 8 10 12 11 8 7 7 6v2l-4-2-10-9-13-11-8-7-3-6-7-8-5-5-8-10-5-9z" fill="#EFE7F8"/>
<path transform="translate(1618,1273)" d="m0 0 2 2 1 7 1 29 1 10 1 24-1 23h-1l-1-32-2-16-1-24-1-14z" fill="#FDCDB5"/>
<path transform="translate(624,1733)" d="m0 0 2 1 12 36 3 10 4 2 9 2 10 5 9 8 7 11 4 8h-3l-6-11-5-7-11-8-11-5-8-2-9-26-7-20z" fill="#FDD990"/>
<path transform="translate(912,597)" d="m0 0h2l2 4 1 10-1 1h-42l-4-2 4-3 22-7zm-6 3-17 4-13 5v1h39v-7l-3-3z" fill="#FDD990"/>
<path transform="translate(1422,304)" d="m0 0h25l-4 3-17 12h-2l-2-10z" fill="#D5CCF6"/>
<path transform="translate(853,633)" d="m0 0h13l8 3 5 4-1 5-5 5-5-1-4-3h-8l-7 5-1 3v7l2 5 6 4 8 1v1h-10l-6-4-2-5v-11l3-5 5-3h11l8 4 2-4 2-3-12-6h-9l-9 2-7 5-4 6-1-2 6-8 7-4z" fill="#FEDB8C"/>
<path transform="translate(1599,1017)" d="m0 0h6l1 2 4 75v10h-2l-5-82v-3l-8 1-1-2z" fill="#FDD990"/>
<path transform="translate(507,750)" d="m0 0 5 1 18 10 17 10 7 5-1 2-6-2-14-8-16-9-10-7z" fill="#1C192A"/>
<path transform="translate(1623,1358)" d="m0 0 2 2 1 30 1 5 1 28 1 9v23h-1l-2-24-1-22-1-1-1-16z" fill="#FDC8C4"/>
<path transform="translate(555,1732)" d="m0 0h5l-2 2 2 39 3 48v14l-2-1-2-28-1-22-1-3 1-1-2-36z" fill="#FDD796"/>
<path transform="translate(426,828)" d="m0 0 4 1 15 26 7 12-1 3-3-1-15-26-7-12z" fill="#1C192A"/>
<path transform="translate(1484,1296)" d="m0 0h2l5 29 7 44v10l-2-3-8-50-4-24z" fill="#FDD893"/>
<path transform="translate(834,880)" d="m0 0 3 1h-2v9l-2 10-5 45v12l4 3h-5l-2-2v-13l4-36z" fill="#FDD990"/>
<path transform="translate(1662,1574)" d="m0 0h3l-2 5-7 10h-2l-2 5-10 12-5 5v-5l7-9 4-6 3-5 5-5z" fill="#F8F7FC"/>
<path transform="translate(1045,880)" d="m0 0h2l8 17 6 15 9 26 3 12v4l-3-1-1-7-5-17-9-25-6-13-4-9z" fill="#FDD892"/>
<path transform="translate(502,649)" d="m0 0h4v9l-5 10-7 7-3 2-4-1 1-4 6-4 5-8z" fill="#EADCF8"/>
<path transform="translate(1422,395)" d="m0 0h5l4 5-1 8-3 2h-5l-4-4v-6l2-4z" fill="#1C192A"/>
<path transform="translate(1469,393)" d="m0 0h6l4 5-1 7-3 3h-5l-4-4v-7z" fill="#1C192A"/>
<path transform="translate(1329,519)" d="m0 0 11 1-1 32-1-4-3-1-1-5-3-4v-2l-3-1 4-1h4v-6l-4-4v-2h-2z" fill="#F6EFFC"/>
<path transform="translate(1463,1451)" d="m0 0 6 2 4 5 5 3 4 5 3 3 3 5 4 3 2 4 4 3 4 7 7 9v6l-3-4-7-11-1-3h-2l-6-8v-2h-2v-2h-2l-4-5v-2l-3-1-4-5-8-7z" fill="#FDFDFD"/>
<path transform="translate(965,456)" d="m0 0 4 1 4 5-1 6-3 3h-6v-2h-2l-1-2v-6z" fill="#1C192B"/>
<path transform="translate(911,459)" d="m0 0 7 1 2 3v6l-3 4-5 1-4-4-1-5 2-5z" fill="#1C192A"/>
<path transform="translate(811,1611)" d="m0 0 1 4-1 9 1 2-16 8-2-1 3-5 5-7h2l2-5 3-3h2z" fill="#B379ED"/>
<path transform="translate(967,1579)" d="m0 0v3l-2 6-6 5-3 4h-2l-2 4-6 7-5 5-6 4-5 5-12 10-3-1 14-11 16-15 12-13 8-11z" fill="#FDFDFD"/>
<path transform="translate(1237,760)" d="m0 0h1v15l-2 12-6 12-9 10-8 5-7 2v-2l10-5 10-9 3-6 3-5 3-14z" fill="#FDD795"/>
<path transform="translate(1358,624)" d="m0 0 4 5 5 3h8l6-4 4 1 6 6-2 4-8 5-3 1h-16l-10-5-5-6 1-2 7 7 5 3 4 1h12l10-4 2-4-5-4-5 2-2 1h-11l-6-5z" fill="#FEDB8C"/>
<path transform="translate(1557,533)" d="m0 0 5 4 5 10 4 15 1 11h-4l-2-15-4-12-5-9z" fill="#1C192A"/>
<path transform="translate(912,1505)" d="m0 0h5l-1 25-2 6h-2l-1-14z" fill="#FEDB8C"/>
<path transform="translate(705,779)" d="m0 0 3 1 4 12 4 6v2l4 2 8 6 7 3 11 1 2 2h-13l-10-4-9-7-7-11-3-6z" fill="#FDD990"/>
<path transform="translate(1756,1648)" d="m0 0 3 1-10 6-17 8-11 3-4 3-9 2-4 2-8 1-2-2 19-5 7-3 9-3 10-4z" fill="#FDFDFD"/>
<path transform="translate(846,881)" d="m0 0h13l-5 10-7 1-3-3v-5z" fill="#F59403"/>
<path transform="translate(418,1778)" d="m0 0 2 2 4 19 4 24v5h-2l-4-24-3-15-1 1-1 7-2 1 1-12z" fill="#FDD992"/>
<path transform="translate(1529,327)" d="m0 0 4 1 1 4v9l-4 10-3 1-2-4 3-6v-14z" fill="#E2CCF7"/>
<path transform="translate(1508,1440)" d="m0 0h1l6 36 4 28 1 5v5l-2-4-2-13-2-10-6-38z" fill="#FEDB8C"/>
<path transform="translate(1625,1416)" d="m0 0h1l2 26v13h2l1 16v15l-1-2h-2l-1-28-2-24z" fill="#FDCFAE"/>
<path transform="translate(582,1785)" d="m0 0 1 4-6 35-2 12-2 2h-10l-1-3h11l4-27 4-22z" fill="#FDD795"/>
<path transform="translate(505,609)" d="m0 0 2 2 5 19-1 5-4-1-4-17v-5z" fill="#ECE2F9"/>
<path transform="translate(793,568)" d="m0 0 8 1 25 6 1 3h-7l-24-6-3-2z" fill="#1C192A"/>
<path transform="translate(834,665)" d="m0 0 3 4v3l3 1v2l4 2 5 3 5 1h9l9-3 5-5-3-3-4-1-3 2-3-1 6-4 5 2 5 6-5 5-5 3-4 1h-13l-9-3-8-7-2-5z" fill="#FEDB8C"/>
<path transform="translate(1682,548)" d="m0 0 3 1-1 3-20 4-9 3h-3v-3l11-4z" fill="#1C192A"/>
<path transform="translate(728,1616)" d="m0 0 4 2 10 8 12 10 2 1v2l4 2 12 10-2 3-5-5-10-9-7-5-5-5-12-10-3-3z" fill="#FCC3CF"/>
<path transform="translate(1292,522)" d="m0 0 9 1 20 8 2 1v3l-6-1-9-4-16-5z" fill="#1C192A"/>
<path transform="translate(372,575)" d="m0 0 5 1-2 4-8 7-4 5-4-1 1-4 9-10z" fill="#E5D2F7"/>
<path transform="translate(1474,450)" d="m0 0h3l-1 5-7 8-9 6-4 2-4-1 4-4 10-6 7-8z" fill="#1C192A"/>
<path transform="translate(422,858)" d="m0 0h3l7 12 9 11-1 3-3-1v-2l-3-1-7-10-5-9z" fill="#1C192A"/>
<path transform="translate(1412,345)" d="m0 0 8 2h13l1 4-7 2-10-1-6-3z" fill="#E8DAF8"/>
<path transform="translate(889,407)" d="m0 0 3 1-1 5-1 2v8l2 6-4 1-3-5-1-7 3-9z" fill="#EADCF7"/>
<path transform="translate(1694,1530)" d="m0 0 1 4-3 7-6 10-11 13-9 10h-2l2-4 7-7 11-14 7-11 2-7z" fill="#FDC5CF"/>
<path transform="translate(788,583)" d="m0 0 17 4 11 3 1 4-10-2-18-5-2-1z" fill="#1C192A"/>
<path transform="translate(613,621)" d="m0 0h5l4 5-2 6h-7l-3-4 1-6z" fill="#F0EAFB"/>
<path transform="translate(1144,569)" d="m0 0h5v3l-25 6h-5v-3z" fill="#1C192A"/>
<path transform="translate(458,1729)" d="m0 0 2 3 10 28 6 17 1 4 5 1v2l-6-1-4-9-9-27-5-14z" fill="#FEDB8C"/>
<path transform="translate(1393,544)" d="m0 0h3l-1 7-7 22-4-1 6-20z" fill="#1C192A"/>
<path transform="translate(1674,535)" d="m0 0h6v3l-18 4-11 3-1-3 14-5z" fill="#1C192A"/>
<path transform="translate(662,1540)" d="m0 0 3 1 4 10 6 9 9 11 9 9 1 3-4-2-7-8-5-5-8-10-5-9z" fill="#FDC5CF"/>
<path transform="translate(372,560)" d="m0 0h5l-1 4-13 10h-4l1-5z" fill="#E7D7F8"/>
<path transform="translate(1303,495)" d="m0 0 11 1 18 4-1 3-14-2-15-3z" fill="#1C192A"/>
<path transform="translate(1151,587)" d="m0 0h4v3l-24 5h-5v-3z" fill="#1C192A"/>
<path transform="translate(1300,510)" d="m0 0 9 1 17 6 2 1v3l-6-1-18-6-4-1z" fill="#1C192A"/>
<path transform="translate(960,996)" d="m0 0h5l10 6 8 3 2 2 7 2 8 3 8 2v2l-9-2-9-3-13-5-17-9z" fill="#EEE7FA"/>
<path transform="translate(714,852)" d="m0 0h4l-1 4-8 7-10 8h-2l1-4 14-13h2z" fill="#1C192A"/>
<path transform="translate(911,392)" d="m0 0h5l-1 4-15 8-3-1 1-4z" fill="#E7D5F7"/>
<path transform="translate(388,1727)" d="m0 0h3l3 49v11h-1l-1-5-1-15-1-6-1-26z" fill="#FDFDFD"/>
<path transform="translate(996,1520)" d="m0 0h2l-2 11-2 2-5 13-9 17-4 4 1-4 11-21 5-13z" fill="#FDFDFD"/>
<path transform="translate(1056,405)" d="m0 0 4 1-2 9-6 8-4-1 2-5 3-4z" fill="#EBDEF8"/>
<path transform="translate(1145,639)" d="m0 0 7 1-1 2h-4l2 14v8l-1 7h-2l-1-7z" fill="#F1EBFB"/>
<path transform="translate(688,850)" d="m0 0h3l-1 5-8 13-2 2h-3l1-4 8-13z" fill="#1C192A"/>
<path transform="translate(956,518)" d="m0 0 3 1-5 6h-2v2l-11 5h-4v-3l14-7z" fill="#1C192A"/>
<path transform="translate(1620,1320)" d="m0 0 3 1 1 24-1 23h-1l-1-32-1-6z" fill="#FDD0AB"/>
<path transform="translate(1668,518)" d="m0 0h7l-1 3-17 4h-7l1-3z" fill="#1C192A"/>
<path transform="translate(1357,724)" d="m0 0 2 1v35l34 1v1h-36l-1-2v-35z" fill="#E8E4FA"/>
<path transform="translate(925,652)" d="m0 0 1 3-10 24-2 3h-15l-3-7 1-3 4 8 12 1 3-9z" fill="#FEDB8C"/>
<path transform="translate(1343,1020)" d="m0 0 12 1h26l13-1 4 6-2 1-3-4h-43l-7-1z" fill="#FDCDB5"/>
<path transform="translate(707,741)" d="m0 0 1 4-1 5v30l-3-3v-25l2-10z" fill="#FEDB8C"/>
<path transform="translate(1328,534)" d="m0 0h10l1 3v15l-1-4-3-1-1-5-3-4v-2l-3-1z" fill="#FBFAFC"/>
<path transform="translate(1062,917)" d="m0 0 2 4 6 17 3 12v4l-3-1-1-7-5-17-3-10z" fill="#FDD894"/>
<path transform="translate(819,592)" d="m0 0h9v19l-1-4-3-1 1-4-3-5-1-3h-2z" fill="#FCFCFC"/>
<path transform="translate(928,971)" d="m0 0 5 1 3 4v2l5 2 6 5 4 2 3 5-5-2-13-10-8-7z" fill="#EEE8FA"/>
<path transform="translate(920,634)" d="m0 0h14l-3 10-4 8-1-3 5-13h-10l-8 18-1-3 6-15z" fill="#FEDB8C"/>
<path transform="translate(1138,554)" d="m0 0h10v3l-21 3-1-4z" fill="#1C192A"/>
<path transform="translate(1646,1550)" d="m0 0h5l-1 3-14 10h-2l1-5 5-2v-2z" fill="#EFE9FA"/>
<path transform="translate(1511,1509)" d="m0 0h2l4 4v2l4-1-1 6h2l1 5-3 1v-2l-3-1-5-11z" fill="#F6C2C7"/>
<path transform="translate(1027,1019)" d="m0 0 14 1 31 3v1h-15l-25-2-5-1z" fill="#E6E0F9"/>
<path transform="translate(1229,724)" d="m0 0h2l3 12 1 1 2 14v14h-1l-3-24-4-14z" fill="#FDD98F"/>
<path transform="translate(1472,304)" d="m0 0h15l1 5-2 3-5-2-9-5z" fill="#D3C8F6"/>
<path transform="translate(714,707)" d="m0 0h2l-2 10-6 24-2 1 1-10z" fill="#FDD698"/>
<path transform="translate(745,629)" d="m0 0 5 1 1 2h-5l-4 8-7 17h-2l1-5 9-21z" fill="#FEDB8C"/>
<path transform="translate(795,550)" d="m0 0 17 3 1 4-13-2-6-2z" fill="#1C192A"/>
<path transform="translate(502,1551)" d="m0 0 3 3 11 19 7 11-2 1-7-11-3-5v-2l-3-1-3-7-2-2z" fill="#FDFDFD"/>
<path transform="translate(555,1732)" d="m0 0h5l-2 2 1 23v16h-1l-1-9-1-20z" fill="#FEDB8C"/>
<path transform="translate(1433,985)" d="m0 0 40 1v1l-39 1-1 5-2-3v-4z" fill="#FED988"/>
<path transform="translate(668,851)" d="m0 0 3 1-1 10-3 6h-3l1-6z" fill="#1C192A"/>
<path transform="translate(507,539)" d="m0 0 4 1-1 4-5 8-2-2-3 2 2-6z" fill="#E3D0F7"/>
<path transform="translate(353,577)" d="m0 0 4 1-1 4-5 7-2-2-4 3 2-5z" fill="#E6D7F8"/>
<path transform="translate(1520,337)" d="m0 0 4 1v7l-3 5h-3l-1-3 2-9z" fill="#EFE8FA"/>
<path transform="translate(1164,656)" d="m0 0 3 1-16 9v8l-2 1-3-1v-3h2v-6l7-4z" fill="#FDD990"/>
<path transform="translate(816,554)" d="m0 0h7l4 2v6l-12-5-1-2z" fill="#FBF9FC"/>
<path transform="translate(416,1797)" d="m0 0 1 2-3 17-1 8-2-1 1-15 2-9z" fill="#FDD59C"/>
<path transform="translate(1840,1520)" d="m0 0h8l14 3v8l-3 6-2-1 3-6v-4l-15-4-5-1z" fill="#FDFDFD"/>
<path transform="translate(795,642)" d="m0 0 2 3v17l-3 1v-18z" fill="#DFDDF9"/>
<path transform="translate(1484,1296)" d="m0 0h2l4 23v6l-2-3-4-20z" fill="#FDDA8D"/>
<path transform="translate(1386,600)" d="m0 0 4 2v4l-6 6h-4v-2l-5-2h-11l2-2h10l5 3 5-2 1-5z" fill="#FEDB8C"/>
<path transform="translate(1720,1664)" d="m0 0 3 1-6 4-9 2-4 2-8 1-2-2 19-5z" fill="#FCFCFC"/>
<path transform="translate(1237,760)" d="m0 0h1v15l-2 12-2 2-1-3z" fill="#FDD49F"/>
<path transform="translate(527,343)" d="m0 0 7 6 4 6-6-2-8-4 3-4z" fill="#D3B5F3"/>
<path transform="translate(1635,1584)" d="m0 0h2v13l6-4 5-4v3l-8 7-4 1z" fill="#FCC5CF"/>
<path transform="translate(418,1778)" d="m0 0 2 2 1 10h-3l-1 7-2 1 1-12z" fill="#FEDB8C"/>
<path transform="translate(907,979)" d="m0 0 4 2-17 9-8 2 1-2h2v-2l9-3 6-3 3-1z" fill="#EFEAFB"/>
<path transform="translate(1223,702)" d="m0 0h2l5 14 1 1v7h-2l-6-20z" fill="#FAD79D"/>
<path transform="translate(1529,327)" d="m0 0 4 1 1 4v9l-3-4-2 3-1-12z" fill="#D7BCF4"/>
<path transform="translate(1215,679)" d="m0 0h2l6 16 2 7-3-1-7-20z" fill="#FDD894"/>
<path transform="translate(1382,337)" d="m0 0 5 3 4 5-5 2-6-7z" fill="#E1CDF6"/>
<path transform="translate(1616,1248)" d="m0 0h2l1 11v14l-2-3-1-10z" fill="#FEDB8C"/>
<path transform="translate(506,624)" d="m0 0 5 1 1 9-4 1-2-6z" fill="#E8D8F8"/>
<path transform="translate(916,1600)" d="m0 0h5v3l-9 3h-3v-4z" fill="#FDFDFD"/>
<path transform="translate(970,1412)" d="m0 0 3 1-4 3-16 7-4 1 5-5 11-4z" fill="#FDFDFD"/>
<path transform="translate(656,1080)" d="m0 0 8 4 1 2-3 4-2 1-4-8z" fill="#DCDBF9"/>
<path transform="translate(1066,378)" d="m0 0 4 1 2 5-1 4h-2l-1 4-3-13z" fill="#E3D0F7"/>
<path transform="translate(575,1826)" d="m0 0h1v7l-3 5h-10l-1-3h11l1-8z" fill="#FDD59D"/>
<path transform="translate(712,1601)" d="m0 0 5 3 11 10v2l-4-2-10-9z" fill="#FDC5CF"/>
<path transform="translate(1624,1392)" d="m0 0 1 3h2v14l-3-1z" fill="#FDCDB5"/>
<path transform="translate(722,686)" d="m0 0 1 2-6 19h-2l2-11 4-9z" fill="#FDDA8D"/>
<path transform="translate(903,396)" d="m0 0h2l2 4-7 4-3-1 1-4z" fill="#DDC4F5"/>
<path transform="translate(659,1681)" d="m0 0 7 1 17 2-1 3-20-3z" fill="#FCFBFC"/>
<path transform="translate(490,343)" d="m0 0 2 1-3 3-1 5h-2v2l-6 5 2-6 6-8z" fill="#D0B0F2"/>
<path transform="translate(1330,1017)" d="m0 0 8 1 3 2h-8l-1 2-1 9-2-3v-9z" fill="#FDD49F"/>
<path transform="translate(1458,1220)" d="m0 0h1l1 19-2 9h-1v-13z" fill="#F6EFFC"/>
<path transform="translate(1306,544)" d="m0 0h6l-1 2-2-1v9l-2-2-3 3 1-10z" fill="#F6EFFC"/>
<path transform="translate(1437,1619)" d="m0 0 4 2 15 10-2 1-9-5-7-5z" fill="#FCFCFC"/>
<path transform="translate(1617,1235)" d="m0 0 2 3 1 9-1 12h-1l-1-12z" fill="#F6EFFC"/>
<path transform="translate(880,634)" d="m0 0h15l1 5-4-3h-10l2 4-1 4-3-6z" fill="#FEDB8C"/>
<path transform="translate(791,1624)" d="m0 0h2v2l4 1-2 6-3 1-1-7z" fill="#F7F3FC"/>
<path transform="translate(348,586)" d="m0 0 2 1-1 5-2 5-3-2h-2l2-5z" fill="#EADDF9"/>
<path transform="translate(1473,1226)" d="m0 0h2l2 16-2 3-2-13z" fill="#FDD69A"/>
<path transform="translate(1392,1020)" d="m0 0 4 2 2 4-2 1-3-4h-17v-1z" fill="#F8CA9B"/>
<path transform="translate(615,623)" d="m0 0 5 2-2 5-5-1 1-5z" fill="#FDFDFD"/>
<path transform="translate(812,1609)" d="m0 0 2 1v15l-4-1z" fill="#FDC5CF"/>
<path transform="translate(887,830)" d="m0 0h1v31h-1l-1-27v-3z" fill="#DCDBF9"/>
<path transform="translate(763,803)" d="m0 0m-1 1m-1 1m-3 1h3v2l-6 4-9 1 2-2 8-3z" fill="#FEDB8C"/>
<path transform="translate(366,690)" d="m0 0 2 4 2 8-1 4-5-11z" fill="#D0B2F3"/>
<path transform="translate(794,784)" d="m0 0m-1 1m-1 1m-1 1m-2 1h2l-2 4-8 6-2-1z" fill="#FEDB8C"/>
<path transform="translate(521,1830)" d="m0 0h2v6l-2 2h-7l1-3h6z" fill="#FDDA8E"/>
<path transform="translate(395,1808)" d="m0 0h1v7h2v11l-2 1-1-9z" fill="#FDD3A2"/>
<path transform="translate(795,635)" d="m0 0h2v10h-3l-1-5-4-2 2-1 3 1z" fill="#F6EFFC"/>
<path transform="translate(1329,519)" d="m0 0h6v2h3v5l-6-2v-2h-2z" fill="#FBFAFC"/>
<path transform="translate(889,407)" d="m0 0 3 1-1 5-2 2h-4l2-6z" fill="#DECBF6"/>
<path transform="translate(1494,1361)" d="m0 0 1 3h2l1 5v10l-2-3-2-11z" fill="#FDD796"/>
<path transform="translate(1481,1277)" d="m0 0h1v5h2l1 6v8l-2-3-2-9z" fill="#FDD49E"/>
<path transform="translate(827,592)" d="m0 0h1v19l-1-4-3-1 1-4z" fill="#F6EFFC"/>
<path transform="translate(592,1825)" d="m0 0 2 3 3 8 3 2-6-1-2-1z" fill="#FDD796"/>
<path transform="translate(1456,1632)" d="m0 0 5 2 11 6v1h-5l-5-4-5-2z" fill="#FDFDFD"/>
<path transform="translate(1599,1017)" d="m0 0h6l1 6-3-1v-3l-8 1-1-2z" fill="#FDD1A8"/>
<path transform="translate(491,670)" d="m0 0 2 1-1 2 3 1-4 3-4-1 1-4z" fill="#DCC3F5"/>
<path transform="translate(732,657)" d="m0 0h2l-1 5-4 9h-2l1-4z" fill="#FDD698"/>
<path transform="translate(705,779)" d="m0 0 3 1 3 9v3h-2l-3-6z" fill="#FDD797"/>
<path transform="translate(1056,905)" d="m0 0 3 1 3 9-1 4-5-12z" fill="#FEDB8C"/>
<path transform="translate(363,567)" d="m0 0 3 4-3 3h-4l1-5z" fill="#E4D1F7"/>
<path transform="translate(1530,335)" d="m0 0h3v9h-4z" fill="#F9F8FC"/>
<path transform="translate(940,1426)" d="m0 0h6l-2 2-11 6h-2v-2l8-5z" fill="#FDFDFD"/>
<path transform="translate(1086,1019)" d="m0 0 2 3-2 1h-13l2-2h5z" fill="#F1EBFB"/>
<path transform="translate(507,539)" d="m0 0 4 1-1 4-6 2 1-4z" fill="#E9DDF9"/>
<path transform="translate(1051,416)" d="m0 0 1 3h2v-2l2 1-4 5-4-1 2-5z" fill="#DCC0F5"/>
<path transform="translate(583,1778)" d="m0 0 2 4 1 7h-2l-2-4z" fill="#FDD893"/>
<path transform="translate(473,1775)" d="m0 0h2l2 6 5 1v2l-6-1-3-6z" fill="#FDDA8E"/>
<path transform="translate(772,1541)" d="m0 0h5l-1 6-5-1-1-3h2z" fill="#F8F8FC"/>
<path transform="translate(1479,1266)" d="m0 0h2l2 10v6h-1l-3-11z" fill="#FDD990"/>
<path transform="translate(1338,540)" d="m0 0h1v12l-1-4-3-1v-5z" fill="#F6EFFC"/>
<path transform="translate(1412,345)" d="m0 0 4 1 4 2-6 3-3-2z" fill="#D8C1F4"/>
<path transform="translate(1363,608)" d="m0 0v3l-3 1-2 12h-1v-8l3-6z" fill="#FEDB8C"/>
<path transform="translate(1519,338)" d="m0 0h1v8l3 1-2 3h-3l-1-3z" fill="#D1B3F2"/>
</svg>
