<?xml version="1.0" encoding="UTF-8"?>
<svg version="1.1" viewBox="0 0 2000 2000" width="2000" height="2000" xmlns="http://www.w3.org/2000/svg">
<path transform="translate(0)" d="m0 0h2e3v2e3h-2e3z" fill="#F8FAFC"/>
<path transform="translate(1157,562)" d="m0 0h14l8 4 8 8 8 16 2 7 1-3 1-13 2 2 2 7v13l-1 3 10 2 4 3v2h-11l9 9 4 8v9l-4 8-5 4h-10l-2 9 2 4v9l-6 9-7 5-2 11v32l3 13 5 8 1 1 35 4 23 4 8 4 9 8 8 13 4 11 3 19v20l-2 17-5 23h-14l-45-1-2 38-3 23-5 19-7 13-11 16-14 19-14 18-20 26-2 3-7-1-12-4-5 2-14 10-21 14v1l58 5h9l3-3 3-6 11-9 12-11 16-15 17-17 1-2h2l2-4 10-11 10-13h1l1 8v25l-6 62-4 50-3 53-1 26v70l2 30 4 28 8 36 8 30 9 30 17 53 17 48 13 35v3l-56-1-12-24-11-23-15-32-28-63-16-40-11-30-6-18-1-1-8 91h-13l-29-3 7 84 5 53v6h-52l-3-7-13-49-12-50-9-41v-3l-17-1-11-1h-13l-14 7-21 7-20 4-10 1h-25l-21-3-19-5-15-6-16-8-21-14-250-22-3-1 8-94 22-250 1-8 17 1 468 41 2 1 3-10 12-33 5-13-1-10-6-36-4-36-2-31v-44l2-29 4-29v-5l-16-11-13-10-11-9-7-6 4-7 14-18 21-28 5 2 13 10 15 10 15 9 16 8 7 3 5-1 4-4 3-9v-12h-11l-11-4-8-6-7-7-5-11-4-16-4-20v-21l-8-4-4-6v-8l4-10 7-6 2-1 4-11 4-6 8-7 11-4h18l4-6 4-3z" fill="#449FFE"/>
<path transform="translate(1157,562)" d="m0 0h14l8 4 8 8 8 16 2 7 1-3 1-13 2 2 2 7v13l-1 3 10 2 4 3v2h-11l9 9 4 8v9l-4 8-5 4h-10l-2 9 2 4v9l-6 9-7 5-2 11v32l3 13 5 8 1 1 35 4 23 4 8 4 9 8 8 13 4 11 3 19v20l-2 17-5 23h-14l-45-1-2 38-3 23-5 19-7 13-11 16-14 19-8 10-1 1h-86l-4-20-5-33-4-40-1-19v-44l2-29 4-29v-5l-16-11-13-10-11-9-7-6 4-7 14-18 21-28 5 2 13 10 15 10 15 9 16 8 7 3 5-1 4-4 3-9v-12h-11l-11-4-8-6-7-7-5-11-4-16-4-20v-21l-8-4-4-6v-8l4-10 7-6 2-1 4-11 4-6 8-7 11-4h18l4-6 4-3z" fill="#14365B"/>
<path transform="translate(1234,985)" d="m0 0h1l1 8v25l-6 62-4 50-3 53-1 26v70l2 30 4 28 8 36 8 30 9 30 17 53 17 48 13 35v3l-56-1-12-24-11-23-15-32-28-63-16-40-11-30-6-18-1-1-8 91h-13l-12-1-1-5 23-262 6-68 2-18 7-2 3-5 5-5 10-9 8-7 7-7 8-7 20-20 1-2h2l2-4 10-11z" fill="#407BFE"/>
<path transform="translate(1215,644)" d="m0 0 17 8 19 10 33 17 76 24 33 11 50 16 65 21 57 18 55 18 88 28 54 18-2 4-12 14-9 11-5 5h-385v-61h16l-1-57-17-9-16-8-50-26-19-10-16-8-43-23-5-3-2-2 1-5 2-4 10-1 5-4z" fill="#D1E2FD"/>
<path transform="translate(848,564)" d="m0 0h16l16 3 13 5 11 6 11 9 8 8 6 9 8 16 4 15 1 7v14l-3 16-4 12-6 11-10 13-5 5h-2v2l-13 9-16 7-11 3-9 1h-13l-13-2-15-5-13-7-9-7v-2l-4-2-4-4v-2h-2l-9-14-6-13-4-19v-18l3-14 5-13 3-6 7-11 12-12 13-9 12-6 14-4z" fill="#F9FBFD"/>
<path transform="translate(1018,238)" d="m0 0h1v301l11-4-2 16-10 12-28 12h-5l-3-4-4-10 1-5 6-4-22-12-16-8-27-14-23-12-19-10-22-11-21 11-12 6-36 19-12 6-19 10-27 14-19 10-27 14-19 10-16 8-12 7-16 8-15 8-14 7-36 19-16 8-23 12-27 14-38 20-11 6-26 13-19 10-50 26-35 18-7 3-11-20 3-3 58-30 19-10 27-14 19-10 21-11 14-7 19-10 31-16 19-10 23-12 27-14 20-11 16-8 31-16 19-10 29-15 19-10 58-30 22-12 20-10 17-9 14-7 19-10 19 9 23 12 19 10 27 14 22 12 3 1 1-275h1l1 277 22 11 20 11 4 1z" fill="#D1E3FE"/>
<path transform="translate(1349,922)" d="m0 0h215l1 4v315l-1 3h-215v-20h197l-1-127h-195l-1-1v-26l1-1h195l1-127h-197z" fill="#D1E3FE"/>
<path transform="translate(1062,515)" d="m0 0h2l3 15 1 10-6 15-7 11-8 6-4 2-2 6 15 8 16 8 17 9 1 3-4 10v8l3 5 9 5v21l7 33 5 12 7 8 8 6 11 4 11 1 1 2v10l-3 9-5 5-5 1-16-7-19-11-15-10-16-12-5-2-12 16-16 21-2 2-10-11-10-13-14-21-8-14-5-13-3-14v-22l3-16 6-17 8-16 9-15 12-16 5-6 2-13 9-17 15-4z" fill="#F8FAFC"/>
<path transform="translate(1157,562)" d="m0 0h14l8 4 8 8 8 16 2 7 1-3 1-13 2 2 2 7v13l-1 3 10 2 4 3v2h-11l9 9 4 8v9l-4 8-5 4h-10l-2 9 2 4v9l-6 9-7 5-2 11v32l3 13 5 8v4l-13 9-16 8-13 4-5 1h-12l-6-4-5-6v-9l4-5 11-5 5-3 4-8 1-4v-12h-11l-11-4-8-6-7-7-5-11-4-16-4-20v-21l-8-4-4-6v-8l4-10 7-6 2-1 4-11 4-6 8-7 11-4h18l4-6 4-3z" fill="#FD8A7A"/>
<path transform="translate(844,540)" d="m0 0h24l17 3 19 7 9 5 10 7 8 6v2l4 2 10 12 7 10 9 21 4 15 1 10v20l-3 17-4 13-10 19-10 13-13 13-15 10-10 5-13 5-13 3-8 1h-22l-16-3-13-4-19-10-11-8-7-6-7-8-8-11-7-12-5-12-4-17-1-7v-24l3-16 6-17 6-11 10-14 2-3h2l2-4 10-9 15-10 13-6 16-5zm4 24-16 3-13 5-14 9-12 11-6 7-6 9-6 14-3 11-1 7v18l4 19 8 16 7 11h2l2 4 4 4h2l2 4 14 9 11 5 14 4 9 1h13l13-2 15-5 13-7 8-6v-2l4-2 9-10 8-13 5-12 3-12 1-8v-14l-3-16-5-13-8-14-11-12-11-9-15-8-13-4-12-2z" fill="#D1E3FE"/>
<path transform="translate(1144,1338)" d="m0 0 2 3 12 35 15 38 13 31 17 38 13 28 8 17v2l-6 1-115-1-1 4-6-69-2-26v-11l17 1 25 2v-12l7-79z" fill="#D0E2FE"/>
<path transform="translate(840,1428)" d="m0 0 9 2 21 5 23 3v227h-53z" fill="#B4CDFE"/>
<path transform="translate(1017,1421)" d="m0 0 14 1 59 5 4 1 7 84 5 53v6h-52l-3-7-13-49-12-50-9-41z" fill="#407BFE"/>
<path transform="translate(1217,873)" d="m0 0 44 1-2 29-4 29-6 25-8 19-12 17-9 10-8 10h-2l-2 4-25 25-8 7-7 7-11 9-5 5-3 5-2 2-21-1-46-4v-3l15-10 16-11 7-5 10 3 11 3 2-4 10-13 14-18 15-20 13-18 10-16 5-12 4-19 2-17 2-38z" fill="#FE8B7B"/>
<path transform="translate(1141,1077)" d="m0 0 19 1 6 1-1 17-11 125-10 115-5 60-3 35h-13l-12-1-1-5 23-262 6-68z" fill="#0053CD"/>
<path transform="translate(1062,515)" d="m0 0h2l3 15 1 10-6 15-7 11-8 6-4 2-12 25-6 17-3 16v16l3 12 4 8 11 16 9 11 9 10 3 5-9 12-16 21-2 2-10-11-10-13-14-21-8-14-5-13-3-14v-22l3-16 6-17 8-16 9-15 12-16 5-6 2-13 9-17 15-4z" fill="#FE8B7B"/>
<path transform="translate(1157,562)" d="m0 0h14l8 4 8 8 8 16 2 7 1-3 1-13 2 2 2 7v13l-1 3 10 2 4 3v2h-11l9 9 4 8v9l-4 8-5 4h-10l-2 6-3 1-7-2-8 3-6 8-3 3-9-10-6-13-1-3-1-11-26-6-15-6-6 9-4 12v3l6-2v3l-5 3-2 4-1 11-2-3-1-4v-21l-8-4-4-6v-8l4-10 7-6 2-1 4-11 4-6 8-7 11-4h18l4-6 4-3z" fill="#10264D"/>
<path transform="translate(1261,874)" d="m0 0 9 1v549l-1 1h-13l-1-499 3-23 2-28z" fill="#D1E3FD"/>
<path transform="translate(1110,806)" d="m0 0h31l14 1 1 2-5 42-3 40-2 56h-36l-7-1-1-10-1-23v-33l2-32 4-30z" fill="#449EFD"/>
<path transform="translate(1066,907)" d="m0 0h1l4 45 5 35 4 23-1 7-11 29-8 22-1 2-18-2v-159h25z" fill="#D0E2FD"/>
<path transform="translate(1170,435)" d="m0 0h10l8 4 7 8 8 20 6 13 6 16 3 9-1 10-4 7-7 6-8 3h-11l-8-4-6-7-6-15-5-12-11-26-1-3v-11l4-9 6-5z" fill="#0154CE"/>
<path transform="translate(1099,1494)" d="m0 0h109l16 34v2l-6 1-115-1-1 4-3-33z" fill="#D0E2FE"/>
<path transform="translate(1080,1013)" d="m0 0h86l-6 9-10 12-9 12-2 3-7-1-12-4-5 2-14 10-22 15h-9l-10-1 1-7 13-36 5-13z" fill="#407BFE"/>
<path transform="translate(823,1240)" d="m0 0 7 1 2 3v11l-1 4 11-1 1 4-8 10h11l4 5 5 28h2v-10l3-14 6-11 9-10h2l-1-11 6-2 7-1 1 1 2 12 6 8 3 11 2 25 2 4 2 1v5l-9 2h-5l-3-3-2-8-2-26-2-8-5 5-4 7-2 6-1 13 1 4 3 2-1 5-4 1h-9l-4-4-3 3-9 1-5-3-2-8-3-20h-8l-2 5-5 13-1 4 3 1v5l-5 1h-8l-4-3v-9l5-12 8-14 5-7h-6l-1-2 1-17h-2v-5z" fill="#F1F5FD"/>
<path transform="translate(1007,875)" d="m0 0h59v12h-46v179h-8l-5-1z" fill="#D0E2FE"/>
<path transform="translate(1144,1338)" d="m0 0 2 3 12 35 15 38 10 24v4h-88l-1-3v-11l17 1 25 2v-12l7-79z" fill="#F7F9FD"/>
<path transform="translate(957,1494)" d="m0 0h77l8 32v4h-86v-34z" fill="#D0E2FE"/>
<path transform="translate(701,1126)" d="m0 0h43l6 4 1 2v11l-12 41h7l1-3 3-2 10-1 1 4-1 2v6l2 2v4l-2 1h-9l-5-3v-2h-18l-4-4 1-8 7-25 1-2-3 1h-9l-5-3-1-2 1-12 1-4-4 1-5 21-4 4-15 1-4 2h-6l-5-5-1-9 3-9 5-7 8-4z" fill="#F1F5FD"/>
<path transform="translate(1072,1625)" d="m0 0h34l2 1 6 26-1 5-5 2h-94l-7-3-3-3-1-6 2-2 35-7 15-5 5-2 11-1z" fill="#14365B"/>
<path transform="translate(1224,1157)" d="m0 0h11v212l-2-4-7-34-3-22-2-30v-70l2-46z" fill="#CFE2FE"/>
<path transform="translate(989,1137)" d="m0 0h13l6 4 4 5 1 2v23l-1 12 10-1 8 4 2 4-1 9-5 5-9 1-15 1-4-2-1-3v-21l1-11v-20l-2-3h-5l-5 8-2 9-1 11v21l4 1v5l-5 2h-10l-3-2-1-4v-27l2-12 5-12 8-7z" fill="#F0F5FD"/>
<path transform="translate(1274,1625)" d="m0 0h37l2 2 6 28-4 4h-76l-7-3-3-5 1-5 9-3 14-5 9-5 7-3h4z" fill="#14365B"/>
<path transform="translate(905,1135)" d="m0 0h11l8 4 3 4 1 7-3 8-5 5-8 4-4 1h-7l3 12 4 5 5 2h8l2-1v-13l13-2 3 2v9l-4 8-8 5-4 1h-10l-10-3-12-1v6l-4 6-8 3h-4l-1-4 2-4v-6l-1-4 16-4-4-10-1-5v-14l3-9 7-8z" fill="#F0F5FD"/>
<path transform="translate(1157,481)" d="m0 0 2 2 7 17v2l-13 5-11 5-39 16-31 13h-4l-3-17v-4l37-15 19-8 22-9 13-5z" fill="#B4CDFD"/>
<path transform="translate(767,1121)" d="m0 0h11l3 2v17l3-1h16l6 3 4 6 1 3v10l-1 10v16l3 2-1 5-4 1h-10l-3-3v-23l1-17-2-4h-6l-3 1-3 10-1 7v17l4 4-1 5-10 2-5-1-3-5v-23l3-12 1-2-4-2-1-5v-16l-1-3 1-3z" fill="#F0F5FD"/>
<path transform="translate(1044,1129)" d="m0 0 12 1 5 4v6h8l5 2v10l-2 8h21v10l1 7-9 1-6-4-2-4v-3l-6 1-5 26v6l1 1v5l-3 1h-10l-3-2v-10l5-27h-7l-1 6-5 5-11 1-1-4 2-3 1-11 2-1h22l1-14h-15l-1-5 2-2-2-10z" fill="#F0F5FD"/>
<path transform="translate(1098,1477)" d="m0 0h102l7 15-1 3-107-1-1-4z" fill="#F8FAFD"/>
<path transform="translate(850,1133)" d="m0 0 8 1 2 2v8l-6 9-7 7-9 7-7 9-1 2v8l7 1h2l2-9 7-8 9-3 14-2h7v12l1 5-4 2-6-1-5-3-2-5-5 1-2 5-1 8-5 3-13 4-9 1-8-3-4-4-1-2v-10l5-10 11-11 10-8 4-5 1-4h-3v-5z" fill="#F0F5FD"/>
<path transform="translate(981,1442)" d="m0 0h40l2 6 6 26v3h-48l-1-1v-33z" fill="#D0E2FE"/>
<path transform="translate(651,1121)" d="m0 0h13l6 3 4 5 1 7-2 7-5 6-7 4-7 1 2 9 1 17 2 1v5l-1 1-12 1-3-2-1-3-1-20-4-11-2-6v-8l3-8 8-7z" fill="#F0F5FD"/>
<path transform="translate(1040,1570)" d="m0 0h67l11 2v18l-1 1h-69l-5-10-3-8z" fill="#B6CFFD"/>
<path transform="translate(1273,1494)" d="m0 0h47v36l-35 1-12-34z" fill="#D0E2FE"/>
<path transform="translate(1243,1569)" d="m0 0 1 2h68l2 1v19h-70l-7-17-1-4z" fill="#B5CEFD"/>
<path transform="translate(1057,562)" d="m0 0 6 2 19 10 22 12-2 6-4 10-8 5-8-5-22-11-19-10-1-3 3-5 10-6z" fill="#D1E2FD"/>
<path transform="translate(1018,238)" d="m0 0h1v301l11-4-2 16-10 12-28 12h-5l-3-4-4-10 1-5 5-3 16-6 15-6h3z" fill="#BBD2FD"/>
<path transform="translate(849,1028)" d="m0 0h36l7 1 1 1v25l-17-1-34-3-2-1v-20z" fill="#B4CDFE"/>
<path transform="translate(1255,1441)" d="m0 0 41 1v35h-30l-11-34z" fill="#D0E2FE"/>
<path transform="translate(1266,1591)" d="m0 0h29l4 10 7 21v3h-29l-11-31z" fill="#FE8B7B"/>
<path transform="translate(1069,1591)" d="m0 0h29l1 1 3 27v6h-29l-2-13z" fill="#FE8B7B"/>
<path transform="translate(1042,1127)" d="m0 0h18l65 3 11 1v10l-1-2-15-1-78-10z" fill="#407BFE"/>
<path transform="translate(1127,1143)" d="m0 0h7l1 1-1 19h-1v-8l-11-1-45-8-2-2z" fill="#407BFE"/>
<path transform="translate(1234,1028)" d="m0 0h1v85l-8-1 1-21z" fill="#CDE0FE"/>
<path transform="translate(1234,985)" d="m0 0h1l1 8v20h-24l2-4 10-11z" fill="#14365B"/>
<path transform="translate(556,1211)" d="m0 0 9 1 33 7 1 3-43 2-1-1v-7z" fill="#407BFE"/>
<path transform="translate(1211,460)" d="m0 0h6l6 13-1 6-13 5-6-16-1-4z" fill="#B4CEFE"/>
<path transform="translate(1157,481)" d="m0 0 2 2 7 17v2l-14 5-5-11-2-5v-3l11-5z" fill="#459FFE"/>
<path transform="translate(1096,1392)" d="m0 0h17v9l-1 2-10-1-33-7v-1l5-1z" fill="#407BFE"/>
<path transform="translate(1144,1338)" d="m0 0 2 3 10 29v2h-15v-10l2-22z" fill="#CEE0FE"/>
<path transform="translate(550,1281)" d="m0 0 40 6 13 2 2 2h-17l-39-1z" fill="#407BFE"/>
<path transform="translate(550,1118)" d="m0 0h4l-1 18-3 34-1 2h-4l4-47z" fill="#45A0FE"/>
<path transform="translate(1062,1616)" d="m0 0 5 1 4 7v6l-11 1-7-3 1-5h8l-2-5z" fill="#4184FB"/>
<path transform="translate(907,1143)" d="m0 0 5 1 1 1v9l-5 5-6 3h-2l1-10 3-6z" fill="#45A0FE"/>
<path transform="translate(655,1128)" d="m0 0 4 1 1 2v9l-5 6-5 1-1-4v-8l3-5z" fill="#45A0FE"/>
<path transform="translate(1265,1616)" d="m0 0 4 1 3 4 1 9-9 1-5-2-1-5 5-1h2l-1-6z" fill="#4188FE"/>
<path transform="translate(695,1134)" d="m0 0h3l-2 13-3 5h-5v-9l3-5z" fill="#45A0FE"/>
<path transform="translate(554,1071)" d="m0 0h4l-1 19-1 3h-4z" fill="#45A0FE"/>
<path transform="translate(731,1134)" d="m0 0h5l1 1-1 10-1 1h-5l-1-3z" fill="#45A0FE"/>
<path transform="translate(1011,1190)" d="m0 0h6l1 1-1 7h-5l-1-1z" fill="#45A0FE"/>
<path transform="translate(1006,1420)" d="m0 0 11 1 1 5-11-1z" fill="#CDE0FE"/>
<path transform="translate(1133,642)" d="m0 0h8l5 4v2l-4-1-9-2z" fill="#112A51"/>
<path transform="translate(1107,658)" d="m0 0h4l1 7-4 1-2-3z" fill="#10284F"/>
<path transform="translate(1134,654)" d="m0 0 4 2v6h-4l-1-1v-6z" fill="#10284F"/>
<path transform="translate(1055,1625)" d="m0 0 9 1 2 2-1 1h-8l-2-1z" fill="#EAF1FD"/>
<path transform="translate(1062,1618)" d="m0 0 5 1 2 4v3l-4-2-3-3z" fill="#E8F0FD"/>
<path transform="translate(1267,1625)" d="m0 0h6v5l-8 1v-2l3-1z" fill="#3B79FA"/>
<path transform="translate(1259,1625)" d="m0 0 8 1 2 2-1 1h-7z" fill="#E7EFFD"/>
<path transform="translate(1265,1618)" d="m0 0 4 1 2 3v4h-2l-4-6z" fill="#E4EDFD"/>
</svg>
