<?xml version="1.0" encoding="UTF-8"?>
<svg version="1.1" viewBox="0 0 2000 2000" width="2000" height="2000" xmlns="http://www.w3.org/2000/svg">
<path transform="translate(0)" d="m0 0h2e3v2e3h-2e3z" fill="#FDFDFD"/>
<path transform="translate(1008,401)" d="m0 0h419l2 1 1 54 50 8 59 9 5 2-5 34-6 39 9 3 14 6 16 6 33 13 18 7 12 5 48 19 3 2-1 5-26 66v3l17 12 20 14 15 11 17 12 16 11 5 4 19 13 18 13 16 11-1 5-8 12-13 18-10 14-9 13-6 9h-2l-2 5-8 11-11 16-26 36-13 19-2 2 12 2v4h-16l-8 11-7 10-12 17-8 11-11 16-11 15-11 16 71 1v4h-76l-2 5-14 19-24 34-10 14-1 2h-2l-2 5-13 18-9 13-3 6 5 2 15 10 17 11 22 14 11 8 1 1v15l-4 1-1-1v157l7 10 5 9v36h-13v341h25v-2h-2l-6-10-8-16v-8l3-3h7l5 3v2h2v-16l4-11 6-6 3-1h12l5 4 4 9 1 5 1 17 6-8 5-3h6l6 5 4 10 1 4 5-4 2-1h10l8 4 5 4 3 4v2h2l2-4 9-8 7-1 5 2 4 6v9l-3 12h12v4h-1645l-1-4h20v-2h-2l-3-5v-3h-2l-4-10v-8l3-2 6 1 3 2v-10l3-8 6-6h10l5 4 3 8 1 12 7-6 7 1 4 5 3 7 6-3 8 1 6 4 5 4 8-7 5-1 6 3 2 4v10l-2 4 4 1v-261h-15l-1-4 15-16 11-12 9-10 15-16 9-10 16-17 3-4h2l2-4 16-17 9-10 10-11 2-1h54v-763l1-1h152l1-6 6-10 8-6 9-3h51l1-11 3-8 8-9 10-5 5-1h40l10 3 8 6 6 8 2 7v10h52l11 4 7 6 6 12v3h152l1 1v145l-1 2 16-12 15-10 16-9 16-8 5-2 1-329z" fill="#1C242B"/>
<path transform="translate(1103,153)" d="m0 0h65l44 3 26 3 23 3 23 4 31 7 36 12 34 13 16 8 9 4 16 8 9 5 5 1v2l6 2 17 10 15 8 13 9 7 4 6 3v2l5 2 7 5 7 4 11 8 2 1v2l6 2 10 8v2l5 2 3 2v2l4 1 4 3v2l4 1 8 7 4 2 5 5 11 9v2l5 2 7 6 5 6 11 9 8 8 8 7 26 26v2h2v2h2l4 5 5 5 5 6 5 5 5 6 4 4 7 8 9 11v2h2v2l3 1 2 5 3 1 3 5 13 16 14 19 9 12 8 12 7 11 6 9 7 11 9 16 8 14 8 15 8 16 10 23 3 9 7 14 3 10 5 12 1 7 3 5 4 13 3 12 3 10 3 15 3 9 4 19 3 18 2 9 6 50 2 40v32l-1 27-4 41-4 28-3 15-6 28-2 5-2 11-3 12-2 5 2 4h10l3 1v2l4 2 2 5h-27l1 3-4 8-5 17-4 10h-2l-2 9-6 13-4 10h-2l-1 5-9 18-6 10-6 11-8 14-4 6h-2l-1 4-7 10-9 13-3 5-5 5-6 8-3 3h-2l-1 5-5 5-5 6-4 4-1 2h-2v2l-5 4-7 8-4 4h-2l-2 4-9 8-5 5-8 7-3 1-5 5-14 12-12 8h-2v2l-18 12-10 7-4 1v2l-11 7-5 3h-3l-1 2-1-18-6-11-6-8v-158l5 1v-15l-11-8-22-14-37-24 1-4 7-11 12-16 7-11h2l2-5 8-11 12-17 13-18 10-14 6-9h76v-4h-72l7-11 12-17 10-14 9-13 11-15 7-10 12-17 1-1h13l3 1v-4l-13-1 6-9 12-17 13-18 10-14 9-13 10-14 3-5h2l2-5 7-10 14-19 18-26 5-7 1-4-5-2-18-13-17-12-13-9-12-9-19-13-22-16-17-12-18-13-3-2 1-6 26-65v-3l-27-11-25-10-13-5-33-13-17-7-16-6-21-9 1-14 7-44 2-15-30-5-65-10-18-3-1-1v-54h-421l-1 329-16 8-19 10-18 12-14 11h-2v-147l-152-1-5-12-5-6-10-5-4-1-52-1-2-13-3-7-6-7-7-4-8-2h-40l-10 3-8 6-6 9-3 15-51 1-11 4-6 5-6 12-1 3-152 1-1 763-54 1-18 18-7 8-13 14-1 2h-2l-2 4-9 9-7 8-7 7-7 8-14 15-12 13-9 10-10 11v3l15 1v64l-4-1-12-12-5-6-3-2v-3l-4-2-4-5-4-4-5-7-4-4v-2l-3-1-4-7-4-6v-2l-3-1-12-20-7-11-2-5v-3h-2l-6-12-3-7-7-16-5-13-3-9-4-14-3-9-6-24-2-16-2-6-4-34-1-24v-27l2-36 4-29 3-20 5-22 4-16 5-17 2-9h2l1-8 5-16 3-9 3-5 6-17 6-13 9-21 17-34 7-16 8-16 2-5h2l1-5 5-10 7-15 9-18h2l1-7 10-19 3-5 8-18 8-15h2l1-6 8-16 6-10 3-7 8-16 5-8 7-14 7-13 10-18 8-13 3-7 13-22 5-10h2l2-5 6-11h2l1-4 10-17 12-19 9-14 6-10h2l1-4 6-8 2-4h2l2-5 8-12 8-11 12-18h2l2-5 10-13 11-16 5-5 2-3h2l2-4 1-3 5-5 3-4h2l2-4 7-9 5-6h2l2-5h2l2-4 9-10 7-8 8-10h2l2-4 4-4h2l2-4 4-4h2l1-4 8-7 4-5h3l1-4 10-9 3-3h2l2-4 6-5h2l1-3-374-1-1-1v-10l4-14 5-10h4l-2 6-4 10-2 13h380l1-4 14-11 10-9 11-9 5-4h2l1-3 6-4 14-11 8-6h3v-2l6-4h2v-2h3v-2l11-7 10-7 5-3 8-5h3l1-3 11-6 16-10 10-5h2v-2l18-9 15-8 11-5 37-16 16-6 19-7 35-11 17-5 33-8 25-5 22-4 49-6z" fill="#F3FCBF"/>
<path transform="translate(428,667)" d="m0 0h114l1 19 242-1 1-18h114v147l-8 10-13 21-12 24-6 17-4 10-5 21-3 13-1 11h-383v4h382l-1 11v34l2 20 2 12v3l-107 1v2l108 1 5 18 7 21 1 4-11 8-4 1v2l-17 12-11 8-17 12-4 3-58 1v2l50 1-5 5-18 13-10 7-16 12-14 10h-2v-6h-48l-1 42-5 4h-2v4l-2 1v15l26 1v26h-16l-1 51h16l1 1v81h-267z" fill="#FCFCFC"/>
<path transform="translate(1372,1111)" d="m0 0 5 5 9 14 12 17 9 14 8 11 7 11 4 5v3h2l11 17 2 5h2l6 9 3 5 15 22 3 4v3h2l11 17 10 14 11 17 12 17 7 11 6 8 3 5 16 24 2 5h2l15 23 12 17 7 11 2 5h2l5 8v342l-3 1h-86l-1-2 1-305 26-1v-31l-312-1 1 32 25 1v262l4 1-1-3v-259l1-1h14l1 1v271l3 1 1-272h232l1 1v304h-223l1-11-2-6-4-2-6 1-5 4-3 3-7-7-6-2-8 1-3 2-4-10-4-3-7 2-3 4h-2l-1-13-4-8-3-2h-8l-6 5-3 9-1 9-7-3h-3v10l8 15v2h-12v-365l11-3 5-4 12-20 16-27 14-23 1-2h2l1-4 6-10 10-17 15-25h2l1-5 5-7 6-11 5-8 17-28 8-13 10-17 5-7 6-11 16-27 7-10 6-11z" fill="#FCFCFC"/>
<path transform="translate(1494,637)" d="m0 0 5 2 17 13 9 6 18 13 9 6 15 11 9 6v2l5 2 17 12 18 13 12 8 7 5v2l5 2 6 4 10 7 15 11 12 8 13 10 3 3-3 5-2 7v21l4 9 6 8 2 4 4 2-1 4-7 10-13 18-6 9h-2l-2 5-12 17-10 14-12 17-13 18-12 17-8 11-4 6-13 18-4 6-7 10-2 3h-2l-2 5-4 6-9 12-13 19-11 15-7 10-13 18-4 6-13 18-7 10-4-1-13-8-33-22-8-5v-2l12-4 3-2h4v-2l11-6 11-8 7-6h2v-2h2l2-4 4-5 3-3 7-10 9-17 7-20 2-11v-36l-3-15-4-10-5-13-9-15-8-10-6-7-13-10v-2l-5-2-9-6-16-7-11-4-14-3-9-1h-21l-18 3h-5l-10-21-10-16-11-15-1-3-3-1-3-5-2-4 6-9h2l2-5 1-2h2l1-4 10-13 4-7h2l2-5 8-11 7-10 1-2h2l2-5 11-16h2l2-5 1-2h2v-3h2l2-5 12-17 8-11 8-12h2l2-5 3-4 10 3 1 1 7 1h15l9-3h2v-2l6-4 5-5z" fill="#FDFDFD"/>
<path transform="translate(1111,769)" d="m0 0h33l18 2 15 4 13 4 11 4 22 10 18 12 16 12 5 4 9 9v2l3 1 9 11 10 13 11 18 7 14 4 10 4 11 5 18 3 20 1 11v35l-5 29-6 20-6 13-6 14h-97l1-4 5-10 4-15v-29l-3-12-6-12-8-10-9-8v-2l-5-2-16-10-11-5-10-4-10-3-12-5-11-4-13-7-2-4-3-1-3-6v-14l3-8 1-2h2l2-4 4-3 5-2h18l12 5 8 8 3 6 2 10 1 14 3 1h48l8-3 1-2v-21l-3-17-8-16-7-8-5-5-11-7-10-5-15-4-12-3-1-24-1-3-10-2h-29l-1 4-1 25-15 3-18 7-12 9-5 5-6 7-7 12-3 11-2 15v11l2 16 4 9 4 8 7 9 9 9 6 4 16 10 16 8 20 8 21 9 10 7 6 7 1 2v13l-1 4h-2l-1 4-5 6-3 2h-3v2l-6 2h-20l-10-6-4-5-4-7-2-6v-17l-10-2-1-1h-47l-2 3h-2l1 28 3 15 4 10h-93l-7-16v-3h-2l-4-13-3-9-3-14-2-10-2-18v-19l2-23 6-26 6-19 4-8 4-10 6-11 7-11 6-8 2-3h2l1-4h2l2-4 5-5 9-10 8-7 6-5h2v-2l11-8 21-12 8-4 10-4 7-3 9-3 14-3 12-3z" fill="#FCFCFC"/>
<path transform="translate(1269,1475)" d="m0 0h232l1 1v304h-223l1-11-2-6-5-3v-10l-5-3z" fill="#FDFDFD"/>
<path transform="translate(699,1230)" d="m0 0h61v114l1 1h71l1-1v-114h69l1 116 72-1 1-115h69v114l1 1 70 1 2-2v-114h54v124l-16 26-5 8-451 1-1-1z" fill="#A1A1A1"/>
<path transform="translate(819,1592)" d="m0 0h144l10 3 11 7 13 10 19 14 16 12 13 9 27 13 8 4 7 8 3 8v37l-27 1-1 14h-14l-2-16-5-10-4-5-10-6-6-2h-47l-10 4-8 6-6 10-2 9v26h-220v-26l-2-9-7-11-8-6-9-3h-47l-10 4-7 5-6 9-3 11-1 10h-25l-1-1-1-15-1-3h-37l-2-1v-20l9-3 153-32 16-4 20-15 14-11 20-15 18-14z" fill="#D5FD06"/>
<path transform="translate(1459,548)" d="m0 0 5 1 15 11 14 10 20 14 18 13 17 12 28 20 17 12 14 10 17 12 18 13 20 14 18 13 34 24 18 13 17 12 20 14 18 13 10 7-2 5-13 18-36 51-13 18-12 17-20 28-12 17-10 14-12 17-10 14-13 18-13 19-11 15-14 20-13 18-12 17-13 18-14 20-13 18-10 14h-4l-22-14-5-5 11-16 13-18 12-17 13-18 13-19 11-15 12-17 13-18 12-17 10-14 12-17 13-18 13-19 11-15 12-17 10-14 12-17 11-15 1-5-5-2-8-9-5-12v-17l4-11 2-5-16-12-34-24-18-13-20-14-17-12-18-13-17-12-14-10-17-12-18-13-19-13h-2l-7 8-10 6-7 2h-14l-10-3-5-3-4 1-12 17-10 14-12 17-13 18-12 17-10 14-24 34-13 18-3 4-4-2-23-23 8-11 12-17 13-18 12-17 10-14 12-17 10-14 14-20 11-15 13-19 12-16 11-16 13-18 7-10z" fill="#D5FD03"/>
<path transform="translate(1116,715)" d="m0 0h31l21 2 17 3 13 3 27 9 22 10 20 11 15 10v2l5 2 11 9 9 7 10 10 1 3 3 1 6 8 5 5 3 4v2h2l6 9v2h2l6 9 6 11 9 17 3 7 5 14 4 9 4 17 4 16 3 22v49l-3 21-6 26-3 10-5 12-1 3h-54l2-6 10-24 5-16 4-20 1-8v-38l-1-17-2-10-7-26-5-12-9-20-12-19-12-15-7-8-5-5v-2l-4-2v-2l-4-2-9-8-6-4-9-7-21-12-15-7-23-8-31-6-18-1h-13l-26 2-24 5-19 7-9 3-16 8-14 8-14 10-13 11-16 16-11 14-9 13-12 21-5 13-4 10-5 19-4 22-1 11v37l3 20 4 16 4 13 10 22v2h-54l-5-13-4-15-3-11-3-15-2-16v-50l4-26 5-19 5-17 4-9 5-13 8-15 9-16 6-9h2l2-5 2-3h2l2-5 11-12 7-8h2v-2l4-4h2l1-3 5-4h2v-2l13-10h2v-2l14-9 13-8 16-8 11-5 21-7 4-2 34-7z" fill="#FBFCFC"/>
<path transform="translate(335,1413)" d="m0 0 4 2 6 6v2l4 2v2h2l7 8 12 12 7 8 12 12 7 8 13 13 7 8 18 18 7 8 15 15 11 1v145l-12 3-10 2-1 7-1 18-3 1v28h27l1 38h-44l-1-228h-126l-1 228h-60v-262l8-8 7-8 8-8 7-8 8-8 7-8 10-10 7-8 9-9 7-8 8-8 7-8z" fill="#A1A1A1"/>
<path transform="translate(1301,1503)" d="m0 0h168l3 2v175l-2 2h-170l-1-2v-174z" fill="#1E272D"/>
<path transform="translate(1297,459)" d="m0 0 14 5 33 13 149 59 30 12 38 15 116 46 4 2-3 10-16 40-7 18-5-2-17-12-14-10-17-12-14-10v-5l-20-9-36-26-17-12-20-14-18-13-16-11h-4l-2 5-14 20-6-1-38-15-45-18-3 1-6 10-7 7-13 6-13 1-9-2h-4l-23 58-12 30-33 84-6-1-22-7-7-2 3-9 12-31 12-30 15-38 19-48 12-30 11-28 18-45z" fill="#D5FD03"/>
<path transform="translate(1131,414)" d="m0 0 22 3 110 17 276 43-1 13-9 56-9-3-28-11-38-15-1-2-16-5-31-12-30-12-16-6-12-5-50-20h-4l-12 31-1 1-11-1-72-11-2 10-6 10-9 8-11 5-13 1h-4l-10 62-21 135-1 5-37 1 6-40 27-173 13-83z" fill="#D5FD03"/>
<path transform="translate(1398,865)" d="m0 0h10l18 2 18 5 13 6 11 6 13 10 6 5v2l4 2 11 14 8 14 6 14 4 13 2 11v32l-4 18-6 16-5 10-8 12-12 14-8 7-11 8-14 8-19 7-9-5-25-17-12-16-10-2 2-9 6-23 4-23 1-10v-46l-3-23-6-26-9-26-2-6 15-3z" fill="#D5FD02"/>
<path transform="translate(1011,405)" d="m0 0h414v51l-212-33-70-11-15-2-6 36-2 8h-32l-2 14-6 12-9 8-10 5-12 2-1 1-1 222-29 9-7 2z" fill="#D5FD02"/>
<path transform="translate(1351,539)" d="m0 0 7 1 20 8 19 7 7 3 25 10 8 4-2 4-6 9-13 18-24 34-13 18-12 17-14 20-12 17-2 3h-2l-2 5-8 12-9 12-12 17-9 12-3-1v-2l-4-2-10-7-13-8-16-9-19-9 1-4 6-17 4-8 4-12 3-6 5-14 5-12 10-26 4-10 5-11 6-17 5-11 5-14 4-9h23l8-2 8-5h2v-2l5-5z" fill="#FCFCFC"/>
<path transform="translate(471,1538)" d="m0 0h291v51l-59 1-8 4-11 9-17 13h-2v2l-15 10v-76h-73l-1 1v107l-9 3-31 6-15 3-12 3-22 4-11 3h-5z" fill="#FBFBFB"/>
<path transform="translate(1202,479)" d="m0 0 31 4 9 2 16 2 3 1 18 2v3l-4 12-6 13-6 16-5 14-5 11-4 11-5 12-5 14-5 11-6 15-8 21-5 12-5 14-3 6-3 7-3 10-5 11-5 13-1 1-13-1-19-3-33-2 3-22 3-19 3-23 4-22 4-26 4-25 5-32 4-26 1-3 16-2 7-3 11-8 5-5 5-11z" fill="#FCFCFC"/>
<path transform="translate(775,702)" d="m0 0h23l17 5 13 7v2l4 2 6 4 7 8 7 9 7 14 4 17v17l-2 14-5 14-12 18h-2l-2 4-7 5-3 3-15 9-13 4-5 1h-23l-21-5-5-3-8-5-10-8-5-5-2-4h-2l-6-9-6-13-3-11-1-7v-20l2-6 5-16 6-10 6-8 6-7 12-9 11-6 15-4z" fill="#1A232A"/>
<path transform="translate(1170,1417)" d="m0 0h2v363l-4 1-27-1v-101h-8l-1-1v-151l1-1 7-1v-30l-4-1h-193l-7-1 4-2 40-13 50-16 32-10 30-10 31-10 35-11z" fill="#A0A0A0"/>
<path transform="translate(566,603)" d="m0 0h196l10 4 5 5 4 7 1 3v60h-236v-60l4-9 5-4 4-4z" fill="#7C7C7C"/>
<path transform="translate(1381,1064)" d="m0 0 7 2 16 24 2 6h2l4 7 20 30 5 9 4 5 6 9 5 9 10 14 6 10v2h2l9 14 5 9 8 11 7 12 9 13 15 23 7 11 9 13 4 7 9 13v3h2l4 7 7 10 8 13 10 15 7 11 9 13 4 7 5 7v28l-4-4-10-16-6-8-5-9-9-13-10-16-8-11-5-9-22-33-10-16-17-26-13-20-15-23-11-17-6-8-5-9-7-10-7-11v-2h-2l-5-9-10-15-5-7-5-9-1-3h-2l-5-9-18-27-3-2-6 9-15 25-34 56-12 20-14 23-9 15-16 26-5 9-10 16-11 18-1 3h-2l-2 5-17 29-13 21-7 12-8 13-10 16-5 4-23 8-13 4-22 7-29 9-14 5-14 4-23 8-13 4-34 11-14 4-45 15-13 4-23 7-36 12-23 7-11 4-14 4-21 7h-3v-16l31-10 13-4 36-12 22-7 13-4 49-16 22-7 13-4 49-16 13-4 43-14 13-4 9-3 16-5 37-12h3l2-6 14-23 5-7 6-11 7-11 6-11 7-10 6-11 6-9 6-11 5-7 6-11 16-26 12-20 8-13 9-15 13-22 13-21 8-13 10-17 12-20 7-11 10-17 4-6z" fill="#F6F6F6"/>
<path transform="translate(891,1593)" d="m0 0h3l1 4v123l45 1 2 1v-10l5-10 8-9 9-5 7-2h60v-31h-132l-2-1v-55h64l10 4 13 10 20 15 14 11 15 11 2 4v36l-63 1-9 3-7 5-6 8-3 7-1 25-2 1h-44l-1-4 1-1h42v-7l-2 1h-45v10l-1 2h-155l-1-2-1-27-5-14-6-9v-5l13-12 11-10 5-1-1 5-10 9-8 7-4 4 2 6 4 7 4 11 1 11h147v-41l-2 1h-18l-3-3v-10l1-2h21v-11l-93 1-2 8-4 4-6 2h-17l-8-3-3-5v-7l-4-2 2-4 20-15 13-10 17-13 16-12h70v-5z" fill="#222A31"/>
<path transform="translate(1422,1112)" d="m0 0 4 2 16 10 7 5 7 4 10 7 13 8 10 7 20 13 15 10 7 4 10 7 12 8 7 4 27 18 8 5v152l-4-4-15-23-11-17-4-5-5-9-20-30-10-16-10-15-7-10-4-7-11-17-6-8-5-9-18-27-7-11-6-9-9-14-6-9-10-16-5-7z" fill="#FCFCFC"/>
<path transform="translate(1091,458)" d="m0 0h29l-2 13-3 19-2 13-3 19-3 23-3 16-4 28-5 29-3 23-3 17-4 28-3 15-1 10-1 2-24 4h-5v-219l15-3 3-2h3l1-3 6-4 7-10 3-6z" fill="#FBFBFB"/>
<path transform="translate(895,1592)" d="m0 0h68l10 3 11 7 13 10 19 14 16 12 13 9 27 13 8 4 7 8 3 8v37l-27 1-1 14h-14l-2-16-5-10-4-5-10-6-6-2-16-1 1-2h29l-1-36-1-4-4-2-12-9-18-14-24-18-10-6-4-1-64-1v55l134 1v31l-60 1-10 3-9 7-6 8-3 7-1 10-47-1-1-2v-126z" fill="#D5FD05"/>
<path transform="translate(889,1654)" d="m0 0h1v13l-22-1v14h22v41h-147l-4-18-5-10-3-5 2-4 9-9 8-7 7-5 4 4 6 2h17l8-3 3-8v-3z" fill="#D5FD02"/>
<path transform="translate(1345,1227)" d="m0 0h70l2 2v113l-1 2h-72l-1-2v-113z" fill="#1C252C"/>
<path transform="translate(1303,1141)" d="m0 0v3l-1 3h-2l-2 5-11 18-9 14-1 3h-2l-2 5-10 16-1 3h-2l-2 5-1 3h-2l-2 5-11 18-12 19-15 24-7 11-1 3h-2l-2 5-16 26-10 16h-1v-119l9-6 28-19 24-16 14-10 14-9 10-7 13-9 6-4 4-3h3v-2z" fill="#FBFBFB"/>
<path transform="translate(1242,1445)" d="m0 0h287v25h-287z" fill="#FBFBFB"/>
<path transform="translate(706,1592)" d="m0 0h106l-5 5-16 12-18 14-13 10-24 18h-108l1-3 6-4h2v-2l12-9 7-5h2v-2l14-10 5-4h2v-2l7-5h2v-2l15-10z" fill="#FAFAFA"/>
<path transform="translate(920,1497)" d="m0 0h217v25h-290l2-2 20-6 8-3 17-5 11-4 13-4z" fill="#FBFBFB"/>
<path transform="translate(1250,1474)" d="m0 0h14l1 1v271l7 2 2 2v9l-10 6-4 4-7-7-6-2-8 1-3 2-4-10-4-3-7 2-3 4h-2l-1-13-4-8-4-4 2-11 5-12 4-3h6l5 4 3 10v19l8-3 8 1 2 1-1-3v-259z" fill="#C2C4C4"/>
<path transform="translate(768,731)" d="m0 0h34l1 31 32 1v35l-32 1-1 31h-34v-32h-32l-1-1v-34h33z" fill="#D5FD02"/>
<path transform="translate(673,1216)" d="m0 0h497v10l-1 1h-496l-1-1v-9z" fill="#BEBFBF"/>
<path transform="translate(1094,1682)" d="m0 0h43v98h-70v-13h-13l1-31h7l1 5 40 1-1-25h-8z" fill="#FCFCFC"/>
<path transform="translate(831,1526)" d="m0 0h24l1 10 4 1v52h-94l-1-1v-49l1-1 30-1z" fill="#C9CBCB"/>
<path transform="translate(901,1603)" d="m0 0h58l9 3 16 12 9 7 32 24v2h-124z" fill="#FAFAFA"/>
<path transform="translate(821,1603)" d="m0 0h65v48h-92l-2-5-6-2-15-1 1-3 4-1v-2l6-4h2v-2l5-2v-2l6-4h2v-2l14-10z" fill="#FAFAFA"/>
<path transform="translate(964,1526)" d="m0 0h99l1 10 4 1v14l-71 1 1 20v35l-5-2-15-11-9-4-6-2v-61z" fill="#C9CACA"/>
<path transform="translate(1798,1065)" d="m0 0h16l11 4 5 5-1 2-15-6-11-1-11 3-9 6-7 10-3 10h-2l-5-5-5-2h-11l-10 5-4 8-2 6h132l-6-8-7-3-9 1-5 1-1-10 3-1 2 4h9l11 4 5 6h10l3 1v2l4 2 2 5h-256v-10l6-8 7-4h12l5 2 5-9 9-7 12-3 10 1 8 4 6 5 5 9v5l2-1 11 1 3 2 4-7 6-5 9-3h10l10 4 2-6 6-9 10-7z" fill="#1E272D"/>
<path transform="translate(1640,1716)" d="m0 0h6l6 4 3 8 1 6v30h3l1-5 6-11 4-5 6-2 5 5 3 9v19l3 1 3-12 4-6 4-2h7l8 5 7 8 3 3h2l2-4 7-8 5-3 5 1 3 3v13l-3 8h-116l-12-20-4-9v-5l4-1 8 7 4 4 1-4v-19l3-10 3-5z" fill="#D5FD04"/>
<path transform="translate(459,1516)" d="m0 0h207v18h-207z" fill="#FDFDFD"/>
<path transform="translate(404,1574)" d="m0 0h16v207h-16z" fill="#F7F7F7"/>
<path transform="translate(300,1574)" d="m0 0h16v207h-16z" fill="#F4F4F4"/>
<path transform="translate(335,1393)" d="m0 0 7 6 21 21 7 8 2 1v2l4 2 7 8 33 33v2l4 2 12 13 23 23v17l-7-6-7-7-7-8-14-14-7-8-14-14-7-8-8-8v-2l-4-2-1-3h-2l-7-8-10-10v-2l-4-2-9-10-10-10-3-1v2h-2l-2 4-13 13-1 2h-2l-2 4-9 9-7 8-8 8-7 8-10 10-7 8-8 8-7 8-8 8-7 8h-11l2-4 7-7 7-8 14-15 11-12 5-6h2l2-4 14-15 11-12 14-15 7-8 7-7 7-8z" fill="#C1C3C3"/>
<path transform="translate(1091,1526)" d="m0 0h13l1 10 4 1v125l-5 1v15l-1 1h-9l-3-7-1-8-4-2v-125l4-1v-9z" fill="#C8CACA"/>
<path transform="translate(883,390)" d="m0 0h17l13 4 8 5 2 4h-4l-7-4-10-4h-20l-13 5-9 7-5 5-6 12-2 8-4-2-8-5-6-2h-10l-10 3-4 4h-2l-6 12-2 6-7-6-2-2h-13l-5 1-2-9-5-10-5-5-7-5-10-3h-10l-10 3-9 7-6 8-3 11-4-2v-2l-9-3h-10l-9 4-5 7-3 8h311l-5-9-9-6-9-1-7 2-5 1-2-13h4l1 8 4-2h13l9 4 3 2v2h2l4 6 3-1h10l9 6 2 5h-341v-10l4-8 9-8 6-2h11l7 3 4 2 1-6 7-10 8-6 9-4 14-1 12 3 9 6 8 9 4 9v5l3-1h10l7 3 2 1 4-8 7-7 8-4 7-2h9l10 3 7 4 1-6 6-10 6-7 14-9z" fill="#1B232A"/>
<path transform="translate(619,1655)" d="m0 0h94v1l-59 12-91 19h-93v-1l82-17z" fill="#D5FD05"/>
<path transform="translate(745,1752)" d="m0 0h92l9 16v12h-102v-27z" fill="#A0A0A0"/>
<path transform="translate(1664,1673)" d="m0 0h8l5 5 3 4 3 14 1 24 5-2 4-2h11l5 4 3 7v26l-6-1h-10l-6 4-2 1-4-13-4-5-2-1h-6l-6 4-5 7h-1l-1-18-3-10-4-6-4-3 1-10 2-9 5-13z" fill="#D5FD02"/>
<path transform="translate(468,1163)" d="m0 0h49v51l-1 1h-48l-1-1v-50z" fill="#F7F7F7"/>
<path transform="translate(1354,1633)" d="m0 0h62l1 1v40h-63z" fill="#F5F5F5"/>
<path transform="translate(469,1070)" d="m0 0h48v52h-49v-50z" fill="#F6F6F6"/>
<path transform="translate(678,1070)" d="m0 0h48l1 2v48l-2 2h-45l-2-2z" fill="#F6F6F6"/>
<path transform="translate(469,978)" d="m0 0h48v51h-49v-50z" fill="#FAFAFA"/>
<path transform="translate(468,1256)" d="m0 0h48l1 1v50h-48l-1-1z" fill="#F7F7F7"/>
<path transform="translate(678,978)" d="m0 0h48l1 1v49l-1 1h-48z" fill="#FAFAFA"/>
<path transform="translate(925,1526)" d="m0 0h35v62l-2 1-38-1v-51h4v-10z" fill="#A0A0A0"/>
<path transform="translate(1354,1511)" d="m0 0h63v37l-1 1h-62z" fill="#F6F6F6"/>
<path transform="translate(671,1515)" d="m0 0h113l9 1v18h-123v-18z" fill="#C6C8C8"/>
<path transform="translate(644,569)" d="m0 0h40l11 4 8 8 4 13v5h-86l1-10 5-10 8-7z" fill="#7C7C7C"/>
<path transform="translate(222,335)" d="m0 0 3 1-2 6-4 10-3 14h520v4h-524v-10l4-14 5-10z" fill="#2A3237"/>
<path transform="translate(1355,1593)" d="m0 0h61v36h-61z" fill="#FDFDFD"/>
<path transform="translate(1355,1553)" d="m0 0h61v36h-61z" fill="#FDFDFD"/>
<path transform="translate(145,1734)" d="m0 0h7l4 4 2 6v25h3l2-6 6-9 4-2 5 5 1 4v17l3-1 3-10 4-4h7l6 4 4 5v2l4-1 7-8 2-1h6l1 2v9l-2 6h-85l-7-10-5-10v-5l4 1 5 6h3v-17l3-8z" fill="#D5FD05"/>
<path transform="translate(1201,1736)" d="m0 0h6l4 6 1 3v24l3 1 2-6 6-9 5-1 3 4 1 4v16h4l1-8 4-6 5-1 6 3 7 8h3l7-8 4-2 4 2v10l-2 4-7 1h-71l-4-1-8-13-3-7v-3l4 1 5 6h3v-15l3-10z" fill="#D7FD0E"/>
<path transform="translate(471,1741)" d="m0 0h38l1 9 5 12 6 8 7 6 6 4v1h-63z" fill="#F5F5F5"/>
<path transform="translate(300,1555)" d="m0 0h120v15h-120z" fill="#FAFAFA"/>
<path transform="translate(1685,1079)" d="m0 0h7l11 4 7 8 3 7v7l6-3h7l7 6v2h-99l2-6 6-7 6-2 8 1 5 4 3 1 1-6 6-9 9-6z" fill="#EDF5BD"/>
<path transform="translate(1407,1089)" d="m0 0 4 2 22 14 15 10 34 22 9 6 5 3 11 7 24 16 5 3 22 14 30 20 7 4 6 4v10l-12-7-10-7-16-10-13-9-16-10-10-7-14-9-17-11-16-11-9-5-16-11-16-10-15-10-6-5-8-12z" fill="#F0F0F0"/>
<path transform="translate(1424,1633)" d="m0 0h40l1 1v40h-41z" fill="#F5F5F5"/>
<path transform="translate(1307,1633)" d="m0 0h40v41h-41v-40z" fill="#F5F5F5"/>
<path transform="translate(569,1424)" d="m0 0h38l43 43v1h-38l-43-43z" fill="#7C7C7C"/>
<path transform="translate(453,1424)" d="m0 0h37l43 43v1h-38l-2-4-4-2-12-12v-2l-4-2-20-20z" fill="#7C7C7C"/>
<path transform="translate(1218,1705)" d="m0 0h6l5 4 3 10v19l8-3 8 1 4 4 2 17 4-5 6-5h7l3 3v9l-10 6-4 4-7-7-6-2-8 1-3 2-4-10-4-3-7 2-3 4h-2l-1-13-4-8-4-4 2-11 5-12z" fill="#D5FD04"/>
<path transform="translate(822,275)" d="m0 0 4 1 8 13 7 17 3 16v3l12-4 6-1h14l14 3 13 7 10 9 7 11 1 5 11-5 14-1 9 2 9 5 5 5 6 7v2h-200v-4l192-1-8-7-11-4h-12l-12 5-4 2-6-12-6-8-9-8-10-5-9-3h-21l-14 5-4 2-3-17-5-16-4-9-6-10v-2h-2z" fill="#1B242A"/>
<path transform="translate(371,263)" d="m0 0h24l12 3 8 3 13 7 10 7v2l3 1v2l3 1 8 10 6 11v3h2l4 13 1 7 8-1 5-1h14l12 4 9 7 3 2 2-7 8-13 5-7 3 1-1 4-7 10-5 11-2 9h-3l-1-3-3-1-5-5-11-6-4-1h-14l-11 3-5 2-3-15-5-14-6-11-11-13-10-8-19-9-15-3h-19l-14 3-16 6-5 2v2l-4 1v2l-8 6-8 10-6 10-5 12-2 10h-3l-1-3-11-7-8-4-6-1-23-1v2l-6 2h-4v2l-8 4-1 2-4-2 1-3 14-8 12-3h21l11 4 13 8 2-8 6-12 9-13 10-10 14-9 11-5z" fill="#272F35"/>
<path transform="translate(850,991)" d="m0 0h21l2 22 6 29 6 19 1 1v5l-19 1-3-7-4-12-4-13-5-26-1-7z" fill="#FAFAFA"/>
<path transform="translate(1306,1511)" d="m0 0h41v38h-41z" fill="#F6F6F6"/>
<path transform="translate(1424,1511)" d="m0 0h41v37l-1 1h-40z" fill="#F6F6F6"/>
<path transform="translate(1424,1593)" d="m0 0h41v37h-41z" fill="#F7F7F7"/>
<path transform="translate(1424,1552)" d="m0 0h41v37h-41z" fill="#F7F7F7"/>
<path transform="translate(1306,1552)" d="m0 0h41v37h-41z" fill="#F7F7F7"/>
<path transform="translate(164,1701)" d="m0 0h7l5 5 2 6 2 23 5-2h9l5 4 2 9-1 14-10-1-7 3-4-10-4-3-7 1-6 5-1-13-3-8-5-4 1-11 4-11z" fill="#D5FD03"/>
<path transform="translate(1307,1593)" d="m0 0h40v36h-40z" fill="#FCFCFC"/>
<path transform="translate(614,1558)" d="m0 0h28v50h-28z" fill="#F6F6F6"/>
<path transform="translate(1382,1234)" d="m0 0h28v50h-28z" fill="#F6F6F6"/>
<path transform="translate(1382,1287)" d="m0 0h27l1 1v49h-28z" fill="#F5F5F5"/>
<path transform="translate(1084,1236)" d="m0 0h27v50h-28v-49z" fill="#9D9D9D"/>
<path transform="translate(1052,1236)" d="m0 0h27l1 1v49h-28z" fill="#9F9F9F"/>
<path transform="translate(910,1236)" d="m0 0h27v50h-27l-1-1v-48z" fill="#9D9D9D"/>
<path transform="translate(799,1236)" d="m0 0h26l1 1v49h-28v-49z" fill="#9D9D9D"/>
<path transform="translate(768,1236)" d="m0 0h26l1 1v48l-1 1h-27v-49z" fill="#9D9D9D"/>
<path transform="translate(1083,1290)" d="m0 0h29l-1 49h-28z" fill="#9E9E9E"/>
<path transform="translate(1052,1290)" d="m0 0h28v49h-28z" fill="#9F9F9F"/>
<path transform="translate(798,1290)" d="m0 0h28v49h-28z" fill="#9E9E9E"/>
<path transform="translate(909,1290)" d="m0 0h28v49h-27l-1-1z" fill="#9E9E9E"/>
<path transform="translate(767,1290)" d="m0 0h28v48l-1 1h-27z" fill="#9E9E9E"/>
<path transform="translate(1317,1117)" d="m0 0 3 1-7 10-6 7-27 18-44 30-12 8-16 11-31 21-3 1v-9h2v-2l9-6 19-13 4-1v-2h3v-2l17-11h2v-2l15-10 4-1v-2l7-4 21-15h3v-2l11-7 24-16h2z" fill="#F1F1F1"/>
<path transform="translate(941,1236)" d="m0 0h27l1 4-1 46h-27z" fill="#A0A0A0"/>
<path transform="translate(1351,1234)" d="m0 0h27v50h-27z" fill="#FBFBFB"/>
<path transform="translate(583,1559)" d="m0 0h27v49h-27l-1-3z" fill="#FBFBFB"/>
<path transform="translate(941,1290)" d="m0 0h27l1 47-1 2h-27z" fill="#A1A1A1"/>
<path transform="translate(1351,1288)" d="m0 0h27v49h-26l-1-1z" fill="#FDFDFD"/>
<path transform="translate(990,1720)" d="m0 0h13l7 3 6 7 2 5-1 13h-2l-1 4-8 7-3 1h-11l-8-4v-2l-3-1-4-9v-8l4-9 3-3h2v-2z" fill="#F8F8F8"/>
<path transform="translate(671,1720)" d="m0 0h14l8 5 3 4 2 5v11l-6 10-9 5h-11l-6-3-3-3v-2h-2l-3-7v-10l3-8h2v-2h2v-2z" fill="#FAFAFA"/>
<path transform="translate(884,1526)" d="m0 0h12l1 10 4 1v51h-22v-51l3-1 1-9z" fill="#A1A1A1"/>
<path transform="translate(1113,1538)" d="m0 0h10v124h-10z" fill="#FEFEFE"/>
<path transform="translate(1072,1538)" d="m0 0h10v122l-4-1-6-3z" fill="#FDFDFD"/>
<path transform="translate(1754,979)" d="m0 0 4 1 8 15 5 16v5l9-3 13-1 13 3 10 6 5 5 5 6 2 3v3l8-3h16l8 4 5 5 4 5v2h-150v-4l142-1-9-6-3-1h-10l-9 4-4 1-3-8-7-9-9-6-6-3-6-1h-12l-11 4-4 1-4-18-7-16-4-6z" fill="#1B232A"/>
<path transform="translate(743,1729)" d="m0 0h147v8h-147z" fill="#D5FD02"/>
<path transform="translate(1087,843)" d="m0 0 4 1-13 6-11 7-7 7-7 11-5 11-3 13v25l5 16 4 8 10 13 14 11 15 9 51 22 12 7 5 5 3 2 3 6v12l-4 10-4 5-10 6-7 2 3-3 8-6 5-8 2-8v-9l-4-8-1-3-4-2-11-7-11-5-27-11-16-8-11-6-9-6v-2l-4-2-8-7-9-13-4-8-3-12v-26l4-15 6-11 3-5h2l2-4 5-5h2v-2l13-8z" fill="#EBECEC"/>
<path transform="translate(1238,798)" d="m0 0 5 2 15 11 10 9 12 11v2h2l7 8 9 12v2h2l11 18 8 15 8 21 6 23 2 11 1 12v40l-2 15-6 24-6 17-8 16-1 3h-5l9-21 3-8 7-25 3-19 1-12v-24l-3-26-6-24-3-10-5-11-5-12-11-19-14-19-4-4v-2l-4-2-8-9-8-7-14-11-8-6z" fill="#E3E3E3"/>
<path transform="translate(851,936)" d="m0 0h22l-2 13-1 38h-21v-33z" fill="#F6F6F6"/>
<path transform="translate(1e3 1555)" d="m0 0h67v15h-67z" fill="#F8F8F8"/>
<path transform="translate(612,1736)" d="m0 0h8l1 14 4 10 8 11 8 7 4 2v1h-59l3-3 8-6h2l2-4 6-10 3-7z" fill="#F2F2F2"/>
<path transform="translate(724,230)" d="m0 0h26l3 1v4h-30l-14 3-12 4-19 10-3 1v2l-5 2v2l-8 7-8 9-7 10-7 15-6 19h-2l-5-5-10-7-10-5-12-3h-21l-17 5-6 3h-3v-4l14-6 14-3h17l14 3 14 7 9 6v2h2l2-10 4-10 11-18 12-14 12-10 16-10 19-7 7-1 1-1z" fill="#272F35"/>
<path transform="translate(863,887)" d="m0 0h21l-2 9-5 16-3 19-1 1h-20v-8l4-17 5-15z" fill="#F8F8F8"/>
<path transform="translate(583,1612)" d="m0 0h27v31l-18 2-4 5-1 8h-4l-1-43z" fill="#FAFAFA"/>
<path transform="translate(722,1736)" d="m0 0h3v16h16v29h-43v-2l8-5 5-5 2-3h2l2-6 4-9z" fill="#F3F3F3"/>
<path transform="translate(1063,718)" d="m0 0h9l-4 2-22 6-12 5-17 7-22 12-15 10-13 10-3 1v2h-19v-2l8-6h3v-2l22-14 23-12 26-10 21-6z" fill="#EEEFEF"/>
<path transform="translate(614,1612)" d="m0 0h28v23l-16 12-5-1-2-2-5-1z" fill="#F8F8F8"/>
<path transform="translate(682,1167)" d="m0 0h41v6l-15 11h-2v2l-7 4-12 9-3 3h-2z" fill="#F6F6F6"/>
<path transform="translate(465,815)" d="m0 0h189v4h-189z" fill="#32393E"/>
<path transform="translate(466,776)" d="m0 0h187l2 3-1 1h-188z" fill="#31383D"/>
<path transform="translate(468,1163)" d="m0 0h49v51l-1 1h-48l-1-1v-50zm3 4v44h42v-44z" fill="#30373D"/>
<path transform="translate(881,847)" d="m0 0h21l-3 7-9 19-4 10h-20l1-6 7-16z" fill="#F7F7F7"/>
<path transform="translate(469,1070)" d="m0 0h48v52h-49v-50zm2 4v44h42v-44z" fill="#272F35"/>
<path transform="translate(469,978)" d="m0 0h48v51h-49v-50zm3 3v44h41v-44z" fill="#272E34"/>
<path transform="translate(678,1070)" d="m0 0h48l1 2v48l-2 2h-45l-2-2zm4 4v44h42v-44z" fill="#262E34"/>
<path transform="translate(678,978)" d="m0 0h48l1 1v49l-1 1h-48zm4 3-1 44h42v-44z" fill="#262E34"/>
<path transform="translate(468,1256)" d="m0 0h48l1 1v50h-48l-1-1zm4 3v45h41v-45z" fill="#272F35"/>
<path transform="translate(1730,1732)" d="m0 0h6l5 3 1 2v15l-8 3-8 7-2 3h-2l-5-7-4-4 1-5 6-9 8-7z" fill="#D5FD03"/>
<path transform="translate(864,1537)" d="m0 0h11l1 51-1 1h-11z" fill="#F0F1F1"/>
<path transform="translate(682,1259)" d="m0 0 12 1 1 1v43h-13z" fill="#F6F7F7"/>
<path transform="translate(905,1537)" d="m0 0h11v52h-11z" fill="#F5F5F5"/>
<path transform="translate(1616,1712)" d="m0 0h8l6 3-1 7-3 9-1 16h-2v-2l-5-2-9-1-1-1v-16l4-9z" fill="#D6FD09"/>
<path transform="translate(531,1303)" d="m0 0h114l1 4h-114z" fill="#32393E"/>
<path transform="translate(532,1211)" d="m0 0h114l-1 4h-114z" fill="#32393E"/>
<path transform="translate(532,1118)" d="m0 0h112l1 4h-114z" fill="#1A2329"/>
<path transform="translate(532,1025)" d="m0 0h112v4h-112z" fill="#192229"/>
<path transform="translate(974,1699)" d="m0 0 3 1-11 8-3 4h-2l-2 5-4 11-1 4v15l4 13 6 9 9 8 4 2-1 2-11-4-8-6-5-5v-2h-2l-5-10v-2l6-1v-30l3-9 9-8z" fill="#DCDCDC"/>
<path transform="translate(899,820)" d="m0 0h19l-1 4-10 15-2 4h-20l2-6 3-5h2l1-4z" fill="#F2F2F2"/>
<path transform="translate(385,1589)" d="m0 0h9l1 1v40h-10l-1-40z" fill="#C1C2C2"/>
<path transform="translate(370,1589)" d="m0 0h9v41h-10v-40z" fill="#C1C2C2"/>
<path transform="translate(339,1589)" d="m0 0h9l1 1v40h-10l-1-40z" fill="#BDBEBE"/>
<path transform="translate(324,1589)" d="m0 0h9l1 1v40h-10z" fill="#BDBEBE"/>
<path transform="translate(355,1589)" d="m0 0h8l1 1v40h-10v-40z" fill="#C0C2C2"/>
<path transform="translate(1224,1445)" d="m0 0h15v25l-5 1-11-1v-24z" fill="#C0C2C2"/>
<path transform="translate(1029,1771)" d="m0 0h34v10h-46l4-4z" fill="#EEEFEF"/>
<path transform="translate(529,1693)" d="m0 0h23v17h-24z" fill="#F5F5F5"/>
<path transform="translate(1094,982)" d="m0 0 6 2 28 12 18 8 10 6 5 5 3 2 3 6v12l-4 10-4 5-10 6-7 2 3-3 8-6 5-8 2-8v-9l-4-8-1-3-4-2-11-7-11-5-27-11-9-4z" fill="#E6E6E6"/>
<path transform="translate(453,1693)" d="m0 0h22v17h-23v-16z" fill="#F5F5F5"/>
<path transform="translate(632,1734)" d="m0 0 2 2v12l2 6 6 12v2l3 1 8 8 5 2-1 2-9-3-10-6-8-9-6-13v-14z" fill="#ECECEC"/>
<path transform="translate(1e3 1574)" d="m0 0h9v42l-5-2-4-3z" fill="#E9E9E9"/>
<path transform="translate(927,1771)" d="m0 0h25l9 7 4 2v1h-44v-6z" fill="#eee"/>
<path transform="translate(1614,1755)" d="m0 0 3 3 9 14 6 7 104 1 3-12 2-11-2-1 5 1 3 3v13l-3 8h-116l-12-20z" fill="#F1F9BF"/>
<path transform="translate(1043,1014)" d="m0 0 3 1-1 4v25l3 12 4 10v2h-5l-5-8-4-15v-29z" fill="#EDEDED"/>
<path transform="translate(1008,1666)" d="m0 0h21l1 1v12l-3 2h-17l-2-1z" fill="#1D262D"/>
<path transform="translate(213,1745)" d="m0 0h6l3 3 1 2v9l-9 4-6 5-7-7 2-6 5-7z" fill="#D5FD03"/>
<path transform="translate(478,1691)" d="m0 0h47v6h-47z" fill="#D7D7D7"/>
<path transform="translate(129,1730)" d="m0 0h6l4 2-1 5-2 7-1 10-5-2-7-2v-11l3-6z" fill="#D5FD04"/>
<path transform="translate(911,804)" d="m0 0h20l-2 4-7 9h-20l4-7 4-4z" fill="#F1F1F1"/>
<path transform="translate(1185,1732)" d="m0 0 7 1 2 1-1 6-2 7-1 9-7-3-4-1-1-8 3-8z" fill="#D6FD08"/>
<path transform="translate(690,1696)" d="m0 0h10l9 3 10 9 5 10 1 12-1 2h-2l-4-12-6-9-10-9-12-5z" fill="#D7FC11"/>
<path transform="translate(1139,883)" d="m0 0 6 1 10 6 6 7 4 9 1 4v15h-5l-1-1-2-17-4-10-5-6v-2l-5-2z" fill="#E6E6E6"/>
<path transform="translate(1107,1666)" d="m0 0h21v12h-19l-1-2z" fill="#F8F8F8"/>
<path transform="translate(1839,1038)" d="m0 0h10l8 4 5 5h-37l5-5z" fill="#E8EFBE"/>
<path transform="translate(164,1699)" d="m0 0 8 1 5 5 3 10 1 19 3-2 8-1 8 4 2 5v11l4-2 4-4 4-2 6 1 4 4v12l-2-1v-9l-1-4h-8l-5 2-2 4-5 9h-1v-15l-2-9-4-3h-9l-5 2-1-1-2-23-3-7-3-3h-7l-5 6-3 4 1-6z" fill="#F2FBBF"/>
<path transform="translate(1010,1696)" d="m0 0h9l9 3 10 9 5 10 1 10-2 3-5-12-6-9-8-7-10-5z" fill="#D7FD10"/>
<path transform="translate(1183,1731)" d="m0 0h6l-4 2-3 1-3 10 1 11v8l8 15v2h-12v-31l3-13z" fill="#F4F4F4"/>
<path transform="translate(1680,1682)" d="m0 0 2 3 3 12 1 19h3l5-2 11 1 5 3 3 7 1 21 4-6 8-8 3-1h8l5 3-1 3-3-3-2-1h-6l-6 4-7 8-3 6v4l-3-1v-27l-4-8-3-2h-11l-7 4-3-1-1-24-2-9z" fill="#F4FDC0"/>
<path transform="translate(972,1690)" d="m0 0h34l-1 2-31 1-10 4-8 6-6 10-2 9v17l-2-3v-22l5-10 5-6 9-6z" fill="#DFFD40"/>
<path transform="translate(939,777)" d="m0 0h17l-2 4-5 6h-20v-2z" fill="#F4F4F4"/>
<path transform="translate(478,1700)" d="m0 0h47v4h-47z" fill="#E3E4E4"/>
<path transform="translate(479,1708)" d="m0 0h46v4h-46z" fill="#F0F1F1"/>
<path transform="translate(1108,811)" d="m0 0h5v27l-6 1-1-7v-19z" fill="#DEDEDE"/>
<path transform="translate(221,1764)" d="m0 0h4l1 2v9l-2 6h-85l-6-8 1-2 6 8h78l3-11z" fill="#F3FCBF"/>
<path transform="translate(655,1699)" d="m0 0h2v2l-6 3-9 9-1 3h-2l-3 10-2 7h-2v-13l4-10 4-2v-2l12-6z" fill="#DADADA"/>
<path transform="translate(974,1699)" d="m0 0 3 1-11 8-3 4h-2l-2 5-4 11-2 6h-1v-17l3-6 8-7z" fill="#E8E9E9"/>
<path transform="translate(924,790)" d="m0 0 19 1-6 7-3 2h-17l2-4z" fill="#F8F8F8"/>
<path transform="translate(1742,1758)" d="m0 0 4 1 1 1v13l-3 7h-6l2-11z" fill="#F5F5F5"/>
<path transform="translate(1220,1703)" d="m0 0h5l6 7 2 7 1 17-1 2 7-3 6 1-1 2-9 1-4 1-1-19-3-10-4-3h-6l-4 4-5 13-1 9-3-1 4-16 4-8 4-3z" fill="#F4FDC0"/>
<path transform="translate(788,243)" d="m0 0 8 4 12 9 6 6-1 3-5-2-10-9-11-7z" fill="#1C252C"/>
<path transform="translate(1094,982)" d="m0 0 6 2 28 12 18 8 5 3-1 2-5-2-16-8-27-11-9-4z" fill="#A3A4A4"/>
<path transform="translate(1037,1760)" d="m0 0h14v7h-18l2-4h2z" fill="#EBEBEB"/>
<path transform="translate(1640,1716)" d="m0 0h6l2 2-1 1-1 11h-3l-7-8-2-2z" fill="#F3F6DF"/>
<path transform="translate(1108,1528)" d="m0 0h20v5h-20z" fill="#FDFDFD"/>
<path transform="translate(1067,1528)" d="m0 0h20v5h-20z" fill="#FCFCFC"/>
<path transform="translate(900,1528)" d="m0 0h20v5h-20z" fill="#FBFBFB"/>
<path transform="translate(859,1528)" d="m0 0h20v5h-20z" fill="#FEFEFE"/>
<path transform="translate(1729,955)" d="m0 0 5 2 15 12v2l-4 1-10-9-7-4z" fill="#232B31"/>
<path transform="translate(934,1760)" d="m0 0h10l4 5v2h-15v-6z" fill="#E6E7E7"/>
<path transform="translate(164,1699)" d="m0 0 8 1 5 5 3 10 2 21-3-1-2-23-3-7-3-3h-7l-5 6-3 4 1-6z" fill="#F4FDC0"/>
<path transform="translate(1272,1764)" d="m0 0 5 2v10l-2 4h-5z" fill="#DEE5BA"/>
<path transform="translate(1250,1735)" d="m0 0 4 4 2 13 5-6h3v2l-5 4-4 6-2-1-2-19-2-1z" fill="#F4FDC0"/>
<path transform="translate(555,1691)" d="m0 0h3v21l-3 1z" fill="#B1B1B1"/>
<path transform="translate(1063,718)" d="m0 0h9l-4 2-23 6v-4z" fill="#D6D6D6"/>
<path transform="translate(1614,1755)" d="m0 0 3 3 9 14 7 8v1h-5l-12-20z" fill="#EBF2C4"/>
<path transform="translate(1238,798)" d="m0 0 5 2 15 11 6 5-2 2-9-8-14-10z" fill="#9D9D9D"/>
<path transform="translate(223,1765)" d="m0 0 3 1v9l-1 3h-2v2h-2v-7z" fill="#ECEDED"/>
<path transform="translate(145,1734)" d="m0 0h7l-1 8h-3l-2-4-3-1z" fill="#F3F8D6"/>
<path transform="translate(1201,1736)" d="m0 0h6l1 2h-2v5h-4l-5-4z" fill="#EEF3D0"/>
<path transform="translate(1183,1731)" d="m0 0h6l-4 2-3 1-3 10 1 11-1 6h-1v-8l-1-10 3-9z" fill="#E3EBB8"/>
<path transform="translate(128,1729)" d="m0 0h7v1l-7 2-3 4-1 3v11l2 2h-4l-1-11 3-8z" fill="#F4FDC0"/>
<path transform="translate(1666,1671)" d="m0 0 7 1 5 4 2 3-1 3-4-5v-2l-3-1h-8l-8 6 2-4 4-4z" fill="#F4FDC0"/>
<path transform="translate(849,1772)" d="m0 0 4 2v2l5 2 2 2h-11z" fill="#DCDCDC"/>
<path transform="translate(1087,843)" d="m0 0 4 1-13 6-6 3-2-2 14-7z" fill="#ABACAC"/>
<path transform="translate(1263,817)" d="m0 0 4 2 13 12-2 3-10-11-5-5z" fill="#CFD0D0"/>
<path transform="translate(1130,998)" d="m0 0 5 1 16 8-1 2-5-2-15-8z" fill="#C3C4C4"/>
<path transform="translate(1075,973)" d="m0 0h5l14 9-2 1-14-7z" fill="#D5D6D6"/>
<path transform="translate(977,447)" d="m0 0h10l4 2v1h-16z" fill="#E6EDC0"/>
<path transform="translate(221,1764)" d="m0 0h4l-3 9-1 7h2l1-2v3h-8l3-5 2-11z" fill="#E4EBBC"/>
<path transform="translate(722,1736)" d="m0 0h3v16l-2-1-1-4z" fill="#B1B1B1"/>
<path transform="translate(1275,1767)" d="m0 0h1v10l-1 3-4-1 3-10z" fill="#FBFBFB"/>
<path transform="translate(1279,832)" d="m0 0 3 1 7 8 1 3-4-1-7-9z" fill="#E4E4E4"/>
<path transform="translate(1063,718)" d="m0 0h9l-4 2-11 2-3-2z" fill="#ACADAD"/>
<path transform="translate(1268,1745)" d="m0 0 6 2 1 1 1 13-3-1v-10l-5-3z" fill="#EFF8BF"/>
</svg>
