<?xml version="1.0" encoding="UTF-8"?>
<svg version="1.1" viewBox="0 0 2000 2000" width="2000" height="2000" xmlns="http://www.w3.org/2000/svg">
<path transform="translate(0)" d="m0 0h2e3v2e3h-2e3z" fill="#FCFCFC"/>
<path transform="translate(660,372)" d="m0 0h876l1 176 9 6 6 8 5 10 2 8v11l-4 17-7 20-4 10v7l4 8 11 10 8 7 7 7 6 10 1 4 3-9 2-5 1-6 19 1 6 2 12 2 8 2 11 2 8 2 17-3 5-2 20-4 9-1 7-1v7l-8 24-2 2-1 5-3 11-1 8-7 23-2 5-9 3-7-1-1 2-7 15-5 9h-2l-2 4-3 7-6 21-4 11 5 1v15l-6 1-7 20-8 14-10 11-8 4-10 1-10-4-8-7-10-13-10-18-8-16-8-18h-1l-3 22v129l6 23 5 22 3 13 5 26 3 21 2 13 2 15 3 28 2 30 2 31 1 5 2 58v103l-1 35v18l-8 2-20 2-34 1-6 41-9 48-8 34-9 35-5 19 3 7v24l-5 31h-3v-11l2-18-4 2-5 8-4 10-5 5-4 3-5 1h-14l-18-3-6-3 1-4 9-4 5-1 7-10 6-10 8-19 6-16 6-60 4-52 3-54v-5h-15l-45-3v100l11 3 17 5v14h-100l-1-12-14 29-8 16-8 15-3 6 2 19-3 19-8 29h-3l1-10 4-19-5 3-12 18-7 4-3 1h-10l-17-4-11-4-2-4 4-3 13-3 10-13 14-25 7-14 12-37 8-25 8-28 7-24 7-26 5-18 5-20-16-1-2-1 6-40 1-2 3-19 5-32 3-15 4-26 2-12 3-14 2-14 4-20 4-28 2-7 2-14 3-15 4-26 6-32h-516v46h-43l-1-5v-41h-12l-2 6-6 10h-9l8-16h-97l-1 7-7 26-4 13-20-3-22-5-13-4-1 34-3 16-8 55-9 50-1 3 18 1 33 4 24 5 28 8 16 7 11 7 12 11 5 10 2 12v24l-4 29-6 30-9 36-8 26-9 28-10 30-12-2-31-7-1 2-1 18 32 3v5l9 1 16 9 13 5 9 2 2 3-1 7-4 4-4 1h-30l-14-1-33-1 1 7 3 48v8h-27l-2-13-3-39v-8l-38-2-32-1-7-2-2-3 3-27 1-5h13l19 1 8 1v5l9 1 16 9 8 3-4-44-1-19-1-7-1-1-13 39-13-2-30-7-13-4 2-13 10-50 7-44 2-21 1-3h74v22l2 26 4 66 1 1 9-44 6-36 2-16 1-20 2-3v-15l-1-3-158-1-101-1-3-17v-5h36l-5-5-9-11-6-14-3-16v-16l2-15 4-16 4-20 12-46 1-2h80l-14-108v-3h-51l-1-28-1-6v-17l3-13 8-19 11-18 10-13 4 1v2l4 2 17 16 9 9-2 7 17 2 16 4 11 4 15 8 8 8 22 7 20 8 30 15 12 7z" fill="#D4E4FC"/>
<path transform="translate(660,372)" d="m0 0h876l1 176 9 6 6 8 5 10 2 8v11l-4 17-7 20-4 10v7l4 8 11 10 8 7 7 7 6 10 1 4 3-9 2-5 1-6 19 1 6 2 12 2 8 2 11 2 8 2 17-3 5-2 20-4 9-1 7-1v7l-8 24-2 2-1 5-3 11-1 8-7 23-2 5-9 3-7-1-1 2-7 15-5 9h-2l-2 4-3 7-6 21-4 11 5 1v15l-6 1-7 20-8 14-10 11-8 4-10 1-10-4-8-7-10-13-10-18-8-16-8-18h-1l-3 22-1 125-2-4-2-9h-2l-1-8h-2l-4-11-1-5h-2l-1-5-15-2-97-8-22-2-1-23-10-3-1-1-2-36v-76l1-2-28 8-24 6-17 3-18 1-16-4-27-10-24-11-26-12-5-2-2 4-12-6-2-2 1-9-5-1-17-10-9-5-29-2-14-3-6-4 1-31 1-5-15-15-7-8-7-6-7-8-14-14-7-6-7-8-47-47-3-2 6-5 3 5 65 65 9 7 7 8 21 21 8 7 5 3 10 3 17 9 9 7 5 3 25 9 7 3 2-5h12l4 1v9l10 4 21 7 43 13 23 5 9-1 16-8 28-15 24-14 15-9 21-2h6l2 1 1-5 4-12v-6l-6-9-7-11-4-11-2-14 2-10 5-8 9-10 4-9-1-9-3-13v-14l4-15 8-7 10-5 17-4 5-1h33l15 3 10 4v-134h-838v672h678v9l-1 11h-516v46h-43l-1-5v-41h-12l-2 6-6 10h-9l8-16h-97l-1 7-7 26-4 13-20-3-22-5-13-4-1 34-3 16-8 55-9 50-1 3 18 1 33 4 24 5 28 8 16 7 11 7 12 11 5 10 2 12v24l-4 29-6 30-9 36-8 26-9 28-10 30-12-2-31-7-1 2-1 18 32 3v5l9 1 16 9 13 5 9 2 2 3-1 7-4 4-4 1h-30l-14-1-33-1 1 7 3 48v8h-27l-2-13-3-39v-8l-38-2-32-1-7-2-2-3 3-27 1-5h13l19 1 8 1v5l9 1 16 9 8 3-4-44-1-19-1-7-1-1-13 39-13-2-30-7-13-4 2-13 10-50 7-44 2-21 1-3h74v22l2 26 4 66 1 1 9-44 6-36 2-16 1-20 2-3v-15l-1-3-158-1-101-1-3-17v-5h36l-5-5-9-11-6-14-3-16v-16l2-15 4-16 4-20 12-46 1-2h80l-14-108v-3h-51l-1-28-1-6v-17l3-13 8-19 11-18 10-13 4 1v2l4 2 17 16 9 9-2 7 17 2 16 4 11 4 15 8 8 8 22 7 20 8 30 15 12 7z" fill="#0057DE"/>
<path transform="translate(1385,911)" d="m0 0 22 1 108 9 5 2v5h2l5 13v3h2l1 8h2l5 17 6 23 5 22 3 13 5 26 3 21 2 13 2 15 3 28 2 30 2 31 1 5 2 58v103l-1 35v18l-8 2-20 2-34 1-6 41-9 48-8 34-9 35-5 19 3 7v24l-5 31h-3v-11l2-18-4 2-5 8-4 10-5 5-4 3-5 1h-14l-18-3-6-3 1-4 9-4 5-1 7-10 6-10 8-19 6-16 6-60 4-52 3-54v-5h-15l-45-3v100l11 3 17 5v14h-100l-1-12-14 29-8 16-8 15-3 6 2 19-3 19-8 29h-3l1-10 4-19-5 3-12 18-7 4-3 1h-10l-17-4-11-4-2-4 4-3 13-3 10-13 14-25 7-14 12-37 8-25 8-28 7-24 7-26 5-18 5-20-16-1-2-1 6-40 1-2 3-19 5-32 3-15 4-26 2-12 3-14 2-14 4-20 4-28 2-7 2-14 3-15 4-26 5-28 2-24h3v-8l4-19 4-29 6-32 3-20h-65v-4h67v-8l3-16h-70v-4h71z" fill="#76BDFA"/>
<path transform="translate(1467,553)" d="m0 0h19l15 3 1 17 4 17 5 12 6-2h8l5 5 1 2v9l-6 7-11 5-4 10-6 10-8 8-3 2-3 13v10l2 9 2 4 24 7 6 2 2-4 11 3 23 7 6 9v2l5-5 6-8 4-11 4-16 2-9 19 1 6 2 12 2 8 2 11 2 8 2 17-3 5-2 20-4 9-1 7-1v7l-8 24-2 2-1 5-3 11-1 8-7 23-2 5-9 3-7-1-1 2-7 15-5 9h-2l-2 4-3 7-6 21-4 11 5 1v15l-6 1-7 20-8 14-10 11-8 4-10 1-10-4-8-7-10-13-10-18-8-16-8-18h-1l-3 22-1 125-2-4-2-9h-2l-1-8h-2l-4-11-1-5h-2l-1-5-15-2-97-8-22-2-1-23-10-3-1-1-2-36v-76l1-2-28 8-24 6-17 3-18 1-16-4-27-10-24-11-26-12-5-2-2 4-12-6-2-2 1-9-5-1-17-10-9-5-29-2-14-3-6-4 1-31 1-5-15-15-7-8-7-6-7-8-14-14-7-6-7-8-47-47-3-2 6-5 3 5 65 65 9 7 7 8 21 21 8 7 5 3 10 3 17 9 9 7 5 3 25 9 7 3 2-5h12l4 1v9l10 4 21 7 43 13 23 5 9-1 16-8 28-15 24-14 15-9 21-2h6l1 3 20-3 23-1 2-7 1-16-11-3-8-5-6-7-4-9-2-9-1-19 2-21 5-8 6-15 1-1 9-1-2-2-4-1 2-4 7-5z" fill="#0079FB"/>
<path transform="translate(678,1084)" d="m0 0h97l-2 6-5 9h8l8-15h12l1 46h251l6 4 1 1v7l-2 4-5 2-16 1-1 21-4 4-3 1h-21l4 73 5 74 3 62 2 32 2 25 3 63 3 48 2 27 2 44 2 25v8h-27l-2-24-2-36-2-23-2-32-1-6-2-36-4-56-2-19-2-37-4-51-3-48-1-5-2-35-1-9-1-20-1-5-2-33-1-5-129-1v335l11 3 17 5v14h-89v124h-27l-1-125-1-75-1-196-1-85h-142l1-15 2-8v-11l1-17 1-6 11 2 16 4 20 4 8 2 2-9 6-23z" fill="#9FCDFD"/>
<path transform="translate(660,372)" d="m0 0h876l1 176 9 6 6 8 5 10 2 8v11l-4 17-7 20-4 10v7l4 8 11 10 8 7 7 7 6 10 1 4v7l-3 9-6 8-4 5h-2l-6-10-32-10-3 1-1 2-9-2-21-6-4-8-1-6v-10l3-13 12-11 8-15 2-5 12-6 4-5v-9l-2-4-3-2h-8l-6 2-4-8-4-13-2-9v-17l-8-1-7-1h-19l-15 4-8 6-1 2 6 1v3l-9 1-7 17-4 6-2 21 1 19 3 12 6 10 6 5 10 4 6 2-1 16-3 8-23 1-20 2 3-10 3-9v-6l-6-9-7-11-4-11-2-14 2-10 5-8 9-10 4-9-1-9-3-13v-14l4-15 8-7 10-5 17-4 5-1h33l15 3 10 4v-134h-838v672h678v9l-1 11h-516v46h-43l-1-5v-41h-12l-2 6-6 10h-9l8-16h-96l1-3-3-5-17-9z" fill="#454F58"/>
<path transform="translate(446,1057)" d="m0 0h1v25h51l2 10 12 94v7l-16 1-64-1-4 18-8 30-5 23-4 18-1 10v16l3 16 6 14 9 11 4 3v2h-36l3 22h123l134 1 4 4v15l-2 3-1 20-6 42-9 45-3 11-2-3-5-82-1-13v-12l1-7-34 1-40-1-1 3v-3h-13l-2 36-2 23-5 74-3 37-5 74-1 12h-26l-1-56-1-26-2-118-1-42-1-14h-65v9l-2 21-2 20-3 42-1 6-1 18-1 7-1 17-2 20-6 77-2 19h-27l1-26 1-10 2-41 4-59 3-51 2-45 1-17 1-7h-25l-4-4-1-4v-8l3-6 5-2h4l-2-16-4-26-2-21-2-9-2-20-4-23-4-35-2-8-1-14-2-11-18 1-2-5-8-64-5-37v-6l125-1z" fill="#B7D9FD"/>
<path transform="translate(509,1270)" d="m0 0h11l23 2 20 2 24 2h9l44 5 24 5 28 8 16 7 11 7 12 11 5 10 2 12v24l-4 29-6 30-9 36-8 26-9 28-10 30-12-2-31-7-1 2-1 18 32 3v5l9 1 16 9 13 5 9 2 2 3-1 7-4 4-4 1h-30l-14-1-33-1 1 7 3 48v8h-27l-2-13-3-39v-8l-38-2-32-1-7-2-2-3 3-27 1-5h13l19 1 8 1v5l9 1 16 9 8 3-4-44-1-19-1-7-1-1-13 39-13-2-30-7-13-4 2-13 10-50 7-44 2-21 1-3h74v22l2 26 4 66 1 1 9-44 6-36 2-16 1-20 2-3v-15l-1-3-10-2-3-12-2-4-4-4-6-2-110-1-3-1-2-11-9-65z" fill="#192228"/>
<path transform="translate(1587,671)" d="m0 0 19 1 6 2 12 2 8 2 11 2 8 2 17-3 5-2 20-4 9-1 7-1v7l-8 24-2 2-1 5-3 11-1 8-7 23-2 5-9 3-7-1-1 2-7 15-5 9h-2l-2 4-3 7-6 21-4 11 5 1v15l-6 1-7 20-8 14-10 11-8 4-10 1-10-4-8-7-10-13-10-18-8-16-8-18h-1l-3 22-1 24-2 16-1 19-2 9-2 2-11 1v-19l-9-21-7-24-3-23v-32l3-25 6-25 9-25 7-16 4-2 32 10 6 9v2l5-5 6-8 4-11 4-16z" fill="#007AFC"/>
<path transform="translate(377,1360)" d="m0 0h1l1 10v6h143l134 1 4 4v15l-2 3-1 20-6 42-9 45-3 11-2-3-5-82-1-13v-12l1-7-34 1-40-1-1 3v-3h-13l-2 36-2 23-5 74-3 37-5 74-1 12h-26l-1-56-1-26-2-118-1-42-1-14h-65v9l-2 21-2 20-3 42-1 6-1 18-1 7-1 17-2 20-6 77-2 19h-27l1-26 1-10 2-41 4-59 3-51 2-45 1-17 1-7h-25l-4-4-1-4v-8l3-6 5-2h4l-1-4z" fill="#B7D9FD"/>
<path transform="translate(776,456)" d="m0 0 5 2 19 12 11 7 13 8 30 19 18 11 17 11 18 11 11 7 13 8 11 7 2 1v2l4 1 11 7 18 11 33 21 13 8 7 5 5 3 6 2 10 10v2h-261v-14h-14z" fill="#D4E4FC"/>
<path transform="translate(1411,705)" d="m0 0 3 3 8 11 2 4 4 2 9 6 13 4h15l17-4 15-6 15-8 7-4-12 36-5 25-2 18v32l3 23 7 24 9 21-1 19 2-1 9-1 2-5 1-5 1-19 2-16h1v101l-2-4-2-9h-2l-1-8h-2l-4-11-1-5h-2l-1-5-15-2-97-8-22-2-1-15-1-30v-15l9-30 9-26 4-18 2-12 3-37z" fill="#192228"/>
<path transform="translate(432,1193)" d="m0 0h66l6 42 5 37 3 18 8 59v3l113 1 7 3 1 3 4 2 3 9v6h6v1h-154l-101-1-3-17v-5h36l-5-5-9-11-6-14-3-16v-16l2-15 4-16 4-20 12-46z" fill="#73BBFA"/>
<path transform="translate(558,1400)" d="m0 0h74v22l2 26 4 66 1 6-1 11 9 2 1 4-1 18 32 3v5l9 1 16 9 13 5 9 2 2 3-1 7-4 4-4 1h-30l-14-1-33-1 1 7 3 48v8h-27l-2-13-3-39v-8l-38-2-32-1-7-2-2-3 3-27 1-5h13l19 1 8 1v5l9 1 16 9 8 3-4-44-1-19-1-7-1-1-13 39-13-2-30-7-13-4 2-13 10-50 7-44 2-21z" fill="#9ECCFC"/>
<path transform="translate(1321,1403)" d="m0 0 17 1 19 2 11 1 3 1h10l19 2v100l11 3 17 5v14h-100l-1-12-14 29-8 16-8 15-3 6 2 19-3 19-8 29h-3l1-10 4-19-5 3-12 18-7 4-3 1h-10l-17-4-11-4-2-4 4-3 13-3 10-13 14-25 7-14 12-37 8-25 8-28 7-24 7-26 10-36z" fill="#DA775A"/>
<path transform="translate(796,1175)" d="m0 0h44v335l11 3 17 5v14h-88l-1-1v-10l1-6 15-5z" fill="#464F55"/>
<path transform="translate(1459,519)" d="m0 0h33l15 3 12 5 8 6 5 10v3l5 2 9 6 6 8 5 10 2 8v11l-4 17-7 20-4 10v7l4 8 11 10 8 7 7 7 6 10 1 4v7l-3 9-6 8-4 5h-2l-6-10-32-10-3 1-1 2-9-2-21-6-4-8-1-6v-10l3-13 12-11 8-15 2-5 12-6 4-5v-9l-2-4-3-2h-8l-6 2-4-8-4-13-2-9v-17l-8-1-7-1h-19l-15 4-8 6-1 2 6 1v3l-9 1-7 17-4 6-2 21 1 19 3 12 6 10 6 5 10 4 6 2-1 16-3 8-23 1-20 2 3-10 3-9v-6l-6-9-7-11-4-11-2-14 2-10 5-8 9-10 4-9-1-9-3-13v-14l4-15 8-7 10-5 17-4z" fill="#1A2329"/>
<path transform="translate(749,1175)" d="m0 0h32v85l-1 220v33l2 2h-2l-1 141h-27l-1-125-1-75-1-196z" fill="#9FCDFD"/>
<path transform="translate(1587,671)" d="m0 0 19 1 6 2 12 2 8 2 11 2 8 2 17-3 5-2 20-4 9-1 7-1v7l-8 24-2 2-1 5-3 11-1 8-7 23-2 5-9 3-7-1-1 2-7 15-5 9h-2l-2 4-3 7-6 21-4 11-23-3-15-2-3-8-8-27-6-19-1-5h-10l-7-1 1-10 4-16-1-5-3-7 1-5 8-10 3-6 5-21 2-5z" fill="#77BEFA"/>
<path transform="translate(562,856)" d="m0 0h12l13 4 6 4 8 9 4 11 1 6v13l-3 12-6 12-5 1-3 6h-2l-4-6-7-2-6 4-1 2v12l5 10 1 4-11 12-7 7-13 9-11 2h-14l-16-4-7-5-7-8-7-11-5-11-5-16-3-15v-15l4-13 7-11 9-8 16-8 17-4 23-1h7z" fill="#192229"/>
<path transform="translate(1467,553)" d="m0 0h19l15 3 1 17 4 17 5 12 6-2h8l5 5 1 2v9l-6 7-11 5-4 10-6 10-8 8-3 2-3 13v10l2 9 2 4 24 7 5 2-3 10-19 11-16 7-14 4-6 1h-15l-13-4-9-6-5-5-7-8-4-7-1-11 5-2 16-2 23-1 2-7 1-16-11-3-8-5-6-7-4-9-2-9-1-19 2-21 5-8 6-15 1-1 9-1-2-2-4-1 2-4 7-5z" fill="#DA775A"/>
<path transform="translate(678,1084)" d="m0 0h97l-2 6-5 9h8l8-15h12l1 46h251l6 4 1 1v7l-2 4-5 2-16 1-2 2-1-2-301-1-7-1-2-4v-7l-23-1-7-2-1-2-16-4-3-2 1-13z" fill="#B8DAFD"/>
<path transform="translate(1173,748)" d="m0 0 5 1 7 3 2-4 5 2 32 15v35h73v8l-3 13-7 14-9 12-4 4h-2v2l-11 7-8 4-13 4-8 1h-13l-14-3-15-6-11-8-8-8-9-13-5-13-2-8-1-18 3-16 5-12 7-11z" fill="#D4E4FC"/>
<path transform="translate(495,1400)" d="m0 0h49l-2 36-2 23-5 74-3 37-5 74-1 12h-26l-1-56-1-26-2-118z" fill="#76BDFB"/>
<path transform="translate(1461,1414)" d="m0 0h19l28 1 1 1-1 13-5 33-9 47-10 42-11 40 3 8v24l-5 31h-3v-11l2-18-4 2-5 8-4 10-5 5-4 3-5 1h-14l-18-3-6-3 1-4 9-4 5-1 7-10 6-10 8-19 6-16 6-60 4-52 3-54z" fill="#DA775A"/>
<path transform="translate(669,1117)" d="m0 0h1v8l13 4 6 2v2l7 1 24 1v8l1 4 308 1 2 4-1 7h-295l2 9 3 5-3 1h-131l1-14 2-8v-11l1-17 1-6 11 2 16 4 20 4 8 2 2-9z" fill="#76BEFA"/>
<path transform="translate(397,1400)" d="m0 0h31v16l-2 27-1 7-3 42-1 6-1 18-1 7-1 17-2 20-6 77-2 19h-27l1-26 1-10 2-41 4-59 3-51 2-45 1-17z" fill="#9FCDFD"/>
<path transform="translate(558,1400)" d="m0 0h40l3 34 5 61v7l-14 42-13-2-30-7-13-4 2-13 10-50 7-44 2-21z" fill="#192229"/>
<path transform="translate(415,1261)" d="m0 0 25 2 44 4 4 2 11 79v4l-2 1h-64l-8-6-8-11-5-12-3-16v-16l2-15z" fill="#192228"/>
<path transform="translate(578,1035)" d="m0 0 15 1 25 10 30 15 10 6 5 1 14 7 3 3 1 4-2 2-8 28-4 15-1 3-20-3-22-5-24-7-9-4-12-7-6-10-3-12-1-7v-15l3-16 4-6z" fill="#007AFC"/>
<path transform="translate(1371,1408)" d="m0 0h10l19 2v100l11 3 17 5v14h-100v-13l10-4 16-5h2v-61l13-36z" fill="#464F55"/>
<path transform="translate(678,1084)" d="m0 0h97l-2 6-5 9h8l8-15h12l1 45-2 1h-44v-2l-2 1-25 2-4 2-8 1h-13l-10-2-6-2-13-4-1-4 2-13z" fill="#F7907D"/>
<path transform="translate(795,1174)" d="m0 0h1v336l-8 3-8 1-1-1v-33l1-220 2-85z" fill="#FCFCFC"/>
<path transform="translate(374,1193)" d="m0 0h57l-1 10-11 42-4 19-4 18-1 10v16l3 16 6 14 9 11 4 4h-37l-4-33-3-18-3-24-6-43-4-27z" fill="#FBFBFC"/>
<path transform="translate(1030,1152)" d="m0 0h1v18l-4 4-3 1h-21v5h-1v-5h-29l-4 1-187-1v35h-1v-35h-32v9h-1v-9h-142v-1l131-1 2-1-4-6v-7h295z" fill="#B9DAFD"/>
<path transform="translate(432,1193)" d="m0 0h45l2 7 9 66-1 3-13-2-42-4-15-1-1-1v-7l9-36 6-23z" fill="#0057DE"/>
<path transform="translate(356,1193)" d="m0 0h15l2 1 3 14 5 32 5 38 5 37 3 24 1 14h37v1h-36l3 22h101v1h-102l-19-1-1-9v-7h-2l-4-26-2-21-2-9-2-20-4-23-4-35-2-8-1-19v-5z" fill="#78BEFB"/>
<path transform="translate(985,556)" d="m0 0 4 5 65 65 9 7 7 8 21 21 8 7 5 3 10 3 17 9 9 7 5 3 25 9 7 3 1 3-5 26-5 1-9-6-18-10-29-2-14-3-6-4 1-31 1-5-15-15-7-8-7-6-7-8-14-14-7-6-7-8-47-47-3-2z" fill="#DA775A"/>
<path transform="translate(576,925)" d="m0 0 7 2 4 5v2l2-1 3-7 4 2 1 3v29l-4 15-5 9-7 8-9 6-12 5-6 2-2 8h-7l-9-3-16-3-9-1-2-1 1-7-17-17-8-7-4-3-1-5 4-4 9 13 3 2v2l4 2 5 3 14 3h14l13-3 13-10 12-12 3-4-1-4-5-10v-12l4-5z" fill="#F6907C"/>
<path transform="translate(772,449)" d="m0 0 4 2 17 10 15 9v2l5 2 18 11 32 20 22 14 13 8 11 7 40 25 19 12 24 15 11 7 24 15 4 2 7 8-3 1-9-6-16-10-19-12-14-9-15-9-14-9-4-2v-2l-6-2-10-7-14-8-9-6-16-10-22-14-13-8-22-14-21-13-19-12-16-10v162h14v14l262-1 4 5h-284z" fill="#B3C0C8"/>
<path transform="translate(1706,671)" d="m0 0h3v7l-8 24-2 2-1 5-3 11-1 8-7 23-2 5-9 3-7-1-1 2 1-8 2 1 1-11-2-2-26-1 1-11 6-27 3-13 1-2 7-2v-1l18-4 8-1 8-3 10-2z" fill="#017BFC"/>
<path transform="translate(1632,741)" d="m0 0 35 1 3 3-1 10-3 9-10 20h-2l-2 4-3 7-6 21-4 11-23-3-7-1-1-3 15-29 1-4v-23l2-15 3-6z" fill="#DA775A"/>
<path transform="translate(520,1352)" d="m0 0 113 1 7 3 1 3 4 2 3 9v6h-125l-3-17z" fill="#007AFC"/>
<path transform="translate(749,1175)" d="m0 0h32v85h-32z" fill="#76BEFA"/>
<path transform="translate(640,1556)" d="m0 0h16l23 2v5l9 1 16 9 13 5 9 2 2 3-1 7-4 4-4 1h-30l-14-1-31-1-2-1-2-25z" fill="#19232A"/>
<path transform="translate(477,968)" d="m0 0 4 1v2l4 2 17 16 9 9-2 7 17 2 16 4 11 4 15 8 3 5v3l-35-7-40-10 1-4 2-4h-3l-2 4-2 2-9-1h-15l-8 3-4 2v2l-4 1-2 5-3-1 1-5 8-19 11-18z" fill="#0079FB"/>
<path transform="translate(539,1556)" d="m0 0h13l19 1 8 1v5l9 1 16 9 8 4 1 3 1 15h-25l-13-1-32-1-7-2-2-3 3-27z" fill="#192329"/>
<path transform="translate(432,1352)" d="m0 0h67l3 16v8h-103l-3-17v-5h36z" fill="#0079FB"/>
<path transform="translate(796,1084)" d="m0 0h44v46h-43l-1-5z" fill="#192228"/>
<path transform="translate(551,789)" d="m0 0 4 1 1 1v22l-3 15-6 8-2 8-1 13-7 2-17 1v-7l3-15v-10l-1-4 1-16 2-10 4-3 15-5z" fill="#F7907C"/>
<path transform="translate(656,1399)" d="m0 0h1v20l-6 42-9 45-3 11-2-3-5-82-1-13v-12l2-7z" fill="#FBFCFC"/>
<path transform="translate(605,1504)" d="m0 0 2 2 1 7 2 30 2 24v9l-6-1-15-8-5-2-7-2v-5l-27-1-6-2 1-18 2-3 43 10 2-9 10-30z" fill="#F6F9FB"/>
<path transform="translate(1469,1599)" d="m0 0h7v24l-5 31h-3v-11l2-18-4 2-5 8-4 10-5 5-4 3-5 1h-14l-18-3-6-3 1-4 9-4h16l9-3 2-4 13-21 9-10z" fill="#1A242C"/>
<path transform="translate(1584,764)" d="m0 0 16 1 24 3 1 20-9 19-8 15h-7l-3-8-8-27-6-19z" fill="#F9FAFC"/>
<path transform="translate(1291,1600)" d="m0 0 5 1-2 18-6 24-3 10h-3l1-10 4-19-5 3-12 18-7 4-3 1h-10l-17-4-11-4-2-4 4-3 7-2 7 1h12l9-4 10-10 9-10 7-7z" fill="#1B252D"/>
<path transform="translate(678,1084)" d="m0 0h97l-2 6-6 10-12 3h-16l-25-3-10-3-15-7-6-3h-3l-6 18-1-3z" fill="#F9FAFB"/>
<path transform="translate(1172,746)" d="m0 0 3 2h-2l-2 4-7 10-5 11-3 11-1 16 2 15 5 14 7 11 11 12 10 7 15 6 14 3h13l11-2 15-5 11-7 3-1v-2l7-6 9-13 6-14 3-18h-73v-34l4 1v29h69v-7h3v19l-4 16-8 16h-2l-2 4-7 8-10 8-14 7-13 4-8 1h-13l-15-3-12-5-11-7-11-10v-2h-2l-10-16-4-11-2-8v-26l5-16 7-13 5-7z" fill="#B3C1C8"/>
<path transform="translate(544,1400)" d="m0 0h13v15l-5 36-11 58-4 19-2-1v-12l4-56 2-23 2-33z" fill="#F7F9FB"/>
<path transform="translate(985,556)" d="m0 0 4 5 65 65 9 7 7 8 21 21 8 7 5 4v2l4 2 13 13-3 5-4 1-19-19-7-8-9-9-7-8-7-6-7-8-14-14-7-6-7-8-47-47-3-2z" fill="#1E282F"/>
<path transform="translate(1228,768)" d="m0 0 5 1 27 11 19 6 6 1h15v2h-3v7h-69z" fill="#CFE2FC"/>
<path transform="translate(840,840)" d="m0 0h232v4h-232z" fill="#B4C1C8"/>
<path transform="translate(840,788)" d="m0 0h232v4h-232z" fill="#B4C1C8"/>
<path transform="translate(840,736)" d="m0 0h232v4h-232z" fill="#B4C1C8"/>
<path transform="translate(1355,1451)" d="m0 0h1v59l-11 4-13 4h-4l3-9 12-28 11-27z" fill="#FAFBFB"/>
<path transform="translate(1526,699)" d="m0 0 11 3 23 7 6 9 5 13 1 5-2 2-2-7-5-13-3-5-11-5-13-3-3-2-7-1-3 10-3 6h-2l1 3-5 12-6 19-5 28-1 5-1 15v16l2 21 4 18 3 10 7 19 4 7 3 7 2 7h3v-11l2-20 4-37 1-5h1l-1 32-2 16-1 19-2 9-2 2-11 1v-19l-9-21-7-24-3-23v-32l3-25 6-25 9-25 7-16z" fill="#0057DE"/>
<path transform="translate(1179,701)" d="m0 0h12l4 1-2 12-7 38-2 1-12-7-1-1 1-10 6-30z" fill="#1A242B"/>
<path transform="translate(1600,821)" d="m0 0 36 5 8 2v15h-7l-40-6-4-2z" fill="#1A2329"/>
<path transform="translate(1535,864)" d="m0 0h1v101l-2-4-2-9h-2l-1-8h-2l-4-11-1-5h-2l-2-6v-11l2-1 9-1 2-5 1-5 1-19z" fill="#464E55"/>
<path transform="translate(648,1534)" d="m0 0 24 5 11 3 1 5-3 6-1 5-24-1-9-1-1-1 1-18z" fill="#F5917E"/>
<path transform="translate(548,1534)" d="m0 0 28 6 8 3-1 5h-2l-1 10-28-1-6-2 1-18z" fill="#F5917D"/>
<path transform="translate(599,1400)" d="m0 0h33v20h-32l-1 2-1-21z" fill="#71BAF9"/>
<path transform="translate(1132,452)" d="m0 0h160v4h-160z" fill="#B4C1C8"/>
<path transform="translate(397,1400)" d="m0 0h31v16l-1 4h-31v-18z" fill="#75BDFA"/>
<path transform="translate(1132,568)" d="m0 0h156v4h-156z" fill="#B4C1C8"/>
<path transform="translate(1132,596)" d="m0 0h152v4h-152z" fill="#B4C1C8"/>
<path transform="translate(1407,691)" d="m0 0 5 1 1 3-1 1-1 32-3 37-5 27-7 20-11 35-1 4v37l-10-3-1-1v-12l2 4 2-4 1-8h2l1-13 5-16 3-11 5-14 3-10 2-3 3-13 2-10 4-38 1-31-1-12z" fill="#0057DE"/>
<path transform="translate(1132,508)" d="m0 0h124v4h-124z" fill="#B4C1C8"/>
<path transform="translate(796,1120)" d="m0 0h44v10h-43z" fill="#464F55"/>
<path transform="translate(764,920)" d="m0 0h108v4h-108z" fill="#B4C1C8"/>
<path transform="translate(1371,740)" d="m0 0h3l-2 28-1 2-24 7-3-1 6-3 8-16 6-8z" fill="#0057DE"/>
<path transform="translate(973,1174)" d="m0 0 29 1 1 5v8h-32l-1-13z" fill="#73BCFA"/>
<path transform="translate(1036,948)" d="m0 0h104v4h-104z" fill="#B4C1C8"/>
<path transform="translate(1036,920)" d="m0 0h104v4h-104z" fill="#B4C1C8"/>
<path transform="translate(1132,624)" d="m0 0h104v4h-104z" fill="#B4C1C8"/>
<path transform="translate(1132,536)" d="m0 0h104v4h-104z" fill="#B4C1C8"/>
<path transform="translate(1344,508)" d="m0 0h104v4h-104z" fill="#B4C1C8"/>
<path transform="translate(1595,808)" d="m0 0h2l3 10-1 7-5 10 9 2 29 4v2h-7l-19-3h-11l-2 9-2 5h-2l-2-6v-18l4-12z" fill="#0057DE"/>
<path transform="translate(784,1084)" d="m0 0h12v40l-2-4-6-16-3-2-9-1 2-6z" fill="#FBFBFC"/>
<path transform="translate(1132,484)" d="m0 0h88v4h-88z" fill="#B4C1C8"/>
<path transform="translate(764,976)" d="m0 0h84v4h-84z" fill="#B4C1C8"/>
<path transform="translate(919,490)" d="m0 0h2l1 10 8-1 5 5 1 6-3 6-5 2-7-1-2 1-1-6v-19z" fill="#B4C1C8"/>
<path transform="translate(778,764)" d="m0 0 3 1 1 10 7-1 4 2 2 4v7l-4 5-7 1-6-1z" fill="#B4C1C8"/>
<path transform="translate(520,1352)" d="m0 0 113 1 7 3 1 3 4 2 3 9v6l-4-1h2l-4-13-6-5-3-1-111-1v8l-2-4z" fill="#0057DE"/>
<path transform="translate(611,1118)" d="m0 0 11 2 16 4 18 4v2h-45z" fill="#F3F8FC"/>
<path transform="translate(1344,536)" d="m0 0h75l-1 4h-74z" fill="#B4C1C8"/>
<path transform="translate(764 1e3)" d="m0 0h72v4h-72z" fill="#B4C1C8"/>
<path transform="translate(1036,976)" d="m0 0h72v4h-72z" fill="#B4C1C8"/>
<path transform="translate(1344,564)" d="m0 0h71l1 4h-72z" fill="#B4C1C8"/>
<path transform="translate(1544,788)" d="m0 0 3 4 3 16 1 19v7l-2 2-8-18v-13z" fill="#0057DE"/>
<path transform="translate(1596,672)" d="m0 0h10l6 2 12 2 8 2 11 2 8 2 17-3 5-2 20-4 13-1-2 2-6 2-9 2-1 1-12 2-20 4h-8l-15-4-12-2-5-2-13-2-7-2z" fill="#CDE1FD"/>
<path transform="translate(1312,924)" d="m0 0h69v4h-69z" fill="#B4C1C8"/>
<path transform="translate(782,1071)" d="m0 0 6 2 2 3-9 16-5 8h-9l8-17z" fill="#1A252D"/>
<path transform="translate(1312,952)" d="m0 0h64v4h-64z" fill="#B4C1C8"/>
<path transform="translate(764,952)" d="m0 0h60v4h-60z" fill="#B4C1C8"/>
<path transform="translate(1312,900)" d="m0 0h60v4h-60z" fill="#B4C1C8"/>
<path transform="translate(1312,868)" d="m0 0h59v4h-59z" fill="#B4C1C8"/>
<path transform="translate(548,1534)" d="m0 0 28 6 8 3-1 5-29-5-7-2z" fill="#DA775A"/>
<path transform="translate(648,1534)" d="m0 0 24 5 11 3 1 5-3 1-34-7z" fill="#DA775A"/>
<path transform="translate(638,1532)" d="m0 0 9 1 1 4-1 19h-7l-1-1z" fill="#F8F9FB"/>
<path transform="translate(660,1067)" d="m0 0 6 2 12 7 3 5-3 7-7 24-4 15-1 3-12-2v-1h10l3-8 4-16 5-19-1-5-8-4-4-3-1-2-5-1z" fill="#0057DE"/>
<path transform="translate(781,718)" d="m0 0h6l3 2 2 14v3l-6-1-6 1-4-4 1-5 10-4v-3h-8v-2z" fill="#B4C1C8"/>
<path transform="translate(749,542)" d="m0 0 5 1 3 3v13h2v2h-3v-2l-4 2h-6l-3-3 1-6 9-3v-4l-8 1 1-3z" fill="#B4C1C8"/>
<path transform="translate(582,1549)" d="m0 0h6l1 3-2 5h8l1 5-2 2-8 1-7-2 1-10z" fill="#0062E6"/>
<path transform="translate(682,1549)" d="m0 0h6l1 3-2 5h8l1 5-2 2-6 1-9-2 1-10z" fill="#035EDE"/>
<path transform="translate(481,969)" d="m0 0 4 2 17 16 3 2v2l3-3 4 2v2h2v11l1 1 18 3 3 2-10-1-15-2-2-1 1-7-17-17-8-7-4-3z" fill="#D5E0E8"/>
<path transform="translate(558,991)" d="m0 0 5 1h16l-5 5-11 5-8 1 1-8z" fill="#DA775A"/>
<path transform="translate(1526,699)" d="m0 0 11 3 23 7 6 9 5 13 1 5-2 2-2-7-5-13-3-5-11-5-13-3-3-2-7-1-3 10-2 3h-2l2-7 4-8z" fill="#0057DE"/>
<path transform="translate(497,1352)" d="m0 0h2v5l-1-2h-65v-2z" fill="#0057DE"/>
<path transform="translate(785,776)" d="m0 0 5 1 2 4-1 7-5 3-5-3-1-7z" fill="#D1E3FD"/>
<path transform="translate(925,501)" d="m0 0h5l2 2 1 7-3 5-4 1-4-3v-9z" fill="#D0E2FD"/>
<path transform="translate(1407,691)" d="m0 0 5 1 1 3-1 1-1 32-2 24-1 5h-1l1-21 1-31-1-12z" fill="#0057DE"/>
<path transform="translate(1578,706)" d="m0 0 1 2-4 14-1 9h-4l-3-7 1-5 8-10z" fill="#ECF3FB"/>
<path transform="translate(776,621)" d="m0 0h11v11h-11z" fill="#D5E5FD"/>
<path transform="translate(1475,627)" d="m0 0 1 4-9 3-6 3-3 3h-3l-3-12h4l1 3 13-2z" fill="#222C33"/>
<path transform="translate(1193,709)" d="m0 0 3 3 8 3v1h-11l1 3-3 19-2 7 5 5-8-1 3-19z" fill="#0057DE"/>
<path transform="translate(1092,676)" d="m0 0h1v35l8 4 8 2v1h-10l-6-3-3-3 1-32z" fill="#F2F4F5"/>
<path transform="translate(1462,549)" d="m0 0h16l-1 2-13 1-13 4-6 4h-2l-2 4-4 3 2-4 6-7 11-6z" fill="#DA775A"/>
<path transform="translate(884,652)" d="m0 0 7 1v3h-7l-2 1v11l10 1-1 2-6 1-5-3-2-3v-10h2v-2z" fill="#B4C1C8"/>
<path transform="translate(781,830)" d="m0 0h9l1 2-8 1-2 3v7l2 2 8 1v2l-7 1-5-3-2-2-1-5 3-7z" fill="#B4C1C8"/>
<path transform="translate(1596,672)" d="m0 0h10l6 2 12 2 8 2 11 2 1 2-20-2-8-3-13-2-7-2z" fill="#C9E0FD"/>
<path transform="translate(677,1084)" d="m0 0 1 4-7 24-4 15-1 3-12-2v-1h10l3-8 4-16 5-18z" fill="#005FE5"/>
<path transform="translate(1226,722)" d="m0 0 10 1 16 4 8 3 6 3-3 1-31-9-6-2z" fill="#92C7F8"/>
<path transform="translate(1668,679)" d="m0 0h12l-4 2-20 4h-8l-11-3 3-1 11 1z" fill="#B3D7FC"/>
<path transform="translate(1474,623)" d="m0 0 2 1-1 4-8 3-10 1-1-5 12-2z" fill="#F1F3F5"/>
<path transform="translate(1478,549)" d="m0 0 7 1-4 1v2l-14 1-15 4-4 2 1-4 11-4 14-2z" fill="#283036"/>
<path transform="translate(795,1129)" d="m0 0h2v2l-2 1-36 1v-2l-3-1z" fill="#D5E5FB"/>
<path transform="translate(1506,1412)" d="m0 0 5 1-3 3-47-2v-1z" fill="#A9C7E2"/>
<path transform="translate(477,968)" d="m0 0 4 1v2l4 2 17 16 3 4-5-2-8-7-7-8-2-1v-2l-5-2-6 5 2-4z" fill="#0061E6"/>
<path transform="translate(634,1466)" d="m0 0h1l3 48 1 6-2 1-2-17-1-20-1-4v-12z" fill="#C3DDFC"/>
<path transform="translate(1662,739)" d="m0 0h8l3 3-1 11-2 2-1-4v-8h-2v-2h-24v-1z" fill="#49A2F8"/>
<path transform="translate(749,1128)" d="m0 0 2 1-1 2-6 1-18 1-5 2 1-3h2v-2z" fill="#D7E3F4"/>
<path transform="translate(1435,584)" d="m0 0 7 3 1 1v7l-2 2-4-1-1-1v-8z" fill="#232C32"/>
<path transform="translate(1470,588)" d="m0 0 5 1 3 3v6l-2 2-5-1v-9z" fill="#1F282E"/>
<path transform="translate(1471,570)" d="m0 0h9l6 3 3 3-1 3-10-5-7-2z" fill="#252D33"/>
<path transform="translate(656,1128)" d="m0 0 6 1-1 2-5 1-45-1v-1h45z" fill="#B1D6FD"/>
<path transform="translate(669,1117)" d="m0 0h1v8l12 4v2l-15-1 1-9z" fill="#E6EDF3"/>
<path transform="translate(505,993)" d="m0 0 6 5-1 9-6-2h-3l1-4 5-1-1-4z" fill="#0059E0"/>
<path transform="translate(1526,699)" d="m0 0 7 2v1h-7l-3 10-2 3h-2l2-7 4-8z" fill="#0060E5"/>
<path transform="translate(1633,842)" d="m0 0 5 1-4 13-4 9-2 2v-5l3-4 3-12 1-1-2-1z" fill="#005BE1"/>
<path transform="translate(749,552)" d="m0 0h5v5l-2 2h-6v-5z" fill="#D3E4FD"/>
<path transform="translate(784,727)" d="m0 0 4 1-2 6-5 1-1-1v-5z" fill="#D1E3FD"/>
<path transform="translate(1706,671)" d="m0 0h3v7l-6 18-1 4h-2l1-5 5-18h2z" fill="#73BBFB"/>
<path transform="translate(1702,672)" d="m0 0 4 1-6 3-8 1-4 2h-8l3-2z" fill="#72BBFB"/>
<path transform="translate(1190,730)" d="m0 0h1v8l-2 7 5 5-8-1 2-13z" fill="#005AE0"/>
<path transform="translate(1407,691)" d="m0 0 5 1 1 3-1 1v9l-1 2h-2l-1-14z" fill="#0061E6"/>
<path transform="translate(689,1558)" d="m0 0h5l1 2-2 3h-8l-1-3z" fill="#C5E0FB"/>
<path transform="translate(1563,716)" d="m0 0h2l6 15 1 5-2 2-2-7-5-13z" fill="#005BE1"/>
<path transform="translate(589,1558)" d="m0 0h5v4l-1 1h-7l-2-1v-2z" fill="#C5E0FC"/>
<path transform="translate(509 1e3)" d="m0 0h5l1 1 18 3 3 2-10-1-15-2-2-1z" fill="#A7C4DA"/>
<path transform="translate(1478,549)" d="m0 0 7 1-4 1v2h-14l1-2 9-1z" fill="#1F3851"/>
<path transform="translate(584,1550)" d="m0 0h3l-1 6-4 4-1-5z" fill="#C1DEFC"/>
<path transform="translate(684,1550)" d="m0 0h3v5h-2l-2 5-2-1 1-7z" fill="#C4DFFB"/>
<path transform="translate(492,980)" d="m0 0 7 6 6 7-5-2-8-7z" fill="#0064E9"/>
<path transform="translate(371,1377)" d="m0 0 3 1-5 4-1 14-2-4v-8l3-6z" fill="#D1E3FD"/>
<path transform="translate(1137,688)" d="m0 0 4 1 11 6v2l-10-3z" fill="#E3E8EA"/>
<path transform="translate(332,1177)" d="m0 0 2 3 2 11 13 1v1l-14 1-2-5z" fill="#D5E5FD"/>
<path transform="translate(1686,749)" d="m0 0 1 2-2 5-9 3-3-1 5-2h3v-2z" fill="#6CB8FB"/>
<path transform="translate(1596,672)" d="m0 0h10l6 2v2l-9-1-7-2z" fill="#C4DEFD"/>
<path transform="translate(685,1555)" d="m0 0h2l1 2h7l1 5h-2v-3l-11 1z" fill="#046AEC"/>
<path transform="translate(1193,709)" d="m0 0 3 3 8 3v1l-11-1z" fill="#0A69E9"/>
<path transform="translate(1058,629)" d="m0 0 5 2 8 4v1l-6 1-5-5z" fill="#A4BED3"/>
<path transform="translate(1448,554)" d="m0 0m-1 1m-2 1h2l-2 4h-2l-2 4-4 3 2-4z" fill="#D68067"/>
</svg>
