<?xml version="1.0" encoding="UTF-8"?>
<svg version="1.1" viewBox="0 0 1600 1600" width="500" height="500" xmlns="http://www.w3.org/2000/svg">
<path transform="translate(1026,301)" d="m0 0h2l-1 11-7 38-7 32-10 35-14 40-9 22-14 35-11 28-9 25-15 40-10 32-8 25-8 27-12 54-7 42-5 60-1 16v115l6 86 1 14h-183l1-15 3-22 4-46 2-36v-102l-3-42-4-37-7-39-6-27-8-30-26-78-9-23-8-21-9-21-11-28-7-19-10-24-5-11-11-31-11-36-9-41-5-23-3-15v-4h3l6 15 10 35 10 30 6 16 8 20 17 35 8 14 10 17 6 10 14 19 11 15 9 10 7 8 14 14 11 9 15 11 18 10 19 7 19 4 8 1h16l26-6 19-7 14-8 17-12 12-11 14-14 9-11 12-15 11-16 7-11 11-17 12-23 7-14 11-27 11-30 8-24 7-28 7-25z" fill="#F19E14"/>
<path transform="translate(747,1102)" d="m0 0h85l40 1 50 3 56 5 52 6 23 4 36 6 45 8 36 8 45 12 8 3 1 2v21l-7-1-30-9-15-4 2 5 9 4 15 4 21 9 5 5 1 9-2 1-36-12-31-8v10l23 5 32 11 14 7 1 13-2 1-19-6-27-8-23-5-1 10 17 4 33 10 19 7 3 2-1 17-10-3-37-12-25-7v8l8 3 24 7 28 10 11 6 1 2v11l-6-2-18-7-18-5-25-4 2 4 21 7 20 6 21 9 1 2v15l-2 1-49-11-25-5-34-6-50-6-41-5-50-4-35-3-79-4-25-1h-99l-28 2-68 3-52 5-32 3-50 6-41 7-32 6-42 9-16 4h-4v-17l26-11 25-7 9-3 1-6-11 2-21 4-27 9-4-1 1-9 8-5 14-6 25-9 15-4 6-4v-4l-11 1-24 7-29 10h-4v-15l3-3 23-9 18-6 16-5h3v-8l-22 4-29 9-7 2-5-1v-13l11-5 28-10 19-5 7-2v-9l-21 5-35 11-10 2-1-3 2-8 14-7 17-6 18-6 4-1-1-5-17 3-22 6-11 4-3-1v-19l9-5 30-8 34-8 53-10 56-10 77-9 49-4 32-2zm3 32-25 3-2 10-5 15-7 18-7 20-8 21-6 10v2h11l18-1h4l-1-5v-7l1-4 3-1 33-2 3 5v12l34-1v-3l-6-10-10-19-4-9-16-34-5-11-3-9zm66 1 1 5v54l-2 28-1 7h27v-25h11l6 9 6 12 1 6 3 1h17l11 1-2-5-7-10-8-15-1-6 4-1 7-6 5-10 1-3v-13l-5-12-6-7-8-5-15-3-35-1zm113 4-3 40-3 19-3 26-3 7v3l49 7 17 3h3l6-21v-2l-18-2-22-4h-6l1-7v-8l7 2 19 3 7 1 4-15 1-7-22-3-13-2 2-13 20 2 18 4 5 1 2-6 2-9 4-6v-2l-15-3-35-5zm-271 1-20 3-2 1-5 13-8 14-8 13-4-1-4-5-8-7-10-10h-2l-1-3h-2l-2-4-5-6-8 1-16 3 1 4 4 13 7 42 3 20v8l-2 4 1 4 30-6-4-7-2-19-1-11-2-6 4 2 16 16 8 10 2 3h3l5-12 7-12 5-9v-2l2 1 2 15 3 14v8l-1 6 12-2 16-1 2-1-1-5-3-9-4-25-5-40-1-15zm391 16-10 3-11 8-5 7-2 7v12l4 8 7 8 11 6 10 4 4 3h2l-1 6-6 4-7-1-14-6-7-6-1-2-4 1-8 9-5 3 2 4 14 11 11 5 9 3 6 1h14l9-4 6-5 6-11 1-3v-15l-3-6-5-5-8-5-16-8-5-4v-8h11l10 4 13 8 2-1 4-8 8-7 2-1-1-3-25-13-11-3zm-533 2-25 6-2 1 2 5 3 5 6 25 8 30 4 26 25-5 5-2-2-5-4-6-6-25-5-23-7-27-1-5z" fill="#FDFCCC"/>
<path transform="translate(796,200)" d="m0 0h20l34 2 26 3 30 6 31 8 13 4 9 6 12 21 8 18 6 15 2 13v40l-4 22-9 29-11 28-31 62-10 15-9 14-7 7-5 9-7 9-6 4-16 2-2-1v-17l-2-17-5-13-6-8-9-10-10-9-16-8-11-3-7-1h-18l-14 4-16 8-12 11-9 9-6 10-5 15-1 7v18l1 12v1l8 14h-3l-10-9-8-10-15-15-7-8-10-13-14-21-12-21-9-19-10-19-9-20-11-28-10-33-2-13v-17l2-20 7-26 10-23 6-11 5-4 17-7 28-7 33-7 25-4 23-2z" fill="#FAC640"/>
<path transform="translate(768,141)" d="m0 0h62l20 1 45 6 30 6 34 10 21 7 25 10 20 9 30 15 22 13 21 14 17 12 21 16 11 10 8 7 13 12 7 7 8 7 11 12 10 11 9 11 12 15 14 21 15 23 12 20 15 27 13 27 13 34 14 43 7 29 5 24 4 44 1 20v46l-4 49-7 39-8 32-12 36-10 26-12 25-15 28-10 16-12 19-10 14-12 16-13 16-7 9-9 9-7 8-17 17-8 7-11 10-14 11-12 9-2 3-16-4-31-5v-2l15-10 14-10 11-9 11-10 8-7 17-16 16-16 7-8 9-10 15-20 11-15 10-15 15-25 10-18 9-17 11-25 9-24 9-31 9-39 6-38 2-29v-34l-2-38-6-41-9-37-5-19-10-29-11-27-14-29-8-16-10-18-18-27-12-17-10-13-8-10-11-12-9-10-15-15-8-7-13-13-11-9-15-12-17-12-15-10-25-15-24-13-19-9-20-8-36-12-28-8-38-7-33-4-14-1h-59l-28 3-46 7-19 4-22 6-22 7-27 9-27 12-19 9-23 13-28 17-13 9-16 13-11 9-13 12-8 7-17 17-7 8-13 14-21 27-10 14-9 13-10 16-14 24-10 20-7 15-7 17-8 23-9 24-7 25-7 30-4 29-3 27v57l1 20 6 39 8 38 8 27 8 22 9 22 8 17 12 22 12 19 14 22 16 21 10 13 9 12 11 13 6 6v2l4 2 5 5 12 13 12 11 8 7 13 11 16 13 14 10 1 2-32 6-10 3h-5l-2-5-4-2-7-7-11-9-7-7-8-7-29-29-7-8-10-11-9-11-15-20-15-22-10-15-15-25-10-18-9-20-15-40-13-44-6-27-5-32-2-25-1-20v-53l3-38 7-40 6-26 5-16 8-26 12-30 13-29 11-21 16-28 28-42 9-12 9-11 12-14 14-15 18-18 8-7 12-11 11-9 12-10 18-13 15-10 21-12 22-12 16-8 24-11 24-9 27-9 25-7 21-5 40-7 30-4z" fill="#FDFCCC"/>
<path transform="translate(505,334)" d="m0 0 4 4 8 14 10 15 9 15 13 24 8 17 6 13 11 25 15 33 12 28 8 20 8 19 8 21 15 40 9 30 7 21 9 32 6 26 8 44 4 29 4 65 1 29v39l-1 32-4 54-6 43-3 12-2 2-38 4-33 3-44 5-9 2-16-11-18-14-14-9v-4l12-25 9-23 6-23 4-24 1-10v-39l-4-30-4-18-7-21-13-30-10-20-12-19-14-21-24-32-26-39-12-17-10-16-14-22-9-15-8-15-12-27-8-20-9-20-2-6v-16h3l10 20 14 24 17 29 13 18 11 13 10 11 7 8 15 14 11 9 12 9 18 10 14 5 18 5 10 1h17l9-2 14-8 11-10 9-12 6-12 5-16 1-6v-42l-5-30-4-15-11-33-13-33-11-26-11-25-11-26-6-13-8-25-3-11z" fill="#E16210"/>
<path transform="translate(1082,338)" d="m0 0 2 1-2 9-14 39-16 35-9 22-18 41-10 26-7 25-3 12-4 34-1 20 2 20 3 15 7 16 7 10 4 5 11 8 10 5 12 3h23l14-3 18-7 17-9 12-8 11-8 13-11 13-13 9-11 14-18 10-14 10-15 15-26 12-22 3-6h3l3 10-4 15-9 20-13 28-17 32-12 23-10 18-11 16-9 12-12 15-10 13-12 17-7 10-17 25-13 19-12 22-11 23-10 30-7 27-3 25v22l3 31 6 27 10 32 10 23 5 8-1 4-11 9-13 9-15 10-9 8-14-5-46-6-6-7-5-10-9-25-7-16-5-17 6 27 6 22 7 17 2 5v3l-27-2-23-1-3-1-3-16-5-39-5-61-1-18v-53l3-48 3-42 6-42 8-40 10-39 7-25 12-37 10-30 16-43 10-24 13-30 11-26 8-18 9-21 10-19 14-26 8-14 7-11 12-19zm-134 662v5h1v-5z" fill="#64C59E"/>
<path transform="translate(505,334)" d="m0 0 4 4 8 14 10 15 9 15 13 24 8 17 6 13 11 25 15 33 12 28 8 20 8 19 8 21 15 40 9 30 7 21 9 32 6 26 8 44 3 20v9l-2-2v-3l-3-1-4-7-2-2h-8l-2 1h-6l-4-2h-10l-3 5-4 9-5 4-7 1-7-3-13-10-14-10-10-7-19-12-25-13-4-2v-2l-5-2-14-7-5-2-17-12-14-11-11-9-5-3-7-8-21-21-4-5-5-5-2-4-5-5-6-9-7-9-7-10-2-5h-2l-12-18-3-5v-2l-3-1-6-9-11-15-4-4-10-23-8-20v-16h3l10 20 14 24 17 29 13 18 11 13 10 11 7 8 15 14 11 9 12 9 18 10 14 5 18 5 10 1h17l9-2 14-8 11-10 9-12 6-12 5-16 1-6v-42l-5-30-4-15-11-33-13-33-11-26-11-25-11-26-6-13-8-25-3-11z" fill="#FDFBCC"/>
<path transform="translate(1026,301)" d="m0 0h2l-1 11-7 38-7 32-10 35-14 40-9 22-12 30-2-1-8 13-13 23-8 16-10 19-8 16-13 23-3 7-1 3h-3l-3 9-9 12-5 5-10 11-8 7-13 11-16 10-10 4-13 3-9 1h-12l-13-2-13-4-12-6-7-3-4-5-13-10-4-6-8-7-12-14-4-6-3-3-4-8-4-6-2-1-3-6v-2h-2l-4-9v-2l-3-1-4-9v-2h-2l-3-7-2-6-3-1-4-10-11-21-8-16-8-15-6-9-3-1-1 2-10-25-10-23-11-31-11-36-9-41-5-23-3-15v-4h3l6 15 10 35 10 30 6 16 8 20 17 35 8 14 10 17 6 10 14 19 11 15 9 10 7 8 14 14 11 9 15 11 18 10 19 7 19 4 8 1h16l26-6 19-7 14-8 17-12 12-11 14-14 9-11 12-15 11-16 7-11 11-17 12-23 7-14 11-27 11-30 8-24 7-28 7-25z" fill="#FDFBCC"/>
<path transform="translate(1207,623)" d="m0 0 1 4-10 20-11 18-12 17-13 16-7 9-13 18-12 17-17 25-13 19-12 22-11 23-10 30-7 27-3 25v22l3 31 6 27 10 32 10 23 5 8-1 4-11 9-13 9-15 10-9 8-14-5-46-6-6-7-5-10-9-25-6-13v-4h2l1-3 5 2 9 7 8 2h12l9-2 2-4 3-4 2-1-3-16-3-8-3-15-5-22-2-16-1-15v-17l4-32 4-18 6-21 5-14 7-15 7-13 7-11 24-28 9-9 8-7 10-9 10-8 13-11 17-13 12-10h2l2-4 17-17 8-7 8-8 7-8 10-10 8-7 7-7z" fill="#0D8876"/>
<path transform="translate(339,1178)" d="m0 0 4 1 1 12-2 2-24 7-16 5h-2l1 6 35-8 8-1 1 1v6l-17 5-24 8-2 1v5l41-11 2 1v7l-42 14v4l31-8 10-1v7l-9 4-22 6-10 4v5l25-7 11-2h4v6l-9 3-29 9-2 1-1 6 36-10h5v8l-9 3-19 5-11 5-1 4 31-7h11l1 4-2 2-35 10-7 3-1 5 21-6 18-4h5v6l-8 3-24 7-11 4-1 5 15-4 14-4 13-1v6l-20 6-15 6-6 3-1 3 26-6 12-3h6l1 7-38 13-6 5-1 3 21-5 15-6 17-5h43l9-5 6-10 7-3 40-7 23-3h7v12l-1 18 1 3-2 1-29 2-38 4-37 6-22 3-41 8-44 9-88 22-6 2-4-1 9-11 13-16 12-17 14-18 12-14 9-11 14-18 8-9h2l-3-3-22-14-17-10-19-12-16-10-13-9-11-6-1-2 34-10 29-9 36-10 59-13z" fill="#FDFCCC"/>
<path transform="translate(1251,1176)" d="m0 0 19 4 37 9 37 10 31 10 42 13 2 1-1 3-17 8-19 12-17 11-16 10-21 12-8 4 2 5 10 14 11 13 11 14 13 17 13 18 11 14 11 12 9 11-1 2-17-6-19-6-41-12-43-9-44-10-34-6-51-6v-4l9-3 5-1 60-2 12 3 16 6 24 7-2-5-21-8-15-6-1-4 2-4 11 2 22 6 5 1-1-4-26-9-10-5v-7l10 2 26 8 2 1-1-5-16-6-19-6-2-2v-6l7 1 25 7 5 2 1-5-9-3-22-7-7-3v-7l11 2 24 7 1-2v-3l-14-5-22-7-1-1v-8l2-1 23 7 9 2h5v-2l-10-4-24-8-4-3v-6l2-1 25 7 12 4v-6l-10-3-22-7-6-3v-8l12 3 23 7 2 1v-5l-36-12-1-1v-8l16 4 18 5 6 1-1-4-16-6-23-8-1-7 1-1 10 1 21 6 7 1 1-4-9-3-18-7-11-3-2-3-1-13z" fill="#FDFCCC"/>
<path transform="translate(749,932)" d="m0 0h9l8 4 2 5 4 1 1 5 4 6 3 12v24l2 14 2 3 7 4h7l10-4 3-3 2-6 3-18 3-9h1v6l-1 2h3v4h9l5 2 12 11h2l6 8v2h2l5 5 6 5 3 5v2h2l4 11 1 3v8h2v2h3l3 27v5h-183l1-15 3-22 4-46 2-9 4-10 4-17 3-6 6-2 5-5 7-10 3-3z" fill="#E27916"/>
<path transform="translate(509,738)" d="m0 0 5 2 16 8 1 2 23 11 24 15 10 7 19 14 11 8 9 1 6-4 4-9 3-5 1-1h10l4 2h6l2-1h8l6 7 1 3 2 1 1 5h2l4 65 1 29v39l-1 32-4 54-6 43-3 12-4 2 1-3 2-20v-7l-1-3-1-10-2-4-2-17 2-5 1-10-3-11-1-10-6-1-3-7h-2l-4-18v-12l-5-39-4-11-4-6-1-2h-3l-2-7-6-1h-3l-4-3-2 5-10 1-1-3-4-2-3-3v-3h-5l-1 3-2-3-2-12h-2l-3-16-1-4h-2l-5-14-1-4h-2l-5-11-5-9-12-16-11-13-9-11-2-1v-2l-3-1v-2l-4-2-5-5-8-6z" fill="#FAC640"/>
<path transform="translate(588,856)" d="m0 0 2 3 3 11 3-3 4 1 1 4 5 4 1 2h10l2-5 4 2h3l6 1 2 3v5l5 1 7 14 4 25 2 22v9l3 13v4l3-1 2 8 6 1 5 22-1 10-2 5 2 16 3 8v7l1 7-2 22-2 3-17 2-19 2h-9l-1-3 7-20 4-15 4-20 3-21h-2l-2 8-6 16-2 5-6 9-16 8-10 8-4 5-8 4-13-3h-8l-1-1v-7l11-24 8-22 7-28 4-33 1-18v-21l-2-26-3-16v-7h-2z" fill="#F09D13"/>
<path transform="translate(899,628)" d="m0 0h3l-2 5-9 14-8 10-2 3h-2l-2 4-15 15h-2l-2 4-9 8-5 14-4 9-3 11-7 22-7 36-4 30-3 36-2 37-1 39v42l-3 10h-2l-1 3-5 1h-5l-5-6-4-12-2-14v-34l-1-49-7-68-2-16-3-17-4-15-7-22-6-17-5-18-4-4v-2l-4-2-7-6 1-3 8 7 4 4 10 4 11 5 12 3 9 1h12l13-2 15-4 20-12 10-9 8-7 7-6 9-11 5-5 5-7 3-7z" fill="#F9C53F"/>
<path transform="translate(618,593)" d="m0 0h4l1 16 7 10 1 6h2l2 10 2 3 2 6 2 4 3 17 4 2 1 3 2 7 6 7 2 1 7 25 5 21 8 44 3 20v9l-2-2v-3l-3-1-4-7-2-2h-8l-2 1h-6l-4-2h-10l-3 5-4 9-5 4-7 1-7-3-13-10-14-10-10-7-19-12-19-10 3-1 6 2 19 9 5-2 2-5 4-3h2l4-8 3-3 3-6 2-2 2-8 4-13 3-15 2-6 2-11 2-2 4-12 1-4 1-6 3-5-6 2-1 2 1-12 4-8 7-3h2v-2l4 2 1 6 1 4 2 1-2-10-5-10v-3l-1-2-5-1-4 1 1-5 1-1v-13l-1-5-2-1 3-1z" fill="#FEF3BA"/>
<path transform="translate(497,553)" d="m0 0h13l11 2 14 7 10 9 7 10 5 14v14l-4 15-5 10-5 6-9 7-14 6-6 1h-12l-10-2-14-7-9-7-9-13-5-12-1-4v-13l3-11 4-10 7-9 10-7 13-5z" fill="#FDEA98"/>
<path transform="translate(1076,553)" d="m0 0h17l9 2 11 6 10 10 6 12 2 8v20l-3 10-8 14-10 10-15 7-5 1h-21l-12-4-8-6-8-9-5-11-4-16v-9l3-14 8-13 7-7 10-6 11-4z" fill="#7DD5AA"/>
<path transform="translate(791,473)" d="m0 0h8l13 3 14 7 10 10 5 9 3 17v11l-4 17-7 10-8 8-16 7-6 1h-11l-10-2-12-6-10-9-6-8-5-12-2-9v-12l4-13 4-8 7-8 10-7 15-5z" fill="#FDFBCB"/>
<path transform="translate(776,842)" d="m0 0 5 2 1 7v57l-1 6 1 37v32l1 9 2 5 7 3 6 1 10-2 3-1 3-20 1-38 3-4 4 1 4 2v-3l6 1 6 5 3 8 2 17 3 9h2l4 8 5 3 6-1 5 2 4 7v4l3 1 2 9 3 4v8l2 10 2 7v8h-3v-2h-2l-2-11-3-8v-3h-2l-6-9-8-6v-2h-2l-4-6-12-11-5-4-13-2v-4h-3v-4l-3 9-3 18-3 5-8 4-4 1h-7l-7-4-2-1-2-7-1-18v-18l-3-8h-1l-2-7-1-4-2-1v-2h-2l-3-5-7-3h-9l-5 1-2 5-8 11-4 3-5 1-3 9-3 13-5 12h-1l1-29 1-14h2v-20l1-1v-13h-2l1-3 2 1 4-25 7-2 9-3 10-5 5-5 2-6-2-1h2l1-5 2-3 6-3h2l7-3h3z" fill="#EC8B0D"/>
<path transform="translate(554,784)" d="m0 0 7 6 4 5 5 2 4 8v2l10 1 7 3 1-2 6 1 8 2 8 6 9 5 7 8v2l3 1 5 10 2 7 1 10 4 14 5 28 3 12 4 9 4 1 5-4 8 2 3-4 1 3 2 1 2 17 1 14 2 7 1 4v15l-3 43-6 43-3 12-4 2 1-3 2-20v-7l-1-3-1-10-2-4-2-17 2-5 1-10-3-11-1-10-6-1-3-7h-2l-4-18v-12l-5-39-4-11-4-6-1-2h-3l-2-7-6-1h-3l-4-3-2 5-10 1-1-3-4-2-3-3v-3h-5l-1 3-2-3-2-12h-2l-3-16-1-4h-2l-5-14-1-4h-2l-5-11-5-9-9-12z" fill="#F8B62D"/>
<path transform="translate(353,568)" d="m0 0 3 1 6 9 10 13 2 4 3 3 10 16 4 5v2h2l6 9 10 14 9 12v2l4 2 3 6 5 5 6 5 7 8 16 16 2 3 7 4 9 8 16 12 17 12 10 7 4 5 5 4v2l4 2 1 3h-2l-3-3-6-5-4-1-4 4-1 4-2 2 1 2h-16v2l-6-1v3l3 10 2 3 1 8 2 5 8 19 4 4 2 7h2l4 9h-2l2 5v3h2l1 5h2l2 8-1 2 3-1v10l4 11v11l1 6-3 1-4-24-7-22-8-20-11-24-9-17-15-23-8-12-24-32-26-39-12-17-10-16-14-22-9-15-8-15-12-27z" fill="#E27A16"/>
<path transform="translate(661,697)" d="m0 0 2 1 8 33 8 44 3 20v9l-2-2v-3l-3-1-4-7-2-2h-8l-2 1h-6l-4-2h-10l-3 5-4 9-5 4-7 1-7-3-13-10-14-10-10-7-19-12-19-10 3-1 6 2 2 1v2l5 2 18 10 11 7 8 2 5-2 6-9 4-8 10-11 11-8 14-15 5-8 5-11 4-8z" fill="#FEEB99"/>
<path transform="translate(1251,512)" d="m0 0 3 3 2 8-4 15-9 20-13 28-17 32-4 8-2-2-9 10-7 7-8 7-9 9-7 8-9 9-8 7-16 16-11 9-5 4-5 2-5 3-1-4 7-7 2-3-1-11 1-5-2-1v-6l12-9 3-2 9-5 5-4h2l1-3 2-1 3-5 13-11 13-13 9-11 14-18 10-14 10-15 15-26 12-22 3-6z" fill="#66C69F"/>
<path transform="translate(629,411)" d="m0 0h2l6 9 8 11 5 7v2l4 1 9 7 17 11 10 6 11 5 21 6 12 4-1 5-6 12-3 10-1 7v18l1 12v1l8 14h-3l-10-9-8-10-15-15-7-8-10-13-14-21-12-21-9-19-10-19-5-11z" fill="#EC8B0D"/>
<path transform="translate(1e3 864)" d="m0 0 1 4-4 23-2 17v27l5 36 6 29 5 17 4 8 6 16 8 20 8 17 4 8v7l3 1-3 2-13-5-46-6-6-7-5-10-9-25-6-13v-4h2l1-3 5 2 9 7 8 2h12l9-2 2-4 3-4 2-1-3-16-3-8-3-15-5-22-2-16-1-15v-17l4-32z" fill="#31AA89"/>
<path transform="translate(963,409)" d="m0 0 1 3-11 23-21 42-10 15-9 14-7 7-5 9-7 9-6 4-16 2-2-1v-17l-2-17-5-13-1-6 18-8 15-6 14-8 16-8 11-8 12-11 4-7z" fill="#E17916"/>
<path transform="translate(482,1313)" d="m0 0h7v12l-1 18 1 3-2 1-29 2-38 4-37 6-17 2h-5v-2h-2l-1-6-12-4v-2l-5-1 2-2 11-3h43l9-5 6-10 7-3 40-7z" fill="#0C8876"/>
<path transform="translate(1127,584)" d="m0 0h2l2 7v20l-3 10-8 14-10 10-15 7-5 1h-21l-12-4-8-6-8-9-5-11-2-7v-6l13 6 11 2h12l18-4 17-8 10-8 7-7z" fill="#0D8976"/>
<path transform="translate(749,511)" d="m0 0 5 5 9 10 8 5v2l11 3 3 1h14l21-6 11-7 5-5h2v-2l4-2 2 4v11l-4 17-7 10-8 8-16 7-6 1h-11l-10-2-12-6-10-9-6-8-5-12-2-9v-12z" fill="#F19F15"/>
<path transform="translate(509,738)" d="m0 0 5 2 16 8 1 2 23 11 24 15 10 7 19 14 11 8 9 1 6-4 4-9 3-5 1-1h10l4 2h6l2-1h8l6 7 1 3 2 1 1 5h2l3 50v11l-2-4-3-17v-3h-2l-5-5h-9l-4 2-2 4-4 4-6 3-6-1-6-9-7-12-11-13-6-7-14-11-11-9-17-12-11-8-30-15-5-2-15-10z" fill="#FED866"/>
<path transform="translate(458,588)" d="m0 0 7 6 8 8 13 9 12 5 16 4h23l9-2 7-1 1 4-5 11-6 8-9 7-14 6-6 1h-12l-10-2-14-7-9-7-9-13-5-12-1-4v-13l2-7z" fill="#E27A16"/>
<path transform="translate(436,492)" d="m0 0 103 1 5 10 1 6h-180l-6-9-1-6 3-1z" fill="#E27A17"/>
<path transform="translate(1142,492)" d="m0 0h88l-1 6-4 9-1 1h-156l-24-1 4-11 2-3z" fill="#EB8A0E"/>
<path transform="translate(640 1e3)" d="m0 0h2l-1 15-3 17-5 22-7 18-1 7-15 2-53 6-9 2-4-4 2-1 7-14 10-19 3-6 1 3-2 4v7h8l12 2 3 1 1-2 6-3 5-6 5-2 1-3 15-8 3-1 6-9 4-11 3-9z" fill="#E27916"/>
<path transform="translate(1061,466)" d="m0 0h163l5 5 5 10-1 1h-161l-17-1 1-6z" fill="#E27B16"/>
<path transform="translate(364,466)" d="m0 0 53 1h111l5 8 2 5v3h-82l-75-1-21-1 1-5z" fill="#E27C17"/>
<path transform="translate(454,519)" d="m0 0h89l7 2 4 11 1 6-8-1-23-6-17-2h-11l-13 2-7 3-62 1h-34l-8-12v-3z" fill="#E37D17"/>
<path transform="translate(1040,519)" d="m0 0h176l-1 5-4 10-58 1-34 1-17-6-5-1h-27l-18 5h-17l1-8 2-6z" fill="#E27A16"/>
<path transform="translate(321,784)" d="m0 0h112l27 1 4 5 3 10h-142l-3-6z" fill="#E37C16"/>
<path transform="translate(328,813)" d="m0 0h134l12 1 5 5 4 9h-151l-3-9z" fill="#E27B16"/>
<path transform="translate(379,441)" d="m0 0h138l4 7 2 5v4l-20 1h-30l-76-2-26-1 1-5 5-8z" fill="#E27B16"/>
<path transform="translate(497,553)" d="m0 0h13l11 2 14 7 10 9 7 10 5 14v8h-2l-7-8-2-1v-2h-2l-3-3-5-2-11-2-10-5-19 1-3 1h-13l-5-4-1-5v-1l-1 8-3 2-3-4-5 2-2 4h-2l3-9 7-9 10-7 13-5z" fill="#FEF3BA"/>
<path transform="translate(1197,627)" d="m0 0h5l-2 5-9 9-8 7-9 9-7 8-9 9-8 7-16 16-11 9-5 4-5 2-5 3-1-4 7-7 2-3-1-11 1-5-2-1v-6l12-9 3-2 9-5 5-4h2l1-3 2-1 3-5 13-11 4-1 5-4 2 1v-2l7 2v2h3l-1-2 9-3z" fill="#7CD5AA"/>
<path transform="translate(480,890)" d="m0 0h22l2 2 1 11-1 1-29 2-54 1h-43l-11-1-5-6-3-5v-2l5-1z" fill="#E06411"/>
<path transform="translate(736,676)" d="m0 0 8 6 9 10 4 2v2l2 1-1 11 5 16 10 30 6 28 2 23 4 29 2 10 1 20 1 5 2 18-1 2 4 17 2 6 2 12 5 14 2 2h2l2-12 2-36 1-10 2-33h1v17l-2 54v47l-3 10h-2l-1 3-5 1h-5l-5-6-4-12-2-14v-34l-1-49-7-68-2-16-3-17-4-15-7-22-6-17-5-18-4-4v-2l-4-2-7-6z" fill="#F9B72D"/>
<path transform="translate(1073,441)" d="m0 0h137l6 10 1 5h-130l-20-1 1-5z" fill="#F19E14"/>
<path transform="translate(337,840)" d="m0 0h94l58 1 4 9 1 4h-118l-33 3-3-5-3-9z" fill="#E37C17"/>
<path transform="translate(1100,841)" d="m0 0h53l97 1-4 13-5 1h-78l-67-2 2-9z" fill="#5AB08F"/>
<path transform="translate(403,866)" d="m0 0h94l3 5 1 7-10 1-29 1-108 1-6-9v-3l16-2z" fill="#E37D17"/>
<path transform="translate(1115,814)" d="m0 0h143l-1 8-2 6h-149l5-9z" fill="#64C59E"/>
<path transform="translate(316,756)" d="m0 0h124l8 13v2h-130l-2-5-1-9z" fill="#E27916"/>
<path transform="translate(1192,888)" d="m0 0h36v7l-2 7-30 1-111 1-1-1v-7l2-5 19-1 63-1z" fill="#5AB090"/>
<path transform="translate(1103,1311)" d="m0 0 38 6 41 6 2 1v3l-14 2-9 4-10 9-5 4-3 1h-43l-1-2 3-33z" fill="#0F8A77"/>
<path transform="translate(353,568)" d="m0 0 3 1 6 9 10 13 2 4 3 3 10 16 4 5v2h2l6 9 10 14 9 12v2l4 2 3 6 5 5 6 5 7 8 14 14h-3l-7-7-2 2-4 6-5 1v5l8 11 6 10-4-2-22-33-11-16-10-15-14-22-12-19-12-22-12-27z" fill="#F19F16"/>
<path transform="translate(1150,784)" d="m0 0h76l40 1-2 12-1 1-62 1h-76l2-6 4-7 2-1z" fill="#63C49D"/>
<path transform="translate(374,917)" d="m0 0h131l3 2v11l-4 1h-123l-4-5-3-6z" fill="#E27B16"/>
<path transform="translate(1084,416)" d="m0 0h110l5 6 3 5v2l-3 1-13 1-65 1h-24l-17-1-2-1 1-7 3-6z" fill="#E27C17"/>
<path transform="translate(1119,916)" d="m0 0h97l-1 4-6 10h-126l-1-1v-7l2-5z" fill="#5AAF8F"/>
<path transform="translate(392,416)" d="m0 0h113l4 5 3 9-21 1h-77l-24-1-4-1 1-5z" fill="#EC8E0F"/>
<path transform="translate(1156,755)" d="m0 0h114l1 2-2 13h-26l-98-1 2-5z" fill="#65C59E"/>
<path transform="translate(402,942)" d="m0 0h105l-1 12-2 3-104 1-8-10-2-4 2-1z" fill="#E37D17"/>
<path transform="translate(319,727)" d="m0 0h83l15 1 6 5 5 8v2h-51l-33-1h-30l-2-6v-8z" fill="#E17916"/>
<path transform="translate(562,307)" d="m0 0h3l6 15 10 35 10 30 6 16 8 20 17 35v2h-4l-1-5-4-2-1-1v-5l-4-1v-2l-2 2 2 9-1 3 2 4-1 4-2 2-5-11-11-31-11-36-9-41-5-23-3-15z" fill="#FEFEE8"/>
<path transform="translate(963,409)" d="m0 0 1 3-10 21-5 3-4 6-6 3-7 6-1 5-3 12-5 7h-3l-1 4-11 7-12 8-16 6-5 3-6 5-3-12-4-9v-4l18-8 15-6 14-8 16-8 11-8 12-11 4-7z" fill="#EB8B0D"/>
<path transform="translate(335,507)" d="m0 0 3 3 14 27 15 25 13 22 12 16 9 11 11 12 7 8 6 7-13-3-8-7-10-9-8-12-6-7v-2h-4v-2l-3-1-6-9-11-15-4-4-10-23-8-20v-16z" fill="#FEFEE6"/>
<path transform="translate(971,496)" d="m0 0 1 3-4 10-2-1-8 13-13 23-8 16-10 19-8 16-13 23-3 7-1 3h-3l-3 9-9 12-5 5-10 11-8 7-13 11-16 10-10 4-13 3-9 1h-12l-13-2-13-4-12-6-7-3-4-6 5 2 9 6 16 7 10 1h22l19-4 15-8 7-5 5-3h2v-3h2l1-4 7-6 8-6 7-5 4-6 6-7 4-5 1-3-1-5 4-8 2-3h2l2-4 7-8 5-10h2l2-5 3-4 3-9 6-10h2l-1-3h2l1-7 5-12 6-10 2-3h2v-4h2l1-5 5-6 4-4h2l2-5z" fill="#FEF1B2"/>
<path transform="translate(1091,866)" d="m0 0 60 1 85 2-1 5-4 6-142-2-1-3z" fill="#118B78"/>
<path transform="translate(1087,942)" d="m0 0h95l15 1 1 3-5 9-5 1h-28l-76-1-1-2v-10z" fill="#64C59E"/>
<path transform="translate(1176,727)" d="m0 0h99l1 4-1 9-1 1h-108l2-4z" fill="#66C69F"/>
<path transform="translate(343,698)" d="m0 0h38l17 1 6 7 3 7-97 1-1-1v-13l2-1z" fill="#ED9111"/>
<path transform="translate(955,1050)" d="m0 0 4 2 4 10 8 19v3l-27-2-23-1-3-1-2-10v-6l5-1 1-7 6-2 8-1 5-1 7 1 7-1z" fill="#32AB8A"/>
<path transform="translate(410,392)" d="m0 0 6 1 79 1 4 4 3 6v4h-71l-22-1-7-1 2-5z" fill="#E37C16"/>
<path transform="translate(1050,493)" d="m0 0h41v1l-26 1 9 1 77 1 15 2-2 4h-2l1 3-2 1-47 1h-46l-24-1 4-11z" fill="#E1912E"/>
<path transform="translate(399,1340)" d="m0 0 2 2-1 1h21l26 1 8 1 1 1 12 1v1l-48 5-37 6-17 2h-5v-2h-2l-1-6-12-4v-2l-5-1 2-2 11-3h43z" fill="#7ED5AA"/>
<path transform="translate(1026,301)" d="m0 0h2l-1 11-7 38-7 32-10 35-11 31-4 2-2-9v-3h2v-4h2l1-11 1-2-1-3h2l-1-7-1-2 10-26 7-22 7-28 7-25z" fill="#FEFEE6"/>
<path transform="translate(410,969)" d="m0 0h93l-2 11-1 2-10 1-59 1-13 1-10-14z" fill="#E37F18"/>
<path transform="translate(1063,280)" d="m0 0 7 3 8 6 9 8-2 4-9 10-20 26-9 13-3 3-3-1 3-11 7-24 5-26 4-8z" fill="#E27A16"/>
<path transform="translate(1088,968)" d="m0 0h34l37 1 19 1-4 12-4 1h-79l-3-9z" fill="#67C79F"/>
<path transform="translate(1207,698)" d="m0 0h70l1 1v8l-1 5-90 1 2-5 6-9z" fill="#66C69F"/>
<path transform="translate(1076,553)" d="m0 0h17l9 2 11 6 10 10 3 5-2 4-2-1v-2l-4 1-2-3-2-1v-2h-2l-2-5v-3l-3 5-11 2-2 1h-8l-4-1-7 1-6-1-13 5-6 2-2 4-5 3-1-4-2-3 1-4 7-8 8-6 15-6z" fill="#65C59E"/>
<path transform="translate(1093,393)" d="m0 0h86l6 8v4l-11 1-52 1h-26l-8-1 1-5 3-7z" fill="#E2922D"/>
<path transform="translate(372,669)" d="m0 0h6l6 7 4 9-4 1-76-1v-9l2-6z" fill="#E37F19"/>
<path transform="translate(1321,1288)" d="m0 0 4 5 9 11 8 10 13 16 12 16 13 18 11 14 11 12 9 11-1 2-17-6-19-6-41-12-43-9-23-5 1-2 12 2 16 2 13 3 9 2 20 4 36 9h7l2-1-1-6-9-16-8-11-12-17-11-13-10-13-8-11-3-6z" fill="#FEFEE9"/>
<path transform="translate(644,988)" d="m0 0h1v10l-2 11-1-4h-2l-2 8-6 16-2 5-6 9-16 8-10 8-4 5-8 4-13-3h-8l-1-1v-7l5-11 1 4 8-4 4-1 14-3 14-5 10-2 5-2 10-20 8-24z" fill="#EB8A0D"/>
<path transform="translate(1145,368)" d="m0 0h13l8 7 3 4v3l-3 1-12 1h-57l2-10 3-5z" fill="#E27B17"/>
<path transform="translate(429,368)" d="m0 0h57l3 4 2 8v4h-27l-38-1-5-2 2-5z" fill="#E27B16"/>
<path transform="translate(1229,1338)" d="m0 0 12 1 2 1 4 8-4 3-14 3h-17l-51-6v-4l9-3 5-1z" fill="#FEF3BA"/>
<path transform="translate(534,914)" d="m0 0 3 4 2 10-1 2 1 3-1 3v32l-3 16-3 6-1 7-2 7-1 5-3 7-1 3h-2l-1 8-3 7h-2l-2 8h-2l-1 8-3 7 1 5 10 5 3 1v3h3l3 5v2l4 1 4 4-1 2-12-9-15-11-9-6 2-5 11-23 9-23 6-23 4-24 1-10 1-36z" fill="#E37D17"/>
<path transform="translate(482,1313)" d="m0 0h7v12l-1 10-3 1-16 1-14-3-22-6v-2l-9-3v-1l35-6z" fill="#65C59E"/>
<path transform="translate(1103,1311)" d="m0 0 38 6 41 6 2 1v3h-5v-2l-17 3-8 2-28 1h-18l-7 2 1-21z" fill="#62C29B"/>
<path transform="translate(1188,441)" d="m0 0h22l6 10 1 5-92-1 3-2 9-1v-2l13-3 9-2 5-2v-1z" fill="#E27B17"/>
<path transform="translate(1061,466)" d="m0 0h21l51 1v1h-8v2l-16 4-2 1 2 1v3l-6 1 84 1v1h-115l-17-1 1-6z" fill="#E0912F"/>
<path transform="translate(1211,670)" d="m0 0 66 1v13h-72l1-5z" fill="#64C59E"/>
<path transform="translate(796,200)" d="m0 0h20l34 2 26 3 30 6 8 2-2 2-13-1-9-3-16-1-9-2h-8l-16-3h-66l-7 2-19 3h-20l-4 2h-9l-5 1h-16v-2l32-6 31-3z" fill="#FEDA6B"/>
<path transform="translate(522,283)" d="m0 0 4 1 5 10 4 18 4 22-1 4-9-11-7-8-15-15-6-5 2-4 13-8z" fill="#E37C15"/>
<path transform="translate(588,246)" d="m0 0h7l2 2-1 7-5 4-22 4 16 1 5 2 1 4-3 8-3 3-22-4-6-3-5-6 1-5 14-7 15-8z" fill="#C56A19"/>
<path transform="translate(312,642)" d="m0 0h48l7 9 3 5v3l-11-1-50-1 1-11z" fill="#E17A17"/>
<path transform="translate(422,546)" d="m0 0h29l-2 5-6 8-2 2-16 1h-11l-19-1-6-9-2-5z" fill="#E17C16"/>
<path transform="translate(1160,546)" d="m0 0h41l-1 5-4 8-10 1-26 1h-15l-6-7-5-5v-2z" fill="#E37D17"/>
<path transform="translate(462,591)" d="m0 0 4 2 5 4 9 6 6 1 31 2 9 2 15 5 9-3 3-2h3l-1 9-2 1-7 1-9 2h-23l-22-6-11-6-11-9-8-8z" fill="#FDD664"/>
<path transform="translate(1251,512)" d="m0 0 3 3 2 8-4 15-9 20-4 9h-3l-1-5v-2h-2l1 7h-2l1 4-3 5-2 3-1 5-3 1v-3l-2 1v-2l-3 1v-3h3l-1-3 1-4h2l2-5v-2l-1-4 4-10 10-17 8-15 3-6z" fill="#68C69F"/>
<path transform="translate(622,503)" d="m0 0 4 1 6 9 10 19 8 16 12 23 1 4 3 3 4 7v4h2l3 5 2 6 3 3 3 9h2l3 5-1 3-7-10-1-4h-2l-4-8v-4l-4-1v-3h-2l-2-6h-2l-1-6-3-1-1-4-2-1-1-6-2-1v-2l-5 1-2 4-8-20-5-12-10-25z" fill="#F9BB34"/>
<path transform="translate(1173,1172)" d="m0 0 14 5 16 5 16 7 5 5 1 9-2 1-36-12-23-6v-2l9-3z" fill="#FEFEE9"/>
<path transform="translate(481,996)" d="m0 0h14l1 2-3 10-1 1-30 1-18 2-5-5-6-8v-2z" fill="#E27B17"/>
<path transform="translate(1095,996)" d="m0 0 50 1 7 1-1 8-4 4-48 1-4-10-1-4z" fill="#34AC8A"/>
<path transform="translate(415,1173)" d="m0 0 2 1-2 3 3 3 5 2 2 3-29 9-26 8-4-1 2-10 14-7 17-6z" fill="#FEFEE6"/>
<path transform="translate(926,452)" d="m0 0 2 1-10 7-10 6-6 5-2 1 2 7-2 4-5 2-2 4-11 1-3 3h-2l-2 4-5 5h-2l-5-13-1-6 18-8 15-6 14-8 16-8z" fill="#F09D13"/>
<path transform="translate(1142,492)" d="m0 0h88l-1 5-13-2h-14l-10 1-8 2-14 1-2 1-18-2-82-1-4-2 1-1 26-1z" fill="#DD7918"/>
<path transform="translate(966,507)" d="m0 0 1 4-10 26-4 10h-2l-2 7-4 2-2 4h-2l-3 9-2 7-4 4-8 16-1 4-4 2v2h-2l-2 5-2 4h-2l-1 4-7 11-1-3 3-7 20-36 8-16 9-19 21-36z" fill="#F9C540"/>
<path transform="translate(319,727)" d="m0 0h83v1h-50l3 4v2l6 4v2l-4 2h-43l-2-6v-8z" fill="#E39734"/>
<path transform="translate(1020,1182)" d="m0 0h1l1 11 4 8 6 7 11 6 10 4 6 4 1 4-5 5-3 2-7-1-14-6-8-7v-2l-5 2 1-5 2-2v-6l-2-4v-19z" fill="#FEFEE7"/>
<path transform="translate(1231,642)" d="m0 0 7 1h36l2 12v2h-37l-17-1 1-4z" fill="#66C69F"/>
<path transform="translate(1192,888)" d="m0 0h36v7l-2 7h-67l2-2h9v-2l4 1 10-2 5-7z" fill="#128B78"/>
<path transform="translate(999,246)" d="m0 0 6 1 23 12 9 7-2 5-5 5-4 2-16 2h-6l-1-1v-9l3-4 3-1 17-1-22-6-5-10z" fill="#E27B16"/>
<path transform="translate(629,411)" d="m0 0h2l6 9 8 11 5 7v2l4 1 3 5 7 5v2l4 2 2 4-2 5v11l-2 2-5-1-9-16-8-17-10-19-5-11z" fill="#E27A16"/>
<path transform="translate(1134,342)" d="m0 0 5 2 6 7 2 4v3h-44v-9l2-5 5-1z" fill="#E27D19"/>
<path transform="translate(452,341)" d="m0 0 8 1 22 1 1 1 1 14-4 1-40-1 2-5 8-10z" fill="#E37F18"/>
<path transform="translate(1026,301)" d="m0 0h2l-1 11-7 38-4 19-5 3-1 6-1 5-5 7-3-1 1-1-2-1 3-11 5-15 7-28 7-25z" fill="#FDF3BD"/>
<path transform="translate(842,1159)" d="m0 0 19 1 5 2 5 6v6l-6 7-2 1h-14l-8-1v-16z" fill="#FFFFE8"/>
<path transform="translate(404,1201)" d="m0 0 2 1-3 5-6 5-1 3 7-1 5 1 6-1v3l-25 7-16 5-5-1v-13l11-5z" fill="#FEFEE7"/>
<path transform="translate(325,615)" d="m0 0h19l7 8 2 4v3l-3 1h-29l-8-1v-9l2-5z" fill="#E47F17"/>
<path transform="translate(499,519)" d="m0 0h44l7 2 4 11 1 6-8-1-23-6-4-5-3-3h-18l-7-2v-1z" fill="#E06210"/>
<path transform="translate(982,1195)" d="m0 0 2 1-2 11-2 3 1 5 5 4 5 1v1h-10l-35-6 1-15 26 4 7 2z" fill="#FEFEE9"/>
<path transform="translate(1154,398)" d="m0 0h26v2l4 2-1 3-9 1-52 1h-26l-4-2 2-4 7 1 7-1h27z" fill="#E37E17"/>
<path transform="translate(952,1165)" d="m0 0 20 2 18 4 6 1v2l-15 4 1 6-14-1-16-3-2-1 1-13z" fill="#FEFEE8"/>
<path transform="translate(379,441)" d="m0 0h138v1l-17 1h-26l-21 2-8 1-9-1-18 1-3 1h-20l-6 1-1 2-5 2h-2l-1 2h12v1h-21l1-5 5-8z" fill="#E68D1D"/>
<path transform="translate(392,416)" d="m0 0h43l33 1-3 5-4 2-12 1-19-1h-11l-16-4-5-1-4 1-1 8 3 1v1l-10-1 1-5z" fill="#F1A118"/>
<path transform="translate(419,1323)" d="m0 0h9l9 5 9 3 9 2 16 3 15-1 1 1 1 7 1 3-2 1h-31l-1-1-8-1-24-1v-1l32-1-2-6-5-2-13-3-9-3-7-4z" fill="#38AA8A"/>
<path transform="translate(667,452)" d="m0 0 5 2 15 9 14 7 21 6 12 4-1 5-6 12-3 10-2 21h-2v-18l1-3 1-13 1-8-1-2-15-4v-2h-6l-4-2v-2l-6-2v-2l-5-2-4-3v-2l-4-1v-2l-4-1v-2l-4-2z" fill="#F19F14"/>
<path transform="translate(1089,519)" d="m0 0h127v2l-11 1h-49l-47 1-24 1-11-1-18 1-12-1-3-3z" fill="#CB721B"/>
<path transform="translate(632,1046)" d="m0 0h1v13l-7 18-1 7-4 1h-12l-2-1 1-8 9-12 4-7 5-5h3z" fill="#E16410"/>
<path transform="translate(505,334)" d="m0 0 4 4 8 14 10 15 9 15 6 11-1 3-13-13-5-2-3 1-6-16-6-20-3-9z" fill="#FEFEE8"/>
<path transform="translate(1175,1340)" d="m0 0h32l3 5v8l-14-1-35-4v-4l9-3z" fill="#65C59E"/>
<path transform="translate(657,1335)" d="m0 0h15l5 2 1 19-1 2-13 2h-6z" fill="#FEFEE7"/>
<path transform="translate(984,1336)" d="m0 0h17l2 1v22h-20v-22z" fill="#FEFEE8"/>
<path transform="translate(335,507)" d="m0 0 3 3 14 27 14 23v2h-2l-5-8-2-4-5-1-3 2-2 3-7-15-6-15v-16z" fill="#FEFEE8"/>
<path transform="translate(353,568)" d="m0 0 3 1 6 9 10 13 2 4 3 3 6 11 2 4 6 11-6-1-8-4-12-22-12-27z" fill="#F9C541"/>
<path transform="translate(1247,615)" d="m0 0h23l2 1 1 13-1 1h-20l-13-1 2-6z" fill="#67C79F"/>
<path transform="translate(1180,1200)" d="m0 0 11 3 20 7 14 7 1 13-2 1-19-6-14-4 1-2 10 2 3-3-5-5-11-8-9-4z" fill="#FEFEEA"/>
<path transform="translate(1049,1179)" d="m0 0h9l10 4 13 8-1 2-8 2v7l-6-2-14-7-6-5v-6z" fill="#FEFEE8"/>
<path transform="translate(343,698)" d="m0 0h38v1l-9 2-6 3h-2v-2h-5-4l-5-1-9 3-1 2h10l17-1h5l1 3 3 1-1 3h-38l-2-2v-6l-1-3-13-1v-1z" fill="#E0902F"/>
<path transform="translate(672,589)" d="m0 0 5 2 1 4-1 3 3-1 7 10v3h2l7 13 1 3h2l5 8 5 6 5 5 6 9 2 4 12 12 5 4 3 6-4-2-9-7-4-6-8-7-12-14-4-6-3-3-4-8-4-6-2-1-3-6v-2h-2l-4-9v-2l-3-1-4-9z" fill="#FEEDA6"/>
<path transform="translate(1088,968)" d="m0 0h34l6 3 2 5-1 2h-8l-4 1h-8l-2 1-9-1-1-1-3 3h-2l-4-7z" fill="#35AC8B"/>
<path transform="translate(900,1335)" d="m0 0h14l1 4 1 20h-17l-1-1v-14l1-8z" fill="#FEFEE6"/>
<path transform="translate(1168,889)" d="m0 0h23l-6 8-6 2-6 1v-2h-3v2l-9 1-2 1h-11l4-3v-2l-9-5 1-2z" fill="#31AA89"/>
<path transform="translate(403,573)" d="m0 0h31l1 3-2 10-3 2h-16l-5-4-6-9z" fill="#E27B17"/>
<path transform="translate(599,1335)" d="m0 0 2 1 1 23-1 1-17-1 1-22 1-1z" fill="#FEFEFD"/>
<path transform="translate(1252,1202)" d="m0 0 10 1 28 8 1 12-10-3-29-10-1-7z" fill="#FDFDFC"/>
<path transform="translate(1214,522)" d="m0 0 1 2-4 10h-52v-4l20-5 3 3 8 1 1-4h6l2 1 10-2z" fill="#EB8B0F"/>
<path transform="translate(940,1334)" d="m0 0h13v29h-12l-2-2z" fill="#FEFEE7"/>
<path transform="translate(384,896)" d="m0 0 6 1v2l9-1h16l5 3 4 1v2h6v1h-9v2h-43l-1-5 3-4h4z" fill="#C76D1A"/>
<path transform="translate(1157,573)" d="m0 0h28l-1 5-4 7-2 1-9 1h-11l-4-5-1-8z" fill="#E27915"/>
<path transform="translate(1251,1264)" d="m0 0 28 8 10 2-1 12-21-7-16-5-1-1v-8z" fill="#FEFEFC"/>
<path transform="translate(1250,1327)" d="m0 0 11 2 22 6 4 2-2 5v6l-10-3-19-7-8-4 1-6z" fill="#FEFEFD"/>
<path transform="translate(343,1217)" d="m0 0 2 1v7l-9 3-34 11 1-11 32-9z" fill="#FEFEFE"/>
<path transform="translate(340,1234)" d="m0 0h4v7l-9 4-22 6-9 2-1-10 31-8z" fill="#FEFEE8"/>
<path transform="translate(1252,1249)" d="m0 0 26 7 12 4v11l-35-12-4-3v-6z" fill="#FEFEFD"/>
<path transform="translate(1252,1233)" d="m0 0 12 3 23 7 3 2v4h2l-1 5-6-1-18-6-14-5-1-1z" fill="#FEFEFD"/>
<path transform="translate(374,699)" d="m0 0h23l-4 3 1 4-9 3v3h-10v-3l-3-3h-10l-19 1-3-1 2-4 11-2v2l7-2 1 2 6 1z" fill="#E17816"/>
<path transform="translate(1252,1218)" d="m0 0 16 4 18 5 6 1-1 12-13-5-25-8-1-1z" fill="#FEFEFD"/>
<path transform="translate(1251,1311)" d="m0 0 10 2 26 8 2 1v10l-11-3-24-9-3-2z" fill="#FDFDFD"/>
<path transform="translate(1193,1261)" d="m0 0 20 7 11 6 1 2v11l-6-2-18-7-7-2 1-2h5l-1-7-6-4z" fill="#FEFEE8"/>
<path transform="translate(334,1284)" d="m0 0h11l1 4-2 2-42 12 1-10 5-2z" fill="#FEFEFE"/>
<path transform="translate(1080,445)" d="m0 0h8l6 1 3 1 13 2 6 1v2l7 1 1 2h-53l-2-2 1-3h4l-1-3 4-1z" fill="#E09030"/>
<path transform="translate(408,970)" d="m0 0h37l-4 6-6 3-2 2-8 3-7 1-10-14z" fill="#C36819"/>
<path transform="translate(340,1298)" d="m0 0h5v6l-8 3-24 7-10 3v-9l7-3 24-6z" fill="#FEFEFD"/>
<path transform="translate(437,681)" d="m0 0 5 2 15 15h-3l-7-7-2 2-4 6-5 1v5l8 11 6 10-4-2-17-25-3-8 1-3 6-4z" fill="#EC8C0D"/>
<path transform="translate(338,1266)" d="m0 0h5v8l-9 3-19 5-11 4 1-11z" fill="#FDFDFD"/>
<path transform="translate(954,535)" d="m0 0 2 4-3 8h-2l-2 7-4 2-2 4h-2l-3 9-2 7-4 4-8 16-1 4-4 2v2h-2l-2 5-2 4h-2l-1 4-7 11-1-3 3-7 10-18 3-5 7-7 7-14 4-10 4-5 10-19z" fill="#F9B82F"/>
<path transform="translate(1084,416)" d="m0 0h41l-4 3-7 3-5 1h-8l-13 3-3 4 3 1h-8l-2-1 1-7 3-6z" fill="#F19F14"/>
<path transform="translate(1100,842)" d="m0 0h27l2 1-1 8-1 2h-31l3-10z" fill="#2EA687"/>
<path transform="translate(631,1333)" d="m0 0 3 1v30h-11v-30z" fill="#FEFEFE"/>
<path transform="translate(1251,1282)" d="m0 0 11 2 24 7 3 1v10l-9-3-22-7-7-3z" fill="#FEFEFD"/>
<path transform="translate(487,417)" d="m0 0h14l4 1 1 3 2 1v2l3 1 1 5h-36l3-3 5-2v-4l2-1z" fill="#E27A16"/>
<path transform="translate(847,1203)" d="m0 0h5l7 10 6 12v6l-7-6-6-8-5-1-3 9-2 4h-1v-25z" fill="#FEFEE8"/>
<path transform="translate(1165,443)" d="m0 0h10l-4 3v9h-46l3-2 9-1v-2l13-3 9-2z" fill="#EC8B0D"/>
<path transform="translate(622,503)" d="m0 0 4 1 6 9 10 19 5 9v3h-2l-2-3-3-2v-3l-3-2 2 7 1 5v5l-2-3-5-12-10-25z" fill="#FBCB4D"/>
<path transform="translate(1251,1297)" d="m0 0 7 1 25 7 6 3 1 11-6-4-31-10-2-2z" fill="#FEFEFD"/>
<path transform="translate(343,1202)" d="m0 0 2 1v6l-17 5-18 6h-2l-2-7v-3l30-7z" fill="#FEFEFD"/>
<path transform="translate(578,1149)" d="m0 0 8 6 7 4v2l4 2 8 7 5 2 9-2 9-10 1 2-8 14-6 9-4-1-4-5-8-7-10-10-5-4-6-7z" fill="#FCFDE8"/>
<path transform="translate(1125,416)" d="m0 0h25l-1 2-4 1-1 2-12 4-5 1-5-1-7 1-3-1-1 2-5 1-14-1v-3l10-2h7l5-1z" fill="#EB8B0D"/>
<path transform="translate(497,553)" d="m0 0h13l11 2 14 7 10 9 7 10 3 8-1 3-2-4-5-5-3-6-3-2v-2h-2l-4-4v-2l-6-2-7-4-10-4-12-1-2 1-12 1-8 3v-2l13-5z" fill="#FDFCCE"/>
<path transform="translate(1189,916)" d="m0 0h27l-1 4-3 6-7 1-2-1-7 1-8-2h-5l-2-5 3-1-3-2z" fill="#30AA89"/>
<path transform="translate(339,1251)" d="m0 0h4v6l-9 3-26 8h-3l-1-8 20-6z" fill="#FEFEFE"/>
<path transform="translate(500,803)" d="m0 0h2l6 12 3 3 2 7h2l4 9h-2l2 5v3h2l1 5h2l2 8-1 2 3-1v10l4 11v11l1 6-3 1-4-24-7-22-8-20-11-24z" fill="#E37E17"/>
<path transform="translate(562,307)" d="m0 0h3l6 15 8 28-1 3-2-1-1 3v9h-2l-8-38-3-15z" fill="#FEFEFD"/>
<path transform="translate(1090,871)" d="m0 0h14v2h7l8-1 16 1 4 2v2h23v1h-73l-1-3z" fill="#5BB291"/>
<path transform="translate(388,1264)" d="m0 0 1 2-1 3 4 4-1-1v-3l2-1v2l5 2v3l-27 9-4-1 1-9 8-5z" fill="#FEFEFE"/>
<path transform="translate(753,1135)" d="m0 0h2l4 7 5 10 7 17 3 7 9 19 5 12 2 3 2 8h-2l-11-21-4-9-16-34-5-11z" fill="#FEFEE9"/>
<path transform="translate(999,246)" d="m0 0 6 1 23 12 9 7-2 5-2 1-2-3-17-2v-1l12-2-22-6-5-10z" fill="#C56B1A"/>
<path transform="translate(736,676)" d="m0 0 8 6 9 10 4 2v2l2 1-1 11 5 16 10 30 6 28 2 23 3 22-2 2-2-12-3-31-5-25-3-11-7-22-6-17-5-18-4-4v-2l-4-2-7-6z" fill="#F9B72D"/>
<path transform="translate(426,891)" d="m0 0h44v1l-15 1-7 1-4 1h-10l-10-1h-52l-1 5 4 5 2 2h-10l-5-6-3-5v-2l5-1z" fill="#E3811A"/>
<path transform="translate(841,515)" d="m0 0 3 4v11l-4 17h-1l-2-14-5-1-9 1-13 4-13 2 2-2 21-6 11-7 5-5h2v-2z" fill="#F9BC36"/>
<path transform="translate(587,1197)" d="m0 0 4 1 18 18 8 10-1 2-3-2v-2l-5-2-2-2-10-1-1 1-1 9-2 2-1-3-2-24z" fill="#FEFEE8"/>
<path transform="translate(1193,1233)" d="m0 0 17 5 15 6 1 5-1 13-10-3-9-3v-1l8-1-1-7-5-4-8-4-4-3-3-1z" fill="#FEFEE9"/>
<path transform="translate(1251,1176)" d="m0 0 19 4 13 3v2l-7 1-13-1h-2l1 5 3 3 17 7 2 3-24-8-8-3-1-2-1-13z" fill="#FEFEE9"/>
<path transform="translate(1073,441)" d="m0 0h44l28 2v1l-16 1h-28l-11 2-5-1h-8l-1 3v-2l-2 1v2h-4l1 5h-4l1-5z" fill="#F9BA34"/>
<path transform="translate(1125,1315)" d="m0 0 16 2 19 3 3 2-8 3-8 1h-15l-9-1-3-3v-3z" fill="#7ED6AB"/>
<path transform="translate(480,1023)" d="m0 0h5l-2 9-5 9-5-1-13-11-4-3v-2h15z" fill="#E2801A"/>
<path transform="translate(316,756)" d="m0 0h121v1l-119 1 3 10 1 1 120 1v1h-124l-2-5-1-9z" fill="#E99822"/>
<path transform="translate(852,685)" d="m0 0 2 1-6 7-4 12-4 9-3 11-7 22-7 36-2 13h-1v-8l4-25 6-24 4-15 2-13 2-10 1-7z" fill="#F9B72D"/>
<path transform="translate(1093,393)" d="m0 0h71l-2 2-10 2-15 1-45 1-2 1 2-6z" fill="#FACB4C"/>
<path transform="translate(322,578)" d="m0 0 4 2 11 19v2l-17 1-3-1 1-8 3-14z" fill="#C56B1A"/>
<path transform="translate(336,1314)" d="m0 0h7v6l-20 6-14 5 1-5-4-4 19-6z" fill="#FEFEFB"/>
<path transform="translate(436,492)" d="m0 0 19 1 5 1v1l-10 1-3-1-12 1h-33l-27 1h-8l-7-2 1-2z" fill="#C36819"/>
<path transform="translate(1190,548)" d="m0 0 6 2v2l3 1-3 6-10 1h-25l-2-4 5-2 5 1 5-1 2 1 10-5h4z" fill="#EB8B0D"/>
<path transform="translate(867,666)" d="m0 0 2 1-13 12-10 7-11 7-10 4-13 3-9 1h-12l-13-2-13-4-12-6-7-3-4-6 5 2 9 6 16 7 14 3h20l16-3 12-5 12-7 9-7 8-7z" fill="#FEEB99"/>
<path transform="translate(410,392)" d="m0 0 6 1 36 1-3 4-15 1-20 1-7 3-1 2 2 1h-6l2-5z" fill="#E89D30"/>
<path transform="translate(445,790)" d="m0 0h10l4 2 4 6 1 2h-32l2-1v-5l4-3z" fill="#C36819"/>
<path transform="translate(740,1170)" d="m0 0 3 3 8 16 1 3-8 1h-13l7-17z" fill="#FEFEFE"/>
<path transform="translate(685,972)" d="m0 0h1l-1 26-2 25-4 28h-1l-1-9 1-24 3-11 1-13v-18h2z" fill="#FACA49"/>
<path transform="translate(1191,1340)" d="m0 0h16l3 5v8l-14-1-2-2 1-1-10-3 2-4z" fill="#7ED5AA"/>
<path transform="translate(379,441)" d="m0 0 33 1v1l-14 1-1 3-8 1-1 2-5 2h-2l-1 2h12v1h-21l1-5 5-8z" fill="#E0902F"/>
<path transform="translate(429,368)" d="m0 0h57l3 4-1 3v-2l-3-1-2-2h-40v2l-6 3-10 4-1 2 7 1v1h-7l-5-2 2-5z" fill="#E69628"/>
<path transform="translate(761,519)" d="m0 0 7 1 7 6 5 2 7 2 15 2 3 1v2l-9 2-11-1-6-1v-2l-5-2-11-6z" fill="#FEFEE7"/>
<path transform="translate(433,997)" d="m0 0h27l-1 3-11 2 1 4 13 3v1l-18 2-5-5-6-8z" fill="#E38018"/>
<path transform="translate(192,1385)" d="m0 0 1 4 3 3h12l4-1h7v2l-31 8-6 2-4-1 9-11z" fill="#FEFEE8"/>
<path transform="translate(1135,787)" d="m0 0 15 1 7 2v4l-9 1-4 1-9 1-2 2h-8l2-6 4-4z" fill="#32AB8A"/>
<path transform="translate(548,617)" d="m0 0h5l1 4-5 11-6 8-9 7-14 6-3-1 14-7 6-5 1-2h2l2-4 2-3v-10h-7v-1l9-2z" fill="#ED9313"/>
<path transform="translate(1108,316)" d="m0 0 5 2 10 9 3 3v2h-21v-8z" fill="#E27B16"/>
<path transform="translate(1262,580)" d="m0 0 3 1 5 16v4h-17l3-9z" fill="#65C39D"/>
<path transform="translate(870,665)" d="m0 0 2 1-9 9-11 9-14 9-12 6-16 3h-24l-18-4-14-7 2-1 14 6 12 3 9 1h12l13-2 15-4 20-12 10-9 8-7z" fill="#FED866"/>
<path transform="translate(714,534)" d="m0 0h8l2 4v6 1l8 14h-3l-10-9-12-15h6z" fill="#C86F1A"/>
<path transform="translate(749,511)" d="m0 0 5 5 9 10 8 5v2l2 1h-3l-4-3-5-2v-2l-10 3v9l-2-3-2-9v-12z" fill="#FBCB4E"/>
<path transform="translate(323,1363)" d="m0 0 11 1v3l-48 10-4-1 9-3 18-7z" fill="#FEFEE8"/>
<path transform="translate(452,369)" d="m0 0h31l3 2 4 5-1 3-6-4-5-2h-14l-11 1-4 1-11-1 2-2h3v-2z" fill="#EC8B0D"/>
<path transform="translate(399,1340)" d="m0 0 2 2-1 1h21l26 1 8 1 1 1 12 1v1h-17l-7-2-12-1-1 2-8-1-1 1h-22l-6-2-21-2v-1l24-1z" fill="#60BE99"/>
<path transform="translate(402,423)" d="m0 0h8l8 4 25 1 4 2-33 1-18-1-2-3 3-3z" fill="#E27B18"/>
<path transform="translate(655,560)" d="m0 0 4 5 4 10 3 3 4 7v4h2l3 5 2 6 3 3 3 9h2l3 5-1 3-7-10-1-4h-2l-4-8v-4l-4-1v-3h-2l-2-6h-2l-1-6-3-1-1-4-2-1 1-5-2-4z" fill="#FABF3A"/>
<path transform="translate(459,999)" d="m0 0h10l3 3-1 3-9 4-11-1-4-3v-4z" fill="#E16210"/>
<path transform="translate(1106,1025)" d="m0 0h21l-2 4-10 10-4-1-5-10z" fill="#67C79F"/>
<path transform="translate(378,602)" d="m0 0 4 4 2 6 7 11-4 1-10-5-6-11v-2l4-1z" fill="#F8B52C"/>
<path transform="translate(499,519)" d="m0 0h44l6 1v2l-11 1h-39l-7-2v-1z" fill="#CE7518"/>
<path transform="translate(1390,1379)" d="m0 0 3 1 7 8 9 10 2 5-24-8 1-2 4-1v-9z" fill="#FEFEFE"/>
<path transform="translate(340,1345)" d="m0 0 9 4 10 4v6h2v3l-7-1-6-5-10-4-2-1 1-5z" fill="#FEF3BA"/>
<path transform="translate(1153,574)" d="m0 0h2v3h7l1 5 13-1 2 1v-2h2l1-2h2l-2 6-3 2-9 1h-11l-4-5z" fill="#EB8F12"/>
<path transform="translate(1119,815)" d="m0 0h26l-5 6-7 2h-12l-5-3v-2z" fill="#59AE8E"/>
<path transform="translate(1234,555)" d="m0 0h3l-1 4-3 1 1 7h-2l1 4-3 5-2 3-1 5-3 1v-3l-2 1v-2l-3 1v-3h3l-1-3 1-4h2l2-5 2-4 3-3v-3z" fill="#7CD4AA"/>
<path transform="translate(491,942)" d="m0 0h16l-1 12-2 3h-39v-1l30-2 5-5-2-5-7-1z" fill="#E8A749"/>
<path transform="translate(947,1200)" d="m0 0 26 4 1 2h-14l-8 4 5 4v2l-11-1z" fill="#FEFEFD"/>
<path transform="translate(397,699)" d="m0 0 6 5 4 8v1l-22-1v-3l8-4-1-4z" fill="#E19230"/>
<path transform="translate(339,1329)" d="m0 0h6l1 7-18 6-3-1v-2l1-3 2-2-1-2z" fill="#FFFEE7"/>
<path transform="translate(1225,842)" d="m0 0h25l-4 13-5 1-27-1v-1l17-1 7-1 3-7-7-1h-7z" fill="#35AC8B"/>
<path transform="translate(380,1185)" d="m0 0v3l-1 5 2 2h5l1 2-17 5-4-1 2-10z" fill="#FEFEFE"/>
<path transform="translate(629,1067)" d="m0 0h1v5h8l3 3v4l-5 1-2 4h-9l-1-3z" fill="#EC8C0D"/>
<path transform="translate(549,526)" d="m0 0 4 2 2 10-8-1-16-4 1-5 3 1v-2l5 1 1 1 6-1h1z" fill="#C86D1A"/>
<path transform="translate(668,487)" d="m0 0 4 2v2l4 2 2 4 3 1 1 5 3 1v6h2l5 6 3 2v2l3 1 5 5 4 7-1 2-10-10-7-8-10-13-11-16z" fill="#F1A016"/>
<path transform="translate(1202,1152)" d="m0 0 16 4 5 2 1 2v21l-7-1-1-2 3-3v-9l-4-6-4-3-9-4z" fill="#FEFEEC"/>
<path transform="translate(374,917)" d="m0 0h131v1l-129 1 4 6 1 5-4-4-3-6z" fill="#F19E14"/>
<path transform="translate(672,589)" d="m0 0 5 2 1 4-1 3 3-1 7 10v3h2l7 13 1 3-2 2-5-7-2-1-3-6v-2h-2l-4-9v-2l-3-1-4-9z" fill="#FEF0B0"/>
<path transform="translate(866,544)" d="m0 0 7 1 4 2-6 7-13 10-3-1 7-11z" fill="#CA721B"/>
<path transform="translate(952,1165)" d="m0 0 18 2-1 2-11 2-1 3 5 5 7 2-1 2-16-3-2-1 1-13z" fill="#FEFEFD"/>
<path transform="translate(1082,922)" d="m0 0 4 1 4 2 2 2 21 1 54 1v1h-84l-1-1z" fill="#6BC9A1"/>
<path transform="translate(475,317)" d="m0 0 3 1 3 7v6h-18l3-5z" fill="#E19029"/>
<path transform="translate(754,1212)" d="m0 0h5l4 6v8l-2 1-3-7-3-3-2-1h-10l-17 3h-3v2l-2-1 2-5 3-1z" fill="#FEFEE8"/>
<path transform="translate(1218,468)" d="m0 0 6 2 1 3-4 6-6 1-10-2-2-4 3-1 7-1v-2z" fill="#EB8A0D"/>
<path transform="translate(352,728)" d="m0 0h40l-3 3-7 2h-11l-9-1-4 2-1-3-5-1z" fill="#EC8B0D"/>
<path transform="translate(444,971)" d="m0 0 11 3 1 2-8 5-17 3h-6l1-2 5-1 3-2 4-2 5-5z" fill="#E16410"/>
<path transform="translate(1169,1322)" d="m0 0 13 1 2 1v3h-5v-2l-17 3-8 2-28 1h-18l-7 2 1-4 48-1 10-2 9-2z" fill="#30AA89"/>
<path transform="translate(722,1146)" d="m0 0 2 1-5 15-7 18-7 20h-1v-8l4-10 2-3 1-8 3-6 3-11z" fill="#FEFEE8"/>
<path transform="translate(373,1241)" d="m0 0h2v2h-2l3 9 6 2h2l1-2h7l-3 2-17 6h-4v-15l3-3z" fill="#FEFEEC"/>
<path transform="translate(629,411)" d="m0 0h2l6 9 8 11 3 4v5l-2 3-3-1-14-29z" fill="#DC7C1C"/>
<path transform="translate(446,552)" d="m0 0 2 1-7 8-23-1-1-4 8-1h8l1-2z" fill="#EC8F11"/>
<path transform="translate(556,266)" d="m0 0 5 1v2l7 2 1 3 7 1 5 3v2l-14-2-9-3-6-7z" fill="#E37E17"/>
<path transform="translate(340,1234)" d="m0 0h4v7l-9 4-9 2v-2h2l-2-7 8-3z" fill="#FEFEFD"/>
<path transform="translate(426,891)" d="m0 0h44v1l-15 1-7 1-4 1h-10l-10-1-35-1v-1z" fill="#E48017"/>
<path transform="translate(503,453)" d="m0 0h18l2 1v3h-48v-2z" fill="#C3681A"/>
<path transform="translate(352,548)" d="m0 0 5 1 3 5 4 6v2h3l2 5 1 11-3-4-3-6v-2h-2l-3-4v-2l-3-1-3-5-5-1 2-4z" fill="#FDFCCC"/>
<path transform="translate(386,1289)" d="m0 0 2 1-4 3-9 3-1 7 7 5-1 3-7 2h-4v-17z" fill="#FEFEEC"/>
<path transform="translate(186,1217)" d="m0 0 2 1-3 2h-3v7l9 7 10 7 7 4 6 4-1 2-19-12-13-9-11-6-1-2z" fill="#FEFEE8"/>
<path transform="translate(736,676)" d="m0 0 8 6 9 10 4 2v2l2 1-1 11 5 16 1 5-2-1-6-17-5-18-4-4v-2l-4-2-7-6z" fill="#F9BA33"/>
<path transform="translate(335,507)" d="m0 0 3 3 10 19h-3l-5-4-2 5h-2l-2-6v-16z" fill="#FEFEFC"/>
<path transform="translate(465,441)" d="m0 0h52v1l-17 1h-26l-21 2-8 1-8-1v-2z" fill="#EE9616"/>
<path transform="translate(1145,368)" d="m0 0h13l5 5-5-1h-40l-1-2 2-1z" fill="#F09D1D"/>
<path transform="translate(310,1226)" d="m0 0 7 1 3 4-2 3-16 5 1-11z" fill="#FEFEE8"/>
<path transform="translate(638,1194)" d="m0 0 3 1 2 15 2 7v6l-2-3-3-8-3-2h-7l2-5z" fill="#FEFEE8"/>
<path transform="translate(1155,393)" d="m0 0h9l-2 2-10 2-15 1-45 1-2 1 2-4h43l7-1z" fill="#F8B52B"/>
<path transform="translate(353,568)" d="m0 0 3 1 6 9 10 13-1 2-3-3-2 2 2 2h-4l-10-21z" fill="#F9C03D"/>
<path transform="translate(513,309)" d="m0 0 5 2 4 4v2l9 3 4 3h-2l2 2 2-2 2 11-1 4-9-11-7-8-9-9z" fill="#ED9314"/>
<path transform="translate(1155,970)" d="m0 0h18l1 2h-2l-1 2 4 1-5 2-2 1h-12l-1-4z" fill="#30AA89"/>
<path transform="translate(368,505)" d="m0 0h13l1 2h17l13-2 11 2v1l-19 1h-39l-1-2z" fill="#C3681A"/>
<path transform="translate(1215,466)" d="m0 0h9l5 5 5 10h-18l1-2 4-1 3-5v-2l-4-2v-2h-5z" fill="#E07D18"/>
<path transform="translate(412,728)" d="m0 0 7 1 7 8 2 6h-51v-1l47-1-3-1-1-5-7-3v-2l-2-1z" fill="#E5962A"/>
<path transform="translate(1170,868)" d="m0 0h18l48 1v1l-38 1-15 1h-9z" fill="#5AB090"/>
<path transform="translate(1278,1335)" d="m0 0 9 1-2 6v6l-10-3-1-3-3-1 2-4h5z" fill="#FEFEE9"/>
<path transform="translate(432,673)" d="m0 0 5 2 14 13 4 5 8 7 5 5v2l-4-2-5-3-7-8-16-16z" fill="#FEEDA6"/>
<path transform="translate(1399,1217)" d="m0 0 11 3 9 3-1 3-14 6v-8l-2-4z" fill="#FEFEE8"/>
<path transform="translate(899,628)" d="m0 0h3l-2 5-9 14-8 10-2 3h-2l-2 4-3 3-3-1 9-11 5-6 5-5 5-7 3-7z" fill="#FAC13B"/>
<path transform="translate(312,642)" d="m0 0h36v1l-31 1-5 2v9l45 1v1h-48l1-11z" fill="#E89A29"/>
<path transform="translate(817,1156)" d="m0 0h1v38l-1 14h-2v-29l1-20z" fill="#FEFEE8"/>
<path transform="translate(1225,495)" d="m0 0 4 2-3 9h-9l-4-1 2-7z" fill="#F19F16"/>
<path transform="translate(505,334)" d="m0 0 4 4 8 14 8 12-2 1-6-8h-6l-5-18z" fill="#FEFDFB"/>
<path transform="translate(509,738)" d="m0 0 5 2 16 8 1 2 23 11 6 4-3 1-11-6-16-8-5-2-15-10z" fill="#FED866"/>
<path transform="translate(388,1264)" d="m0 0 1 2-1 3 4 4-1-1v-3l2-1v2l5 2v3l-10 3-4-1-2-4 1-5 2-3z" fill="#FEFEE8"/>
<path transform="translate(310,1258)" d="m0 0h8l2 5-5 3-10 2-1-8z" fill="#FDFEE7"/>
<path transform="translate(330,813)" d="m0 0 39 1-3 2-2 1h-24l-4 1-5-3z" fill="#C3681A"/>
<path transform="translate(852,1160)" d="m0 0h9l5 2 5 6v6l-6 7-2 1h-14l3-2 10-1 5-4v-6l-4-4-11-4z" fill="#FEFEFE"/>
<path transform="translate(1181,815)" d="m0 0h17l5 1-1 2-6 2-1 2h-12l-2-4z" fill="#59AF8F"/>
<path transform="translate(311,1209)" d="m0 0 6 1 1 2 6 2-2 2-12 4h-2l-2-7v-3z" fill="#FEFEEA"/>
<path transform="translate(435,368)" d="m0 0h51l3 4-1 3v-2l-3-1-2-2h-40v2l-4 1-8-1z" fill="#F19F15"/>
<path transform="translate(364,466)" d="m0 0 53 1v1l-38 1-12 2-6 4-2 4-2-1z" fill="#E89D30"/>
<path transform="translate(313,1320)" d="m0 0 10 1 1 4-9 4-6 2 1-5-4-4z" fill="#FEFEE8"/>
<path transform="translate(1086,1093)" d="m0 0 7 4 5 3 11 3v1l-12-1-18-3v-2z" fill="#FEFEEB"/>
<path transform="translate(419,1323)" d="m0 0h9l9 5 9 3 9 2 3 2h-8l-15-4-9-3-7-4z" fill="#54AE8D"/>
<path transform="translate(966,507)" d="m0 0 1 4-2 6-5 5-1 4-5 5-9 16-4 5 1-5 21-36z" fill="#FDD765"/>
<path transform="translate(1082,338)" d="m0 0 2 1-2 9-3 8h-2l-2 5-3-4 1-5 8-13z" fill="#4EAF8E"/>
<path transform="translate(939,554)" d="m0 0 1 3-1 5-3 5-11 22-3 1-2 5-1-2 8-16z" fill="#FCD158"/>
<path transform="translate(954,535)" d="m0 0 2 4-3 8h-2l-2 7-4 2-2 4-3-1 10-19z" fill="#F8B52C"/>
<path transform="translate(1116,322)" d="m0 0 4 2 5 4 1 4h-16l2-9 4 1z" fill="#C46919"/>
<path transform="translate(960,232)" d="m0 0 4 5 9 17 6 14-1 2-6-7-2-7-5-8-1-7-2-1-2-4z" fill="#FEDA6C"/>
<path transform="translate(988,1342)" d="m0 0h7l3 4v5l-3 2-5-1-4-4 1-4z" fill="#FDFCCC"/>
<path transform="translate(841,515)" d="m0 0 3 4v11l-1 5h-2l-2-7-6-3 4-5 1-3z" fill="#FACA4C"/>
<path transform="translate(482,1338)" d="m0 0h4l3 6v2h-13v-2h-3l-1-4 1-1z" fill="#0F8976"/>
<path transform="translate(661,1155)" d="m0 0 5 10 1 8v23l-2-1-4-31z" fill="#FEFEEA"/>
<path transform="translate(1324,567)" d="m0 0h2l7 33 1 14-2-1-6-30z" fill="#FEFEE8"/>
<path transform="translate(481,996)" d="m0 0h14l1 2-3 3-15 1h-3v-4z" fill="#C96F19"/>
<path transform="translate(343,698)" d="m0 0h38v1l-9 2-6 3h-2v-2h-5-4-2v-3h-10z" fill="#EBAD49"/>
<path transform="translate(1246,543)" d="m0 0h3l-3 9-7 15h-3l-1-5 5-8 2-5 3-2z" fill="#7BD4A9"/>
<path transform="translate(587,1197)" d="m0 0 4 1 12 12v2l-6-2-4-1-1 3h-2l-2-11z" fill="#F9FCFA"/>
<path transform="translate(1086,891)" d="m0 0h15v2l-9 1v3h-2l-1 4-2 1 3 2h-5l-1-1v-7z" fill="#65C59E"/>
<path transform="translate(483,845)" d="m0 0h6l3 2 1 6h-11l-3-2v-4z" fill="#C4691A"/>
<path transform="translate(761,171)" d="m0 0 70 1v1l-73 1v-2z" fill="#FFF3BA"/>
<path transform="translate(550,613)" d="m0 0h5l-1 5h-6l-5 2-6 1h-23v-1l20-2 12-3z" fill="#F9C33D"/>
<path transform="translate(898,1344)" d="m0 0 2 4 2 5 5 3 5-1 3-3 1 1v6h-17l-1-1z" fill="#FEFEFE"/>
<path transform="translate(1101 1e3)" d="m0 0 2 4-2 3 1 1h47l-2 2-48 1-3-6 1-2 2 1-1-3z" fill="#6AC9A1"/>
<path transform="translate(685,972)" d="m0 0h1l-1 26-1 9h-2v-31h2z" fill="#FAC846"/>
<path transform="translate(331,822)" d="m0 0 2 1h16l9 1 14 2v1h-24l-16-1z" fill="#E09030"/>
<path transform="translate(403,573)" d="m0 0h31l1 3-3 1-28-1z" fill="#CF7618"/>
<path transform="translate(646,500)" d="m0 0 4 5 10 13 8 11h-3l-4-4v-2l-4-2-4-4-3-8-3-3z" fill="#FEFEEB"/>
<path transform="translate(1209,333)" d="m0 0 5 5 13 17 12 18-1 2-13-18-4-5-12-16z" fill="#FEFEE9"/>
<path transform="translate(395,418)" d="m0 0h7l10 4-4 2-6-1-1 2-5 1-3 2v-8z" fill="#E09030"/>
<path transform="translate(1084,416)" d="m0 0h20v2l-13 2-9 3-2 4-2-1 4-9z" fill="#FAC141"/>
<path transform="translate(517,522)" d="m0 0h13l1 1v5h-3l3 1v3l-7-1-4-5z" fill="#E06812"/>
<path transform="translate(379,441)" d="m0 0 33 1v1l-23 1-9 2-1 2h-2v2l-6 5 1-5 5-8z" fill="#F8B42A"/>
<path transform="translate(452,394)" d="m0 0h43l-2 2-42 1-1-2z" fill="#EE940F"/>
<path transform="translate(717,913)" d="m0 0h2v11l-1 2v9l-1 10h-2v-29h2z" fill="#F2A218"/>
<path transform="translate(1068,213)" d="m0 0 14 8 16 11 9 6-3 1-12-7-12-9-12-8z" fill="#FEFEE9"/>
<path transform="translate(812,151)" d="m0 0 8 1v3l-2 1h-17l-7-2v-1l5-1h10z" fill="#FFF3BA"/>
<path transform="translate(1214,1270)" d="m0 0 5 1 5 3 1 2v11l-6-2 1-3-4-10z" fill="#FEFEFE"/>
<path transform="translate(364,867)" d="m0 0h18v1l-25 3-5 2 1 6-4-5-1-5z" fill="#E89E30"/>
<path transform="translate(951,433)" d="m0 0h2l-2 6-7 13h-2l-2-3 1-6 5-3 4-6z" fill="#C76C19"/>
<path transform="translate(1170,1341)" d="m0 0h6l-2 7h-13v-4z" fill="#138C78"/>
<path transform="translate(304,1291)" d="m0 0 5 1 6 3v3l-11 4h-2l1-10z" fill="#FEFEE9"/>
<path transform="translate(1110,343)" d="m0 0h18v1l-15 1-3 3-3 6h-2v2l2 1-4 1v-9l2-5z" fill="#EA9821"/>
<path transform="translate(470,520)" d="m0 0h22l7 2v1l-15 1-7-1-21-1v-1z" fill="#E16D12"/>
<path transform="translate(1201,519)" d="m0 0h15v2l-11 1h-46v-2z" fill="#C3681A"/>
<path transform="translate(748,142)" d="m0 0h9l-1 2-22 2-8 2 2 1-1 1h-8l-1-4z" fill="#FFFFE8"/>
<path transform="translate(754,520)" d="m0 0 1 2h2l3 3v2l-9 3v9l-2-3v-11z" fill="#F9B931"/>
<path transform="translate(392,416)" d="m0 0h7l-3 3-2 1-1 8 3 1v1l-10-1 1-5z" fill="#F3A71F"/>
<path transform="translate(918,595)" d="m0 0 1 2-3 7-4 8-3 7-6 9-1-3 3-7 10-18z" fill="#FAC543"/>
<path transform="translate(186,1392)" d="m0 0 2 1v3l6 1 6-1v2l-18 5-4-1z" fill="#FEFEFE"/>
<path transform="translate(1216,1293)" d="m0 0 6 2 1 2v15l-2 1-5-2 2-1 1-10z" fill="#FEFEE9"/>
<path transform="translate(562,1129)" d="m0 0 5 1-3 6-5 2-9 1-1-4 8-1z" fill="#FFF3BA"/>
<path transform="translate(320,586)" d="m0 0h1l-1 11h2v2l6-1 4 2v-2l5 1v2l-17 1-3-1 1-8z" fill="#E59A35"/>
<path transform="translate(677,1349)" d="m0 0h1v7l-1 2-13 2h-6v-7l4 2 7 1 6-2z" fill="#FEFEFE"/>
<path transform="translate(1157,573)" d="m0 0h28v3l-7-1-10 1-13 1v-3z" fill="#C56A19"/>
<path transform="translate(1191,553)" d="m0 0h7l-2 6-10 1h-12v-1l8-2 5-1 2 1v-2h2z" fill="#F1A118"/>
<path transform="translate(687,512)" d="m0 0 8 6v2l3 1 5 5 4 7-1 2-10-10-7-8z" fill="#F2A31B"/>
<path transform="translate(882,1195)" d="m0 0h2v13l4 10h-2l-8-15-1-4 1-2z" fill="#FEFEEA"/>
<path transform="translate(596,598)" d="m0 0 1 4h3l2 8-2 4-1-1-2 2-2-6h-2v-6z" fill="#FFF3BA"/>
<path transform="translate(629,411)" d="m0 0h2l6 9 7 10-2 1-2-1v2h-2l-9-19z" fill="#E2861F"/>
<path transform="translate(906,510)" d="m0 0 2 1-4 5-3 6-3 2v-3l-4-2 1-3z" fill="#C46919"/>
<path transform="translate(1061,466)" d="m0 0h21l7 1-3 2-5 1-17-1h-4z" fill="#F9C244"/>
<path transform="translate(453,506)" d="m0 0h11l9 1v1l-5 1h-27l-11-1v-1z" fill="#C3681A"/>
<path transform="translate(423,1344)" d="m0 0h24l8 1 1 1 12 1v1h-17l-7-2-12-1-1 2-7-1z" fill="#64C59E"/>
<path transform="translate(842,1159)" d="m0 0h6l1 2-5 2v14l4 4h-7v-16z" fill="#FEFEFE"/>
<path transform="translate(870,667)" d="m0 0 3 1-11 11h-2l-2 4-2 2-7 2 4-5 11-9z" fill="#F9C13A"/>
<path transform="translate(671,589)" d="m0 0 4 5 2 6 3 3 3 9h2l3 5-1 3-7-10-1-4h-2l-4-8v-4h-2z" fill="#FAC543"/>
<path transform="translate(1147,652)" d="m0 0h2l-1 3-8 7-11 6-3-1 8-6z" fill="#66C69F"/>
<path transform="translate(939,1353)" d="m0 0h2l6 7 4-1 2-1v5h-12l-2-2z" fill="#FEFEFE"/>
<path transform="translate(1236,548)" d="m0 0 1 3 1 1 4-3-1 6h-2l-1 3-1-3-5 3-2 5h-2l1-7 2-2 1-3h2v-2z" fill="#64C59E"/>
<path transform="translate(411,1327)" d="m0 0 2 4v8l-3 1h-10l3-2 4-4z" fill="#5BB391"/>
<path transform="translate(499,920)" d="m0 0 5 2h2v6l-7 1-3-3 1-5z" fill="#C3681A"/>
<path transform="translate(1045,339)" d="m0 0 2 1v3h4l-2 4-5 6-3-1 3-11z" fill="#C16C1E"/>
<path transform="translate(867,666)" d="m0 0 2 1-13 12-10 7-5 2 5-5 9-7 8-7z" fill="#FEEB99"/>
<path transform="translate(412,442)" d="m0 0h13l-1 2-19 1-7 1-3-1-6-1v-1z" fill="#F19E13"/>
<path transform="translate(1119,369)" d="m0 0h19v2l2 1h-22l-1-2z" fill="#EC8D0D"/>
<path transform="translate(412,728)" d="m0 0 7 1 7 8v2h-5l-1-4-7-3v-2l-2-1z" fill="#F1A018"/>
<path transform="translate(1162,597)" d="m0 0 3 1-1 5-6 5h-4l2-5 4-5z" fill="#D17B1E"/>
<path transform="translate(1163,505)" d="m0 0h2v2h5v1h-56v-1l47-1z" fill="#F19E13"/>
<path transform="translate(414,732)" d="m0 0 7 2v5l-9 1h-2l1-4 1-3z" fill="#E09030"/>
<path transform="translate(304,1307)" d="m0 0 5 1 3 2-1 3h-2v2l-6 2v-9z" fill="#FEFEE8"/>
<path transform="translate(335,507)" d="m0 0 3 3 4 8-1 2-3-1h-3l-1 2v-13z" fill="#F8FBE4"/>
<path transform="translate(885,649)" d="m0 0 1 2-2 5-3 4h-2l-2 4-3 3-3-1 9-11z" fill="#FBC94A"/>
<path transform="translate(1169,1322)" d="m0 0 13 1 2 1v3h-5v-2l-15 2 2-3h3z" fill="#38AA8A"/>
<path transform="translate(305,1275)" d="m0 0 6 1 1 5-4 4-4 1z" fill="#FEFEE8"/>
<path transform="translate(677,1268)" d="m0 0h14l15 1v1l-37 1 4-2z" fill="#FFFFE8"/>
<path transform="translate(940,560)" d="m0 0 1 2-4 9-1 5-4 4h-2l1-4 5-12z" fill="#F9B72D"/>
<path transform="translate(1034,593)" d="m0 0 2 4-1 5 1 8 5 2 3 3-6-2-5-2-1-4v-9z" fill="#64C59E"/>
<path transform="translate(383,1172)" d="m0 0 4 1-17 6-3-1 2-5h11z" fill="#FEFEE9"/>
<path transform="translate(1259,785)" d="m0 0h7l-2 10-4 1-1-4 1-4h3v-2l-4 1z" fill="#39AF8D"/>
<path transform="translate(404,728)" d="m0 0h8l2 5-4 1-10-3-2-2z" fill="#EC8B0D"/>
<path transform="translate(1103,1311)" d="m0 0 11 2-1 2-2-1 1 3-7 2-2-4z" fill="#57AE8E"/>
<path transform="translate(724,546)" d="m0 0 3 4 5 10-4-2-7-6 1-5z" fill="#E5AF38"/>
<path transform="translate(1055,332)" d="m0 0h3l-1 4-5 7h-5l1-6 4-1 1-1z" fill="#DF6511"/>
<path transform="translate(1235,546)" d="m0 0 1 3h-2v2h-2l1 4-4 1-1 7-3 2 1-8 5-9h4z" fill="#7AD3A9"/>
<path transform="translate(1033,537)" d="m0 0 4 1-1 7-6 2-1-3z" fill="#C66C19"/>
<path transform="translate(951,537)" d="m0 0v3l-10 19h-2l1-7h2l2-5 5-8z" fill="#FAC641"/>
<path transform="translate(686,213)" d="m0 0 4 1-2 2-13 3h-10l3-2z" fill="#FEDB6F"/>
<path transform="translate(1175,1340)" d="m0 0h7l-2 4-1 5h-11v-1h6v-5h2z" fill="#5AB08F"/>
<path transform="translate(1008,1234)" d="m0 0 4 2 10 8 11 5 6 2-2 2-16-7-13-10z" fill="#FEFEE9"/>
<path transform="translate(672,589)" d="m0 0 5 2 1 4-1 3 3-1 3 4-1 6-3-4v-2l-3-1-4-9z" fill="#FEECA3"/>
<path transform="translate(936,587)" d="m0 0 2 1-7 19h-1l-1-8 3-4 1-4z" fill="#F8B831"/>
<path transform="translate(963,409)" d="m0 0 1 3-7 15-4-1 8-14z" fill="#F1A019"/>
<path transform="translate(480,890)" d="m0 0h22l2 2v3l-13-3-11-1z" fill="#E88A15"/>
<path transform="translate(1108,316)" d="m0 0 5 2v2l-2 1-2 4h-2l-1 6 3 1h-4v-8z" fill="#E39630"/>
<path transform="translate(399,1340)" d="m0 0 2 2-1 2-6 1-21-2v-1l24-1z" fill="#61BF9A"/>
<path transform="translate(1082,922)" d="m0 0 4 1 4 2 2 4h-10z" fill="#65C59E"/>
<path transform="translate(497,872)" d="m0 0h3l1 6h-11l1-3h2v-2z" fill="#C56A19"/>
<path transform="translate(623,654)" d="m0 0 3 4v2h2v5h-5l-2-3v-5z" fill="#FDFCCC"/>
<path transform="translate(761,524)" d="m0 0 5 2 10 5 3 2v2l-6-1-2-1v-2l-5-2z" fill="#FEF0AF"/>
<path transform="translate(1e3 1353)" d="m0 0h1v6h-20v-5h2v2l10 1 6-2z" fill="#FEFEFE"/>
<path transform="translate(458,588)" d="m0 0 4 4-5 2-2 15h-1v-13l2-7z" fill="#EF9B17"/>
<path transform="translate(932,572)" d="m0 0 1 2-8 15-3 1-2 5-1-2 6-11h2l2-6z" fill="#FBCC4E"/>
<path transform="translate(442,813)" d="m0 0h20l4 2-23 1-2-2z" fill="#D86C14"/>
<path transform="translate(742,680)" d="m0 0 5 2 9 6 9 5-2 1-10-5-7-3z" fill="#FEE790"/>
<path transform="translate(989,1344)" d="m0 0h6l1 1v6h-4l-3-2z" fill="#FFFFE8"/>
<path transform="translate(189,1233)" d="m0 0 11 7 14 9-1 2-19-12-5-4z" fill="#FEFEE8"/>
<path transform="translate(1126,1103)" d="m0 0 4 1-4 5-16-4v-1h13z" fill="#FEFEE9"/>
<path transform="translate(353,568)" d="m0 0 3 1 8 12-6-1-5-10z" fill="#F9C74D"/>
<path transform="translate(668,531)" d="m0 0 5 4 9 11 2 3-4-2-10-10-2-3z" fill="#FFFFE8"/>
<path transform="translate(971,496)" d="m0 0 1 3-4 10-2-1-4 6-1-3 9-14z" fill="#FEEB9B"/>
<path transform="translate(1124,252)" d="m0 0 4 2 9 7 10 9h-3l-7-6-11-9z" fill="#FFFFE8"/>
<path transform="translate(449,1342)" d="m0 0 8 2v2l3 1-5-1-8-1-24-1v-1z" fill="#58AD8D"/>
<path transform="translate(1284,1184)" d="m0 0 12 2 11 3 1 2-8-1-13-3z" fill="#FEFEE9"/>
<path transform="translate(548,617)" d="m0 0h5l1 4-2 5h-2v-4h-2v-2h-5l3-2z" fill="#F0A019"/>
<path transform="translate(624,465)" d="m0 0h2l9 15-1 2-4-6v-2l-5-2-2-5z" fill="#FEFEE8"/>
<path transform="translate(405,444)" d="m0 0h17l-4 2-3 1h-16l1-2z" fill="#EC8B0D"/>
<path transform="translate(1e3 387)" d="m0 0 3 1-1 5-2 4-1 3h-3l1-7z" fill="#FDFCCF"/>
<path transform="translate(832,490)" d="m0 0 5 5 4 7 1 7-4-4-4-11z" fill="#FEFEE8"/>
<path transform="translate(1139,476)" d="m0 0 4 1 5 1-2 2h-20v-1l11-2z" fill="#E09030"/>
<path transform="translate(1184,305)" d="m0 0 13 13 6 8-4-2-8-9-6-5z" fill="#FFFFE8"/>
<path transform="translate(542,1279)" d="m0 0h11l1 2-17 2h-5l2-2z" fill="#FEFEE8"/>
<path transform="translate(1215,1188)" d="m0 0 5 2 4 4 1 9-2 1-6-2 1-2h3l1-3-3-5z" fill="#FEFEFD"/>
<path transform="translate(895,1169)" d="m0 0h1v11l-2 7-6 5 6-15z" fill="#FFFFE8"/>
<path transform="translate(435,706)" d="m0 0 3 1 7 11 5 8-4-2-11-16z" fill="#EE9314"/>
<path transform="translate(1188,944)" d="m0 0h10l-2 5h-2v2l-3-1v-2l-3-3z" fill="#33AB8A"/>
<path transform="translate(1203,925)" d="m0 0 5 1 3 1-2 3-21-1v-1l13-1z" fill="#66C69F"/>
<path transform="translate(483,717)" d="m0 0 4 2 5 3 3 6-5-2-9-7z" fill="#FEEFAC"/>
<path transform="translate(309,671)" d="m0 0h2v7l4 6h-7v-8z" fill="#EC9012"/>
<path transform="translate(350,560)" d="m0 0 3 2 4 6 4 5 3 5-1 2-7-9-4-4z" fill="#FEF1B2"/>
<path transform="translate(821,809)" d="m0 0 2 1v12l-2 2-1-1v-13z" fill="#EC8B0D"/>
<path transform="translate(312,728)" d="m0 0h3l-1 10h2v2l7 1v1h-9l-2-6z" fill="#F8BF45"/>
<path transform="translate(1188,710)" d="m0 0 22 1v1l-7 1h-16z" fill="#7ED6AB"/>
<path transform="translate(1162,640)" d="m0 0h3v2l-9 7h-3l-1 3-3-1z" fill="#68C7A0"/>
<path transform="translate(655,560)" d="m0 0 4 5 3 6v4l-6-3 1-5-2-4z" fill="#FAC544"/>
<path transform="translate(551,437)" d="m0 0 3 1 2 7-8-1-1-3z" fill="#FEFEE7"/>
<path transform="translate(422,598)" d="m0 0h7l1 1v6l-4-1-4-5z" fill="#D38322"/>
<path transform="translate(379,441)" d="m0 0 2 2-3 4-1 3-6 5 1-5 5-8z" fill="#F9BE3C"/>
<path transform="translate(486,416)" d="m0 0h19l4 5 1 3h-2v-2l-3-1v-3l-19-1z" fill="#F3B13D"/>
<path transform="translate(1210,816)" d="m0 0h7l2 2-9 3-5-1 3-1v-2z" fill="#59AE8E"/>
<path transform="translate(509,738)" d="m0 0 5 2 16 8-3 1-11-5-7-5z" fill="#FEE78F"/>
<path transform="translate(1196,546)" d="m0 0h5l-1 5-4 1v-2l-4-1v-2z" fill="#DC7816"/>
<path transform="translate(714,534)" d="m0 0h8l1 4-6 1-4-4z" fill="#E17A18"/>
<path transform="translate(1251,1176)" d="m0 0 15 3 1 2-16-1-1-3z" fill="#FEFEFE"/>
<path transform="translate(554,786)" d="m0 0 5 5 7 10 1 4-3-3-3-4v-2l-3-1-4-7z" fill="#EC8F11"/>
<path transform="translate(505,735)" d="m0 0 5 1 15 8-3 1-11-6-5-2z" fill="#FEF0B1"/>
<path transform="translate(641,435)" d="m0 0h5v2h2l-1 4-1 2-3-1-2-4z" fill="#C96D19"/>
<path transform="translate(429,368)" d="m0 0 4 1-5 3 1 3-5 4-2 3-1-3 7-10z" fill="#F7BA3D"/>
<path transform="translate(452,341)" d="m0 0 8 1v2l-10 2-5 6v-3z" fill="#EE9A1E"/>
<path transform="translate(1410,1221)" d="m0 0 7 1 2 1-1 3-6 2z" fill="#FEFEFE"/>
<path transform="translate(540,769)" d="m0 0 5 5 9 10-1 2-6-5-1-3-3-2-3-5z" fill="#EB8E12"/>
<path transform="translate(533,643)" d="m0 0 2 1-1 3-14 6-3-1 14-7z" fill="#EE9513"/>
<path transform="translate(656,560)" d="m0 0h2l6 12v2h2l-1 4v-2l-3-1-4-10z" fill="#FEEB9F"/>
<path transform="translate(523,522)" d="m0 0h7l1 1v5l-6-2-3-3z" fill="#E17615"/>
<path transform="translate(479,521)" d="m0 0h14l6 1v1l-15 1-5-1z" fill="#E16210"/>
<path transform="translate(859,1135)" d="m0 0 12 2 4 2-2 1-19-3v-1z" fill="#FFFFE8"/>
<path transform="translate(953,426)" d="m0 0h3l-1 5-1 2-5 3h-3l5-6z" fill="#E1912D"/>
<path transform="translate(847,1203)" d="m0 0h5l5 8-4-2-4-4-8 1v-2z" fill="#FEFEFE"/>
<path transform="translate(456,1024)" d="m0 0h8l5 1-3 2-8 1z" fill="#C76C19"/>
<path transform="translate(1216,493)" d="m0 0h14l-1 4-13-2z" fill="#DB7717"/>
<path transform="translate(448,1345)" d="m0 0h7l1 1 12 1v1h-17l-3-1z" fill="#66C69F"/>
<path transform="translate(638,1194)" d="m0 0 3 1v9l-4-3-1-3z" fill="#FEFDFA"/>
<path transform="translate(413,977)" d="m0 0 5 1 2 4 3 1-5 2z" fill="#E37217"/>
<path transform="translate(359,736)" d="m0 0 5 1 2 4-1 1h-8l1-2h3v-2h-2z" fill="#EE930F"/>
<path transform="translate(870,667)" d="m0 0 3 1-11 11-2-1z" fill="#F9BD35"/>
<path transform="translate(671,589)" d="m0 0 4 5 4 11-2 1-4-8v-4h-2z" fill="#FAC340"/>
<path transform="translate(1239,555)" d="m0 0h2l-2 5v1h2l-2 6h-3l-1-5z" fill="#7DD5AA"/>
<path transform="translate(851,1169)" d="m0 0h5l1 5-7-1z" fill="#FDFCCC"/>
<path transform="translate(522,750)" d="m0 0 4 2 3 3v2l4 2 1 3h-2l-3-3-6-5z" fill="#EA8B11"/>
<path transform="translate(918,595)" d="m0 0 1 2-3 7-3 6-3 1 2-5z" fill="#FCD157"/>
<path transform="translate(365,586)" d="m0 0 5 2 2 5-4-3-2 2 2 2h-4v-6z" fill="#F8B52C"/>
<path transform="translate(708,572)" d="m0 0 4 2 12 9-2 1-8-5z" fill="#FEFEE9"/>
<path transform="translate(1202,519)" d="m0 0h14v2l-11 1-4-2z" fill="#C56B1A"/>
<path transform="translate(537,328)" d="m0 0h1l1 10-5-5-1-4z" fill="#F1A827"/>
<path transform="translate(880,1018)" d="m0 0h2l1 5v9l-2-1-2-12z" fill="#F2A51D"/>
<path transform="translate(419,403)" d="m0 0 10 1v3h-7l-4-1z" fill="#C76A19"/>
<path transform="translate(468,707)" d="m0 0 4 1 1 3h3l3 3 2 1-1 3-11-9z" fill="#FEECA3"/>
<path transform="translate(607,1111)" d="m0 0h6v2l-3 1h-10l1-2z" fill="#FEFEEA"/>
<path transform="translate(502,1095)" d="m0 0 6 4-4 2h-5z" fill="#FEFEE7"/>
<path transform="translate(1145,998)" d="m0 0h7l-1 8-5-5z" fill="#64C59E"/>
<path transform="translate(1243,551)" d="m0 0h1l-1 7-2 3h-2l-1 3-1-2z" fill="#68C8A0"/>
<path transform="translate(389,443)" d="m0 0h17l-1 2-7 1-3-1-6-1z" fill="#F09D12"/>
<path transform="translate(374,918)" d="m0 0 4 1h-2l4 6 1 5-4-4-3-6z" fill="#E89019"/>
<path transform="translate(1208,916)" d="m0 0h8l-1 4h-4z" fill="#16917B"/>
<path transform="translate(549,521)" d="m0 0 3 4-1 2h-2l2 1-1 2-3-1v-2l-3-1 3-1z" fill="#E27616"/>
<path transform="translate(963,516)" d="m0 0 1 3-4 10-2-1 1-7 3-1z" fill="#F2A824"/>
<path transform="translate(542,423)" d="m0 0 3 4v2h-2l2 4-1 4-3-9z" fill="#FEFEE6"/>
<path transform="translate(435,368)" d="m0 0h11v1l-9 2-6 1z" fill="#FBC74B"/>
<path transform="translate(1082,338)" d="m0 0 2 1-2 9-2-1-1-5z" fill="#51B592"/>
<path transform="translate(1110,241)" d="m0 0 9 6 5 5-5-2-9-7z" fill="#FFFFE8"/>
<path transform="translate(442,1332)" d="m0 0h11l5 2v1h-8l-8-2z" fill="#49AC8C"/>
<path transform="translate(1216,1241)" d="m0 0 9 3 1 5h-2l-5-5z" fill="#FEFEFD"/>
<path transform="translate(176,1220)" d="m0 0 1 2-1 5-7-4 3-2z" fill="#FEFEFE"/>
<path transform="translate(553,543)" d="m0 0 5 1 1 5-4-1-2-2z" fill="#399774"/>
<path transform="translate(973,488)" d="m0 0h2l-1 6-4 4-1-2z" fill="#FEF3B9"/>
<path transform="translate(475,317)" d="m0 0 3 1 1 4h-3l-1-2-5 5-2-1z" fill="#EA9B23"/>
</svg>
