<svg xmlns="http://www.w3.org/2000/svg" version="1.1" xmlns:xlink="http://www.w3.org/1999/xlink" xmlns:svgjs="http://svgjs.dev/svgjs" width="1440" height="560" preserveAspectRatio="none" viewBox="0 0 1440 560"><g mask="url(&quot;#SvgjsMask1000&quot;)" fill="none"><rect width="1440" height="560" x="0" y="0" fill="#0e2a47"></rect><path d="M1297.16 444.87a17.64 17.64 0 1 0 19.82-29.18z" stroke="#e73635"></path><path d="M1034.51 508.44L1087.22 508.44L1087.22 561.15L1034.51 561.15z" fill="#e73635"></path><path d="M886.35 172.73L912.49 172.73L912.49 225.44L886.35 225.44z" stroke="#e73635"></path><path d="M423.88 112.88L451.6 112.88L451.6 132.85L423.88 132.85z" stroke="#e73635"></path><path d="M892.07 470.34L944.61 470.34L944.61 491.78L892.07 491.78z" stroke="#d3b714"></path><path d="M1271.96 223.37L1287.43 223.37L1287.43 238.84L1271.96 238.84z" stroke="#d3b714"></path><path d="M16.02 229.23a16.94 16.94 0 1 0 6.47-33.26z" fill="#e73635"></path><path d="M534.27 46.74L554.08 46.74L554.08 66.55L534.27 66.55z" fill="#037b0b"></path><path d="M244 437.55 a23.75 23.75 0 1 0 47.5 0 a23.75 23.75 0 1 0 -47.5 0z" fill="#037b0b"></path><path d="M659.06 216.38L684.03 216.38L684.03 241.35L659.06 241.35z" fill="#d3b714"></path><path d="M1176.77 160.44a33.48 33.48 0 1 0-63.59-20.98z" stroke="#e73635"></path><path d="M309.88-3.5a41.05 41.05 0 1 0 49.03 65.85z" fill="#e73635"></path><path d="M714.81 491.34L751.39 491.34L751.39 543.8L714.81 543.8z" stroke="#037b0b"></path><path d="M974.74 118.87a0.51 0.51 0 1 0 0.29-0.98z" fill="#e73635"></path><path d="M936.34 141.39L987.43 141.39L987.43 192.48L936.34 192.48z" fill="#037b0b"></path><path d="M923.33 443.48a26.56 26.56 0 1 0-49.24-19.92z" fill="#e73635"></path><path d="M1268.62 282.11L1270.09 282.11L1270.09 286.72L1268.62 286.72z" fill="#037b0b"></path><path d="M1292.17 169.7 a5.55 5.55 0 1 0 11.1 0 a5.55 5.55 0 1 0 -11.1 0z" stroke="#d3b714"></path><path d="M1239.25 370.91L1257.8 370.91L1257.8 389.46L1239.25 389.46z" fill="#037b0b"></path><path d="M1119.03 389.44L1172.74 389.44L1172.74 443.15L1119.03 443.15z" fill="#e73635"></path><path d="M1414.68 79.01L1449.75 79.01L1449.75 91.67L1414.68 91.67z" fill="#d3b714"></path><path d="M276.88 361.31L277.45 361.31L277.45 361.88L276.88 361.88z" stroke="#d3b714"></path><path d="M1234.73 287.98a33.71 33.71 0 1 0 26.6-61.95z" stroke="#037b0b"></path><path d="M66.85 83.41L74.87 83.41L74.87 86.83L66.85 86.83z" stroke="#e73635"></path><path d="M1204.58 522.74L1248.76 522.74L1248.76 566.92L1204.58 566.92z" stroke="#d3b714"></path><path d="M1340.77 38.45a39.74 39.74 0 1 0-67.31-42.26z" fill="#d3b714"></path><path d="M833.6 520.02L840.81 520.02L840.81 527.23L833.6 527.23z" stroke="#d3b714"></path><path d="M701.85 467.15a24.9 24.9 0 1 0 44.17 23z" stroke="#037b0b"></path><path d="M177.84 221.59a4.43 4.43 0 1 0-8.85-0.26z" stroke="#037b0b"></path><path d="M879.15 480.91L896.94 480.91L896.94 482.1L879.15 482.1z" fill="#037b0b"></path><path d="M173.68 129.69a23.15 23.15 0 1 0 45.76 7.04z" fill="#037b0b"></path><path d="M1146.95 280.12 a55.76 55.76 0 1 0 111.52 0 a55.76 55.76 0 1 0 -111.52 0z" stroke="#037b0b"></path><path d="M1384.21 337.09L1426.16 337.09L1426.16 379.04L1384.21 379.04z" fill="#d3b714"></path></g><defs><mask id="SvgjsMask1000"><rect width="1440" height="560" fill="#ffffff"></rect></mask></defs></svg>